<svg width="24" height="24" viewBox="0 0 24 24" fill="none" xmlns="http://www.w3.org/2000/svg">
<path fill-rule="evenodd" clip-rule="evenodd" d="M12.1939 0C9.02703 0 8.62993 0.0134233 7.3862 0.0701713C6.14505 0.12678 5.2974 0.323917 4.55569 0.612193C3.7889 0.910144 3.13861 1.30886 2.49032 1.95711C1.84206 2.60541 1.44335 3.2557 1.1454 4.02249C0.85712 4.76419 0.659984 5.61185 0.603374 6.85299C0.546626 8.09673 0.533203 8.49382 0.533203 11.6607C0.533203 14.8275 0.546626 15.2246 0.603374 16.4684C0.659984 17.7095 0.85712 18.5572 1.1454 19.2989C1.44335 20.0657 1.84206 20.7159 2.49032 21.3642C3.13861 22.0125 3.7889 22.4112 4.55569 22.7092C5.2974 22.9974 6.14505 23.1946 7.3862 23.2512C8.62993 23.3079 9.02703 23.3213 12.1939 23.3213C15.3607 23.3213 15.7578 23.3079 17.0016 23.2512C18.2427 23.1946 19.0904 22.9974 19.8321 22.7092C20.5989 22.4112 21.2491 22.0125 21.8974 21.3642C22.5457 20.7159 22.9444 20.0657 23.2424 19.2989C23.5306 18.5572 23.7278 17.7095 23.7844 16.4684C23.8411 15.2246 23.8546 14.8275 23.8546 11.6607C23.8546 8.49382 23.8411 8.09673 23.7844 6.85299C23.7278 5.61185 23.5306 4.76419 23.2424 4.02249C22.9444 3.2557 22.5457 2.60541 21.8974 1.95711C21.2491 1.30886 20.5989 0.910144 19.8321 0.612193C19.0904 0.323917 18.2427 0.12678 17.0016 0.0701713C15.7578 0.0134233 15.3607 0 12.1939 0ZM12.194 2.10107C15.3075 2.10107 15.6763 2.11296 16.9058 2.16906C18.0427 2.22091 18.6602 2.41087 19.0711 2.57056C19.6153 2.78209 20.0038 3.03477 20.4118 3.44284C20.8199 3.85086 21.0726 4.2393 21.2841 4.78359C21.4438 5.19448 21.6337 5.81191 21.6856 6.94881C21.7417 8.17838 21.7536 8.5472 21.7536 11.6607C21.7536 14.7743 21.7417 15.1431 21.6856 16.3726C21.6337 17.5095 21.4438 18.127 21.2841 18.5379C21.0726 19.0821 20.8199 19.4706 20.4118 19.8786C20.0038 20.2867 19.6153 20.5394 19.0711 20.7509C18.6602 20.9106 18.0427 21.1005 16.9058 21.1524C15.6765 21.2085 15.3077 21.2204 12.194 21.2204C9.08017 21.2204 8.71145 21.2085 7.48201 21.1524C6.34511 21.1005 5.72769 20.9106 5.3168 20.7509C4.77251 20.5394 4.38406 20.2867 3.97604 19.8786C3.56802 19.4706 3.31529 19.0821 3.10376 18.5379C2.94407 18.127 2.75411 17.5095 2.70227 16.3726C2.64617 15.1431 2.63427 14.7743 2.63427 11.6607C2.63427 8.5472 2.64617 8.17838 2.70227 6.94881C2.75411 5.81191 2.94407 5.19448 3.10376 4.78359C3.31529 4.2393 3.56798 3.85086 3.97604 3.44284C4.38406 3.03477 4.77251 2.78209 5.3168 2.57056C5.72769 2.41087 6.34511 2.22091 7.48201 2.16906C8.71159 2.11296 9.0804 2.10107 12.194 2.10107ZM6.20606 11.6608C6.20606 8.35371 8.88692 5.67286 12.194 5.67286C15.501 5.67286 18.1819 8.35371 18.1819 11.6608C18.1819 14.9678 15.501 17.6487 12.194 17.6487C8.88692 17.6487 6.20606 14.9678 6.20606 11.6608ZM12.1939 15.5476C10.0472 15.5476 8.30699 13.8074 8.30699 11.6607C8.30699 9.514 10.0472 7.77379 12.1939 7.77379C14.3406 7.77379 16.0808 9.514 16.0808 11.6607C16.0808 13.8074 14.3406 15.5476 12.1939 15.5476ZM18.4183 6.83545C19.1911 6.83545 19.8176 6.209 19.8176 5.43619C19.8176 4.66338 19.1911 4.03689 18.4183 4.03689C17.6456 4.03689 17.0191 4.66338 17.0191 5.43619C17.0191 6.209 17.6456 6.83545 18.4183 6.83545Z" fill="white"/>
</svg>
