<svg width="26" height="23" viewBox="0 0 26 23" fill="none" xmlns="http://www.w3.org/2000/svg">
<path d="M0.952324 11.2251L6.82758 13.3733L9.10167 20.5378C9.24718 20.9967 9.81995 21.1663 10.2001 20.8618L13.4751 18.2463C13.8184 17.9723 14.3073 17.9587 14.6661 18.2138L20.573 22.415C20.9797 22.7046 21.5558 22.4863 21.6578 22.0048L25.9849 1.61447C26.0963 1.08858 25.5688 0.649871 25.0577 0.843541L0.945439 9.95593C0.3504 10.1807 0.355585 11.006 0.952324 11.2251ZM8.73518 12.2298L20.2176 5.30169C20.424 5.17755 20.6363 5.4509 20.4591 5.61193L10.9827 14.2413C10.6497 14.5451 10.4348 14.9515 10.3739 15.3928L10.0511 17.7363C10.0084 18.0492 9.5597 18.0802 9.47156 17.7774L8.23006 13.5039C8.08787 13.0165 8.29508 12.4959 8.73518 12.2298Z" fill="white"/>
</svg>
