<svg width="85" height="40" viewBox="0 0 85 40" fill="none" xmlns="http://www.w3.org/2000/svg">
<rect x="0.5" y="0.5" width="84" height="39" rx="4.5" fill="white" stroke="#EDEEEF"/>
<path d="M70.4641 11C71.7898 11 73.0512 11.3018 74.1831 11.8416C74.3606 11.9212 74.5393 12.0164 74.7162 12.1117L73.9401 12.7948L72.7766 11.6036L70.7717 13.3504L69.5911 12.0957L65.9044 15.3515L68.2647 17.9084L67.3433 18.7022L69.672 21.2592L68.7505 22.0527L72.0815 25.6896L74.053 23.9108L75.7678 25.8171C75.4279 26.0712 75.056 26.3258 74.6523 26.5478C73.4232 27.2306 72.0001 27.6269 70.4804 27.6269C65.8071 27.6269 62.0079 23.8955 62.0079 19.3063C61.9914 14.7481 65.7912 11 70.4641 11ZM68.9116 18.7977L70.9328 17.0189L72.7441 19.004L70.7225 20.7826L68.9116 18.7977ZM70.351 22.2282L72.3558 20.4336L74.1831 22.4186L72.1618 24.1974L70.351 22.2282ZM67.4733 15.4152L69.494 13.6364L71.3049 15.6215L69.2836 17.4002L67.4733 15.4152ZM71.1754 14.462L72.6792 13.1281L74.0378 14.6051L72.5339 15.9548L71.1754 14.462ZM73.8598 20.5763L75.3631 19.2422L76.7216 20.7347L75.2176 22.0695L73.8598 20.5763ZM75.1854 23.5781L76.6894 22.2438L78.0468 23.7208L76.5434 25.0703L75.1854 23.5781ZM75.8 16.7171L76.8023 15.8277L77.7075 16.8127L76.7053 17.7018L75.8 16.7171ZM74.5064 13.7791L75.5088 12.8741L76.4147 13.8744L75.4115 14.7638L74.5064 13.7791ZM77.0772 19.6554L78.0795 18.7661L79.0012 19.7507L77.9829 20.6398L77.0772 19.6554ZM72.5661 17.4479L74.0701 16.1138L75.4279 17.5905L73.9246 18.9248L72.5661 17.4479Z" fill="#036CB5"/>
<mask id="mask0" mask-type="alpha" maskUnits="userSpaceOnUse" x="6" y="14" width="9" height="9">
<path d="M6 14.4551V22.1313H14.8377V14.4551H6Z" fill="white"/>
</mask>
<g mask="url(#mask0)">
<path d="M10.4352 16.7281H10.3589L8.92709 22.1313H7.75678L6 14.4551H7.21427L8.42883 20.1829H8.50467L9.9141 14.4551H10.8795L12.3868 20.1829H12.4627L13.5689 14.4551H14.8377L13.0805 22.1313H11.9093L10.4352 16.7281Z" fill="#036CB5"/>
</g>
<path d="M16.3808 18.8635H18.8635C18.8096 17.727 18.2563 17.2727 17.671 17.2727C17.0096 17.2727 16.4996 17.7815 16.3808 18.8635ZM19.7309 20.8996V21.7226C19.243 22.004 18.5927 22.2207 17.8116 22.2207C15.9903 22.2207 15.2422 21.0947 15.2422 19.3842C15.2422 17.7379 16.0769 16.5469 17.7035 16.5469C19.0586 16.5469 19.894 17.4244 19.894 19.1888V19.5894H16.3591C16.3591 20.8883 16.8901 21.4622 18.0074 21.4622C18.5927 21.4622 19.1349 21.2562 19.7309 20.8996Z" fill="#036CB5"/>
<path d="M22.4137 21.3521C22.7608 21.5036 23.1406 21.526 23.4121 21.526C24.2143 21.526 24.8209 21.0273 24.8209 19.2738C24.8209 17.8988 24.3222 17.4548 23.596 17.4548C23.1619 17.4548 22.8476 17.5743 22.4137 17.812V21.3521H22.4137ZM22.4251 17.0111C22.7496 16.8384 23.3025 16.6103 23.8883 16.6103C25.233 16.6103 25.9597 17.5413 25.9597 19.2738C25.9597 21.2985 24.9836 22.2838 23.4121 22.2838C22.837 22.2838 21.9478 22.0997 21.2969 21.7525V14.1961L22.4251 13.9258V17.0111H22.4251Z" fill="#036CB5"/>
<path d="M30.8426 20.5015H30.8969L33.2169 14.4492H34.5622V22.1261H33.3912V16.5606H33.2934L31.081 22.1261H30.3877L28.1748 16.6907H28.0776V22.1261H27.1016V14.4492H28.414L30.8426 20.5015Z" fill="#036CB5"/>
<path d="M39.3445 19.3839C39.3445 17.9224 38.7485 17.3055 38.0112 17.3055C37.2958 17.3055 36.6772 17.9224 36.6772 19.3839C36.6772 20.8673 37.2417 21.4622 38.0112 21.4622C38.7807 21.4622 39.3445 20.8673 39.3445 19.3839ZM35.5391 19.3839C35.5391 17.4885 36.5803 16.5469 38.0112 16.5469C39.443 16.5469 40.4836 17.4885 40.4836 19.3839C40.4836 21.2349 39.497 22.2207 38.0112 22.2207C36.5257 22.2207 35.5391 21.2349 35.5391 19.3839Z" fill="#036CB5"/>
<path d="M41.3398 17.3487C41.8277 17.0559 42.8583 16.5469 44.105 16.5469C45.4061 16.5469 45.8932 17.0559 45.8932 18.1707V22.0906H44.7663V18.4201C44.7663 17.5649 44.3441 17.4134 43.7904 17.4134C43.3572 17.4134 42.8035 17.6086 42.4676 17.8034V22.0906H41.3399V17.3487H41.3398Z" fill="#036CB5"/>
<path d="M48.2828 18.8635H50.7657C50.7123 17.727 50.1587 17.2727 49.5731 17.2727C48.9115 17.2727 48.4026 17.7815 48.2828 18.8635ZM51.633 20.8996V21.7226C51.1453 22.004 50.4947 22.2207 49.7138 22.2207C47.8932 22.2207 47.1445 21.0947 47.1445 19.3842C47.1445 17.7379 47.979 16.5469 49.6057 16.5469C50.9616 16.5469 51.7969 17.4244 51.7969 19.1888V19.5894H48.2615C48.2615 20.8883 48.7929 21.4622 49.9097 21.4622C50.4947 21.4622 51.0377 21.2562 51.633 20.8996Z" fill="#036CB5"/>
<path d="M56.2993 16.5469H57.4599L55.4971 21.9596C54.9541 23.4538 54.2935 24.2335 53.0467 24.2335V23.3462C53.7845 23.3462 54.2392 22.7613 54.5 21.9596L52.418 16.5469H53.611L54.9988 20.5311H55.0639L56.2993 16.5469Z" fill="#036CB5"/>
<path d="M17.7133 27.1193V26.6518C18.1154 26.8546 18.498 26.9564 18.8606 26.9564C19.1625 26.9564 19.3939 26.9014 19.5555 26.7904C19.7172 26.6801 19.7981 26.5309 19.7981 26.3423C19.7981 26.1538 19.7317 26.0124 19.5987 25.9183C19.466 25.8244 19.218 25.7081 18.8553 25.5703C18.7294 25.5233 18.649 25.4927 18.6127 25.4781C18.577 25.4639 18.5069 25.4346 18.4026 25.3913C18.2986 25.3481 18.2303 25.3152 18.1981 25.2936C18.1657 25.2713 18.1111 25.2385 18.0337 25.1956C17.9566 25.1517 17.9046 25.113 17.8775 25.0792C17.8508 25.0444 17.8138 25.0005 17.7671 24.948C17.7205 24.8958 17.6889 24.8438 17.6727 24.7909C17.6567 24.7384 17.6412 24.6777 17.627 24.6087C17.6128 24.5396 17.6055 24.4656 17.6055 24.3859C17.6055 24.0778 17.7196 23.8303 17.9475 23.6416C18.1758 23.4536 18.4907 23.3594 18.8931 23.3594C19.2485 23.3594 19.6025 23.4244 19.9541 23.555V24.0491C19.613 23.8822 19.2719 23.7996 18.9306 23.7996C18.6901 23.7996 18.5105 23.8495 18.392 23.9508C18.2734 24.0522 18.2141 24.1862 18.2141 24.3531C18.2141 24.5307 18.2734 24.6654 18.392 24.758C18.5105 24.8509 18.7225 24.9532 19.0278 25.0652C19.5519 25.2572 19.913 25.431 20.1103 25.587C20.308 25.7423 20.4067 25.9748 20.4067 26.2823C20.4067 26.605 20.2712 26.8688 20 27.0734C19.7288 27.2781 19.3564 27.3805 18.8822 27.3805C18.4478 27.3805 18.0581 27.2931 17.7133 27.1193ZM23.1945 27.2982H22.6829L22.6451 26.9831C22.336 27.237 22.0273 27.3639 21.7184 27.3639C21.46 27.3639 21.2597 27.2944 21.118 27.1545C20.9758 27.0151 20.905 26.839 20.905 26.6247C20.905 26.5122 20.9256 26.4047 20.967 26.3014C21.0083 26.198 21.0766 26.0979 21.1717 26.0001C21.2668 25.9021 21.4104 25.8235 21.6025 25.7635C21.7946 25.7034 22.0255 25.6737 22.2949 25.6737H22.629V25.527C22.629 25.2844 22.5841 25.1191 22.4943 25.0299C22.4043 24.9411 22.2535 24.8967 22.0417 24.8967C21.7832 24.8967 21.4652 25.0031 21.0883 25.2174V24.7828C21.4762 24.6053 21.8567 24.5159 22.2301 24.5159C22.5927 24.5159 22.8444 24.5906 22.9842 24.7394C23.1245 24.8876 23.1945 25.1125 23.1945 25.4125V27.2982ZM22.6344 26.0539H22.3487C21.7596 26.0539 21.4652 26.2298 21.4652 26.5813C21.4652 26.7049 21.5046 26.7936 21.5837 26.8501C21.6629 26.9064 21.7616 26.9342 21.8803 26.9342C22.0308 26.9342 22.1764 26.8979 22.3164 26.8253C22.4564 26.7533 22.5626 26.67 22.6344 26.5758V26.0539H22.6344ZM24.0699 28.3854V24.9134C24.228 24.7935 24.4144 24.6971 24.6301 24.6248C24.8457 24.5529 25.0573 24.5159 25.2659 24.5159C26.0126 24.5159 26.3863 24.9708 26.3863 25.8804C26.3863 26.3513 26.2894 26.7118 26.0953 26.9613C25.9014 27.2116 25.6234 27.336 25.2603 27.336C25.0089 27.336 24.7988 27.2726 24.6301 27.1466V28.3854H24.0699ZM24.6247 25.0975V26.7446C24.6966 26.8131 24.7871 26.8642 24.8967 26.8988C25.0063 26.9332 25.1025 26.9504 25.185 26.9504C25.3824 26.9504 25.5379 26.8738 25.651 26.7199C25.7642 26.5656 25.8205 26.2859 25.8205 25.8804C25.8205 25.5508 25.7625 25.3092 25.6457 25.1579C25.529 25.0052 25.3771 24.9295 25.1903 24.9295C24.9787 24.9295 24.7902 24.9853 24.6247 25.0975ZM27.6711 24.5438V27.2982H27.1109V24.6794L27.6711 24.5438ZM27.0246 23.7446C27.0246 23.6468 27.0614 23.5611 27.1349 23.4864C27.2088 23.4121 27.2941 23.3749 27.3907 23.3749C27.4879 23.3749 27.5732 23.4121 27.647 23.4864C27.7206 23.5611 27.7574 23.6468 27.7574 23.7446C27.7574 23.8424 27.7206 23.9287 27.647 24.0033C27.5732 24.0768 27.4879 24.1141 27.3907 24.1141C27.2941 24.1141 27.2088 24.0768 27.1349 24.0033C27.0614 23.9287 27.0246 23.8424 27.0246 23.7446ZM29.7693 26.9831C30.0281 26.9831 30.3133 26.8888 30.6258 26.7008V27.1138C30.3386 27.2807 30.0207 27.3639 29.6724 27.3639C29.2342 27.3639 28.912 27.2389 28.7055 26.9888C28.499 26.7386 28.3957 26.3892 28.3957 25.94C28.3957 25.5123 28.5017 25.1678 28.7134 24.9079C28.9255 24.6471 29.2269 24.5159 29.6183 24.5159C29.9634 24.5159 30.2306 24.6285 30.4214 24.8534C30.6116 25.0783 30.7065 25.4075 30.7065 25.8421V26.0434H28.9506C28.9506 26.366 29.0171 26.6035 29.1498 26.7548C29.2827 26.9076 29.4892 26.9831 29.7693 26.9831ZM29.6021 24.8806C29.4336 24.8806 29.2916 24.9477 29.1767 25.0812C29.0619 25.2154 28.9899 25.415 28.9613 25.6787H30.1948C30.1803 25.411 30.1177 25.2114 30.0063 25.0792C29.8951 24.9466 29.7604 24.8806 29.6021 24.8806ZM31.4203 27.2982V24.9185C31.862 24.6502 32.3199 24.5159 32.7942 24.5159C33.1138 24.5159 33.3416 24.5816 33.4781 24.7121C33.6146 24.8426 33.6828 25.0489 33.6828 25.3313V27.2982H33.1227V25.4563C33.1227 25.2572 33.0813 25.123 32.9988 25.0545C32.9161 24.9853 32.7959 24.9511 32.6378 24.9511C32.4224 24.9511 32.2033 25.0166 31.9807 25.1469V27.2982H31.4203V27.2982ZM35.0915 24.6471H35.9427L35.808 25.0166H35.0915V26.4508C35.0915 26.8131 35.246 26.9942 35.5548 26.9942C35.6733 26.9942 35.7935 26.9691 35.9161 26.9182V27.2657C35.7471 27.331 35.5459 27.3639 35.3125 27.3639C35.0431 27.3639 34.8456 27.2868 34.7198 27.1323C34.5942 26.979 34.5313 26.7769 34.5313 26.5263V24.2881L35.0915 23.8801V24.6471H35.0915ZM37.0393 24.5438V27.2982H36.4789V24.6794L37.0393 24.5438ZM36.3928 23.7446C36.3928 23.6468 36.4297 23.5611 36.5028 23.4864C36.5765 23.4121 36.6617 23.3749 36.759 23.3749C36.8558 23.3749 36.9413 23.4121 37.0147 23.4864C37.0885 23.5611 37.1253 23.6468 37.1253 23.7446C37.1253 23.8424 37.0885 23.9287 37.0147 24.0033C36.9413 24.0768 36.8558 24.1141 36.759 24.1141C36.6617 24.1141 36.5765 24.0768 36.5028 24.0033C36.4296 23.9287 36.3928 23.8424 36.3928 23.7446ZM40.8531 24.7337V25.1678C40.5837 24.9869 40.3107 24.8967 40.0344 24.8967C39.8943 24.8967 39.7794 24.9239 39.6894 24.9784C39.5997 25.0323 39.5548 25.1196 39.5548 25.2385C39.5548 25.3515 39.6041 25.4409 39.7028 25.5078C39.8017 25.575 39.957 25.643 40.1691 25.7113C40.2876 25.7512 40.3763 25.7822 40.4354 25.8038C40.4949 25.8261 40.5728 25.8624 40.6699 25.9128C40.7668 25.9637 40.8397 26.0139 40.8881 26.065C40.9366 26.1159 40.9805 26.1825 41.0202 26.2661C41.0597 26.3494 41.0792 26.4415 41.0792 26.543C41.0792 26.7932 40.9795 26.9923 40.7805 27.1409C40.5811 27.2894 40.3143 27.3639 39.9805 27.3639C39.6069 27.3639 39.296 27.2842 39.0484 27.1243V26.7009C39.3643 26.8889 39.6535 26.9831 39.9159 26.9831C40.3107 26.9831 40.5083 26.8531 40.5083 26.5919C40.5083 26.5415 40.4966 26.494 40.4733 26.4508C40.4499 26.4073 40.423 26.372 40.3926 26.3447C40.3619 26.3176 40.3124 26.2869 40.2442 26.252C40.1759 26.2182 40.1186 26.193 40.0719 26.1764C40.0253 26.1603 39.9516 26.134 39.8512 26.0979C39.7038 26.0434 39.5871 25.9965 39.5008 25.9565C39.4145 25.9163 39.3286 25.8648 39.2423 25.8017C39.156 25.7383 39.093 25.6626 39.0538 25.5759C39.0144 25.4893 38.9946 25.3857 38.9946 25.2663C38.9946 25.1141 39.0304 24.9841 39.1022 24.8756C39.174 24.7662 39.2676 24.6884 39.3823 24.6415C39.4972 24.5942 39.6023 24.5614 39.6974 24.5438C39.7928 24.5251 39.887 24.5159 39.9805 24.5159C40.2859 24.5159 40.5766 24.5885 40.8531 24.7337ZM43.8293 27.2982H43.3177L43.2797 26.9831C42.9707 27.237 42.6621 27.3639 42.3534 27.3639C42.0948 27.3639 41.8946 27.2944 41.7527 27.1545C41.6107 27.0151 41.5399 26.839 41.5399 26.6247C41.5399 26.5122 41.5605 26.4047 41.6019 26.3014C41.6432 26.198 41.7114 26.0979 41.8066 26.0001C41.902 25.9021 42.0453 25.8235 42.2374 25.7635C42.4297 25.7034 42.6605 25.6737 42.9295 25.6737H43.2639V25.527C43.2639 25.2844 43.2187 25.1191 43.1294 25.0299C43.039 24.9411 42.8883 24.8967 42.6768 24.8967C42.418 24.8967 42.1001 25.0031 41.7231 25.2174V24.7828C42.1111 24.6053 42.4916 24.5159 42.865 24.5159C43.2279 24.5159 43.479 24.5906 43.6191 24.7394C43.7591 24.8876 43.8293 25.1125 43.8293 25.4125V27.2982H43.8293ZM43.2695 26.0539H42.9837C42.3946 26.0539 42.1001 26.2298 42.1001 26.5813C42.1001 26.7049 42.1396 26.7936 42.2186 26.8501C42.2977 26.9064 42.3962 26.9342 42.515 26.9342C42.6657 26.9342 42.8107 26.8979 42.9513 26.8253C43.0913 26.7533 43.1975 26.67 43.2695 26.5758V26.0539H43.2695ZM45.2383 24.6471H46.0893L45.9543 25.0166H45.2383V26.4508C45.2383 26.8131 45.3926 26.9942 45.701 26.9942C45.8197 26.9942 45.9396 26.9691 46.0623 26.9182V27.2657C45.8934 27.331 45.6926 27.3639 45.4585 27.3639C45.1896 27.3639 44.9921 27.2868 44.8664 27.1323C44.7406 26.979 44.6775 26.7769 44.6775 26.5263V24.2881L45.2383 23.8801V24.6471H45.2383Z" fill="#B6B6B6"/>
</svg>
