<svg width="40" height="40" viewBox="0 0 40 40" fill="none" xmlns="http://www.w3.org/2000/svg">
<circle cx="20" cy="20" r="20" fill="#0F0216"/>
<path fill-rule="evenodd" clip-rule="evenodd" d="M23.309 27.1999H27.4249C28.2935 27.1999 29 26.4935 29 25.625C29 25.1641 28.7993 24.7277 28.4402 24.4217C27.0803 23.2714 26.3 21.5903 26.3 19.8092V17.2999C26.3 13.8261 23.4739 11 19.9999 11C16.5261 11 13.7 13.8261 13.7 17.2999V19.8092C13.7 21.5903 12.9197 23.2714 11.5507 24.4279C11.2007 24.7277 11 25.1641 11 25.625C11 26.4935 11.7065 27.1999 12.5749 27.1999H16.6947C17.0082 28.7387 18.3718 29.8998 20.0018 29.8998C21.6319 29.8998 22.9955 28.7387 23.309 27.1999ZM22.7156 25.85C22.711 25.8499 22.7064 25.8498 22.7018 25.8498C22.6972 25.8498 22.6927 25.8499 22.6881 25.85H17.3156C17.311 25.8499 17.3064 25.8498 17.3018 25.8498C17.2973 25.8498 17.2927 25.8499 17.2881 25.85H12.5749C12.4527 25.85 12.35 25.7473 12.35 25.625C12.35 25.535 12.3994 25.4792 12.4311 25.4521C14.0952 24.0455 15.05 21.988 15.05 19.8092V17.2999C15.05 14.5703 17.2703 12.35 19.9999 12.35C22.7297 12.35 24.95 14.5703 24.95 17.2999V19.8092C24.95 21.988 25.9048 24.0455 27.5707 25.454C27.6004 25.4792 27.65 25.535 27.65 25.625C27.65 25.7473 27.5473 25.85 27.4249 25.85H22.7156ZM18.0925 27.1999H21.9112C21.6327 27.9858 20.8822 28.5498 20.0018 28.5498C19.1216 28.5498 18.371 27.9858 18.0925 27.1999Z" fill="white"/>
</svg>
