<svg width="24" height="24" viewBox="0 0 24 24" fill="none" xmlns="http://www.w3.org/2000/svg">
<path opacity="0.5" d="M18.4237 0H4.57566C3.70272 0 3 0.70614 3 1.57839V21.66C3 22.5295 3.70272 23.2377 4.57566 23.2377H18.4237C19.2939 23.2377 20 22.5302 20 21.66V1.57839C20.0014 0.70614 19.2945 0 18.4237 0ZM11.5003 22.6464C10.9822 22.6464 10.5632 22.2273 10.5632 21.7099C10.5632 21.1917 10.9822 20.772 11.5003 20.772C12.0171 20.772 12.4375 21.1917 12.4375 21.7099C12.4375 22.2273 12.0171 22.6464 11.5003 22.6464ZM18.4052 19.951H4.59548V1.89626H18.4052V19.951V19.951Z" fill="white"/>
<path opacity="0.5" d="M18.4237 0H4.57566C3.70272 0 3 0.70614 3 1.57839V21.66C3 22.5295 3.70272 23.2377 4.57566 23.2377H18.4237C19.2939 23.2377 20 22.5302 20 21.66V1.57839C20.0014 0.70614 19.2945 0 18.4237 0ZM11.5003 22.6464C10.9822 22.6464 10.5632 22.2273 10.5632 21.7099C10.5632 21.1917 10.9822 20.772 11.5003 20.772C12.0171 20.772 12.4375 21.1917 12.4375 21.7099C12.4375 22.2273 12.0171 22.6464 11.5003 22.6464ZM18.4052 19.951H4.59548V1.89626H18.4052V19.951V19.951Z" fill="white"/>
</svg>
