<svg width="385" height="376" viewBox="0 0 385 376" fill="none" xmlns="http://www.w3.org/2000/svg">
<mask id="mask0" mask-type="alpha" maskUnits="userSpaceOnUse" x="232" y="3" width="133" height="90">
<rect width="143.624" height="28.9013" transform="matrix(0.819148 -0.462723 0.492307 0.794446 232.998 69.8291)" fill="white"/>
</mask>
<g mask="url(#mask0)">
<path opacity="0.15" d="M298.515 48.4602L346.428 22.3188L279.473 62.1822L336.791 32.086L268.607 71.7866L327.901 40.9342L252.2 84.1979L246.556 73.7553L318.084 23.4755L264.223 63.503L328.087 19.5115L280.632 53.8144L341.504 13.4989L299.827 42.8129L360.555 7.94533L298.515 48.4602Z" fill="url(#paint0_linear)"/>
<path d="M247.264 83.7974C249.476 82.5594 249.961 79.4594 248.348 76.8735C246.735 74.2876 243.635 73.195 241.423 74.4331C239.211 75.6712 238.726 78.7711 240.338 81.357C241.951 83.9428 245.052 85.0355 247.264 83.7974Z" fill="#CFD8DC"/>
</g>
<path d="M113.813 134.117C113.813 134.117 113.049 135.39 111.775 137.68C110.501 139.97 108.209 143.533 105.916 148.113C103.369 152.694 100.567 158.293 97.7645 165.163C94.9625 171.78 92.1603 179.669 90.6318 188.83C88.8487 197.737 88.594 207.916 90.8867 218.349C91.6509 220.894 92.1603 223.693 93.1794 226.238C93.6887 227.51 94.1983 228.783 94.7076 230.055C95.2172 231.328 95.9814 232.6 96.491 233.872C97.255 235.145 97.7646 236.417 98.5288 237.689C99.293 238.962 100.312 240.234 101.076 241.507L104.388 244.815C105.662 245.833 106.935 246.596 108.209 247.614C113.558 250.922 119.927 252.704 126.295 252.704C132.664 252.704 138.777 251.431 144.636 248.886C147.438 247.614 150.495 245.833 153.042 243.797C155.59 241.761 157.882 238.962 159.666 235.654C161.194 232.345 162.213 228.274 161.194 224.457C160.43 220.639 158.137 216.822 154.826 214.532C151.514 212.242 147.438 211.224 143.363 211.733C142.344 211.733 141.325 212.242 140.306 212.242C139.287 212.496 138.523 213.005 137.504 213.26C135.975 214.023 134.447 214.786 133.173 216.059C130.371 218.095 127.824 220.639 126.04 223.439C124.257 226.492 122.983 229.546 122.219 232.854C120.691 239.471 121.455 246.087 123.238 252.195C125.021 258.302 127.824 263.646 131.39 268.481C138.523 278.151 148.457 285.277 158.901 288.585C161.449 289.603 164.251 290.112 166.798 290.621C168.072 290.875 169.346 291.13 170.619 291.384C171.893 291.639 173.167 291.639 174.44 291.639C175.714 291.639 176.988 291.893 178.262 291.893C179.535 291.893 180.809 291.893 182.083 291.639C184.63 291.639 186.923 291.13 189.47 290.875C199.15 289.348 207.301 285.022 213.415 280.442C219.784 275.861 224.369 271.28 228.19 267.718C231.756 264.155 234.558 261.101 236.596 259.32C238.379 257.539 239.398 256.521 239.398 256.521L231.502 248.123C231.502 248.123 230.483 249.141 228.445 251.177C226.662 253.213 223.859 256.012 220.293 259.829C216.727 263.392 212.651 267.718 207.302 271.535C201.952 275.352 195.584 278.915 187.687 280.442C180.045 281.968 170.874 281.46 162.213 278.915C153.552 276.115 145.146 270.517 139.032 262.628C135.975 258.556 133.428 254.23 131.899 249.395C130.371 244.56 129.862 239.471 130.88 234.636C131.899 229.801 134.447 225.729 138.268 222.675C139.287 221.912 140.306 221.403 141.325 220.639L142.598 220.131C143.108 220.131 143.617 219.876 144.127 219.876C146.165 219.622 147.948 220.131 149.731 221.148C153.042 223.439 154.316 228.019 152.278 232.091C150.24 236.162 145.91 239.471 141.325 241.761C131.899 246.342 120.181 246.596 112.03 241.507C111.011 240.743 109.992 240.234 109.228 239.471L106.68 236.926L104.642 234.127C103.878 233.109 103.369 231.836 102.859 230.819C102.35 229.801 101.586 228.528 101.076 227.51C100.567 226.238 100.057 225.22 99.8023 223.948C98.7834 221.657 98.2741 219.367 97.5099 217.077C95.2172 207.661 95.4719 198.5 96.7456 190.102C98.0192 181.704 100.567 174.07 103.114 167.708C105.662 161.092 108.209 155.493 110.756 151.167C113.049 146.587 115.087 143.278 116.36 140.734C117.634 138.443 118.398 137.171 118.398 137.171L113.813 134.117Z" fill="#B0BEC5"/>
<path fill-rule="evenodd" clip-rule="evenodd" d="M97.5106 165.165C94.7086 172.036 91.9064 179.925 90.3781 188.832C88.8497 197.739 88.3401 207.918 90.6328 218.351C90.8403 219.111 91.0291 219.853 91.2143 220.581C91.7113 222.533 92.1831 224.386 92.9255 226.24L94.4537 230.057C94.7085 230.693 95.0269 231.329 95.3454 231.966C95.6638 232.602 95.9823 233.238 96.2371 233.874C96.6189 234.51 96.9372 235.146 97.2555 235.782C97.5741 236.418 97.8926 237.055 98.2749 237.691C98.657 238.327 99.1027 238.964 99.5485 239.6C99.9943 240.236 100.44 240.872 100.822 241.509L104.134 244.817C104.771 245.326 105.408 245.771 106.045 246.217C106.682 246.662 107.318 247.107 107.955 247.616C112.54 250.415 117.635 251.942 122.984 252.451C124.768 258.558 127.57 263.902 131.136 268.738C138.269 278.408 148.203 285.279 158.647 288.841C160.984 289.775 163.535 290.28 165.907 290.75C166.121 290.793 166.334 290.835 166.544 290.877L170.366 291.641C171.002 291.641 171.639 291.704 172.276 291.768C172.913 291.831 173.55 291.895 174.187 291.895C174.823 291.895 175.46 291.959 176.097 292.022C176.734 292.086 177.371 292.15 178.008 292.15C179.281 291.895 180.555 291.895 181.829 291.895C183.61 291.895 185.391 291.646 187.085 291.41C187.814 291.308 188.527 291.208 189.216 291.132C198.896 289.35 207.048 285.024 213.161 280.698C219.529 276.372 224.114 271.792 227.935 267.975L227.936 267.974L236.342 259.576L239.145 256.777L238.89 256.523L238.635 256.777C237.333 257.915 235.72 259.572 233.794 261.549C232.705 262.668 231.517 263.888 230.229 265.175C229.657 265.708 229.068 266.264 228.458 266.84C224.995 270.109 220.869 274.004 215.454 277.899C209.34 282.479 201.189 286.805 191.509 288.332C190.623 288.421 189.769 288.54 188.924 288.658C187.337 288.879 185.783 289.096 184.121 289.096C182.848 289.35 181.574 289.35 180.3 289.35C179.663 289.35 179.027 289.287 178.39 289.223C177.753 289.159 177.116 289.096 176.479 289.096C175.205 289.096 173.932 289.096 172.658 288.841L168.837 288.078C168.626 288.036 168.414 287.994 168.2 287.951C165.828 287.481 163.277 286.976 160.94 286.042C150.496 282.734 140.561 275.608 133.429 265.938C129.862 261.103 127.06 255.505 125.277 249.652C119.928 249.143 114.833 247.616 110.247 244.817C109.611 244.308 108.974 243.862 108.337 243.417C107.7 242.972 107.063 242.526 106.426 242.017L103.115 238.709C102.733 238.073 102.287 237.436 101.841 236.8C101.395 236.164 100.95 235.528 100.568 234.892C100.185 234.256 99.867 233.62 99.5485 232.984C99.2301 232.347 98.9117 231.711 98.5295 231.075C98.2748 230.439 97.9562 229.802 97.6377 229.166C97.3194 228.53 97.0011 227.894 96.7464 227.258C96.2371 225.985 95.7275 224.713 95.2179 223.441C94.5634 221.806 94.1192 220.066 93.6826 218.357C93.4395 217.405 93.1988 216.462 92.9255 215.552C90.6328 205.118 90.8875 194.939 92.6706 186.033C94.199 176.871 97.0011 168.983 99.8033 162.366C102.605 155.495 105.408 149.897 107.955 145.316C109.545 142.138 111.136 139.45 112.386 137.337C112.938 136.405 113.424 135.584 113.814 134.883C113.814 134.755 113.878 134.692 113.941 134.628C114.005 134.564 114.069 134.501 114.069 134.374L113.559 134.119C113.559 134.119 113.05 135.392 111.521 137.682C111.131 138.383 110.645 139.204 110.093 140.137C108.843 142.25 107.253 144.938 105.662 148.115C103.115 152.696 100.313 158.549 97.5106 165.165ZM152.023 232.092C151.769 232.601 151.259 233.365 150.75 234.128C151.917 232.962 152.936 231.648 153.806 230.525L153.806 230.525L153.808 230.522C154.076 230.175 154.331 229.847 154.571 229.547C156.609 225.476 155.335 220.895 152.023 218.605C150.24 217.587 148.457 217.078 146.419 217.332C146.165 217.332 145.91 217.396 145.655 217.46L145.655 217.46C145.4 217.523 145.146 217.587 144.891 217.587L143.617 218.096C143.108 218.478 142.598 218.796 142.089 219.114C141.579 219.432 141.07 219.75 140.56 220.132C139.032 221.15 137.503 222.676 136.485 224.203L137.492 223.197L138.013 222.677C138.455 222.236 139.066 221.879 139.7 221.51L139.7 221.51C140.164 221.24 140.64 220.963 141.07 220.641L142.343 220.132C142.598 220.132 142.853 220.068 143.108 220.005L143.108 220.005C143.363 219.941 143.617 219.877 143.872 219.877C145.91 219.623 147.693 220.132 149.476 221.15C153.042 223.44 154.061 228.021 152.023 232.092ZM144.127 248.632C147.184 247.36 149.986 245.833 152.534 243.543C154.062 242.27 155.591 240.744 156.609 239.471C155.845 239.98 155.336 240.489 154.826 240.998C152.279 243.034 149.222 244.815 146.42 246.088C142.599 247.614 138.778 248.887 134.702 249.396C135.211 249.905 135.466 250.668 135.721 251.432L135.722 251.431C138.524 250.668 141.326 249.905 144.127 248.632ZM124.259 230.057C123.24 234.128 123.24 238.2 123.749 242.017C123.24 241.89 122.794 241.826 122.348 241.763L122.348 241.763C121.902 241.699 121.457 241.635 120.947 241.508C120.947 238.709 120.947 235.655 121.711 232.856C122.476 229.548 123.749 226.239 125.533 223.44C126.551 221.659 127.825 220.387 129.353 218.86C128.844 219.369 128.335 220.132 128.08 220.641C126.297 223.44 125.023 226.748 124.259 230.057Z" fill="#78909C"/>
<path d="M110.754 138.953L114.575 142.261C115.085 141.498 115.339 140.735 115.849 140.226C117.123 137.935 117.887 136.663 117.887 136.663L113.556 134.118C113.556 134.118 112.792 135.391 111.518 137.681C111.264 138.19 111.009 138.444 110.754 138.953Z" fill="#546E7A"/>
<path d="M125.277 249.387C124.513 247.097 124.004 243.788 123.749 242.007C123.494 239.971 120.947 239.462 120.947 241.498C120.947 243.534 121.202 247.86 122.73 252.186C124.513 256.512 125.277 249.387 125.277 249.387Z" fill="#78909C"/>
<path d="M134.962 249.134C132.67 249.643 132.415 249.388 131.651 249.643C131.905 250.661 132.16 251.17 132.415 251.933C133.179 251.679 134.453 251.679 135.727 251.17C137.255 250.915 134.962 249.134 134.962 249.134Z" fill="#78909C"/>
<path d="M118.15 251.421C119.679 251.676 121.207 251.93 122.99 252.185C122.735 250.912 122.481 249.894 122.226 248.877C121.971 247.35 121.717 245.823 121.462 244.805H121.207C120.443 244.805 119.679 244.55 118.914 244.296C118.405 246.077 117.896 249.385 118.15 251.421Z" fill="#546E7A"/>
<path d="M219.019 257.023C218.255 260.331 220.292 263.894 223.859 264.657L306.648 285.015C310.215 285.779 313.781 283.743 314.545 280.435L334.924 197.475C335.688 194.167 333.651 190.604 330.084 189.841L247.295 169.483C243.728 168.719 240.162 170.755 239.398 174.063L219.019 257.023Z" fill="#90A4AE"/>
<path d="M263.853 284.758C263.853 285.012 263.853 285.267 263.853 285.776C263.598 292.392 263.598 325.729 266.4 349.395C266.655 350.413 266.655 351.176 266.655 352.194C266.655 352.449 266.655 352.449 266.655 352.703C267.165 355.503 267.419 358.302 267.929 360.847C268.183 361.61 268.183 362.119 268.438 362.882C269.457 367.209 270.476 370.517 271.75 372.553C272.005 372.807 272.005 373.061 272.259 373.316C273.023 374.334 273.788 374.843 274.552 374.843C274.807 374.843 275.316 374.843 275.571 374.843C275.826 374.843 276.08 374.843 276.335 374.843C276.59 374.843 276.844 374.843 277.354 374.588C277.609 374.588 277.864 374.334 278.118 374.334C279.137 373.825 280.156 373.316 280.92 372.553C281.175 372.298 281.684 372.044 281.939 371.789C282.449 371.28 282.704 371.026 283.213 370.517C283.722 370.008 283.977 369.499 284.487 368.99C285.251 367.972 286.015 366.7 286.779 365.682C287.034 365.173 287.543 364.409 287.798 363.646C289.327 361.101 290.6 358.047 292.129 354.739C292.383 354.23 292.638 353.721 292.638 353.212C292.893 352.958 292.893 352.449 293.148 352.194C293.402 351.431 293.657 350.922 293.912 350.159C302.063 328.783 307.922 299.263 308.941 282.722C308.941 282.213 264.362 279.414 263.853 284.758Z" fill="#CFD8DC"/>
<path d="M266.912 352.461C266.912 352.715 266.912 352.715 266.912 352.97C267.421 355.769 267.676 358.568 268.185 361.113C268.44 361.876 268.44 362.385 268.695 363.149C269.714 367.475 270.733 370.783 272.006 372.819C272.261 373.073 272.261 373.328 272.516 373.582C273.28 374.6 274.044 375.109 274.808 375.109C275.063 375.109 275.573 375.109 275.827 375.109C276.082 375.109 276.337 375.109 276.592 375.109C276.846 375.109 277.101 375.109 277.611 374.855C277.865 374.855 278.12 374.6 278.375 374.6C279.394 374.091 280.413 373.582 281.177 372.819C281.432 372.564 281.941 372.31 282.196 372.055C282.705 371.546 282.96 371.292 283.47 370.783C283.979 370.274 284.234 369.765 284.743 369.256C285.507 368.238 286.272 366.966 287.036 365.948C287.291 365.439 287.8 364.675 288.055 363.912C289.583 361.367 290.857 358.314 292.385 355.005C292.64 354.496 292.895 353.987 292.895 353.478C293.15 353.224 293.15 352.715 293.404 352.461C290.347 351.188 287.036 350.425 283.47 350.425C281.177 350.17 279.139 350.425 276.846 350.679C273.025 350.17 269.714 350.934 266.912 352.461Z" fill="#263238"/>
<path d="M265.13 351.681C265.385 352.19 265.64 352.699 266.404 352.699C266.659 352.699 266.913 352.699 266.913 352.699H267.168C269.97 351.936 273.282 351.427 276.594 351.172C278.631 350.918 280.669 351.172 282.707 351.172C286.019 351.427 289.33 351.936 292.387 352.699H292.642C293.661 352.954 294.425 352.445 294.68 351.427C294.935 350.664 294.425 349.646 293.661 349.391C290.349 348.373 286.783 347.864 283.217 347.61C280.924 347.355 278.631 347.355 276.339 347.61C272.772 347.864 269.461 348.373 266.659 349.391H266.404C265.385 349.9 264.876 350.918 265.13 351.681Z" fill="#E64A19"/>
<g opacity="0.2">
<path d="M265.129 351.697C265.384 352.206 265.639 352.715 266.403 352.715C266.658 352.715 266.912 352.715 266.912 352.715C267.422 355.514 267.677 358.314 268.186 360.858C268.441 361.622 268.441 362.131 268.696 362.894C269.715 367.22 270.734 370.528 272.007 372.564C272.262 372.819 272.262 373.073 272.517 373.328C273.281 374.345 274.045 374.855 274.809 374.855C275.064 374.855 275.574 374.855 275.828 374.855C276.083 374.855 276.338 374.855 276.592 374.855C276.847 374.855 277.102 374.854 277.611 374.6C277.866 374.6 278.121 374.346 278.376 374.346C279.395 373.837 280.414 373.328 281.178 372.564C279.395 367.22 277.866 359.84 276.847 351.443C276.847 350.934 276.592 350.425 276.592 349.916C276.592 349.407 276.592 348.643 276.338 348.134C274.3 330.066 274.045 307.673 276.083 287.569C270.988 287.06 267.677 286.805 264.11 286.042C263.856 292.658 263.856 325.995 266.658 349.661H266.403C265.384 349.916 264.875 350.934 265.129 351.697Z" fill="#212121"/>
</g>
<path d="M204.493 328.032C204.493 328.796 204.238 329.559 204.238 330.068C204.238 330.577 204.238 330.831 204.238 331.086V331.34C204.238 332.104 203.983 332.867 203.983 333.631C203.983 334.394 203.983 334.903 203.729 335.667C203.474 341.519 203.474 346.609 204.493 350.426C204.493 350.935 204.747 351.444 205.002 351.953C205.257 352.462 205.257 352.971 205.512 353.734C205.766 354.243 205.766 354.498 206.021 355.007C206.276 355.516 206.531 355.77 206.785 356.025C207.04 356.279 207.295 356.534 207.549 356.788C207.804 357.043 208.059 357.297 208.314 357.552C208.568 357.806 208.823 358.061 209.078 358.061C209.333 358.315 209.588 358.315 209.842 358.569C210.352 358.824 210.861 358.824 211.371 358.569C211.625 358.569 211.625 358.569 211.88 358.569C212.644 358.315 213.663 357.806 214.682 357.043C214.937 356.788 215.192 356.534 215.446 356.534C216.21 355.77 216.975 355.261 217.994 354.243C218.503 353.734 219.013 352.971 219.777 352.207C221.051 350.935 222.324 349.154 223.598 347.627C224.107 346.864 224.872 345.846 225.636 345.082C226.145 344.319 226.909 343.555 227.419 342.537C227.419 342.283 227.674 342.283 227.674 342.028C228.183 341.265 228.693 340.501 229.202 339.738C242.703 319.889 257.987 290.878 261.044 284.771C261.299 284.262 261.299 284.008 261.554 283.753C263.082 280.445 245.76 271.538 234.042 265.685C227.929 262.632 223.089 260.596 223.089 260.596C215.956 276.373 207.295 305.384 204.493 328.032Z" fill="#CFD8DC"/>
<path d="M204.244 330.062C204.244 330.571 204.244 330.826 204.244 331.08V331.335C204.244 332.098 203.989 332.862 203.989 333.625C203.989 334.389 203.989 334.898 203.734 335.661C203.48 341.514 203.48 346.604 204.499 350.421C204.499 350.93 204.753 351.439 205.008 351.948C205.263 352.456 205.263 352.965 205.517 353.729C205.772 354.238 205.772 354.492 206.027 355.001C206.282 355.51 206.537 355.765 206.791 356.019C207.046 356.274 207.301 356.528 207.555 356.783C207.81 357.037 208.065 357.292 208.32 357.546C208.574 357.801 208.829 358.055 209.084 358.055C209.339 358.31 209.593 358.31 209.848 358.564C210.358 358.818 210.867 358.818 211.377 358.564C211.631 358.564 211.631 358.564 211.886 358.564C212.65 358.31 213.669 357.801 214.688 357.037C214.943 356.783 215.198 356.528 215.452 356.528C216.217 355.765 216.981 355.256 218 354.238C218.509 353.729 219.019 352.965 219.783 352.202C221.057 350.93 222.33 349.148 223.604 347.621C224.113 346.858 224.878 345.84 225.642 345.077C226.151 344.313 226.915 343.55 227.425 342.532C227.425 342.277 227.68 342.277 227.68 342.023C224.623 338.206 220.547 334.898 215.198 332.607C213.924 332.098 212.905 331.589 211.631 331.335C208.829 330.826 206.537 330.317 204.244 330.062Z" fill="#263238"/>
<path d="M202.715 329.298C202.46 330.062 203.224 331.08 203.989 331.08H204.244C206.281 331.589 208.574 332.098 210.867 332.861C211.886 333.37 213.159 333.624 214.178 334.133C219.018 336.424 223.604 339.223 226.915 342.277L227.17 342.531C227.425 342.786 227.425 342.786 227.679 342.786C228.189 343.04 228.953 342.786 229.208 342.277C229.717 341.513 229.717 340.495 229.208 339.986L228.953 339.732C225.387 336.424 220.801 333.37 215.707 331.08C214.433 330.571 213.159 330.062 211.886 329.553C209.593 328.789 207.046 328.026 204.753 327.771C203.734 327.771 202.97 328.535 202.715 329.298Z" fill="#E64A19"/>
<path d="M221.564 264.136C221.055 265.917 225.131 268.971 230.99 272.025C240.67 277.369 255.19 283.222 260.539 285.003C261.303 285.258 261.813 285.512 262.067 285.512C262.577 285.512 263.087 285.767 263.596 285.767C264.36 286.021 265.379 286.021 266.653 286.275C267.162 286.275 267.672 286.275 268.181 286.53C270.219 286.784 272.512 287.039 274.804 287.293C275.059 287.293 275.314 287.293 275.569 287.293C288.815 288.566 306.901 289.075 307.92 285.512C307.92 285.003 308.175 283.985 308.43 282.713C308.939 280.422 309.449 277.114 309.958 272.788C310.213 271.77 310.213 270.752 310.468 269.48V269.225C310.468 268.716 310.722 268.208 310.722 267.699C310.722 266.681 310.977 265.663 310.977 264.39C310.977 263.881 310.977 263.373 311.232 262.864V262.609C311.232 261.591 311.487 260.573 311.487 259.555C311.487 258.537 311.741 257.265 311.741 256.247C311.996 251.921 312.251 247.086 311.996 242.505C311.996 242.251 311.996 241.996 311.996 241.742C311.996 241.742 311.996 241.742 311.996 241.487C311.996 241.487 311.996 241.487 311.996 241.233C311.996 240.724 311.996 240.469 311.996 239.961C311.996 239.706 311.996 239.197 311.996 238.943C311.996 238.943 311.996 238.943 311.996 238.688C311.996 237.67 311.996 236.652 311.741 235.38C311.487 229.527 310.722 223.674 309.449 218.075C309.194 216.803 308.939 215.531 308.43 214.258C305.628 203.57 300.533 194.664 292.127 190.083C290.343 189.065 288.305 188.302 286.013 187.793C283.975 187.284 281.937 187.029 279.899 187.029C269.964 187.029 261.303 192.882 253.406 201.28C253.406 201.28 253.152 201.535 253.152 201.789C250.859 204.079 248.821 206.624 247.038 209.423C245 212.223 243.217 215.022 241.434 218.075C240.924 218.839 240.67 219.602 240.16 220.111C240.16 220.366 239.905 220.366 239.905 220.62C239.905 220.62 239.651 220.875 239.651 221.129C239.651 221.384 239.396 221.638 239.396 221.638C238.887 222.402 238.377 223.42 237.867 224.437C237.867 224.437 237.868 224.692 237.613 224.692C237.103 225.455 236.849 226.219 236.339 226.982C234.556 230.29 233.028 233.599 231.754 236.652C231.244 237.67 230.735 238.688 230.48 239.706C229.971 240.724 229.716 241.487 229.206 242.505V242.76C229.206 243.014 228.952 243.269 228.952 243.523C228.188 245.305 227.678 246.831 226.914 248.613V248.867C226.404 249.885 226.15 250.903 225.895 251.667C224.366 255.484 223.348 258.537 222.838 260.828C222.074 262.609 221.819 263.627 221.564 264.136Z" fill="#CFD8DC"/>
<path d="M265.889 271.275C270.474 272.293 302.826 275.855 311.232 272.547C311.996 272.293 312.506 271.275 311.996 270.512C311.741 269.748 310.722 269.239 309.958 269.748C302.826 272.547 271.748 269.748 266.653 268.476C261.558 267.203 232.773 255.497 227.678 249.644C227.169 248.881 226.15 248.881 225.385 249.39C224.621 249.899 224.621 250.917 225.131 251.68C230.99 258.297 261.303 270.257 265.889 271.275Z" fill="#E64A19"/>
<path d="M219.782 213.245L334.413 241.492C341.801 210.955 324.224 180.418 294.674 171.256C293.655 170.748 292.382 170.493 291.363 170.239C275.06 166.167 258.756 169.475 245.765 177.618C242.708 179.654 239.651 181.945 236.849 184.489C235.066 186.016 233.283 187.797 231.754 189.833C227.933 194.414 224.876 199.503 222.584 204.847C221.565 207.392 220.546 210.191 219.782 213.245Z" fill="#CFD8DC"/>
<path d="M231.754 205.616C231.754 209.179 232.519 212.741 233.792 216.558C233.792 216.813 234.047 217.067 234.047 217.322C234.047 217.322 234.047 217.322 234.047 217.576C234.302 218.085 234.302 218.34 234.557 218.849C235.321 220.63 236.085 222.411 237.104 224.193C237.359 224.702 237.613 224.956 237.868 225.211C238.377 226.229 239.142 227.246 239.651 228.264L306.392 244.805C308.43 244.296 310.214 243.533 311.997 243.024H312.251C312.506 243.024 313.016 242.77 313.27 242.515C315.818 241.497 318.11 240.225 319.893 238.952C320.148 238.952 320.148 238.698 320.403 238.698C320.658 238.698 320.658 238.443 320.912 238.443C323.969 236.153 326.517 233.608 328.3 231.064C331.866 225.465 332.885 219.103 331.611 212.487C331.357 211.723 331.357 210.705 331.102 209.942C330.083 205.616 328.045 201.29 325.498 197.218C318.11 185.512 305.883 175.079 293.656 171.261C292.891 171.007 292.127 170.753 291.108 170.498C290.344 170.244 289.325 169.989 288.561 169.989C275.569 167.699 260.794 170.498 249.331 177.369C248.822 177.623 248.567 177.878 248.058 178.132C245.765 179.659 243.472 181.441 241.434 183.476C240.161 184.749 238.887 186.276 237.613 187.802C237.359 188.057 237.104 188.311 237.104 188.566C233.538 193.147 231.5 199 231.754 205.616Z" fill="#CFD8DC"/>
<path d="M181.318 205.114L182.846 207.913L187.941 217.328L189.47 220.128C189.979 219.873 190.488 219.619 190.998 219.364C194.564 217.837 199.404 216.565 202.461 215.293C208.83 213.003 220.038 213.766 226.152 215.038C227.425 215.293 228.699 215.547 229.718 216.056C231.246 216.565 232.52 217.074 233.794 217.583C236.086 218.601 238.124 220.128 239.907 221.4C241.691 222.927 242.964 224.454 243.474 225.981C244.493 228.271 245.512 229.289 247.04 229.798C247.804 230.052 248.568 230.307 249.333 230.816C251.371 231.579 254.173 232.852 257.739 236.16L260.032 233.361L266.655 224.963L289.836 194.935C286.779 192.135 283.468 189.845 279.901 187.809C270.731 182.211 260.032 178.902 249.078 177.885C248.569 177.885 248.314 177.885 247.804 177.63C247.04 177.63 246.021 177.63 245.257 177.63C241.691 177.376 238.124 177.63 234.303 178.139C230.228 178.394 226.152 179.157 222.076 180.175C221.821 180.175 221.566 180.429 221.312 180.429C214.434 182.211 210.103 183.229 196.857 192.39C192.272 194.935 188.705 199.261 184.375 202.569C183.865 203.332 183.101 204.096 182.592 204.605C182.337 204.605 181.827 204.859 181.318 205.114Z" fill="#CFD8DC"/>
<path d="M166.032 228.015C166.286 228.524 166.541 228.779 166.796 229.033C172.91 236.922 171.127 218.345 178.514 220.636C181.316 223.18 172.655 231.069 177.24 232.087C177.495 232.087 177.75 232.087 178.004 232.087C180.042 232.342 184.118 227.252 188.449 220.89C188.703 220.381 188.958 219.872 189.213 219.618L187.684 216.818L182.59 207.403L181.061 204.604C180.552 204.858 180.042 204.858 179.533 205.112C167.815 208.93 160.173 219.363 166.032 228.015Z" fill="#CFD8DC"/>
<path d="M179.789 205.362C179.789 205.617 179.789 205.617 180.044 205.871L181.317 208.161L186.922 218.34L188.195 220.631C188.45 220.885 188.45 221.14 188.705 221.14C188.959 221.14 188.959 221.394 189.214 221.394C189.724 221.394 189.978 221.394 190.488 221.14C191.252 220.631 191.507 219.867 191.252 219.104L189.724 216.05L184.884 207.143L183.355 204.344C182.846 203.581 181.827 203.326 181.063 203.581C180.044 203.835 179.534 204.599 179.789 205.362Z" fill="#E64A19"/>
<path d="M221.567 180.173L223.35 185.771L225.133 191.878L236.851 188.061L237.615 187.807L237.36 187.298L236.342 183.99L234.558 178.137C230.483 178.391 226.407 179.155 222.331 180.173C222.331 180.173 222.076 180.173 221.567 180.173Z" fill="#D84315"/>
<path d="M280.668 192.631L282.706 204.336L287.292 230.039L289.33 240.472L289.839 244.035C291.367 243.526 292.641 243.272 293.915 243.272C295.953 243.017 297.481 243.017 298.755 243.017C299.264 243.017 299.519 243.017 300.029 243.017C302.831 243.272 304.614 243.78 307.416 241.49C308.435 240.727 309.709 239.963 311.492 239.454C311.747 239.454 311.747 239.454 312.001 239.2C314.294 238.691 316.841 238.182 319.898 238.436C320.153 238.436 320.408 238.436 320.408 238.436C320.662 238.436 321.172 238.436 321.426 238.691C322.7 238.691 323.974 238.945 325.248 239.2C326.012 239.454 326.776 239.454 327.795 239.709C333.909 241.49 344.098 245.816 348.683 250.906L348.938 251.16C351.231 253.705 354.797 257.013 357.344 260.067C357.599 260.576 358.109 260.83 358.363 261.339L361.675 259.049L372.119 251.924C371.61 251.669 371.355 251.16 371.1 250.651C370.591 249.888 370.591 248.87 370.336 248.107C368.043 243.017 366.77 237.673 363.968 233.347C356.58 218.842 353.269 216.042 347.919 211.207C347.664 210.953 347.41 210.953 347.155 210.698C344.098 207.899 340.786 205.354 337.475 203.319C334.418 201.283 331.361 199.501 328.05 197.975C327.285 197.466 326.266 197.211 325.502 196.702C315.058 192.122 303.595 190.086 292.386 190.849C290.349 190.849 288.056 191.104 286.018 191.613C284.235 191.867 282.452 192.122 280.668 192.631Z" fill="#CFD8DC"/>
<path d="M358.109 261.348C358.109 261.857 358.109 262.366 358.364 262.875C359.128 270.509 360.402 276.871 362.439 277.635C362.694 277.635 362.694 277.635 362.949 277.889C367.025 279.162 364.987 272.036 366.006 268.728C366.26 267.965 366.77 267.201 367.279 267.201C375.431 268.728 363.968 285.269 374.667 279.671C374.667 279.671 374.921 279.671 374.921 279.416C384.092 274.581 382.309 261.857 373.393 252.951C372.884 252.696 372.629 252.187 372.119 251.933L361.42 259.312L358.109 261.348Z" fill="#CFD8DC"/>
<path d="M356.831 262.355C357.086 262.609 357.341 262.863 357.85 263.118C358.105 263.118 358.105 263.118 358.36 263.118C358.615 263.118 358.869 263.118 359.124 262.863L361.926 261.082L373.135 253.448L373.389 253.193C373.899 252.684 373.899 251.921 373.389 251.158C372.88 250.394 371.861 250.14 371.097 250.649L360.653 257.774L357.086 260.064C356.577 260.573 356.322 261.591 356.831 262.355Z" fill="#E64A19"/>
<path d="M330.086 210.454L339.257 219.616L347.918 211.218C347.663 210.963 347.408 210.963 347.154 210.709C344.097 207.91 340.785 205.365 337.474 203.329L330.086 210.454Z" fill="#1A237E"/>
<path d="M257.058 223.231C252.211 222.256 249.733 216.877 251.524 211.217C253.316 205.556 258.698 201.758 263.545 202.733C268.393 203.708 270.87 209.087 269.079 214.747C267.287 220.407 261.906 224.206 257.058 223.231Z" fill="#7C4375"/>
<path d="M292.319 210.525L310.355 214.17L306.972 224.86L288.935 221.216L292.319 210.525Z" fill="#78909C"/>
<g opacity="0.2">
<path d="M186.669 218.349C187.178 217.84 187.433 217.585 187.943 217.076C188.197 216.822 188.707 216.313 189.216 216.058C193.547 212.241 204.501 204.352 222.587 204.861C225.389 204.861 228.446 205.116 231.757 205.625C236.597 206.388 241.692 207.661 247.296 209.951C247.806 213.514 248.061 217.076 248.061 220.13C248.061 223.438 247.806 226.746 247.296 229.8C247.296 230.055 247.296 230.055 247.296 230.055C246.532 234.126 245.768 237.943 244.494 241.761C244.239 242.779 243.73 243.796 243.221 244.814C242.711 245.832 242.456 246.85 241.947 247.868C241.183 249.904 240.164 251.94 239.145 253.976C238.89 254.739 238.381 255.502 238.126 256.011C237.616 257.029 237.107 258.047 236.852 259.065C235.578 261.355 234.559 263.646 233.541 266.19C232.776 267.717 232.267 269.244 231.503 271.025C231.248 271.28 231.248 271.789 230.993 272.298C226.917 283.24 217.492 308.179 211.633 330.064L211.124 331.845C210.869 332.354 210.869 332.863 210.614 333.372C208.321 342.025 206.793 350.168 206.538 356.53C206.284 356.275 206.029 355.766 205.774 355.512C205.519 355.003 205.265 354.748 205.265 354.239C205.01 353.73 204.755 353.222 204.755 352.458C204.501 351.949 204.501 351.44 204.246 350.931C203.227 347.114 203.227 341.77 203.482 336.172C203.482 335.408 203.482 334.899 203.736 334.136C203.736 333.372 203.736 332.609 203.991 331.845V331.591H203.736C202.717 331.337 202.208 330.573 202.463 329.81C202.717 329.046 203.482 328.283 204.246 328.537C207.048 305.889 215.454 276.878 222.077 261.864C222.842 259.574 223.861 256.52 225.134 252.703C224.879 252.449 224.625 252.194 224.625 252.194C224.115 251.431 224.115 250.413 224.879 249.904C225.389 249.395 225.898 249.395 226.408 249.649C226.917 248.122 227.682 246.341 228.446 244.56C228.446 244.305 228.701 244.051 228.701 243.796V243.542C229.21 242.524 229.465 241.761 229.974 240.743C230.484 239.725 230.738 238.707 231.248 237.689C232.776 234.635 234.305 231.327 235.833 228.019C236.343 227.255 236.597 226.492 237.107 225.728C236.852 225.22 236.597 224.965 236.343 224.711C235.324 222.929 234.559 221.148 233.795 219.367C233.541 218.858 233.541 218.603 233.286 218.094C233.286 218.094 233.286 218.094 233.286 217.84C232.012 217.331 230.484 216.567 229.21 216.313L225.644 215.295C219.53 214.023 208.321 213.259 201.953 215.549C198.896 216.822 194.056 218.094 190.49 219.621C190.745 220.384 190.49 221.402 189.726 221.657C189.471 221.911 188.961 221.911 188.452 221.911C188.197 221.911 188.197 221.911 187.943 221.657C183.867 228.019 179.536 233.108 177.498 232.854C177.244 232.854 176.989 232.854 176.734 232.854C180.81 227.001 183.867 221.657 186.669 218.349Z" fill="#212121"/>
</g>
<path d="M290.517 259.681C288.155 259.206 286.948 256.586 287.821 253.828C288.694 251.07 291.315 249.22 293.677 249.695C296.039 250.17 297.246 252.79 296.373 255.548C295.5 258.305 292.878 260.156 290.517 259.681Z" fill="#212121"/>
<path d="M294.63 243.695C292.268 243.22 291.061 240.599 291.934 237.842C292.807 235.084 295.429 233.233 297.79 233.708C300.152 234.183 301.359 236.804 300.486 239.561C299.614 242.319 296.992 244.17 294.63 243.695Z" fill="#212121"/>
<path d="M248.04 249.043C245.679 248.567 244.473 245.947 245.346 243.189C246.22 240.432 248.842 238.582 251.203 239.057C253.564 239.533 254.771 242.153 253.897 244.911C253.024 247.668 250.402 249.518 248.04 249.043Z" fill="#212121"/>
<g opacity="0.2">
<path d="M288.059 263.126C290.097 265.671 292.899 267.452 296.72 268.216C300.287 268.979 304.872 269.488 310.476 269.488C310.731 267.452 310.985 265.162 311.24 262.872C299.777 262.617 295.447 261.599 293.154 258.8C292.135 257.273 290.097 257.019 288.569 258.291C287.295 259.564 287.04 261.599 288.059 263.126Z" fill="#212121"/>
</g>
<path d="M298.498 261.85C302.319 262.868 307.414 263.122 313.782 263.122C315.565 263.122 317.094 261.595 317.094 259.814C317.094 258.032 315.565 256.506 313.782 256.506C301.555 256.251 296.97 255.233 294.677 252.434C293.658 250.907 291.62 250.653 290.092 251.925C288.563 252.943 288.308 254.979 289.582 256.506C291.875 259.305 294.422 260.832 298.498 261.85Z" fill="#78909C"/>
<g opacity="0.2">
<path d="M226.911 249.127C231.751 251.671 235.827 253.198 239.139 253.962C242.96 254.98 246.271 254.725 249.328 253.453C250.856 252.689 251.621 250.653 250.856 249.127C250.092 247.345 248.309 246.836 246.526 247.345C243.214 248.872 239.139 247.6 229.204 242.765C228.44 245.055 227.675 247.091 226.911 249.127Z" fill="#212121"/>
</g>
<path d="M240.67 247.605C244.491 248.623 247.802 248.368 250.859 247.096C252.388 246.332 253.152 244.551 252.388 242.77C251.623 241.243 249.84 240.479 248.057 240.988C244.746 242.515 240.16 241.243 229.207 235.644C227.678 234.881 225.64 235.39 224.876 237.171C224.112 238.698 224.621 240.734 226.404 241.497C232.264 244.551 236.849 246.587 240.67 247.605Z" fill="#78909C"/>
<g opacity="0.2">
<path fill-rule="evenodd" clip-rule="evenodd" d="M225.384 237.052C225.32 237.179 225.256 237.306 225.129 237.433C224.11 238.96 224.874 240.996 225.893 242.268C226.649 242.457 227.265 242.786 227.948 243.151C228.186 243.278 228.432 243.409 228.695 243.541C231.243 244.813 233.535 245.831 235.573 246.595C235.828 246.722 236.019 246.785 236.21 246.849C236.401 246.913 236.592 246.976 236.847 247.103L236.848 247.104C237.357 247.358 237.866 247.612 238.121 247.612C238.248 247.612 238.439 247.676 238.63 247.74C238.821 247.803 239.012 247.867 239.14 247.867C239.267 247.867 239.458 247.931 239.649 247.994C239.84 248.058 240.031 248.121 240.158 248.121C240.413 248.121 240.604 248.185 240.795 248.249C240.986 248.312 241.177 248.376 241.432 248.376H242.196H242.706H243.215H244.234H244.998H246.272C246.378 248.376 246.527 248.332 246.702 248.281C246.949 248.209 247.247 248.121 247.546 248.121C248.055 248.121 248.31 248.121 248.565 247.867H249.074C249.329 247.74 249.52 247.676 249.711 247.612C249.902 247.549 250.093 247.485 250.348 247.358C250.857 247.103 251.367 246.849 251.622 246.34C251.876 246.34 252.131 246.086 252.131 245.831C252.131 245.704 252.195 245.577 252.258 245.449C252.322 245.322 252.386 245.195 252.386 245.068C252.641 244.559 252.641 243.795 252.386 243.286C252.258 243.414 252.067 243.541 251.876 243.668C251.685 243.795 251.494 243.923 251.367 244.05C249.329 245.068 247.036 245.322 244.489 245.068C244.234 245.068 243.98 245.004 243.725 244.94C243.47 244.877 243.215 244.813 242.96 244.813C242.451 244.813 241.942 244.813 241.432 244.559C238.375 243.795 234.809 242.268 230.478 240.233C229.969 239.978 229.395 239.723 228.822 239.469C228.249 239.215 227.676 238.96 227.167 238.706C226.403 238.197 225.893 237.433 225.638 236.67C225.511 236.797 225.447 236.924 225.384 237.052ZM290.343 253.465C290.089 253.211 289.834 252.702 289.834 252.447C289.461 252.82 289.224 253.329 288.925 253.974C288.815 254.21 288.697 254.465 288.56 254.737V255.501C288.687 255.755 288.815 255.946 288.942 256.137C289.07 256.328 289.197 256.519 289.324 256.773L290.343 257.791C290.521 258.146 290.822 258.377 291.075 258.571C291.185 258.655 291.285 258.732 291.362 258.809L291.363 258.81C291.617 259.064 291.872 259.318 292.381 259.573C292.636 259.573 293.145 259.827 293.4 260.081L294.929 260.845C295.056 260.845 295.247 260.909 295.438 260.972C295.629 261.036 295.82 261.099 295.948 261.099C296.202 261.354 296.202 261.354 296.457 261.354C296.584 261.354 296.712 261.417 296.839 261.481C296.966 261.545 297.094 261.608 297.221 261.608C297.52 261.608 297.731 261.696 297.905 261.768C298.029 261.819 298.135 261.863 298.24 261.863C298.346 261.863 298.451 261.906 298.575 261.958C298.75 262.03 298.961 262.117 299.259 262.117C299.769 262.372 300.023 262.372 300.533 262.372C300.638 262.372 300.787 262.415 300.962 262.467C301.21 262.539 301.508 262.626 301.806 262.626C302.316 262.626 302.762 262.69 303.208 262.754C303.653 262.817 304.099 262.881 304.609 262.881C305.444 262.881 306.392 262.937 307.399 262.996C308.54 263.063 309.759 263.135 310.977 263.135H313.524C315.308 263.135 316.836 261.608 316.836 259.827C316.836 259.529 316.749 259.318 316.676 259.143C316.625 259.02 316.581 258.914 316.581 258.809C316.072 259.573 315.308 259.827 314.289 259.827H311.232C306.392 259.827 302.316 259.318 299.004 258.555L299.004 258.555C297.985 258.3 296.966 258.046 295.948 257.537C293.655 256.773 291.872 255.246 290.343 253.465Z" fill="#212121"/>
</g>
<g opacity="0.2">
<path d="M166.033 228.012C166.288 228.521 166.543 228.775 166.797 229.03C166.288 225.467 166.543 221.65 169.599 216.56C173.42 210.453 177.496 208.671 181.062 207.908C181.572 207.653 182.336 207.653 182.846 207.399C183.1 207.399 183.61 207.144 184.374 206.635C189.978 203.582 207.046 188.822 223.349 185.768C223.858 185.768 224.622 185.514 225.387 185.514C229.717 185.005 233.538 184.496 236.595 183.987C238.378 183.733 240.161 183.478 241.435 183.224C247.039 181.951 249.332 180.679 249.332 178.134C249.332 177.88 249.332 177.625 249.332 177.116C248.823 177.371 248.568 177.625 248.058 177.88C247.294 177.88 246.275 177.88 245.511 177.88C241.945 177.625 238.378 177.88 234.557 178.389C230.481 178.643 226.406 179.407 222.33 180.424C222.075 180.424 221.82 180.679 221.566 180.679C214.688 182.46 210.357 183.478 197.111 192.639C192.526 195.184 188.959 199.51 184.629 202.818C184.119 203.582 183.355 204.345 182.846 204.854C182.336 204.091 181.317 203.836 180.553 204.091C179.789 204.345 179.534 205.109 179.789 205.872C167.816 208.926 160.174 219.359 166.033 228.012Z" fill="#212121"/>
</g>
<g opacity="0.2">
<path d="M365.749 268.729C366.004 267.966 366.514 267.202 367.023 267.202C375.175 268.729 363.711 285.27 374.41 279.672C376.194 268.984 375.175 264.403 370.589 264.657C366.768 264.657 365.749 266.948 365.749 268.729Z" fill="#212121"/>
</g>
<g opacity="0.2">
<path d="M311.993 239.209C311.993 239.718 311.738 239.973 311.738 240.227C311.738 240.736 311.738 241.245 311.993 241.754V242.008V242.263V242.517V242.772H312.248C312.503 242.772 313.012 242.517 313.267 242.263C315.814 241.245 318.107 239.973 319.89 238.7C320.145 238.7 320.145 238.446 320.4 238.446C320.654 238.446 321.164 238.446 321.418 238.7C322.692 238.7 323.966 238.955 325.239 239.209C326.004 239.464 326.768 239.464 327.787 239.718C333.901 241.499 344.09 245.826 348.675 250.915L348.93 251.17C351.223 253.714 354.789 257.023 357.336 260.076C356.572 260.585 356.572 261.603 357.082 262.367C357.336 262.621 357.591 262.875 358.101 263.13C358.355 263.13 358.355 263.13 358.61 263.13C359.374 270.764 360.648 277.126 362.686 277.89C362.941 277.89 362.941 277.89 363.195 278.144C362.941 274.327 363.45 266.438 362.431 261.094C362.431 260.585 362.176 259.822 361.922 259.313C361.667 258.804 361.667 258.295 361.157 257.786C358.61 252.442 349.694 240.736 336.193 233.865C333.901 232.593 331.608 231.575 329.061 230.811C323.711 229.03 320.145 228.521 316.833 228.267C315.305 231.066 314.286 232.847 313.267 236.155C312.503 236.919 312.248 237.937 311.993 239.209Z" fill="#212121"/>
</g>
<g opacity="0.2">
<path d="M237.106 223.937C237.36 224.446 237.615 224.701 237.87 224.955C237.36 225.718 237.106 226.482 236.596 227.245H236.851C236.851 227.245 237.36 226.227 237.87 224.955C237.87 224.955 237.87 224.701 238.125 224.701C238.125 224.446 238.379 224.192 238.634 223.683C238.889 223.174 239.398 222.41 239.653 221.901C239.653 221.647 239.908 221.392 239.908 221.392L240.162 221.138C240.417 220.883 240.417 220.629 240.672 220.629C240.672 220.629 240.417 220.883 240.162 221.138C239.653 221.647 238.889 222.665 237.87 223.428C237.36 223.683 237.36 223.937 237.106 223.937Z" fill="#212121"/>
</g>
<g opacity="0.2">
<path d="M234.05 217.571C234.304 218.08 234.304 218.335 234.559 218.844C234.814 218.589 235.323 218.589 235.578 218.335C236.087 218.08 236.852 217.826 237.361 217.571C237.871 217.317 238.635 217.062 238.635 217.062C238.38 217.062 237.361 217.317 236.087 217.317C235.833 217.317 235.578 217.317 235.323 217.317C235.068 217.317 234.559 217.317 234.05 217.571C234.304 217.571 234.05 217.571 234.05 217.571Z" fill="#212121"/>
</g>
<g opacity="0.2">
<path d="M311.236 239.454C311.49 239.963 311.49 240.726 312 241.744C312 241.999 312.254 242.253 312.254 242.508V242.762C312.509 242.762 313.019 242.508 313.273 242.253C313.273 242.253 313.273 241.999 313.019 241.999C312.509 241.49 312.254 240.726 311.745 240.472C311.745 240.472 311.745 240.218 311.49 240.218C311.745 239.709 311.49 239.454 311.236 239.454Z" fill="#212121"/>
</g>
<g opacity="0.2">
<path d="M316.33 235.653C316.33 235.653 317.859 236.417 319.132 237.689L319.387 237.944C319.642 238.198 319.642 238.198 319.897 238.453C319.897 238.453 319.897 238.707 320.151 238.707C320.406 238.707 320.406 238.453 320.661 238.453C320.915 238.453 321.425 238.453 321.68 238.707C321.68 238.453 321.425 238.453 321.425 238.198C321.425 238.198 321.425 238.198 321.17 237.944C320.915 237.689 320.406 237.435 319.897 237.18C318.113 236.162 316.33 235.653 316.33 235.653Z" fill="#212121"/>
</g>
<path d="M285.767 192.387C302.835 196.459 315.062 197.223 324.742 194.678C326.525 194.169 327.544 192.387 327.035 190.606C326.525 188.825 324.742 187.807 322.959 188.316C314.553 190.606 303.09 189.843 287.296 186.026C271.502 182.208 261.058 177.373 254.435 171.52C253.161 170.248 251.123 170.248 249.85 171.775C248.576 173.047 248.576 175.083 250.104 176.355C257.237 182.972 268.7 188.061 285.767 192.387Z" fill="#263238"/>
<path d="M340.021 149.885C338.492 156.247 341.549 162.354 346.644 163.627C351.993 164.899 357.343 160.828 359.126 154.466L362.947 139.197C364.475 132.835 361.419 126.728 356.324 125.455C350.974 124.183 345.625 128.255 343.842 134.616L340.021 149.885Z" fill="#90A4AE"/>
<path d="M238.376 124.692C236.848 131.054 239.905 137.161 244.999 138.433C250.349 139.706 255.698 135.634 257.481 129.272L261.302 114.004C262.831 107.642 259.774 101.534 254.679 100.262C249.33 98.9896 243.98 103.061 242.197 109.423L238.376 124.692Z" fill="#90A4AE"/>
<path d="M245.768 121.889C235.578 163.114 245.258 179.146 286.526 189.326C327.793 199.505 343.842 189.834 354.031 148.609C363.457 110.437 344.606 82.1906 314.802 75.0652C284.743 67.4309 255.193 83.7174 245.768 121.889Z" fill="#CFD8DC"/>
<g opacity="0.2">
<path d="M298.238 73.2881C280.662 79.1411 265.887 94.6641 259.773 119.348C249.584 160.574 259.264 176.606 300.531 186.785C310.975 189.33 319.891 190.602 327.533 190.602C317.598 194.674 304.352 193.91 286.521 189.584C245.253 179.405 235.573 163.627 245.763 122.148C253.405 90.847 274.548 74.306 298.238 73.2881Z" fill="#212121"/>
</g>
<path d="M288.049 182.711C319.636 190.345 339.506 178.385 347.403 146.83C353.771 121.382 340.78 104.587 309.447 96.9522C277.859 89.3179 258.754 98.2246 252.386 123.672C244.234 156.5 255.188 174.822 288.049 182.711Z" fill="#263238"/>
<path d="M288.818 179.665C318.623 187.045 336.709 176.103 344.096 146.329C349.955 122.663 338.237 107.648 308.433 100.269C278.629 92.8888 261.307 100.778 255.448 124.444C247.551 155.999 257.231 171.777 288.818 179.665Z" fill="#000014"/>
<path d="M324.477 158.033C323.203 163.122 321.42 167.703 319.127 172.283C326.005 165.667 331.355 157.015 333.902 146.836C337.468 132.839 334.921 118.843 328.043 107.392C323.967 105.101 319.127 103.066 313.523 101.284C324.986 117.316 329.572 137.674 324.477 158.033Z" fill="#EEEEEE"/>
<path d="M139.792 95.4308H141.575L143.104 93.6495L127.819 78.3809L126.291 80.1622V81.6891L139.792 95.4308Z" fill="#90A4AE"/>
<path d="M127.969 81.7761L131.391 85.1963L125.449 91.139L122.028 87.7188L127.969 81.7761Z" fill="#90A4AE"/>
<path d="M136.313 90.3214L139.734 93.7402L133.794 99.6851L130.373 96.2662L136.313 90.3214Z" fill="#90A4AE"/>
<path d="M148.451 100.518H149.979L221.561 29.0105V27.2291L194.304 0H192.775L120.939 71.5081V73.2895L148.451 100.518Z" fill="#CFD8DC"/>
<path d="M206.942 13.2703L208.562 14.8906L136.189 87.2638L134.569 85.6435L206.942 13.2703Z" fill="#CFD8DC"/>
<path d="M215.2 34.614L216.219 33.5961L187.943 5.60352L187.179 6.36695L215.2 34.614Z" fill="#CFD8DC"/>
<path d="M209.339 40.4714L210.104 39.708L182.082 11.4609L181.063 12.4788L209.339 40.4714Z" fill="#CFD8DC"/>
<path d="M176.158 17.4245L204.201 45.5547L203.301 46.4525L175.258 18.3222L176.158 17.4245Z" fill="#CFD8DC"/>
<path d="M170.143 23.6004L198.229 51.6855L197.328 52.5857L169.243 24.5006L170.143 23.6004Z" fill="#CFD8DC"/>
<path d="M191.503 58.279L192.268 57.5156L164.246 29.2686L163.228 30.2865L191.503 58.279Z" fill="#CFD8DC"/>
<path d="M158.339 35.3563L186.424 63.4414L185.524 64.3416L157.439 36.2565L158.339 35.3563Z" fill="#CFD8DC"/>
<path d="M179.535 70.2312L180.299 69.4677L152.278 41.2207L151.259 42.2386L179.535 70.2312Z" fill="#CFD8DC"/>
<path d="M173.421 76.3415L174.439 75.3236L146.164 47.3311L145.399 48.0945L173.421 76.3415Z" fill="#CFD8DC"/>
<path d="M140.173 53.2481L168.262 81.3291L167.362 82.2295L139.273 54.1485L140.173 53.2481Z" fill="#CFD8DC"/>
<path d="M134.327 59.241L162.488 87.2441L161.588 88.1486L133.427 60.1455L134.327 59.241Z" fill="#CFD8DC"/>
<path d="M155.589 94.1492L156.354 93.3857L128.332 65.1387L127.568 65.9021L155.589 94.1492Z" fill="#CFD8DC"/>
<path d="M163.712 30.5275L176.49 43.3164L171.449 48.3541L158.67 35.5652L163.712 30.5275Z" fill="#0D47A1"/>
<path d="M178.22 45.0082L191 57.7949L185.959 62.8337L173.179 50.047L178.22 45.0082Z" fill="#0D47A1"/>
<path d="M175.512 18.7845L188.297 31.5625L183.256 36.6056L170.471 23.8276L175.512 18.7845Z" fill="#0D47A1"/>
<path d="M202.003 21.37L214.785 34.1523L209.744 39.1933L196.962 26.4109L202.003 21.37Z" fill="#0D47A1"/>
<path d="M187.515 6.82367L200.295 19.6104L195.254 24.6491L182.474 11.8624L187.515 6.82367Z" fill="#0D47A1"/>
<path d="M190.002 33.3012L202.787 46.0791L197.747 51.1222L184.962 38.3442L190.002 33.3012Z" fill="#0D47A1"/>
<path d="M139.911 54.5461L152.689 67.3369L147.647 72.3744L134.869 59.5835L139.911 54.5461Z" fill="#0D47A1"/>
<path d="M155.076 93.6526L149.472 99.2511H148.962L136.48 86.7817L142.339 80.9287L155.076 93.6526Z" fill="#0D47A1"/>
<path d="M122.216 72.0096L127.82 66.4111L140.557 79.135L134.698 85.2424L122.216 72.7731V72.0096Z" fill="#0D47A1"/>
<path d="M154.415 69.0692L167.197 81.8516L162.156 86.8925L149.374 74.1102L154.415 69.0692Z" fill="#0D47A1"/>
<path d="M151.906 42.6133L164.695 55.3848L159.656 60.4311L146.866 47.6597L151.906 42.6133Z" fill="#0D47A1"/>
<path d="M166.233 56.9628L179.016 69.7451L173.975 74.786L161.192 62.0037L166.233 56.9628Z" fill="#0D47A1"/>
<path d="M181.704 12.7932L194.477 25.5908L189.434 30.6241L176.661 17.8265L181.704 12.7932Z" fill="#1A237E"/>
<path d="M184.207 39.2572L196.992 52.0352L191.952 57.0782L179.167 44.3003L184.207 39.2572Z" fill="#1A237E"/>
<path d="M169.718 24.7299L182.498 37.5166L177.457 42.5554L164.677 29.7686L169.718 24.7299Z" fill="#1A237E"/>
<path d="M193.799 1.27344L206.281 13.7428L201.187 18.8324L188.45 5.85402L193.29 1.27344H193.799Z" fill="#1A237E"/>
<path d="M196.186 27.3236L208.971 40.1016L203.93 45.1446L191.145 32.3667L196.186 27.3236Z" fill="#1A237E"/>
<path d="M220.551 27.7321V28.4955L215.711 33.3306L202.974 20.3522L208.069 15.2627L220.551 27.7321Z" fill="#1A237E"/>
<path d="M148.243 75.0363L161.021 87.8252L155.98 92.8629L143.202 80.074L148.243 75.0363Z" fill="#1A237E"/>
<path d="M133.751 60.5087L146.533 73.291L141.492 78.3319L128.71 65.5496L133.751 60.5087Z" fill="#1A237E"/>
<path d="M157.721 36.6693L170.506 49.4473L165.465 54.4904L152.68 41.7124L157.721 36.6693Z" fill="#1A237E"/>
<path d="M145.735 48.5875L158.521 61.3633L153.481 66.4075L140.695 53.6317L145.735 48.5875Z" fill="#1A237E"/>
<path d="M160.238 63.0893L173.018 75.876L167.976 80.9147L155.197 68.1281L160.238 63.0893Z" fill="#1A237E"/>
<path d="M172.222 51.162L185.004 63.9443L179.963 68.9852L167.181 56.2029L172.222 51.162Z" fill="#1A237E"/>
<g opacity="0.2">
<path d="M161.958 30.7917L192.781 0H194.309L221.566 27.2291V29.0105L175.459 75.0709L161.958 30.7917Z" fill="#EEEEEE"/>
</g>
<path d="M102.609 132.577V134.358L100.826 136.14L85.542 120.617L87.0704 119.09H88.8536L102.609 132.577Z" fill="#90A4AE"/>
<path d="M94.8232 114.79L98.2441 118.211L92.3025 124.153L88.8816 120.732L94.8232 114.79Z" fill="#90A4AE"/>
<path d="M103.343 123.149L106.764 126.57L100.821 132.511L97.4007 129.089L103.343 123.149Z" fill="#90A4AE"/>
<path d="M107.699 141.226V143.008L36.118 214.516H34.3349L7.07798 187.287V185.505L78.6592 113.997H80.4423L107.699 141.226Z" fill="#CFD8DC"/>
<path d="M92.7918 127.207L94.4121 128.827L22.0391 201.2L20.4188 199.58L92.7918 127.207Z" fill="#CFD8DC"/>
<path d="M41.4688 208.166L40.7045 208.929L12.6834 180.682L13.4476 179.919L41.4688 208.166Z" fill="#CFD8DC"/>
<path d="M19.4742 173.953L47.5215 202.083L46.6211 202.981L18.5738 174.851L19.4742 173.953Z" fill="#CFD8DC"/>
<path d="M25.2869 168.003L53.3379 196.129L52.4375 197.027L24.3865 168.901L25.2869 168.003Z" fill="#CFD8DC"/>
<path d="M59.5566 190.084L58.5377 191.102L30.5166 162.855L31.2808 162.092L59.5566 190.084Z" fill="#CFD8DC"/>
<path d="M37.2364 156.097L65.3633 184.141L64.4632 185.043L36.3363 156.999L37.2364 156.097Z" fill="#CFD8DC"/>
<path d="M71.2773 178.137L70.5131 179.155L42.4921 150.908L43.2562 150.145L71.2773 178.137Z" fill="#CFD8DC"/>
<path d="M77.3906 172.278L76.6264 173.041L48.3505 145.049L49.1148 144.285L77.3906 172.278Z" fill="#CFD8DC"/>
<path d="M83.2441 166.418L82.4799 167.181L54.4589 138.934L55.223 138.171L83.2441 166.418Z" fill="#CFD8DC"/>
<path d="M89.3613 160.326L88.3424 161.089L60.3213 133.096L61.0855 132.333L89.3613 160.326Z" fill="#CFD8DC"/>
<path d="M95.2227 154.469L94.4584 155.232L66.1826 127.24L67.2015 126.222L95.2227 154.469Z" fill="#CFD8DC"/>
<path d="M101.332 148.356L100.313 149.374L72.292 121.127L73.0562 120.363L101.332 148.356Z" fill="#CFD8DC"/>
<path d="M42.8492 151.421L55.6289 164.208L50.5875 169.247L37.8078 156.46L42.8492 151.421Z" fill="#0D47A1"/>
<path d="M57.3368 165.941L70.1191 178.724L65.0782 183.765L52.2958 170.982L57.3368 165.941Z" fill="#0D47A1"/>
<path d="M30.8602 163.358L43.6426 176.141L38.6017 181.182L25.8193 168.399L30.8602 163.358Z" fill="#0D47A1"/>
<path d="M33.3642 189.819L46.1426 202.607L41.101 207.645L28.3226 194.856L33.3642 189.819Z" fill="#0D47A1"/>
<path d="M18.8739 175.287L31.6562 188.069L26.6153 193.11L13.833 180.328L18.8739 175.287Z" fill="#0D47A1"/>
<path d="M45.3649 177.848L58.1445 190.635L53.1032 195.674L40.3235 182.887L45.3649 177.848Z" fill="#0D47A1"/>
<path d="M66.8173 127.585L79.5996 140.367L74.5587 145.408L61.7763 132.626L66.8173 127.585Z" fill="#0D47A1"/>
<path d="M100.82 148.107L106.424 142.508V141.745L93.9417 129.275L88.0828 135.128L100.82 148.107Z" fill="#0D47A1"/>
<path d="M79.1697 115.015L73.5655 120.613L86.3023 133.591L92.416 127.484L79.9339 115.015H79.1697Z" fill="#0D47A1"/>
<path d="M81.3218 142.076L94.1016 154.862L89.0602 159.901L76.2804 147.114L81.3218 142.076Z" fill="#0D47A1"/>
<path d="M54.8019 139.502L67.5898 152.277L62.5494 157.322L49.7614 144.547L54.8019 139.502Z" fill="#0D47A1"/>
<path d="M69.3205 154.036L82.1055 166.814L77.065 171.858L64.28 159.08L69.3205 154.036Z" fill="#0D47A1"/>
<path d="M25.0419 169.331L37.8242 182.113L32.7833 187.154L20.001 174.372L25.0419 169.331Z" fill="#1A237E"/>
<path d="M51.3427 171.74L64.125 184.522L59.0841 189.563L46.3018 176.781L51.3427 171.74Z" fill="#1A237E"/>
<path d="M36.8505 157.224L49.6328 170.006L44.5919 175.047L31.8096 162.264L36.8505 157.224Z" fill="#1A237E"/>
<path d="M8.09307 186.789L20.5752 199.004L25.6699 193.914L12.9331 181.19L8.09307 186.026V186.789Z" fill="#1A237E"/>
<path d="M39.5315 183.852L52.3164 196.63L47.276 201.673L34.4911 188.895L39.5315 183.852Z" fill="#1A237E"/>
<path d="M34.842 213.245H35.6061L40.1914 208.41L27.4545 195.687L22.3598 200.776L34.842 213.245Z" fill="#1A237E"/>
<path d="M87.1193 136.15L99.9043 148.928L94.8638 153.971L82.0789 141.193L87.1193 136.15Z" fill="#1A237E"/>
<path d="M72.612 121.6L85.3906 134.391L80.3485 139.428L67.57 126.637L72.612 121.6Z" fill="#1A237E"/>
<path d="M48.6486 145.476L61.4336 158.254L56.3931 163.297L43.6082 150.519L48.6486 145.476Z" fill="#1A237E"/>
<path d="M60.6473 133.527L73.4336 146.303L68.3934 151.347L55.607 138.571L60.6473 133.527Z" fill="#1A237E"/>
<path d="M75.1337 148.057L87.916 160.839L82.8751 165.88L70.0928 153.097L75.1337 148.057Z" fill="#1A237E"/>
<path d="M63.3244 159.814L76.1094 172.592L71.0689 177.635L58.2839 164.857L63.3244 159.814Z" fill="#1A237E"/>
<g opacity="0.2">
<path d="M55.478 137.154L78.6592 113.997H80.4423L107.699 141.226V143.008L69.2339 181.179L55.478 137.154Z" fill="#212121"/>
</g>
<path d="M65.1626 58.0108C65.9269 57.2474 88.3438 75.3153 88.3438 75.3153L82.4848 81.1682C82.4848 81.1682 64.3984 58.7743 65.1626 58.0108Z" fill="#F9A825"/>
<path d="M63.9231 60.9142C62.8287 59.821 62.8281 58.0473 63.9219 56.9524C65.0156 55.8575 66.7894 55.8562 67.8837 56.9493C68.9781 58.0425 68.9786 59.8163 67.8849 60.9112C66.7912 62.006 65.0174 62.0074 63.9231 60.9142Z" fill="#F9A825"/>
<g opacity="0.1">
<path d="M85.0352 78.3872L82.233 81.1865C82.233 81.1865 71.5341 67.9537 66.9488 61.3373C65.9298 61.8462 64.6563 61.5917 63.892 60.8283C62.8729 59.8104 62.8729 58.2835 63.6372 57.2656L85.0352 78.3872Z" fill="#212121"/>
</g>
<path d="M77.6419 86.0124C78.1514 86.5213 81.9724 83.4676 86.303 79.1415C90.6335 74.8154 93.6904 70.9982 93.1809 70.4893C92.6714 69.9803 88.5956 72.7795 84.2651 77.1057C79.9346 81.4318 77.1324 85.5034 77.6419 86.0124Z" fill="#CFD8DC"/>
<path d="M93.0217 70.4439L97.8828 75.3057L82.3981 90.7882L77.5369 85.9265L93.0217 70.4439Z" fill="#CFD8DC"/>
<g opacity="0.1">
<path d="M89.8691 83.2168L82.4818 90.5967L77.6418 85.7616C77.1323 85.2526 79.9344 81.181 84.0102 77.1094L89.8691 83.2168Z" fill="#212121"/>
</g>
<path d="M101.854 71.4392L109.596 79.1807L86.3714 102.405L78.63 94.6635L101.854 71.4392Z" fill="#C62828"/>
<path d="M78.536 94.6614C77.4423 93.5677 81.7141 87.5225 88.0777 81.159C94.4412 74.7955 100.486 70.5236 101.58 71.6173C102.674 72.711 98.4019 78.7563 92.0384 85.1197C85.6749 91.4833 79.6297 95.7552 78.536 94.6614Z" fill="#C62828"/>
<g opacity="0.1">
<path d="M97.7715 91.109L86.3083 102.56L78.6662 94.9262C77.6473 93.9083 81.723 88.0553 88.0915 81.6934L97.7715 91.109Z" fill="#212121"/>
</g>
<path d="M79.5858 103.271C77.4977 101.183 82.7369 92.5583 91.2879 84.0073C99.8387 75.4564 108.463 70.2172 110.551 72.3052C112.639 74.3933 107.4 83.0178 98.8492 91.5687C90.2982 100.12 81.6738 105.359 79.5858 103.271Z" fill="#CFD8DC"/>
<path d="M110.254 72.414L148.961 111.121L117.995 142.087L79.2882 103.38L110.254 72.414Z" fill="#CFD8DC"/>
<path d="M118.24 141.981C116.152 139.893 121.391 131.268 129.942 122.717C138.493 114.166 147.118 108.927 149.206 111.015C151.294 113.103 146.054 121.728 137.504 130.279C128.952 138.83 120.328 144.069 118.24 141.981Z" fill="#90A4AE"/>
<g opacity="0.1">
<path d="M137.252 130.554C128.846 138.952 120.185 144.041 118.147 142.006L79.4267 103.325C77.3887 101.289 82.4834 92.637 90.8897 84.2393L137.252 130.554Z" fill="#212121"/>
</g>
<path d="M124.009 136.207C123.213 135.412 126.921 130.414 132.29 125.045C137.659 119.676 142.657 115.968 143.452 116.764C144.248 117.559 140.54 122.557 135.171 127.926C129.802 133.295 124.804 137.003 124.009 136.207Z" fill="#C62828"/>
<path d="M143.356 116.947L151.098 124.688L131.834 143.952L124.093 136.211L143.356 116.947Z" fill="#C62828"/>
<g opacity="0.1">
<path d="M141.326 134.367L131.901 143.783L124.259 136.149C123.495 135.385 127.061 130.55 132.156 125.206L141.326 134.367Z" fill="#212121"/>
</g>
<path d="M126.023 145.874C124.432 144.283 129.187 136.949 136.645 129.491C144.102 122.034 151.437 117.279 153.028 118.869C154.619 120.46 149.863 127.795 142.406 135.252C134.949 142.71 127.614 147.465 126.023 145.874Z" fill="#CFD8DC"/>
<path d="M152.021 144.797C161.447 135.382 164.504 128.256 163.739 127.493C162.975 126.73 155.843 129.783 146.417 139.199C136.992 148.614 133.935 155.74 134.699 156.503C135.463 157.267 142.596 154.213 152.021 144.797Z" fill="#37474F"/>
<path d="M149.226 136.15L158.906 126.479L160.689 130.297L153.047 138.185L149.226 136.15Z" fill="#212121"/>
<path d="M133.686 151.666L143.366 141.996L145.404 145.813L137.507 153.448L133.686 151.666Z" fill="#212121"/>
<path d="M143.11 145.571L152.79 135.9L154.828 139.718L146.931 147.606L143.11 145.571Z" fill="#212121"/>
<path d="M140.052 142.514L149.732 132.844L151.516 136.661L143.874 144.295L140.052 142.514Z" fill="#212121"/>
<path d="M126.04 145.813L153.042 118.838L164.76 126.472L163.741 127.49C162.977 126.727 155.844 129.78 146.419 139.196C136.993 148.612 133.937 155.737 134.701 156.501L133.682 157.518L126.04 145.813Z" fill="#CFD8DC"/>
<path d="M143.963 144.273C143.167 143.477 144.215 141.14 146.303 139.052C148.392 136.965 150.729 135.917 151.525 136.713C152.32 137.508 151.272 139.846 149.184 141.933C147.096 144.021 144.758 145.068 143.963 144.273Z" fill="#263238"/>
<path d="M137.627 153.385C136.832 152.589 137.88 150.252 139.968 148.164C142.056 146.076 144.393 145.028 145.189 145.823C145.984 146.619 144.936 148.956 142.848 151.044C140.76 153.132 138.423 154.18 137.627 153.385Z" fill="#263238"/>
<path d="M153.022 138.107C152.226 137.312 153.274 134.974 155.362 132.886C157.45 130.798 159.788 129.751 160.583 130.546C161.379 131.341 160.331 133.679 158.243 135.767C156.155 137.855 153.817 138.903 153.022 138.107Z" fill="#263238"/>
<path d="M146.941 147.472C146.245 146.776 147.373 144.519 149.461 142.43C151.549 140.342 153.805 139.213 154.501 139.909C155.197 140.605 154.069 142.862 151.981 144.95C149.894 147.039 147.637 148.167 146.941 147.472Z" fill="#263238"/>
<path d="M148.205 140.974C149.479 139.701 150.243 138.429 150.498 137.92C149.734 138.174 148.715 138.938 147.441 140.21C146.168 141.483 145.403 142.755 145.149 143.264C145.658 143.009 146.932 142.246 148.205 140.974Z" fill="#FF8F00"/>
<path d="M141.836 150.142C143.11 148.869 143.874 147.597 144.129 147.088C143.365 147.342 142.346 148.106 141.072 149.378C139.798 150.651 139.034 151.923 138.779 152.432C139.289 152.177 140.563 151.414 141.836 150.142Z" fill="#FF8F00"/>
<path d="M157.373 134.88C158.647 133.608 159.411 132.335 159.666 131.826C158.902 132.081 157.883 132.844 156.609 134.116C155.335 135.389 154.571 136.661 154.317 137.17C154.826 136.661 156.1 136.152 157.373 134.88Z" fill="#FF8F00"/>
<path d="M151.003 144.028C152.022 143.01 152.532 142.246 153.041 141.737C152.277 142.246 151.513 142.755 150.748 143.773C149.729 144.791 149.22 145.554 148.71 146.063C149.22 145.554 150.239 144.791 151.003 144.028Z" fill="#FF8F00"/>
<path fill-rule="evenodd" clip-rule="evenodd" d="M164.763 126.475C162.725 124.439 154.064 129.528 145.403 138.181C136.742 146.578 131.647 155.23 133.685 157.521C135.723 159.557 144.384 154.467 153.045 145.815C161.706 137.163 166.801 128.51 164.763 126.475ZM163.742 127.493C164.506 128.256 161.449 135.381 152.024 144.797C142.599 154.213 135.466 157.266 134.702 156.503C133.938 155.74 136.995 148.614 146.42 139.199C155.845 129.783 162.978 126.729 163.742 127.493Z" fill="#90A4AE"/>
<g opacity="0.1">
<path d="M152.789 146.075C144.383 154.473 135.722 159.562 133.684 157.527L126.042 145.821C124.513 144.294 129.099 136.914 136.486 129.534L152.789 146.075Z" fill="#212121"/>
</g>
<defs>
<linearGradient id="paint0_linear" x1="272.323" y1="41.0164" x2="329.14" y2="-60.3364" gradientUnits="userSpaceOnUse">
<stop stop-color="white"/>
<stop offset="0.1201" stop-color="#C6C6C6"/>
<stop offset="0.2446" stop-color="#929292"/>
<stop offset="0.3713" stop-color="#656565"/>
<stop offset="0.4978" stop-color="#414141"/>
<stop offset="0.624" stop-color="#242424"/>
<stop offset="0.7498" stop-color="#101010"/>
<stop offset="0.8752" stop-color="#040404"/>
<stop offset="1" stop-color="white"/>
</linearGradient>
</defs>
</svg>
