<svg width="108" height="27" viewBox="0 0 108 27" fill="none" xmlns="http://www.w3.org/2000/svg">
<path d="M28.216 0.799998L17.308 26H11.548L0.676 0.799998H6.976L14.644 18.8L22.42 0.799998H28.216ZM49.832 21.32V26H30.32V0.799998H49.364V5.48H36.116V10.952H47.816V15.488H36.116V21.32H49.832ZM71.4301 13.004H76.7581V23.228C75.3901 24.26 73.8061 25.052 72.0061 25.604C70.2061 26.156 68.3941 26.432 66.5701 26.432C63.9541 26.432 61.6021 25.88 59.5141 24.776C57.4261 23.648 55.7821 22.1 54.5821 20.132C53.4061 18.14 52.8181 15.896 52.8181 13.4C52.8181 10.904 53.4061 8.672 54.5821 6.704C55.7821 4.712 57.4381 3.164 59.5501 2.06C61.6621 0.931999 64.0381 0.368 66.6781 0.368C68.8861 0.368 70.8901 0.739999 72.6901 1.484C74.4901 2.228 76.0021 3.308 77.2261 4.724L73.4821 8.18C71.6821 6.284 69.5101 5.336 66.9661 5.336C65.3581 5.336 63.9301 5.672 62.6821 6.344C61.4341 7.016 60.4621 7.964 59.7661 9.188C59.0701 10.412 58.7221 11.816 58.7221 13.4C58.7221 14.96 59.0701 16.352 59.7661 17.576C60.4621 18.8 61.4221 19.76 62.6461 20.456C63.8941 21.128 65.3101 21.464 66.8941 21.464C68.5741 21.464 70.0861 21.104 71.4301 20.384V13.004ZM98.7715 20.6H87.0715L84.8395 26H78.8635L90.0955 0.799998H95.8555L107.124 26H101.004L98.7715 20.6ZM96.9355 16.172L92.9395 6.524L88.9435 16.172H96.9355Z" fill="white"/>
</svg>
