<svg width="40" height="40" viewBox="0 0 40 40" fill="none" xmlns="http://www.w3.org/2000/svg">
<circle cx="20" cy="20" r="20" fill="#0F0216"/>
<path d="M19.9126 20.9319C19.9375 20.9319 19.9623 20.9319 19.9921 20.9319C20.0021 20.9319 20.012 20.9319 20.0219 20.9319C20.0369 20.9319 20.0567 20.9319 20.0716 20.9319C21.5278 20.907 22.7057 20.3951 23.5755 19.416C25.4889 17.2591 25.1708 13.5614 25.1361 13.2085C25.0118 10.5595 23.7594 9.29219 22.7256 8.70077C21.9553 8.25844 21.0557 8.01988 20.0518 8H20.017C20.012 8 20.0021 8 19.9971 8H19.9673C19.4156 8 18.3322 8.08946 17.2934 8.68089C16.2497 9.27231 14.9774 10.5397 14.8532 13.2085C14.8184 13.5614 14.5003 17.2591 16.4137 19.416C17.2785 20.3951 18.4564 20.907 19.9126 20.9319ZM16.1802 13.3328C16.1802 13.3179 16.1851 13.303 16.1851 13.293C16.3491 9.72955 18.8789 9.34686 19.9623 9.34686H19.9822C19.9921 9.34686 20.007 9.34686 20.0219 9.34686C21.3638 9.37668 23.6451 9.92338 23.7991 13.293C23.7991 13.3079 23.7991 13.3228 23.8041 13.3328C23.8091 13.3676 24.157 16.7472 22.5765 18.5264C21.9503 19.2321 21.1153 19.58 20.017 19.59C20.007 19.59 20.0021 19.59 19.9921 19.59C19.9822 19.59 19.9772 19.59 19.9673 19.59C18.8739 19.58 18.034 19.2321 17.4127 18.5264C15.8372 16.7571 16.1752 13.3626 16.1802 13.3328Z" fill="white"/>
<path d="M30.206 27.0652C30.206 27.0602 30.206 27.0553 30.206 27.0503C30.206 27.0105 30.201 26.9708 30.201 26.9261C30.1712 25.942 30.1066 23.6409 27.9496 22.9054C27.9347 22.9004 27.9148 22.8954 27.8999 22.8904C25.6585 22.3189 23.7947 21.0267 23.7749 21.0118C23.4717 20.7981 23.0542 20.8726 22.8405 21.1758C22.6268 21.479 22.7013 21.8964 23.0045 22.1102C23.089 22.1698 25.0671 23.5465 27.5421 24.1826C28.7001 24.5951 28.8293 25.8327 28.8641 26.9658C28.8641 27.0106 28.8641 27.0503 28.8691 27.0901C28.8741 27.5374 28.8442 28.2282 28.7647 28.6258C27.9596 29.083 24.8036 30.6635 20.0026 30.6635C15.2215 30.6635 12.0457 29.0781 11.2356 28.6208C11.1561 28.2232 11.1213 27.5324 11.1312 27.0851C11.1312 27.0453 11.1362 27.0056 11.1362 26.9609C11.171 25.8277 11.3002 24.5902 12.4582 24.1777C14.9333 23.5415 16.9113 22.1599 16.9958 22.1052C17.299 21.8915 17.3735 21.474 17.1598 21.1708C16.9461 20.8677 16.5286 20.7931 16.2255 21.0068C16.2056 21.0217 14.3518 22.3139 12.1004 22.8855C12.0805 22.8904 12.0656 22.8954 12.0507 22.9004C9.89372 23.6409 9.82911 25.942 9.79929 26.9211C9.79929 26.9658 9.79929 27.0056 9.79432 27.0453C9.79432 27.0503 9.79432 27.0553 9.79432 27.0602C9.78935 27.3187 9.78438 28.6457 10.0478 29.3116C10.0975 29.4409 10.1869 29.5502 10.3062 29.6248C10.4553 29.7242 14.0287 32.0004 20.0076 32.0004C25.9865 32.0004 29.5599 29.7192 29.709 29.6248C29.8233 29.5502 29.9177 29.4409 29.9674 29.3116C30.2159 28.6506 30.211 27.3237 30.206 27.0652Z" fill="white"/>
</svg>
