<svg width="24" height="24" viewBox="0 0 24 24" fill="none" xmlns="http://www.w3.org/2000/svg">
<path opacity="0.5" fill-rule="evenodd" clip-rule="evenodd" d="M16.3998 1C16.5424 2.2958 16.0202 3.5964 15.2498 4.5302C14.4793 5.46241 13.2108 6.19119 11.971 6.09349C11.8045 4.82332 12.4275 3.5019 13.1435 2.6738C13.9428 1.7384 15.2866 1.04485 16.3998 1ZM20.4023 8.54746C20.1636 8.69605 18.0057 10.0391 18.0336 12.7456C18.063 15.9742 20.7674 17.1204 20.9863 17.2132C20.9941 17.2165 20.9988 17.2185 21 17.2192C20.9981 17.2244 20.9942 17.2367 20.9882 17.2556C20.9083 17.5059 20.4593 18.9139 19.4671 20.3634C18.5462 21.7088 17.5931 23.0495 16.0859 23.0783C15.3631 23.0916 14.8798 22.8822 14.3773 22.6644C13.8509 22.4362 13.3033 22.199 12.4372 22.199C11.5297 22.199 10.9567 22.4433 10.4048 22.6787C9.92714 22.8825 9.46519 23.0795 8.81567 23.1055C7.3629 23.1584 6.25451 21.6512 5.32551 20.3089C3.42586 17.562 1.9763 12.5518 3.9256 9.16891C4.89304 7.4903 6.6213 6.42675 8.49853 6.39792C9.30743 6.3834 10.0911 6.6946 10.777 6.96695C11.3012 7.1751 11.7682 7.36056 12.1457 7.36056C12.4855 7.36056 12.9406 7.18113 13.471 6.97203C14.3057 6.643 15.3266 6.24054 16.3774 6.34827C17.0998 6.3771 19.1212 6.63818 20.4202 8.53623C20.4167 8.53851 20.4107 8.54225 20.4023 8.54746Z" fill="#3F0E4D"/>
<path opacity="0.5" fill-rule="evenodd" clip-rule="evenodd" d="M16.3998 1C16.5424 2.2958 16.0202 3.5964 15.2498 4.5302C14.4793 5.46241 13.2108 6.19119 11.971 6.09349C11.8045 4.82332 12.4275 3.5019 13.1435 2.6738C13.9428 1.7384 15.2866 1.04485 16.3998 1ZM20.4023 8.54746C20.1636 8.69605 18.0057 10.0391 18.0336 12.7456C18.063 15.9742 20.7674 17.1204 20.9863 17.2132C20.9941 17.2165 20.9988 17.2185 21 17.2192C20.9981 17.2244 20.9942 17.2367 20.9882 17.2556C20.9083 17.5059 20.4593 18.9139 19.4671 20.3634C18.5462 21.7088 17.5931 23.0495 16.0859 23.0783C15.3631 23.0916 14.8798 22.8822 14.3773 22.6644C13.8509 22.4362 13.3033 22.199 12.4372 22.199C11.5297 22.199 10.9567 22.4433 10.4048 22.6787C9.92714 22.8825 9.46519 23.0795 8.81567 23.1055C7.3629 23.1584 6.25451 21.6512 5.32551 20.3089C3.42586 17.562 1.9763 12.5518 3.9256 9.16891C4.89304 7.4903 6.6213 6.42675 8.49853 6.39792C9.30743 6.3834 10.0911 6.6946 10.777 6.96695C11.3012 7.1751 11.7682 7.36056 12.1457 7.36056C12.4855 7.36056 12.9406 7.18113 13.471 6.97203C14.3057 6.643 15.3266 6.24054 16.3774 6.34827C17.0998 6.3771 19.1212 6.63818 20.4202 8.53623C20.4167 8.53851 20.4107 8.54225 20.4023 8.54746Z" fill="#3F0E4D"/>
</svg>
