<svg width="321" height="29" viewBox="0 0 321 29" fill="none" xmlns="http://www.w3.org/2000/svg">
<rect y="14" width="321" height="1" rx="0.5" fill="url(#paint0_linear)"/>
<rect x="133" width="57" height="29" rx="14.5" fill="url(#paint1_linear)"/>
<path d="M146.574 14.2C147.454 14.248 148.122 14.488 148.578 14.92C149.042 15.344 149.274 15.9 149.274 16.588C149.274 17.068 149.158 17.496 148.926 17.872C148.694 18.24 148.35 18.532 147.894 18.748C147.438 18.964 146.882 19.072 146.226 19.072C145.618 19.072 145.042 18.976 144.498 18.784C143.962 18.584 143.53 18.32 143.202 17.992L143.622 17.308C143.902 17.596 144.274 17.832 144.738 18.016C145.202 18.192 145.698 18.28 146.226 18.28C146.914 18.28 147.446 18.132 147.822 17.836C148.198 17.532 148.386 17.116 148.386 16.588C148.386 16.068 148.198 15.66 147.822 15.364C147.446 15.068 146.878 14.92 146.118 14.92H145.518V14.284L147.846 11.368H143.55V10.6H148.95V11.212L146.574 14.2ZM155.888 19.06C155.376 19.06 154.884 18.988 154.412 18.844C153.948 18.692 153.584 18.504 153.32 18.28L153.704 17.608C153.968 17.816 154.3 17.988 154.7 18.124C155.1 18.252 155.516 18.316 155.948 18.316C156.524 18.316 156.948 18.228 157.22 18.052C157.5 17.868 157.64 17.612 157.64 17.284C157.64 17.052 157.564 16.872 157.412 16.744C157.26 16.608 157.068 16.508 156.836 16.444C156.604 16.372 156.296 16.304 155.912 16.24C155.4 16.144 154.988 16.048 154.676 15.952C154.364 15.848 154.096 15.676 153.872 15.436C153.656 15.196 153.548 14.864 153.548 14.44C153.548 13.912 153.768 13.48 154.208 13.144C154.648 12.808 155.26 12.64 156.044 12.64C156.452 12.64 156.86 12.696 157.268 12.808C157.676 12.912 158.012 13.052 158.276 13.228L157.904 13.912C157.384 13.552 156.764 13.372 156.044 13.372C155.5 13.372 155.088 13.468 154.808 13.66C154.536 13.852 154.4 14.104 154.4 14.416C154.4 14.656 154.476 14.848 154.628 14.992C154.788 15.136 154.984 15.244 155.216 15.316C155.448 15.38 155.768 15.448 156.176 15.52C156.68 15.616 157.084 15.712 157.388 15.808C157.692 15.904 157.952 16.068 158.168 16.3C158.384 16.532 158.492 16.852 158.492 17.26C158.492 17.812 158.26 18.252 157.796 18.58C157.34 18.9 156.704 19.06 155.888 19.06ZM163.391 18.616C163.231 18.76 163.031 18.872 162.791 18.952C162.559 19.024 162.315 19.06 162.059 19.06C161.467 19.06 161.011 18.9 160.691 18.58C160.371 18.26 160.211 17.808 160.211 17.224V13.408H159.083V12.688H160.211V11.308H161.063V12.688H162.983V13.408H161.063V17.176C161.063 17.552 161.155 17.84 161.339 18.04C161.531 18.232 161.803 18.328 162.155 18.328C162.331 18.328 162.499 18.3 162.659 18.244C162.827 18.188 162.971 18.108 163.091 18.004L163.391 18.616ZM170.215 16.108H164.935C164.983 16.764 165.235 17.296 165.691 17.704C166.147 18.104 166.723 18.304 167.419 18.304C167.811 18.304 168.171 18.236 168.499 18.1C168.827 17.956 169.111 17.748 169.351 17.476L169.831 18.028C169.551 18.364 169.199 18.62 168.775 18.796C168.359 18.972 167.899 19.06 167.395 19.06C166.747 19.06 166.171 18.924 165.667 18.652C165.171 18.372 164.783 17.988 164.503 17.5C164.223 17.012 164.083 16.46 164.083 15.844C164.083 15.228 164.215 14.676 164.479 14.188C164.751 13.7 165.119 13.32 165.583 13.048C166.055 12.776 166.583 12.64 167.167 12.64C167.751 12.64 168.275 12.776 168.739 13.048C169.203 13.32 169.567 13.7 169.831 14.188C170.095 14.668 170.227 15.22 170.227 15.844L170.215 16.108ZM167.167 13.372C166.559 13.372 166.047 13.568 165.631 13.96C165.223 14.344 164.991 14.848 164.935 15.472H169.411C169.355 14.848 169.119 14.344 168.703 13.96C168.295 13.568 167.783 13.372 167.167 13.372ZM175.213 12.64C175.805 12.64 176.341 12.776 176.821 13.048C177.301 13.312 177.677 13.688 177.949 14.176C178.221 14.664 178.357 15.22 178.357 15.844C178.357 16.476 178.221 17.036 177.949 17.524C177.677 18.012 177.301 18.392 176.821 18.664C176.349 18.928 175.813 19.06 175.213 19.06C174.701 19.06 174.237 18.956 173.821 18.748C173.413 18.532 173.077 18.22 172.813 17.812V21.328H171.961V12.688H172.777V13.936C173.033 13.52 173.369 13.2 173.785 12.976C174.209 12.752 174.685 12.64 175.213 12.64ZM175.153 18.304C175.593 18.304 175.993 18.204 176.353 18.004C176.713 17.796 176.993 17.504 177.193 17.128C177.401 16.752 177.505 16.324 177.505 15.844C177.505 15.364 177.401 14.94 177.193 14.572C176.993 14.196 176.713 13.904 176.353 13.696C175.993 13.488 175.593 13.384 175.153 13.384C174.705 13.384 174.301 13.488 173.941 13.696C173.589 13.904 173.309 14.196 173.101 14.572C172.901 14.94 172.801 15.364 172.801 15.844C172.801 16.324 172.901 16.752 173.101 17.128C173.309 17.504 173.589 17.796 173.941 18.004C174.301 18.204 174.705 18.304 175.153 18.304Z" fill="white"/>
<defs>
<linearGradient id="paint0_linear" x1="-9.40694e-07" y1="14.5128" x2="321" y2="14.5123" gradientUnits="userSpaceOnUse">
<stop stop-color="#8C5362"/>
<stop offset="1" stop-color="#713980"/>
</linearGradient>
<linearGradient id="paint1_linear" x1="133" y1="14.8718" x2="190" y2="14.8718" gradientUnits="userSpaceOnUse">
<stop stop-color="#8C5362"/>
<stop offset="1" stop-color="#713980"/>
</linearGradient>
</defs>
</svg>
