<svg width="24" height="24" viewBox="0 0 24 24" fill="none" xmlns="http://www.w3.org/2000/svg">
<path opacity="0.5" d="M17.2009 0H6.7991C5.8036 0 5 0.77357 5 1.72586V21.9682C5 22.9196 5.8036 23.6923 6.7991 23.6923H17.2009C18.1946 23.6923 19 22.9196 19 21.9682V1.72586C19 0.77357 18.1946 0 17.2009 0ZM9.43333 1.04812H14.5685C14.6982 1.04812 14.8036 1.23374 14.8036 1.46339C14.8036 1.69305 14.6982 1.87953 14.5685 1.87953H9.43333C9.3027 1.87953 9.1991 1.69305 9.1991 1.46339C9.1991 1.23374 9.3027 1.04812 9.43333 1.04812ZM12.0009 21.9889C11.3676 21.9889 10.8523 21.4951 10.8523 20.8873C10.8523 20.2794 11.3676 19.7873 12.0009 19.7873C12.6324 19.7873 13.1477 20.2794 13.1477 20.8873C13.1477 21.4951 12.6324 21.9889 12.0009 21.9889ZM17.6523 18.2169H6.34865V2.91211H17.6523V18.2169Z" fill="#3F0E4D"/>
<path opacity="0.5" d="M17.2009 0H6.7991C5.8036 0 5 0.77357 5 1.72586V21.9682C5 22.9196 5.8036 23.6923 6.7991 23.6923H17.2009C18.1946 23.6923 19 22.9196 19 21.9682V1.72586C19 0.77357 18.1946 0 17.2009 0ZM9.43333 1.04812H14.5685C14.6982 1.04812 14.8036 1.23374 14.8036 1.46339C14.8036 1.69305 14.6982 1.87953 14.5685 1.87953H9.43333C9.3027 1.87953 9.1991 1.69305 9.1991 1.46339C9.1991 1.23374 9.3027 1.04812 9.43333 1.04812ZM12.0009 21.9889C11.3676 21.9889 10.8523 21.4951 10.8523 20.8873C10.8523 20.2794 11.3676 19.7873 12.0009 19.7873C12.6324 19.7873 13.1477 20.2794 13.1477 20.8873C13.1477 21.4951 12.6324 21.9889 12.0009 21.9889ZM17.6523 18.2169H6.34865V2.91211H17.6523V18.2169Z" fill="#3F0E4D"/>
</svg>
