<svg width="24" height="24" viewBox="0 0 24 24" fill="none" xmlns="http://www.w3.org/2000/svg">
<path opacity="0.5" d="M19.5035 18.042C18.9542 17.817 18.7192 17.5184 18.7419 17.0729C18.7653 16.5529 18.4703 16.172 18.3302 16.0215C18.4148 15.6982 18.6622 14.5796 18.3304 13.6081C17.9739 12.5682 16.8855 10.98 15.7624 9.41875C15.3026 8.7776 15.2809 8.08069 15.2558 7.2737C15.2317 6.50399 15.2045 5.63153 14.7753 4.66164C14.3086 3.60558 13.3721 3 12.2059 3C11.5121 3 10.8 3.21683 10.2519 3.59483C9.12971 4.36932 9.27805 6.05793 9.3762 7.1753C9.38966 7.3283 9.40231 7.47283 9.40968 7.59623C9.47504 8.69056 9.41558 9.26733 9.33781 9.44264C9.28751 9.55719 9.03985 9.88323 8.77775 10.2284C8.50669 10.5854 8.19938 10.9901 7.94748 11.3672C7.64694 11.8209 7.40431 12.5145 7.16967 13.1851C6.99799 13.6759 6.83583 14.1395 6.67797 14.4165C6.37878 14.9494 6.45322 15.4463 6.51538 15.676C6.40212 15.7547 6.23848 15.9096 6.10034 16.2016C5.93339 16.5579 5.59464 16.7493 4.89023 16.8848C4.56652 16.951 4.34331 17.0871 4.2266 17.2893C4.05676 17.5836 4.14927 17.9534 4.23367 18.2061C4.35836 18.5776 4.28066 18.8127 4.13938 19.2396C4.10683 19.3381 4.06991 19.4497 4.0325 19.5727C3.9736 19.7668 3.99485 19.9434 4.09552 20.0974C4.36155 20.5041 5.13783 20.6475 5.93695 20.7418C6.41409 20.7985 6.93632 20.9893 7.44141 21.1739C7.9363 21.3548 8.44803 21.5418 8.91319 21.5986C8.98389 21.6075 9.05391 21.612 9.12142 21.612C9.82374 21.612 10.1411 21.1459 10.2417 20.9545C10.4939 20.903 11.364 20.7381 12.2607 20.716C13.1561 20.6905 14.0223 20.8673 14.2677 20.9222C14.3449 21.0699 14.5482 21.4072 14.8724 21.5809C15.0506 21.6784 15.2986 21.7342 15.5526 21.7342C15.5526 21.7342 15.5526 21.7342 15.5526 21.7342C15.8239 21.7342 16.3399 21.6701 16.7483 21.2404C17.1557 20.8087 18.1735 20.2576 18.9167 19.8552C19.0825 19.7654 19.2377 19.6814 19.3738 19.6055C19.7913 19.3741 20.0191 19.0434 19.9987 18.6983C19.9818 18.4116 19.7921 18.1601 19.5035 18.042ZM10.2611 17.9589C10.2091 17.5928 9.73818 17.2297 9.19279 16.8093C8.74685 16.4656 8.2414 16.0759 8.10215 15.746C7.81438 15.0653 8.04122 13.8684 8.43673 13.252C8.63218 12.9434 8.79182 12.4754 8.94624 12.0229C9.11294 11.5342 9.28536 11.0289 9.47817 10.8077C9.78351 10.4624 10.0657 9.79048 10.1157 9.26095C10.4016 9.53392 10.8452 9.88029 11.2549 9.88029C11.318 9.88029 11.3792 9.87205 11.4378 9.85553C11.7181 9.77457 12.1305 9.53631 12.5292 9.30597C12.873 9.10733 13.297 8.86237 13.4565 8.84007C13.73 9.23281 15.3193 12.75 15.4817 13.8795C15.6102 14.7733 15.4745 15.5121 15.4063 15.8014C15.3513 15.7939 15.2859 15.7879 15.2171 15.7879C14.7744 15.7879 14.6572 16.0295 14.6267 16.1738C14.5482 16.5487 14.5399 17.7473 14.539 18.0167C14.3789 18.2201 13.5694 19.1778 12.4072 19.35C11.9338 19.4188 11.4918 19.4536 11.0934 19.4536C10.7528 19.4536 10.5355 19.4274 10.4453 19.4137L9.86127 18.7454C10.0915 18.6317 10.3218 18.3918 10.2611 17.9589ZM11.0022 6.94029C10.9839 6.94815 10.966 6.95656 10.9484 6.96553C10.9466 6.92598 10.9425 6.88587 10.9361 6.84563C10.8724 6.47862 10.629 6.21223 10.3576 6.21223C10.3375 6.21223 10.3173 6.21376 10.2951 6.21714C10.1336 6.24405 10.007 6.36536 9.93756 6.53735C9.99843 6.15996 10.2122 5.88054 10.4659 5.88054C10.7638 5.88054 11.0155 6.28201 11.0155 6.75718C11.0155 6.81707 11.0111 6.87665 11.0022 6.94029ZM13.317 7.22327C13.3443 7.13641 13.359 7.04244 13.359 6.94489C13.359 6.51407 13.0857 6.17654 12.7367 6.17654C12.3957 6.17654 12.1182 6.52119 12.1182 6.94489C12.1182 6.97376 12.1196 7.00269 12.1223 7.03156C12.1043 7.02462 12.0867 7.01787 12.0695 7.01135C12.0302 6.8925 12.0104 6.76848 12.0104 6.64189C12.0104 6.12673 12.3396 5.70757 12.7444 5.70757C13.1491 5.70757 13.4784 6.12673 13.4784 6.64189C13.4784 6.8562 13.4193 7.06074 13.317 7.22327ZM13.0185 8.22595C13.0127 8.252 13.0003 8.26354 12.8631 8.33492C12.7938 8.37097 12.7075 8.41588 12.5996 8.4816L12.5275 8.52527C12.2377 8.70094 11.5592 9.11242 11.3749 9.13656C11.2498 9.15339 11.1724 9.10487 10.9984 8.98663C10.9592 8.95991 10.9174 8.93153 10.8729 8.90297C10.5592 8.69714 10.3574 8.47042 10.3346 8.38179C10.4369 8.30273 10.6904 8.10489 10.8202 7.98775C11.0836 7.74279 11.3487 7.57818 11.4799 7.57818C11.4869 7.57818 11.4931 7.57867 11.4996 7.5799C11.6538 7.60711 12.0341 7.75888 12.3118 7.86969C12.4402 7.92092 12.5511 7.96515 12.6291 7.99316C12.8749 8.07755 13.003 8.18554 13.0185 8.22595ZM15.2265 19.6735C15.3652 19.0482 15.5249 18.1975 15.499 17.6959C15.4931 17.582 15.483 17.458 15.4732 17.3381C15.455 17.1139 15.4279 16.7807 15.4558 16.6818C15.4614 16.6792 15.4675 16.677 15.4743 16.6751C15.4755 16.9619 15.5378 17.5338 15.9951 17.7332C16.1314 17.7927 16.2872 17.8228 16.4581 17.8228C16.9162 17.8228 17.4246 17.598 17.6328 17.3898C17.7554 17.2672 17.8586 17.1172 17.9308 16.9984C17.9466 17.0447 17.9563 17.1051 17.9512 17.183C17.924 17.6059 18.1295 18.1669 18.5206 18.3737L18.5776 18.4036C18.7169 18.4767 19.0869 18.671 19.0929 18.7631C19.0928 18.7632 19.0897 18.774 19.0691 18.7932C18.9764 18.8779 18.6502 19.0444 18.3347 19.2056C17.7751 19.4913 17.1407 19.8152 16.8559 20.1148C16.4548 20.5369 16.0011 20.8204 15.7271 20.8204C15.6942 20.8204 15.6641 20.8163 15.6374 20.8078C15.3399 20.715 15.095 20.2858 15.2265 19.6735ZM5.08476 18.0782C5.05441 17.9362 5.03046 17.8241 5.05619 17.7155C5.07487 17.635 5.4721 17.5488 5.64175 17.512C5.88026 17.4602 6.12694 17.4067 6.28824 17.3088C6.50635 17.1767 6.62447 16.933 6.72865 16.718C6.80408 16.5625 6.88196 16.4018 6.97465 16.349C6.97987 16.346 6.98786 16.3424 7.00309 16.3424C7.17674 16.3424 7.5411 16.7074 7.75105 17.0342C7.8043 17.1165 7.90295 17.2816 8.01708 17.4727C8.35841 18.0438 8.82578 18.826 9.06988 19.0882C9.28984 19.3239 9.64592 19.777 9.55833 20.1656C9.4942 20.4671 9.15281 20.7123 9.07228 20.7666C9.04304 20.7732 9.00686 20.7766 8.9643 20.7766C8.49711 20.7766 7.57231 20.3879 7.07545 20.1791L7.00192 20.1482C6.72447 20.0318 6.27153 19.9585 5.83352 19.8877C5.485 19.8312 5.00773 19.754 4.92862 19.6842C4.86449 19.6123 4.93887 19.3785 5.00448 19.1721C5.05171 19.0239 5.10048 18.8705 5.1272 18.71C5.1651 18.454 5.12051 18.2456 5.08476 18.0782Z" fill="#3F0E4D"/>
<path opacity="0.5" d="M19.5035 18.042C18.9542 17.817 18.7192 17.5184 18.7419 17.0729C18.7653 16.5529 18.4703 16.172 18.3302 16.0215C18.4148 15.6982 18.6622 14.5796 18.3304 13.6081C17.9739 12.5682 16.8855 10.98 15.7624 9.41875C15.3026 8.7776 15.2809 8.08069 15.2558 7.2737C15.2317 6.50399 15.2045 5.63153 14.7753 4.66164C14.3086 3.60558 13.3721 3 12.2059 3C11.5121 3 10.8 3.21683 10.2519 3.59483C9.12971 4.36932 9.27805 6.05793 9.3762 7.1753C9.38966 7.3283 9.40231 7.47283 9.40968 7.59623C9.47504 8.69056 9.41558 9.26733 9.33781 9.44264C9.28751 9.55719 9.03985 9.88323 8.77775 10.2284C8.50669 10.5854 8.19938 10.9901 7.94748 11.3672C7.64694 11.8209 7.40431 12.5145 7.16967 13.1851C6.99799 13.6759 6.83583 14.1395 6.67797 14.4165C6.37878 14.9494 6.45322 15.4463 6.51538 15.676C6.40212 15.7547 6.23848 15.9096 6.10034 16.2016C5.93339 16.5579 5.59464 16.7493 4.89023 16.8848C4.56652 16.951 4.34331 17.0871 4.2266 17.2893C4.05676 17.5836 4.14927 17.9534 4.23367 18.2061C4.35836 18.5776 4.28066 18.8127 4.13938 19.2396C4.10683 19.3381 4.06991 19.4497 4.0325 19.5727C3.9736 19.7668 3.99485 19.9434 4.09552 20.0974C4.36155 20.5041 5.13783 20.6475 5.93695 20.7418C6.41409 20.7985 6.93632 20.9893 7.44141 21.1739C7.9363 21.3548 8.44803 21.5418 8.91319 21.5986C8.98389 21.6075 9.05391 21.612 9.12142 21.612C9.82374 21.612 10.1411 21.1459 10.2417 20.9545C10.4939 20.903 11.364 20.7381 12.2607 20.716C13.1561 20.6905 14.0223 20.8673 14.2677 20.9222C14.3449 21.0699 14.5482 21.4072 14.8724 21.5809C15.0506 21.6784 15.2986 21.7342 15.5526 21.7342C15.5526 21.7342 15.5526 21.7342 15.5526 21.7342C15.8239 21.7342 16.3399 21.6701 16.7483 21.2404C17.1557 20.8087 18.1735 20.2576 18.9167 19.8552C19.0825 19.7654 19.2377 19.6814 19.3738 19.6055C19.7913 19.3741 20.0191 19.0434 19.9987 18.6983C19.9818 18.4116 19.7921 18.1601 19.5035 18.042ZM10.2611 17.9589C10.2091 17.5928 9.73818 17.2297 9.19279 16.8093C8.74685 16.4656 8.2414 16.0759 8.10215 15.746C7.81438 15.0653 8.04122 13.8684 8.43673 13.252C8.63218 12.9434 8.79182 12.4754 8.94624 12.0229C9.11294 11.5342 9.28536 11.0289 9.47817 10.8077C9.78351 10.4624 10.0657 9.79048 10.1157 9.26095C10.4016 9.53392 10.8452 9.88029 11.2549 9.88029C11.318 9.88029 11.3792 9.87205 11.4378 9.85553C11.7181 9.77457 12.1305 9.53631 12.5292 9.30597C12.873 9.10733 13.297 8.86237 13.4565 8.84007C13.73 9.23281 15.3193 12.75 15.4817 13.8795C15.6102 14.7733 15.4745 15.5121 15.4063 15.8014C15.3513 15.7939 15.2859 15.7879 15.2171 15.7879C14.7744 15.7879 14.6572 16.0295 14.6267 16.1738C14.5482 16.5487 14.5399 17.7473 14.539 18.0167C14.3789 18.2201 13.5694 19.1778 12.4072 19.35C11.9338 19.4188 11.4918 19.4536 11.0934 19.4536C10.7528 19.4536 10.5355 19.4274 10.4453 19.4137L9.86127 18.7454C10.0915 18.6317 10.3218 18.3918 10.2611 17.9589ZM11.0022 6.94029C10.9839 6.94815 10.966 6.95656 10.9484 6.96553C10.9466 6.92598 10.9425 6.88587 10.9361 6.84563C10.8724 6.47862 10.629 6.21223 10.3576 6.21223C10.3375 6.21223 10.3173 6.21376 10.2951 6.21714C10.1336 6.24405 10.007 6.36536 9.93756 6.53735C9.99843 6.15996 10.2122 5.88054 10.4659 5.88054C10.7638 5.88054 11.0155 6.28201 11.0155 6.75718C11.0155 6.81707 11.0111 6.87665 11.0022 6.94029ZM13.317 7.22327C13.3443 7.13641 13.359 7.04244 13.359 6.94489C13.359 6.51407 13.0857 6.17654 12.7367 6.17654C12.3957 6.17654 12.1182 6.52119 12.1182 6.94489C12.1182 6.97376 12.1196 7.00269 12.1223 7.03156C12.1043 7.02462 12.0867 7.01787 12.0695 7.01135C12.0302 6.8925 12.0104 6.76848 12.0104 6.64189C12.0104 6.12673 12.3396 5.70757 12.7444 5.70757C13.1491 5.70757 13.4784 6.12673 13.4784 6.64189C13.4784 6.8562 13.4193 7.06074 13.317 7.22327ZM13.0185 8.22595C13.0127 8.252 13.0003 8.26354 12.8631 8.33492C12.7938 8.37097 12.7075 8.41588 12.5996 8.4816L12.5275 8.52527C12.2377 8.70094 11.5592 9.11242 11.3749 9.13656C11.2498 9.15339 11.1724 9.10487 10.9984 8.98663C10.9592 8.95991 10.9174 8.93153 10.8729 8.90297C10.5592 8.69714 10.3574 8.47042 10.3346 8.38179C10.4369 8.30273 10.6904 8.10489 10.8202 7.98775C11.0836 7.74279 11.3487 7.57818 11.4799 7.57818C11.4869 7.57818 11.4931 7.57867 11.4996 7.5799C11.6538 7.60711 12.0341 7.75888 12.3118 7.86969C12.4402 7.92092 12.5511 7.96515 12.6291 7.99316C12.8749 8.07755 13.003 8.18554 13.0185 8.22595ZM15.2265 19.6735C15.3652 19.0482 15.5249 18.1975 15.499 17.6959C15.4931 17.582 15.483 17.458 15.4732 17.3381C15.455 17.1139 15.4279 16.7807 15.4558 16.6818C15.4614 16.6792 15.4675 16.677 15.4743 16.6751C15.4755 16.9619 15.5378 17.5338 15.9951 17.7332C16.1314 17.7927 16.2872 17.8228 16.4581 17.8228C16.9162 17.8228 17.4246 17.598 17.6328 17.3898C17.7554 17.2672 17.8586 17.1172 17.9308 16.9984C17.9466 17.0447 17.9563 17.1051 17.9512 17.183C17.924 17.6059 18.1295 18.1669 18.5206 18.3737L18.5776 18.4036C18.7169 18.4767 19.0869 18.671 19.0929 18.7631C19.0928 18.7632 19.0897 18.774 19.0691 18.7932C18.9764 18.8779 18.6502 19.0444 18.3347 19.2056C17.7751 19.4913 17.1407 19.8152 16.8559 20.1148C16.4548 20.5369 16.0011 20.8204 15.7271 20.8204C15.6942 20.8204 15.6641 20.8163 15.6374 20.8078C15.3399 20.715 15.095 20.2858 15.2265 19.6735ZM5.08476 18.0782C5.05441 17.9362 5.03046 17.8241 5.05619 17.7155C5.07487 17.635 5.4721 17.5488 5.64175 17.512C5.88026 17.4602 6.12694 17.4067 6.28824 17.3088C6.50635 17.1767 6.62447 16.933 6.72865 16.718C6.80408 16.5625 6.88196 16.4018 6.97465 16.349C6.97987 16.346 6.98786 16.3424 7.00309 16.3424C7.17674 16.3424 7.5411 16.7074 7.75105 17.0342C7.8043 17.1165 7.90295 17.2816 8.01708 17.4727C8.35841 18.0438 8.82578 18.826 9.06988 19.0882C9.28984 19.3239 9.64592 19.777 9.55833 20.1656C9.4942 20.4671 9.15281 20.7123 9.07228 20.7666C9.04304 20.7732 9.00686 20.7766 8.9643 20.7766C8.49711 20.7766 7.57231 20.3879 7.07545 20.1791L7.00192 20.1482C6.72447 20.0318 6.27153 19.9585 5.83352 19.8877C5.485 19.8312 5.00773 19.754 4.92862 19.6842C4.86449 19.6123 4.93887 19.3785 5.00448 19.1721C5.05171 19.0239 5.10048 18.8705 5.1272 18.71C5.1651 18.454 5.12051 18.2456 5.08476 18.0782Z" fill="#3F0E4D"/>
</svg>
