<svg width="24" height="24" viewBox="0 0 24 24" fill="none" xmlns="http://www.w3.org/2000/svg">
<path opacity="0.5" fill-rule="evenodd" clip-rule="evenodd" d="M5.28449 3H18.1294C18.8391 3 19.4139 3.57481 19.4139 4.28449V6.85348C19.4139 7.56317 18.8391 8.13798 18.1294 8.13798H5.28449C4.57481 8.13798 4 7.56317 4 6.85348V4.28449C4 3.57481 4.57481 3 5.28449 3ZM6.56899 6.21124H9.13798C9.4925 6.21124 9.78023 5.92351 9.78023 5.56899C9.78023 5.21447 9.4925 4.92674 9.13798 4.92674H6.56899C6.21447 4.92674 5.92674 5.21447 5.92674 5.56899C5.92674 5.92351 6.21447 6.21124 6.56899 6.21124ZM16.2027 5.56899C16.2027 5.92351 16.4904 6.21124 16.8449 6.21124C17.1995 6.21124 17.4872 5.92351 17.4872 5.56899C17.4872 5.21447 17.1995 4.92674 16.8449 4.92674C16.4904 4.92674 16.2027 5.21447 16.2027 5.56899ZM18.1294 9.42249H5.28449C4.57481 9.42249 4 9.9973 4 10.707V13.276C4 13.9857 4.57481 14.5605 5.28449 14.5605H18.1294C18.8391 14.5605 19.4139 13.9857 19.4139 13.276V10.707C19.4139 9.9973 18.8391 9.42249 18.1294 9.42249ZM9.13798 12.6337H6.56899C6.21447 12.6337 5.92674 12.346 5.92674 11.9915C5.92674 11.637 6.21447 11.3492 6.56899 11.3492H9.13798C9.4925 11.3492 9.78023 11.637 9.78023 11.9915C9.78023 12.346 9.4925 12.6337 9.13798 12.6337ZM16.8449 12.6337C16.4904 12.6337 16.2027 12.346 16.2027 11.9915C16.2027 11.637 16.4904 11.3492 16.8449 11.3492C17.1995 11.3492 17.4872 11.637 17.4872 11.9915C17.4872 12.346 17.1995 12.6337 16.8449 12.6337ZM18.1294 15.845H5.28449C4.57481 15.845 4 16.4198 4 17.1295V19.6985C4 20.4081 4.57481 20.983 5.28449 20.983H18.1294C18.8391 20.983 19.4139 20.4081 19.4139 19.6985V17.1295C19.4139 16.4198 18.8391 15.845 18.1294 15.845ZM9.13798 19.0562H6.56899C6.21447 19.0562 5.92674 18.7685 5.92674 18.414C5.92674 18.0594 6.21447 17.7717 6.56899 17.7717H9.13798C9.4925 17.7717 9.78023 18.0594 9.78023 18.414C9.78023 18.7685 9.4925 19.0562 9.13798 19.0562ZM16.8449 19.0562C16.4904 19.0562 16.2027 18.7685 16.2027 18.414C16.2027 18.0594 16.4904 17.7717 16.8449 17.7717C17.1995 17.7717 17.4872 18.0594 17.4872 18.414C17.4872 18.7685 17.1995 19.0562 16.8449 19.0562Z" fill="#3F0E4D"/>
<path opacity="0.5" fill-rule="evenodd" clip-rule="evenodd" d="M5.28449 3H18.1294C18.8391 3 19.4139 3.57481 19.4139 4.28449V6.85348C19.4139 7.56317 18.8391 8.13798 18.1294 8.13798H5.28449C4.57481 8.13798 4 7.56317 4 6.85348V4.28449C4 3.57481 4.57481 3 5.28449 3ZM6.56899 6.21124H9.13798C9.4925 6.21124 9.78023 5.92351 9.78023 5.56899C9.78023 5.21447 9.4925 4.92674 9.13798 4.92674H6.56899C6.21447 4.92674 5.92674 5.21447 5.92674 5.56899C5.92674 5.92351 6.21447 6.21124 6.56899 6.21124ZM16.2027 5.56899C16.2027 5.92351 16.4904 6.21124 16.8449 6.21124C17.1995 6.21124 17.4872 5.92351 17.4872 5.56899C17.4872 5.21447 17.1995 4.92674 16.8449 4.92674C16.4904 4.92674 16.2027 5.21447 16.2027 5.56899ZM18.1294 9.42249H5.28449C4.57481 9.42249 4 9.9973 4 10.707V13.276C4 13.9857 4.57481 14.5605 5.28449 14.5605H18.1294C18.8391 14.5605 19.4139 13.9857 19.4139 13.276V10.707C19.4139 9.9973 18.8391 9.42249 18.1294 9.42249ZM9.13798 12.6337H6.56899C6.21447 12.6337 5.92674 12.346 5.92674 11.9915C5.92674 11.637 6.21447 11.3492 6.56899 11.3492H9.13798C9.4925 11.3492 9.78023 11.637 9.78023 11.9915C9.78023 12.346 9.4925 12.6337 9.13798 12.6337ZM16.8449 12.6337C16.4904 12.6337 16.2027 12.346 16.2027 11.9915C16.2027 11.637 16.4904 11.3492 16.8449 11.3492C17.1995 11.3492 17.4872 11.637 17.4872 11.9915C17.4872 12.346 17.1995 12.6337 16.8449 12.6337ZM18.1294 15.845H5.28449C4.57481 15.845 4 16.4198 4 17.1295V19.6985C4 20.4081 4.57481 20.983 5.28449 20.983H18.1294C18.8391 20.983 19.4139 20.4081 19.4139 19.6985V17.1295C19.4139 16.4198 18.8391 15.845 18.1294 15.845ZM9.13798 19.0562H6.56899C6.21447 19.0562 5.92674 18.7685 5.92674 18.414C5.92674 18.0594 6.21447 17.7717 6.56899 17.7717H9.13798C9.4925 17.7717 9.78023 18.0594 9.78023 18.414C9.78023 18.7685 9.4925 19.0562 9.13798 19.0562ZM16.8449 19.0562C16.4904 19.0562 16.2027 18.7685 16.2027 18.414C16.2027 18.0594 16.4904 17.7717 16.8449 17.7717C17.1995 17.7717 17.4872 18.0594 17.4872 18.414C17.4872 18.7685 17.1995 19.0562 16.8449 19.0562Z" fill="#3F0E4D"/>
</svg>
