<svg width="24" height="24" viewBox="0 0 24 24" fill="none" xmlns="http://www.w3.org/2000/svg">
<path opacity="0.5" fill-rule="evenodd" clip-rule="evenodd" d="M15.5632 3.06463L16.521 1.2968C16.5841 1.17987 16.5615 1.08993 16.4537 1.02702C16.3366 0.972995 16.2467 0.999982 16.184 1.10803L15.2122 2.88919C14.3576 2.51136 13.4537 2.32244 12.5 2.32244C11.5465 2.32244 10.6423 2.51136 9.78762 2.88919L8.81605 1.10808C8.75329 1.00003 8.6632 0.973042 8.54627 1.02706C8.43827 1.08997 8.41591 1.17992 8.47887 1.29685L9.43696 3.06463C8.46526 3.55935 7.69182 4.24984 7.11591 5.13595C6.54018 6.02211 6.25224 6.9915 6.25224 8.04389H18.7345C18.7345 6.9915 18.4466 6.02206 17.8709 5.13595C17.2949 4.24984 16.5261 3.5593 15.5632 3.06463ZM10.0238 5.63515C9.92043 5.73866 9.79679 5.79037 9.65282 5.79037C9.50885 5.79037 9.38748 5.73871 9.28841 5.63515C9.18958 5.53179 9.14 5.40805 9.14 5.26413C9.14 5.12016 9.18958 4.99642 9.28841 4.89291C9.38734 4.78941 9.5089 4.73779 9.65282 4.73779C9.7966 4.73779 9.92029 4.78936 10.0238 4.89291C10.1273 4.99642 10.179 5.12016 10.179 5.26413C10.179 5.4081 10.1273 5.53165 10.0238 5.63515ZM15.7118 5.63515C15.6127 5.73866 15.4912 5.79037 15.3473 5.79037C15.2033 5.79037 15.0799 5.73871 14.9764 5.63515C14.8728 5.53179 14.8213 5.40805 14.8213 5.26413C14.8213 5.12016 14.8728 4.99642 14.9764 4.89291C15.0799 4.78941 15.2033 4.73779 15.3473 4.73779C15.4912 4.73779 15.6127 4.78936 15.7118 4.89291C15.8105 4.99642 15.8602 5.12016 15.8602 5.26413C15.8602 5.4081 15.8107 5.53165 15.7118 5.63515ZM3.40477 8.67814C3.67456 8.40812 4.00319 8.27327 4.38995 8.27327C4.76769 8.27327 5.09169 8.40826 5.36152 8.67814C5.6313 8.94793 5.76634 9.27174 5.76634 9.64966V15.4524C5.76634 15.839 5.63367 16.1673 5.36813 16.4373C5.10279 16.7072 4.77672 16.8419 4.38981 16.8419C4.003 16.8419 3.67456 16.7072 3.40477 16.4373C3.13494 16.1673 3 15.839 3 15.4524V9.64966C3 9.27188 3.13499 8.94807 3.40477 8.67814ZM6.73821 18.5694C6.45037 18.2815 6.30641 17.9307 6.30641 17.5169V8.52963H18.6936V17.5169C18.6936 17.9307 18.5496 18.2815 18.2617 18.5694C17.9739 18.8573 17.6274 19.001 17.2228 19.001H16.2106V22.0642C16.2106 22.4511 16.0759 22.7792 15.8061 23.0492C15.5363 23.3191 15.2079 23.454 14.8214 23.454C14.4345 23.454 14.1061 23.3191 13.836 23.0492C13.5662 22.7792 13.4313 22.4511 13.4313 22.0642V19.001H11.5692V22.0642C11.5692 22.4511 11.4344 22.7792 11.1645 23.0492C10.8946 23.3191 10.5663 23.454 10.1793 23.454C9.80151 23.454 9.47756 23.3191 9.20778 23.0492C8.93795 22.7792 8.80301 22.4511 8.80301 22.0642L8.78939 19.001H7.79079C7.37685 19.001 7.0261 18.857 6.73821 18.5694ZM20.6099 8.27327C20.9969 8.27327 21.3252 8.40599 21.595 8.67133C21.8651 8.93672 21.9999 9.2629 21.9999 9.64966V15.4524C21.9999 15.839 21.8651 16.1673 21.595 16.4373C21.3252 16.7072 20.9969 16.8419 20.6099 16.8419C20.2323 16.8419 19.9084 16.7072 19.6386 16.4373C19.3687 16.1673 19.2337 15.839 19.2337 15.4524V9.64966C19.2337 9.26294 19.3687 8.93677 19.6386 8.67133C19.9084 8.40599 20.2323 8.27327 20.6099 8.27327Z" fill="white"/>
<path opacity="0.5" fill-rule="evenodd" clip-rule="evenodd" d="M15.5632 3.06463L16.521 1.2968C16.5841 1.17987 16.5615 1.08993 16.4537 1.02702C16.3366 0.972995 16.2467 0.999982 16.184 1.10803L15.2122 2.88919C14.3576 2.51136 13.4537 2.32244 12.5 2.32244C11.5465 2.32244 10.6423 2.51136 9.78762 2.88919L8.81605 1.10808C8.75329 1.00003 8.6632 0.973042 8.54627 1.02706C8.43827 1.08997 8.41591 1.17992 8.47887 1.29685L9.43696 3.06463C8.46526 3.55935 7.69182 4.24984 7.11591 5.13595C6.54018 6.02211 6.25224 6.9915 6.25224 8.04389H18.7345C18.7345 6.9915 18.4466 6.02206 17.8709 5.13595C17.2949 4.24984 16.5261 3.5593 15.5632 3.06463ZM10.0238 5.63515C9.92043 5.73866 9.79679 5.79037 9.65282 5.79037C9.50885 5.79037 9.38748 5.73871 9.28841 5.63515C9.18958 5.53179 9.14 5.40805 9.14 5.26413C9.14 5.12016 9.18958 4.99642 9.28841 4.89291C9.38734 4.78941 9.5089 4.73779 9.65282 4.73779C9.7966 4.73779 9.92029 4.78936 10.0238 4.89291C10.1273 4.99642 10.179 5.12016 10.179 5.26413C10.179 5.4081 10.1273 5.53165 10.0238 5.63515ZM15.7118 5.63515C15.6127 5.73866 15.4912 5.79037 15.3473 5.79037C15.2033 5.79037 15.0799 5.73871 14.9764 5.63515C14.8728 5.53179 14.8213 5.40805 14.8213 5.26413C14.8213 5.12016 14.8728 4.99642 14.9764 4.89291C15.0799 4.78941 15.2033 4.73779 15.3473 4.73779C15.4912 4.73779 15.6127 4.78936 15.7118 4.89291C15.8105 4.99642 15.8602 5.12016 15.8602 5.26413C15.8602 5.4081 15.8107 5.53165 15.7118 5.63515ZM3.40477 8.67814C3.67456 8.40812 4.00319 8.27327 4.38995 8.27327C4.76769 8.27327 5.09169 8.40826 5.36152 8.67814C5.6313 8.94793 5.76634 9.27174 5.76634 9.64966V15.4524C5.76634 15.839 5.63367 16.1673 5.36813 16.4373C5.10279 16.7072 4.77672 16.8419 4.38981 16.8419C4.003 16.8419 3.67456 16.7072 3.40477 16.4373C3.13494 16.1673 3 15.839 3 15.4524V9.64966C3 9.27188 3.13499 8.94807 3.40477 8.67814ZM6.73821 18.5694C6.45037 18.2815 6.30641 17.9307 6.30641 17.5169V8.52963H18.6936V17.5169C18.6936 17.9307 18.5496 18.2815 18.2617 18.5694C17.9739 18.8573 17.6274 19.001 17.2228 19.001H16.2106V22.0642C16.2106 22.4511 16.0759 22.7792 15.8061 23.0492C15.5363 23.3191 15.2079 23.454 14.8214 23.454C14.4345 23.454 14.1061 23.3191 13.836 23.0492C13.5662 22.7792 13.4313 22.4511 13.4313 22.0642V19.001H11.5692V22.0642C11.5692 22.4511 11.4344 22.7792 11.1645 23.0492C10.8945 23.3191 10.5663 23.454 10.1793 23.454C9.80151 23.454 9.47756 23.3191 9.20778 23.0492C8.93795 22.7792 8.80301 22.4511 8.80301 22.0642L8.78939 19.001H7.79079C7.37685 19.001 7.0261 18.857 6.73821 18.5694ZM20.6099 8.27327C20.9969 8.27327 21.3252 8.40599 21.595 8.67133C21.8651 8.93672 21.9999 9.2629 21.9999 9.64966V15.4524C21.9999 15.839 21.8651 16.1673 21.595 16.4373C21.3252 16.7072 20.9969 16.8419 20.6099 16.8419C20.2323 16.8419 19.9084 16.7072 19.6386 16.4373C19.3687 16.1673 19.2337 15.839 19.2337 15.4524V9.64966C19.2337 9.26294 19.3687 8.93677 19.6386 8.67133C19.9084 8.40599 20.2323 8.27327 20.6099 8.27327Z" fill="white"/>
</svg>
