<svg width="24" height="24" viewBox="0 0 24 24" fill="none" xmlns="http://www.w3.org/2000/svg">
<path opacity="0.5" fill-rule="evenodd" clip-rule="evenodd" d="M15.1665 1C15.2853 2.07983 14.8502 3.16367 14.2082 3.94184C13.5661 4.71867 12.509 5.326 11.4759 5.24457C11.3371 4.1861 11.8563 3.08491 12.4529 2.39484C13.119 1.61533 14.2389 1.03737 15.1665 1ZM18.5019 7.28947C18.303 7.4133 16.5048 8.5325 16.528 10.7879C16.5525 13.4784 18.8061 14.4336 18.9886 14.5109C18.9951 14.5137 18.999 14.5154 19 14.5159C18.9984 14.5203 18.9951 14.5305 18.9901 14.5462C18.9236 14.7549 18.5494 15.9281 17.7226 17.1361C16.9551 18.2573 16.1609 19.3745 14.9049 19.3985C14.3026 19.4096 13.8999 19.2351 13.4811 19.0536C13.0424 18.8635 12.5861 18.6657 11.8643 18.6657C11.1081 18.6657 10.6306 18.8694 10.1707 19.0655C9.77261 19.2353 9.38766 19.3995 8.84639 19.4212C7.63575 19.4652 6.71209 18.2092 5.93792 17.0907C4.35488 14.8015 3.14691 10.6264 4.77133 7.80734C5.57753 6.4085 7.01775 5.52221 8.58211 5.49819C9.25619 5.48608 9.90927 5.74542 10.4808 5.97238C10.9176 6.14584 11.3068 6.30039 11.6214 6.30039C11.9046 6.30039 12.2839 6.15086 12.7259 5.97661C13.4214 5.70242 14.2721 5.36704 15.1478 5.45681C15.7498 5.48084 17.4343 5.6984 18.5168 7.28011C18.5139 7.28201 18.5089 7.28513 18.5019 7.28947Z" fill="white"/>
<path opacity="0.5" fill-rule="evenodd" clip-rule="evenodd" d="M15.1665 1C15.2853 2.07983 14.8502 3.16367 14.2082 3.94184C13.5661 4.71867 12.509 5.326 11.4759 5.24457C11.3371 4.1861 11.8563 3.08491 12.4529 2.39484C13.119 1.61533 14.2389 1.03737 15.1665 1ZM18.5019 7.28947C18.303 7.41329 16.5048 8.53249 16.528 10.7879C16.5525 13.4784 18.8061 14.4336 18.9886 14.5109C18.9951 14.5137 18.999 14.5154 19 14.5159C18.9984 14.5203 18.9951 14.5305 18.9901 14.5462C18.9236 14.7549 18.5494 15.9281 17.7226 17.1361C16.9551 18.2573 16.1609 19.3745 14.9049 19.3985C14.3026 19.4096 13.8999 19.2351 13.4811 19.0536C13.0424 18.8635 12.5861 18.6657 11.8643 18.6657C11.1081 18.6657 10.6306 18.8694 10.1707 19.0655C9.77261 19.2353 9.38766 19.3995 8.84639 19.4212C7.63575 19.4652 6.71209 18.2092 5.93792 17.0907C4.35488 14.8015 3.14691 10.6264 4.77133 7.80734C5.57753 6.4085 7.01775 5.52221 8.58211 5.49819C9.25619 5.48608 9.90927 5.74542 10.4808 5.97238C10.9176 6.14584 11.3068 6.30039 11.6214 6.30039C11.9046 6.30039 12.2839 6.15086 12.7259 5.97661C13.4214 5.70242 14.2721 5.36704 15.1478 5.45681C15.7498 5.48084 17.4343 5.6984 18.5168 7.28011C18.5139 7.28201 18.5089 7.28513 18.5019 7.28947Z" fill="white"/>
</svg>
