<svg width="24" height="24" viewBox="0 0 24 24" fill="none" xmlns="http://www.w3.org/2000/svg">
<path opacity="0.5" fill-rule="evenodd" clip-rule="evenodd" d="M17.6693 5.25084C16.2909 3.87243 14.455 3.11328 12.4999 3.11328C10.5449 3.11328 8.70899 3.87243 7.33058 5.25084L6.54346 4.46357C8.13206 2.87497 10.2474 2 12.4999 2C14.7525 2 16.8678 2.87497 18.4564 4.46357L17.6693 5.25084ZM16.6025 6.31776C14.3404 4.05554 10.6597 4.05554 8.39758 6.31776L9.18471 7.10488C11.0129 5.27696 13.9872 5.27696 15.8154 7.10488L16.6025 6.31776ZM11.0387 8.95909L10.2515 8.17182C11.4913 6.93199 13.5085 6.93199 14.7484 8.17182L13.9611 8.95909C13.1554 8.15341 11.8444 8.15341 11.0387 8.95909ZM13.0566 14.3154H22V19.8854H20.8858V21H19.7726V19.8854H5.22743V21H4.11415V19.8854H3V14.3154H11.9434V9.84473H13.0566V14.3154ZM4.11328 18.7721H20.8867V15.4287H4.11328V18.7721ZM8.57038 16.5437H5.22778V17.657H8.57038V16.5437ZM9.68457 16.5437H10.7987V17.657H9.68457V16.5437ZM15.3154 16.5437H14.2013V17.657H15.3154V16.5437ZM16.4296 16.5437H19.7722V17.657H16.4296V16.5437Z" fill="white"/>
<path opacity="0.5" fill-rule="evenodd" clip-rule="evenodd" d="M17.6693 5.25084C16.2909 3.87243 14.455 3.11328 12.4999 3.11328C10.5449 3.11328 8.70899 3.87243 7.33058 5.25084L6.54346 4.46357C8.13206 2.87497 10.2474 2 12.4999 2C14.7525 2 16.8678 2.87497 18.4564 4.46357L17.6693 5.25084ZM16.6025 6.31776C14.3404 4.05554 10.6597 4.05554 8.39758 6.31776L9.18471 7.10488C11.0129 5.27696 13.9872 5.27696 15.8154 7.10488L16.6025 6.31776ZM11.0387 8.95909L10.2515 8.17182C11.4913 6.93199 13.5085 6.93199 14.7484 8.17182L13.9611 8.95909C13.1554 8.15341 11.8444 8.15341 11.0387 8.95909ZM13.0566 14.3154H22V19.8854H20.8858V21H19.7726V19.8854H5.22743V21H4.11415V19.8854H3V14.3154H11.9434V9.84473H13.0566V14.3154ZM4.11328 18.7721H20.8867V15.4287H4.11328V18.7721ZM8.57038 16.5437H5.22778V17.657H8.57038V16.5437ZM9.68457 16.5437H10.7987V17.657H9.68457V16.5437ZM15.3154 16.5437H14.2013V17.657H15.3154V16.5437ZM16.4296 16.5437H19.7722V17.657H16.4296V16.5437Z" fill="white"/>
</svg>
