<svg width="24" height="24" viewBox="0 0 24 24" fill="none" xmlns="http://www.w3.org/2000/svg">
<path d="M0 0H24V24H0V0Z" fill="#F2ECEC"/>
<path opacity="0.5" fill-rule="evenodd" clip-rule="evenodd" d="M11.0086 11.4976V2.65264L23 1V11.4976H11.0086ZM10.0169 11.4976H1V4.02759L10.0169 2.78487V11.4976ZM10.0169 21.2153L1 19.9726V12.6084H10.0169V21.2153ZM11.0084 21.3477L23 23.0001V12.6084V12.6082H11.0084V21.3477Z" fill="white"/>
<path d="M0 0H24V24H0V0Z" fill="#F2ECEC"/>
<path opacity="0.5" fill-rule="evenodd" clip-rule="evenodd" d="M11.0086 11.4976V2.65264L23 1V11.4976H11.0086ZM10.0169 11.4976H1V4.02759L10.0169 2.78487V11.4976ZM10.0169 21.2153L1 19.9726V12.6084H10.0169V21.2153ZM11.0084 21.3477L23 23.0001V12.6084V12.6082H11.0084V21.3477Z" fill="white"/>
</svg>
