<svg width="24" height="24" viewBox="0 0 24 24" fill="none" xmlns="http://www.w3.org/2000/svg">
<path fill-rule="evenodd" clip-rule="evenodd" d="M14.1393 12L20.5569 5.58237C21.1477 4.99162 21.1477 4.03382 20.5569 3.44315C19.9662 2.8524 19.0085 2.8524 18.4177 3.44315L12 9.8609L5.58222 3.44307C4.99147 2.85231 4.03376 2.85231 3.443 3.44307C2.85233 4.03382 2.85233 4.99162 3.443 5.58229L9.86075 11.9999L3.443 18.4177C2.85233 19.0084 2.85233 19.9662 3.443 20.5569C4.03376 21.1477 4.99147 21.1477 5.58222 20.5569L12 14.1392L18.4177 20.5569C19.0084 21.1477 19.9662 21.1477 20.5569 20.5569C21.1477 19.9662 21.1477 19.0084 20.5569 18.4177L14.1393 12Z" fill="#0F0216"/>
</svg>
