<svg width="70" height="70" viewBox="0 0 70 70" fill="none" xmlns="http://www.w3.org/2000/svg">
<path d="M32.75 1.87639C34.1423 1.07254 35.8577 1.07254 37.25 1.87639L62.5609 16.4896C63.9532 17.2935 64.8109 18.7791 64.8109 20.3868V49.6133C64.8109 51.2209 63.9532 52.7065 62.5609 53.5104L37.25 68.1236C35.8577 68.9275 34.1423 68.9275 32.75 68.1236L7.43911 53.5104C6.0468 52.7065 5.18911 51.2209 5.18911 49.6132V20.3867C5.18911 18.7791 6.04681 17.2935 7.43911 16.4896L32.75 1.87639Z" fill="url(#paint0_linear)" stroke="white"/>
<path d="M32.5 8.44338C34.047 7.55021 35.953 7.55021 37.5 8.44338L56.7487 19.5566C58.2957 20.4498 59.2487 22.1004 59.2487 23.8868V46.1132C59.2487 47.8996 58.2957 49.5502 56.7487 50.4434L37.5 61.5566C35.953 62.4498 34.047 62.4498 32.5 61.5566L13.2513 50.4434C11.7043 49.5502 10.7513 47.8996 10.7513 46.1132V23.8868C10.7513 22.1004 11.7043 20.4498 13.2513 19.5566L32.5 8.44338Z" fill="url(#paint1_linear)"/>
<path d="M32.75 8.87639C34.1423 8.07254 35.8577 8.07254 37.25 8.87639L56.4987 19.9896C57.891 20.7935 58.7487 22.2791 58.7487 23.8868V46.1132C58.7487 47.7209 57.891 49.2065 56.4987 50.0104L37.25 61.1236C35.8577 61.9275 34.1423 61.9275 32.75 61.1236L13.5013 50.0104C12.109 49.2065 11.2513 47.7209 11.2513 46.1132V23.8868C11.2513 22.2791 12.109 20.7935 13.5013 19.9896L32.75 8.87639Z" stroke="white" stroke-opacity="0.5"/>
<path d="M33.1649 40.6796L35.4449 38.3996L32.9423 35.897C32.6455 35.6002 32.6455 35.119 32.9423 34.8222L35.9823 31.7822C36.2791 31.4854 36.7603 31.4854 37.0571 31.7822C37.3539 32.079 37.3539 32.5602 37.0571 32.857L34.5545 35.3596L37.0571 37.8622C37.3539 38.159 37.3539 38.6402 37.0571 38.937L35.3145 40.6796H33.1649Z" fill="white"/>
<path opacity="0.5" fill-rule="evenodd" clip-rule="evenodd" d="M40.3202 52.8397C40.3202 55.1197 38.0402 57.3997 35.7602 57.3997C33.4802 57.3997 31.2002 55.1197 31.2002 52.8397C31.2002 48.2797 35.7602 43.7197 35.7602 43.7197C35.7602 43.7197 40.3202 48.2797 40.3202 52.8397Z" fill="white"/>
<path d="M22.84 27H18.28C17.0208 27 16 28.0208 16 29.28V39.92C16 41.1792 17.0208 42.2 18.28 42.2H22.84C24.0992 42.2 25.12 41.1792 25.12 39.92V29.28C25.12 28.0208 24.0992 27 22.84 27Z" fill="white"/>
<path d="M51.7199 27H47.1599C45.9007 27 44.8799 28.0208 44.8799 29.28V39.92C44.8799 41.1792 45.9007 42.2 47.1599 42.2H51.7199C52.9791 42.2 53.9999 41.1792 53.9999 39.92V29.28C53.9999 28.0208 52.9791 27 51.7199 27Z" fill="white"/>
<defs>
<linearGradient id="paint0_linear" x1="70" y1="35" x2="-3.75936e-07" y2="35" gradientUnits="userSpaceOnUse">
<stop stop-color="#6B3385"/>
<stop offset="1" stop-color="#90575D"/>
</linearGradient>
<linearGradient id="paint1_linear" x1="63" y1="35" x2="7" y2="35" gradientUnits="userSpaceOnUse">
<stop stop-color="#6B3385"/>
<stop offset="1" stop-color="#90575D"/>
</linearGradient>
</defs>
</svg>
