<svg width="72" height="70" viewBox="0 0 72 70" fill="none" xmlns="http://www.w3.org/2000/svg">
<path d="M32.75 1.87639C34.1423 1.07254 35.8577 1.07254 37.25 1.87639L62.5609 16.4896C63.9532 17.2935 64.8109 18.7791 64.8109 20.3868V49.6133C64.8109 51.2209 63.9532 52.7065 62.5609 53.5104L37.25 68.1236C35.8577 68.9275 34.1423 68.9275 32.75 68.1236L7.43911 53.5104C6.0468 52.7065 5.18911 51.2209 5.18911 49.6132V20.3867C5.18911 18.7791 6.04681 17.2935 7.43911 16.4896L32.75 1.87639Z" fill="url(#paint0_linear)" stroke="white"/>
<path d="M32.5 8.44338C34.047 7.55021 35.953 7.55021 37.5 8.44338L56.7487 19.5566C58.2957 20.4498 59.2487 22.1004 59.2487 23.8868V46.1132C59.2487 47.8996 58.2957 49.5502 56.7487 50.4434L37.5 61.5566C35.953 62.4498 34.047 62.4498 32.5 61.5566L13.2513 50.4434C11.7043 49.5502 10.7513 47.8996 10.7513 46.1132V23.8868C10.7513 22.1004 11.7043 20.4498 13.2513 19.5566L32.5 8.44338Z" fill="url(#paint1_linear)"/>
<path d="M32.75 8.87639C34.1423 8.07254 35.8577 8.07254 37.25 8.87639L56.4987 19.9896C57.891 20.7935 58.7487 22.2791 58.7487 23.8868V46.1132C58.7487 47.7209 57.891 49.2065 56.4987 50.0104L37.25 61.1236C35.8577 61.9275 34.1423 61.9275 32.75 61.1236L13.5013 50.0104C12.109 49.2065 11.2513 47.7209 11.2513 46.1132V23.8868C11.2513 22.2791 12.109 20.7935 13.5013 19.9896L32.75 8.87639Z" stroke="white" stroke-opacity="0.5"/>
<path d="M35.5 27C36.8807 27 38 25.8807 38 24.5C38 23.1193 36.8807 22 35.5 22C34.1193 22 33 23.1193 33 24.5C33 25.8807 34.1193 27 35.5 27Z" fill="white"/>
<path d="M35.5 49C36.8807 49 38 47.8807 38 46.5C38 45.1193 36.8807 44 35.5 44C34.1193 44 33 45.1193 33 46.5C33 47.8807 34.1193 49 35.5 49Z" fill="white"/>
<path d="M35.5 38C36.8807 38 38 36.8807 38 35.5C38 34.1193 36.8807 33 35.5 33C34.1193 33 33 34.1193 33 35.5C33 36.8807 34.1193 38 35.5 38Z" fill="white"/>
<path fill-rule="evenodd" clip-rule="evenodd" d="M47.7113 24.6667C47.2506 23.3634 47 21.961 47 20.5C47 13.5964 52.5964 8 59.5 8C66.4036 8 72 13.5964 72 20.5C72 21.961 71.7494 23.3634 71.2887 24.6667H47.7113Z" fill="#87808A"/>
<path fill-rule="evenodd" clip-rule="evenodd" d="M51.167 20.5003C51.167 15.898 54.898 12.167 59.5003 12.167C64.1027 12.167 67.8337 15.898 67.8337 20.5003H64.8774C64.8803 20.4254 64.8818 20.3501 64.8818 20.2744C64.8818 17.1775 62.3713 14.667 59.2744 14.667C56.1775 14.667 53.667 17.1775 53.667 20.2744C53.667 20.3501 53.6685 20.4254 53.6715 20.5003H51.167Z" fill="white"/>
<path d="M67.4945 17.2634C67.893 17.0332 68.0296 16.5236 67.7995 16.125C67.5694 15.7264 67.0597 15.5899 66.6611 15.82L59.4442 19.9867C59.0457 20.2168 58.9091 20.7264 59.1392 21.125C59.3693 21.5236 59.879 21.6601 60.2776 21.43L67.4945 17.2634Z" fill="url(#paint2_linear)"/>
<defs>
<linearGradient id="paint0_linear" x1="70" y1="35" x2="-3.75936e-07" y2="35" gradientUnits="userSpaceOnUse">
<stop stop-color="#6B3385"/>
<stop offset="1" stop-color="#90575D"/>
</linearGradient>
<linearGradient id="paint1_linear" x1="63" y1="35" x2="7" y2="35" gradientUnits="userSpaceOnUse">
<stop stop-color="#6B3385"/>
<stop offset="1" stop-color="#90575D"/>
</linearGradient>
<linearGradient id="paint2_linear" x1="63.886" y1="19.3467" x2="63.0527" y2="17.9033" gradientUnits="userSpaceOnUse">
<stop stop-color="#6B3385"/>
<stop offset="1" stop-color="#90575D"/>
</linearGradient>
</defs>
</svg>
