<svg width="25" height="21" viewBox="0 0 25 21" fill="none" xmlns="http://www.w3.org/2000/svg">
<path fill-rule="evenodd" clip-rule="evenodd" d="M24.126 3.24405C23.2691 3.63428 22.3465 3.89818 21.3787 4.0161C22.367 3.40969 23.1254 2.44814 23.4827 1.30271C22.5573 1.8642 21.5348 2.27268 20.4424 2.49166C19.5718 1.53854 18.3275 0.943359 16.9504 0.943359C14.3099 0.943359 12.1676 3.14018 12.1676 5.84935C12.1676 6.23397 12.2087 6.60736 12.2908 6.96671C8.31428 6.76177 4.78945 4.8106 2.42816 1.83893C2.01613 2.56606 1.78069 3.40969 1.78069 4.30807C1.78069 6.00937 2.62528 7.51135 3.90927 8.39148C3.12628 8.36762 2.3871 8.14443 1.74099 7.77946V7.83982C1.74099 10.2177 3.39047 12.2012 5.58066 12.6504C5.17958 12.7655 4.7566 12.823 4.31993 12.823C4.01194 12.823 3.71079 12.7935 3.41922 12.736C4.02836 14.6843 5.7942 16.1035 7.88856 16.1414C6.2514 17.4581 4.18715 18.2428 1.94632 18.2428C1.5603 18.2428 1.17839 18.2203 0.804688 18.1754C2.92232 19.5651 5.43829 20.3778 8.13906 20.3778C16.9409 20.3778 21.7524 12.903 21.7524 6.41926C21.7524 6.20589 21.7483 5.99253 21.7401 5.78337C22.675 5.09134 23.4868 4.22806 24.126 3.24405Z" fill="white"/>
</svg>
