<svg width="28" height="20" viewBox="0 0 28 20" fill="none" xmlns="http://www.w3.org/2000/svg">
<rect width="28" height="20" rx="2" fill="white"/>
<mask id="mask0" mask-type="alpha" maskUnits="userSpaceOnUse" x="0" y="0" width="28" height="20">
<rect width="28" height="20" rx="2" fill="white"/>
</mask>
<g mask="url(#mask0)">
<rect x="13.3333" width="14.6667" height="20" fill="#1AB11F"/>
<path fill-rule="evenodd" clip-rule="evenodd" d="M0 20H9.33333V0H0V20Z" fill="#262626"/>
<path fill-rule="evenodd" clip-rule="evenodd" d="M9.33331 20H18.6666V0H9.33331V20Z" fill="#DC0D18"/>
<path opacity="0.75" d="M12.9982 11.0649L13.3328 10.4882L12.9982 11.0649ZM13.2403 11.9761L13.8169 12.3107L13.8169 12.3107L13.2403 11.9761ZM12.3291 12.2181L12.6636 11.6415H12.6636L12.3291 12.2181ZM15.7941 12.1431L16.1533 12.7047H16.1533L15.7941 12.1431ZM14.8732 11.9407L14.3116 12.2999L14.8732 11.9407ZM15.0757 11.0199L15.4349 11.5815L15.0757 11.0199ZM12.6667 9.33335C12.6667 8.59697 12.0697 8.00002 11.3334 8.00002V9.33335H12.6667ZM13.3328 10.4882C12.9319 10.2557 12.6667 9.82494 12.6667 9.33335H11.3334C11.3334 10.3188 11.8679 11.1798 12.6636 11.6415L13.3328 10.4882ZM13.8169 12.3107C14.1865 11.6737 13.9697 10.8578 13.3328 10.4882L12.6636 11.6415L12.6636 11.6415L13.8169 12.3107ZM11.9945 12.7948C12.6314 13.1643 13.4473 12.9476 13.8169 12.3107L12.6636 11.6415L11.9945 12.7948ZM10 9.33335C10 10.8139 10.8051 12.1046 11.9945 12.7948L12.6636 11.6415C11.8681 11.1799 11.3334 10.3189 11.3334 9.33335H10ZM11.3334 8.00002C10.597 8.00002 10 8.59697 10 9.33335H11.3334V8.00002ZM18 9.33335C18 8.59697 17.4031 8.00002 16.6667 8.00002V9.33335H18ZM16.1533 12.7047C17.2608 11.9964 18 10.7518 18 9.33335H16.6667C16.6667 10.2777 16.1758 11.1076 15.4349 11.5815L16.1533 12.7047ZM14.3116 12.2999C14.7084 12.9202 15.5329 13.1015 16.1533 12.7047L15.4349 11.5815L15.4349 11.5815L14.3116 12.2999ZM14.7165 10.4582C14.0961 10.855 13.9149 11.6795 14.3116 12.2999L15.4349 11.5815L14.7165 10.4582ZM15.3334 9.33335C15.3334 9.80453 15.09 10.2193 14.7165 10.4582L15.4349 11.5815C16.1759 11.1075 16.6667 10.2776 16.6667 9.33335H15.3334ZM16.6667 8.00002C15.9303 8.00002 15.3334 8.59697 15.3334 9.33335H16.6667V8.00002Z" fill="white"/>
<path fill-rule="evenodd" clip-rule="evenodd" d="M14 10.6667C14.7364 10.6667 15.3334 9.77126 15.3334 8.66669C15.3334 7.56212 14.7364 6.66669 14 6.66669C13.2636 6.66669 12.6667 7.56212 12.6667 8.66669C12.6667 9.77126 13.2636 10.6667 14 10.6667Z" fill="white" fill-opacity="0.5"/>
</g>
</svg>
