<svg width="28" height="20" viewBox="0 0 28 20" fill="none" xmlns="http://www.w3.org/2000/svg">
<mask id="mask0" mask-type="alpha" maskUnits="userSpaceOnUse" x="0" y="0" width="28" height="20">
<rect width="28" height="20" rx="2" fill="white"/>
</mask>
<g mask="url(#mask0)">
<rect width="28" height="20" fill="#EE343C"/>
<path fill-rule="evenodd" clip-rule="evenodd" d="M12.3864 4.38644C12.1617 4.16173 11.8097 4.12687 11.5452 4.30315L10.9558 4.69609C10.5299 4.98003 10.5697 5.61815 11.0275 5.84707L12.2981 6.48239C12.524 6.59532 12.6667 6.82616 12.6667 7.07867V7.33332C12.6667 7.70151 12.3682 7.99998 12 7.99998H11.4907C11.3872 7.99998 11.2851 7.97589 11.1926 7.9296L9.09644 6.88154C8.83978 6.75321 8.5298 6.80351 8.32689 7.00642L7.98736 7.34594C7.6656 7.6677 7.75363 8.21013 8.16063 8.41363L9.10457 8.8856C9.50355 9.0851 9.53817 9.64119 9.16701 9.88864C8.73635 10.1757 8.8678 10.8402 9.37534 10.9417L9.93728 11.0541C10.4768 11.162 10.6346 11.8574 10.1944 12.1875L9.69128 12.5649C9.36305 12.811 9.53715 13.3333 9.94743 13.3333C9.98234 13.3333 10.0171 13.329 10.051 13.3206L11.3128 13.0051C11.7912 12.8855 12.1661 13.4175 11.8925 13.8278C11.6535 14.1864 11.9105 14.6667 12.3415 14.6667H12.9249C13.1688 14.6667 13.3853 14.8227 13.4625 15.0541C13.6347 15.5706 14.3653 15.5706 14.5375 15.0541C14.6146 14.8227 14.8312 14.6667 15.075 14.6667H15.6585C16.0894 14.6667 16.3465 14.1864 16.1074 13.8278C15.8339 13.4175 16.2088 12.8855 16.6872 13.0051L17.949 13.3206C17.9829 13.329 18.0176 13.3333 18.0525 13.3333C18.4628 13.3333 18.6369 12.811 18.3087 12.5648L17.8056 12.1875C17.3654 11.8574 17.5232 11.162 18.0627 11.0541L18.6246 10.9417C19.1322 10.8402 19.2636 10.1757 18.833 9.88864C18.4618 9.64119 18.4964 9.0851 18.8954 8.8856L19.8394 8.41363C20.2464 8.21013 20.3344 7.66771 20.0126 7.34594L19.6731 7.00642C19.4702 6.80351 19.1602 6.75321 18.9035 6.88154L16.8074 7.9296C16.7149 7.97589 16.6128 7.99998 16.5093 7.99998H16C15.6318 7.99998 15.3333 7.70151 15.3333 7.33332V7.07867C15.3333 6.82616 15.476 6.59533 15.7018 6.4824C16.0944 6.28611 16.5621 6.05228 16.9727 5.84695C17.4306 5.61803 17.4701 4.98003 17.0441 4.69608L16.4547 4.30315C16.1903 4.12687 15.8382 4.16173 15.6135 4.38644L14.4714 5.52858C14.211 5.78893 13.7889 5.78893 13.5286 5.52858L12.3864 4.38644Z" fill="#262626"/>
</g>
</svg>
