<svg width="28" height="20" viewBox="0 0 28 20" fill="none" xmlns="http://www.w3.org/2000/svg">
<rect width="28" height="20" rx="2" fill="white"/>
<mask id="mask0" mask-type="alpha" maskUnits="userSpaceOnUse" x="0" y="0" width="28" height="20">
<rect width="28" height="20" rx="2" fill="white"/>
</mask>
<g mask="url(#mask0)">
<rect width="28" height="20" fill="#0B36B2"/>
<g filter="url(#filter0_d)">
<path fill-rule="evenodd" clip-rule="evenodd" d="M22.6667 20V0H8.66669L22.6667 20Z" fill="#FFD045"/>
</g>
<path fill-rule="evenodd" clip-rule="evenodd" d="M17.3333 18.6667L16.3905 18.9428L16.6666 18L16.3905 17.0572L17.3333 17.3333L18.2761 17.0572L18 18L18.2761 18.9428L17.3333 18.6667Z" fill="white"/>
<path fill-rule="evenodd" clip-rule="evenodd" d="M14.6667 14.6667L13.7239 14.9428L14 14L13.7239 13.0572L14.6667 13.3333L15.6095 13.0572L15.3334 14L15.6095 14.9428L14.6667 14.6667Z" fill="white"/>
<path fill-rule="evenodd" clip-rule="evenodd" d="M12 10.6667L11.0572 10.9428L11.3333 10L11.0572 9.05719L12 9.33333L12.9428 9.05719L12.6667 10L12.9428 10.9428L12 10.6667Z" fill="white"/>
<path fill-rule="evenodd" clip-rule="evenodd" d="M9.33331 6.66667L8.3905 6.94281L8.66665 6L8.3905 5.05719L9.33331 5.33333L10.2761 5.05719L9.99998 6L10.2761 6.94281L9.33331 6.66667Z" fill="white"/>
<path fill-rule="evenodd" clip-rule="evenodd" d="M6.66669 2.66667L5.72388 2.94281L6.00002 2L5.72388 1.05719L6.66669 1.33333L7.6095 1.05719L7.33335 2L7.6095 2.94281L6.66669 2.66667Z" fill="white"/>
</g>
<defs>
<filter id="filter0_d" x="8.66669" y="0" width="14" height="20" filterUnits="userSpaceOnUse" color-interpolation-filters="sRGB">
<feFlood flood-opacity="0" result="BackgroundImageFix"/>
<feColorMatrix in="SourceAlpha" type="matrix" values="0 0 0 0 0 0 0 0 0 0 0 0 0 0 0 0 0 0 127 0"/>
<feOffset/>
<feColorMatrix type="matrix" values="0 0 0 0 0 0 0 0 0 0 0 0 0 0 0 0 0 0 0.06 0"/>
<feBlend mode="normal" in2="BackgroundImageFix" result="effect1_dropShadow"/>
<feBlend mode="normal" in="SourceGraphic" in2="effect1_dropShadow" result="shape"/>
</filter>
</defs>
</svg>
