<svg width="28" height="20" viewBox="0 0 28 20" fill="none" xmlns="http://www.w3.org/2000/svg">
<rect width="28" height="20" rx="2" fill="white"/>
<mask id="mask0" mask-type="alpha" maskUnits="userSpaceOnUse" x="0" y="0" width="28" height="20">
<rect width="28" height="20" rx="2" fill="white"/>
</mask>
<g mask="url(#mask0)">
<rect width="28" height="20" fill="url(#paint0_linear)"/>
<path fill-rule="evenodd" clip-rule="evenodd" d="M13.4445 3.33332C13.3723 3.33332 13.3022 3.35672 13.2445 3.39999L10.7205 5.29294C10.685 5.31959 10.6445 5.33887 10.6014 5.34965L8.03551 5.99112C8.01192 5.99701 7.98904 6.00548 7.96729 6.01635L5.43273 7.28363C5.36822 7.31589 5.31591 7.3682 5.28366 7.4327L4.08652 9.82697C4.03303 9.93396 4.04096 10.0614 4.10731 10.1609L5.27736 11.916C5.31387 11.9708 5.33335 12.0351 5.33335 12.1009V13.8619C5.33335 13.9503 5.36847 14.0351 5.43098 14.0976L6.49679 15.1634C6.59825 15.2649 6.75324 15.29 6.88157 15.2259L10.5963 13.3685C10.6426 13.3454 10.6936 13.3333 10.7454 13.3333H13.2127C13.2906 13.3333 13.3662 13.3607 13.4261 13.4106L17.2406 16.5894C17.3005 16.6393 17.3761 16.6667 17.454 16.6667H19.8216C19.9331 16.6667 20.0371 16.611 20.099 16.5182L22.6107 12.7506C22.6472 12.6959 22.6667 12.6315 22.6667 12.5657V10.1009C22.6667 10.0351 22.6472 9.97077 22.6107 9.91601L20 5.99999L18.0971 2.82849C18.0369 2.72809 17.9284 2.66666 17.8113 2.66666H17.3927C17.1248 2.66666 16.9906 2.9906 17.1801 3.18005C17.2716 3.27158 17.2943 3.41142 17.2364 3.5272L16.7588 4.48239C16.7023 4.59532 16.5869 4.66666 16.4607 4.66666H14.8727C14.7464 4.66666 14.631 4.59532 14.5745 4.48239L14.0921 3.51759C14.0357 3.40466 13.9203 3.33332 13.794 3.33332H13.4445ZM19.3333 17.3333H18L18.431 17.7643C18.5612 17.8945 18.7722 17.8945 18.9024 17.7643L19.3333 17.3333Z" fill="white"/>
</g>
<defs>
<linearGradient id="paint0_linear" x1="0" y1="0" x2="0" y2="20" gradientUnits="userSpaceOnUse">
<stop stop-color="#19BFBF"/>
<stop offset="1" stop-color="#10ACAC"/>
</linearGradient>
</defs>
</svg>
