<svg width="28" height="20" viewBox="0 0 28 20" fill="none" xmlns="http://www.w3.org/2000/svg">
<rect width="28" height="20" rx="2" fill="white"/>
<mask id="mask0" mask-type="alpha" maskUnits="userSpaceOnUse" x="0" y="0" width="28" height="20">
<rect width="28" height="20" rx="2" fill="white"/>
</mask>
<g mask="url(#mask0)">
<rect width="28" height="20" fill="#19BFBF"/>
<path fill-rule="evenodd" clip-rule="evenodd" d="M9.99998 16.041C9.99998 16.0138 10.0033 15.9866 10.0099 15.9602L10.6666 13.3333L11.3098 10.7608C11.3251 10.6993 11.3227 10.6347 11.3026 10.5746L10.7103 8.79764C10.6824 8.71377 10.6222 8.64445 10.5432 8.60491L9.51758 8.09212C9.40465 8.03566 9.33331 7.92024 9.33331 7.79398V5.41201C9.33331 5.36026 9.34536 5.30923 9.3685 5.26294L9.99998 3.99999L10.5745 2.85092C10.631 2.73799 10.7464 2.66666 10.8727 2.66666H14.3333C14.5174 2.66666 14.6666 2.81589 14.6666 2.99999V3.66666C14.6666 3.85075 14.8159 3.99999 15 3.99999H15.6666C15.8507 3.99999 16 4.14923 16 4.33332V5.12731C16 5.25357 16.0713 5.36899 16.1842 5.42545L18.4824 6.57453C18.5953 6.63099 18.6666 6.74641 18.6666 6.87267V7.9213C18.6666 7.97305 18.6546 8.02409 18.6315 8.07037L18.0396 9.25415C18.0136 9.30603 17.9746 9.35025 17.9263 9.38243L16.0736 10.6176C16.0254 10.6497 15.9863 10.6939 15.9604 10.7458L14.7062 13.2541C14.6803 13.306 14.6413 13.3502 14.593 13.3824L12.7403 14.6176C12.692 14.6497 12.653 14.6939 12.6271 14.7458L11.4254 17.1491C11.369 17.262 11.2536 17.3333 11.1273 17.3333H10.3333C10.1492 17.3333 9.99998 17.1841 9.99998 17V16.041Z" fill="white"/>
</g>
</svg>
