<svg width="28" height="20" viewBox="0 0 28 20" fill="none" xmlns="http://www.w3.org/2000/svg">
<rect x="0.25" y="0.25" width="27.5" height="19.5" rx="1.75" fill="white" stroke="#F5F5F5" stroke-width="0.5"/>
<mask id="mask0" mask-type="alpha" maskUnits="userSpaceOnUse" x="0" y="0" width="28" height="20">
<rect x="0.25" y="0.25" width="27.5" height="19.5" rx="1.75" fill="white" stroke="white" stroke-width="0.5"/>
</mask>
<g mask="url(#mask0)">
<path fill-rule="evenodd" clip-rule="evenodd" d="M14 14.6667C16.5773 14.6667 18.6666 12.5773 18.6666 9.99999C18.6666 7.42267 16.5773 5.33333 14 5.33333C11.4227 5.33333 9.33331 7.42267 9.33331 9.99999C9.33331 12.5773 11.4227 14.6667 14 14.6667Z" fill="#E01B41"/>
<mask id="mask1" mask-type="alpha" maskUnits="userSpaceOnUse" x="9" y="5" width="10" height="10">
<path fill-rule="evenodd" clip-rule="evenodd" d="M14 14.6667C16.5773 14.6667 18.6666 12.5773 18.6666 9.99999C18.6666 7.42267 16.5773 5.33333 14 5.33333C11.4227 5.33333 9.33331 7.42267 9.33331 9.99999C9.33331 12.5773 11.4227 14.6667 14 14.6667Z" fill="white"/>
</mask>
<g mask="url(#mask1)">
<path fill-rule="evenodd" clip-rule="evenodd" d="M9.33332 10.6667C10.6666 11.9167 12.6666 12.6667 14 10.6667C15.3333 8.66666 18 8.66666 18.6666 10.6667C19.3333 12.6667 18.6666 14.6667 18.6666 14.6667H9.33332C9.33332 14.6667 7.99998 9.41666 9.33332 10.6667Z" fill="#0E4B9C"/>
</g>
<path opacity="0.75" fill-rule="evenodd" clip-rule="evenodd" d="M6.17305 3.55663C6.2651 3.3972 6.46896 3.34257 6.62839 3.43462L7.20574 3.76795C7.36517 3.86 7.4198 4.06387 7.32775 4.2233L5.66108 7.11005C5.56904 7.26948 5.36517 7.3241 5.20574 7.23206L4.62839 6.89872C4.46896 6.80668 4.41434 6.60281 4.50638 6.44338L6.17305 3.55663ZM20.7942 3.76796C20.6348 3.86 20.5801 4.06387 20.6722 4.2233L22.3389 7.11005C22.4309 7.26948 22.6348 7.3241 22.7942 7.23206L23.3715 6.89872C23.531 6.80668 23.5856 6.60281 23.4936 6.44338L21.8269 3.55663C21.7348 3.3972 21.531 3.34257 21.3715 3.43462L20.7942 3.76796ZM19.0621 4.76795C18.9027 4.86 18.8481 5.06387 18.9401 5.2233L20.6068 8.11005C20.6989 8.26948 20.9027 8.3241 21.0621 8.23206L21.6395 7.89872C21.7989 7.80668 21.8536 7.60281 21.7615 7.44338L20.0948 4.55663C20.0028 4.3972 19.7989 4.34257 19.6395 4.43462L19.0621 4.76795ZM4.50638 13.5566C4.41434 13.3972 4.46896 13.1933 4.62839 13.1013L5.20574 12.768C5.36517 12.6759 5.56904 12.7305 5.66108 12.89L7.32775 15.7767C7.4198 15.9361 7.36517 16.14 7.20574 16.2321L6.62839 16.5654C6.46896 16.6574 6.2651 16.6028 6.17305 16.4434L4.50638 13.5566ZM6.36044 12.1013C6.20101 12.1933 6.14639 12.3972 6.23843 12.5566L7.9051 15.4434C7.99715 15.6028 8.20101 15.6574 8.36044 15.5654L8.93779 15.2321C9.09722 15.14 9.15185 14.9361 9.0598 14.7767L7.39314 11.89C7.30109 11.7305 7.09722 11.6759 6.93779 11.768L6.36044 12.1013ZM20.6068 11.89C20.6989 11.7305 20.9027 11.6759 21.0621 11.768L21.6395 12.1013C21.7989 12.1933 21.8536 12.3972 21.7615 12.5566L20.0948 15.4434C20.0028 15.6028 19.7989 15.6574 19.6395 15.5654L19.0621 15.2321C18.9027 15.14 18.8481 14.9361 18.9401 14.7767L20.6068 11.89ZM22.7942 12.768C22.6348 12.6759 22.4309 12.7305 22.3389 12.89L20.6722 15.7767C20.5801 15.9361 20.6348 16.14 20.7942 16.2321L21.3715 16.5654C21.531 16.6574 21.7348 16.6028 21.8269 16.4434L23.4936 13.5566C23.5856 13.3972 23.531 13.1933 23.3715 13.1013L22.7942 12.768ZM8.36044 4.43462C8.20101 4.34257 7.99715 4.3972 7.9051 4.55663L6.23843 7.44338C6.14639 7.60281 6.20101 7.80668 6.36044 7.89872L6.93779 8.23206C7.09722 8.3241 7.30109 8.26948 7.39314 8.11005L9.0598 5.2233C9.15185 5.06387 9.09722 4.86 8.93779 4.76795L8.36044 4.43462Z" fill="#262626"/>
</g>
</svg>
