<svg width="28" height="20" viewBox="0 0 28 20" fill="none" xmlns="http://www.w3.org/2000/svg">
<rect width="28" height="20" rx="2" fill="white"/>
<mask id="mask0" mask-type="alpha" maskUnits="userSpaceOnUse" x="0" y="0" width="28" height="20">
<rect width="28" height="20" rx="2" fill="white"/>
</mask>
<g mask="url(#mask0)">
<path fill-rule="evenodd" clip-rule="evenodd" d="M0 20H28V0H0V20Z" fill="#079D7B"/>
<path fill-rule="evenodd" clip-rule="evenodd" d="M15.885 8.66666C15.885 8.95852 15.8638 9.24162 15.8239 9.5114C15.9262 9.47997 16.0304 9.44999 16.1362 9.42162C17.9145 8.94514 19.5016 9.10235 19.6812 9.77276C19.8436 10.3786 18.8008 11.1963 17.2859 11.6998C17.0183 10.9061 15.649 10.6667 13.9999 10.6667C12.3491 10.6667 10.9786 10.9067 10.7131 11.7025C9.21878 11.198 8.19463 10.3889 8.35562 9.78807C8.53526 9.11767 10.1224 8.96046 11.9006 9.43693C11.994 9.46195 12.086 9.48821 12.1766 9.51562C12.1363 9.24458 12.1149 8.96005 12.1149 8.66666C12.1149 6.82571 12.9589 5.33333 13.9999 5.33333C15.041 5.33333 15.885 6.82571 15.885 8.66666ZM10.6666 12L11.8331 12C11.6483 11.9638 11.4598 11.9204 11.2691 11.8697C11.4836 11.8761 11.7482 11.8944 12.0509 11.9154C12.599 11.9534 13.2723 12 13.9999 12C14.7276 12 15.4009 11.9534 15.949 11.9154C16.2403 11.8952 16.4963 11.8775 16.7064 11.8705C16.509 11.9214 16.3141 11.9646 16.1236 12L17.3333 12L19.3333 12C19.1751 12.4747 18.9623 12.922 18.7028 13.3333H9.29712C9.0376 12.922 8.82476 12.4747 8.66662 12L10.6666 12ZM13.9999 16C15.3467 16 16.5835 15.5005 17.5547 14.6667H10.4452C11.4164 15.5005 12.6532 16 13.9999 16Z" fill="white"/>
<path fill-rule="evenodd" clip-rule="evenodd" d="M14 4C14.3682 4 14.6667 3.70152 14.6667 3.33333C14.6667 2.96514 14.3682 2.66666 14 2.66666C13.6318 2.66666 13.3333 2.96514 13.3333 3.33333C13.3333 3.70152 13.6318 4 14 4ZM8.66667 7.33333C9.03486 7.33333 9.33333 7.03485 9.33333 6.66666C9.33333 6.29847 9.03486 6 8.66667 6C8.29848 6 8 6.29847 8 6.66666C8 7.03485 8.29848 7.33333 8.66667 7.33333ZM20 6.66666C20 7.03485 19.7015 7.33333 19.3333 7.33333C18.9651 7.33333 18.6667 7.03485 18.6667 6.66666C18.6667 6.29847 18.9651 6 19.3333 6C19.7015 6 20 6.29847 20 6.66666ZM17.3333 5.33333C17.7015 5.33333 18 5.03485 18 4.66666C18 4.29847 17.7015 4 17.3333 4C16.9651 4 16.6667 4.29847 16.6667 4.66666C16.6667 5.03485 16.9651 5.33333 17.3333 5.33333ZM11.3333 4.66666C11.3333 5.03485 11.0349 5.33333 10.6667 5.33333C10.2985 5.33333 10 5.03485 10 4.66666C10 4.29847 10.2985 4 10.6667 4C11.0349 4 11.3333 4.29847 11.3333 4.66666Z" fill="#FCD117"/>
</g>
</svg>
