<svg width="28" height="20" viewBox="0 0 28 20" fill="none" xmlns="http://www.w3.org/2000/svg">
<rect x="0.25" y="0.25" width="27.5" height="19.5" rx="1.75" fill="white" stroke="#F5F5F5" stroke-width="0.5"/>
<mask id="mask0" mask-type="alpha" maskUnits="userSpaceOnUse" x="0" y="0" width="28" height="20">
<rect x="0.25" y="0.25" width="27.5" height="19.5" rx="1.75" fill="white" stroke="white" stroke-width="0.5"/>
</mask>
<g mask="url(#mask0)">
<path fill-rule="evenodd" clip-rule="evenodd" d="M14.6666 20H28V0H14.6666V20Z" fill="#DE233C"/>
<mask id="path-4-outside-1" maskUnits="userSpaceOnUse" x="1.66669" y="1.66666" width="6" height="6" fill="black">
<rect fill="white" x="1.66669" y="1.66666" width="6" height="6"/>
<path fill-rule="evenodd" clip-rule="evenodd" d="M5.33335 2.66666H4.00002V4H2.66669V5.33333H4.00002V6.66666H5.33335V5.33333H6.66669V4H5.33335V2.66666Z"/>
</mask>
<path fill-rule="evenodd" clip-rule="evenodd" d="M5.33335 2.66666H4.00002V4H2.66669V5.33333H4.00002V6.66666H5.33335V5.33333H6.66669V4H5.33335V2.66666Z" fill="#CCCCCD"/>
<path d="M4.00002 2.66666V2H3.33335V2.66666H4.00002ZM5.33335 2.66666H6.00002V2H5.33335V2.66666ZM4.00002 4V4.66666H4.66669V4H4.00002ZM2.66669 4V3.33333H2.00002V4H2.66669ZM2.66669 5.33333H2.00002V6H2.66669V5.33333ZM4.00002 5.33333H4.66669V4.66666H4.00002V5.33333ZM4.00002 6.66666H3.33335V7.33333H4.00002V6.66666ZM5.33335 6.66666V7.33333H6.00002V6.66666H5.33335ZM5.33335 5.33333V4.66666H4.66669V5.33333H5.33335ZM6.66669 5.33333V6H7.33335V5.33333H6.66669ZM6.66669 4H7.33335V3.33333H6.66669V4ZM5.33335 4H4.66669V4.66666H5.33335V4ZM4.00002 3.33333H5.33335V2H4.00002V3.33333ZM4.66669 4V2.66666H3.33335V4H4.66669ZM2.66669 4.66666H4.00002V3.33333H2.66669V4.66666ZM3.33335 5.33333V4H2.00002V5.33333H3.33335ZM4.00002 4.66666H2.66669V6H4.00002V4.66666ZM4.66669 6.66666V5.33333H3.33335V6.66666H4.66669ZM5.33335 6H4.00002V7.33333H5.33335V6ZM4.66669 5.33333V6.66666H6.00002V5.33333H4.66669ZM6.66669 4.66666H5.33335V6H6.66669V4.66666ZM6.00002 4V5.33333H7.33335V4H6.00002ZM5.33335 4.66666H6.66669V3.33333H5.33335V4.66666ZM4.66669 2.66666V4H6.00002V2.66666H4.66669Z" fill="#7B716A" fill-opacity="0.66" mask="url(#path-4-outside-1)"/>
<path fill-rule="evenodd" clip-rule="evenodd" d="M4.66667 5.33333C5.03486 5.33333 5.33333 5.03486 5.33333 4.66667C5.33333 4.29848 5.03486 4 4.66667 4C4.29848 4 4 4.29848 4 4.66667C4 5.03486 4.29848 5.33333 4.66667 5.33333Z" fill="#7B716A"/>
</g>
</svg>
