<svg width="28" height="20" viewBox="0 0 28 20" fill="none" xmlns="http://www.w3.org/2000/svg">
<rect x="0.25" y="0.25" width="27.5" height="19.5" rx="1.75" fill="white" stroke="#F5F5F5" stroke-width="0.5"/>
<mask id="mask0" mask-type="alpha" maskUnits="userSpaceOnUse" x="0" y="0" width="28" height="20">
<rect x="0.25" y="0.25" width="27.5" height="19.5" rx="1.75" fill="white" stroke="white" stroke-width="0.5"/>
</mask>
<g mask="url(#mask0)">
<rect x="18.6667" width="9.33333" height="20" fill="#E3283E"/>
<path fill-rule="evenodd" clip-rule="evenodd" d="M0 20H9.33333V0H0V20Z" fill="#128A60"/>
<path d="M12.9982 11.0648L13.3328 10.4882L12.9982 11.0648ZM13.2403 11.9761L13.8169 12.3106L13.8169 12.3106L13.2403 11.9761ZM12.3291 12.2181L12.6636 11.6415H12.6636L12.3291 12.2181ZM15.7941 12.1431L16.1533 12.7047H16.1533L15.7941 12.1431ZM14.8732 11.9407L14.3116 12.2999L14.8732 11.9407ZM15.0757 11.0198L15.4349 11.5815L15.0757 11.0198ZM12.6667 9.33333C12.6667 8.59695 12.0697 8 11.3334 8V9.33333H12.6667ZM13.3328 10.4882C12.9319 10.2556 12.6667 9.82491 12.6667 9.33333H11.3334C11.3334 10.3188 11.8679 11.1798 12.6636 11.6415L13.3328 10.4882ZM13.8169 12.3106C14.1865 11.6737 13.9697 10.8578 13.3328 10.4882L12.6636 11.6415L12.6636 11.6415L13.8169 12.3106ZM11.9945 12.7947C12.6314 13.1643 13.4473 12.9476 13.8169 12.3106L12.6636 11.6415L11.9945 12.7947ZM10 9.33333C10 10.8139 10.8051 12.1046 11.9945 12.7947L12.6636 11.6415C11.8681 11.1799 11.3334 10.3189 11.3334 9.33333H10ZM11.3334 8C10.597 8 10 8.59695 10 9.33333H11.3334V8ZM18 9.33333C18 8.59695 17.4031 8 16.6667 8V9.33333H18ZM16.1533 12.7047C17.2608 11.9964 18 10.7517 18 9.33333H16.6667C16.6667 10.2777 16.1758 11.1076 15.4349 11.5815L16.1533 12.7047ZM14.3116 12.2999C14.7084 12.9202 15.5329 13.1015 16.1533 12.7047L15.4349 11.5815L15.4349 11.5815L14.3116 12.2999ZM14.7165 10.4582C14.0961 10.855 13.9149 11.6795 14.3116 12.2999L15.4349 11.5815L14.7165 10.4582ZM15.3334 9.33333C15.3334 9.80451 15.09 10.2193 14.7165 10.4582L15.4349 11.5815C16.1759 11.1075 16.6667 10.2775 16.6667 9.33333H15.3334ZM16.6667 8C15.9303 8 15.3334 8.59695 15.3334 9.33333H16.6667V8Z" fill="#8C9157"/>
<path fill-rule="evenodd" clip-rule="evenodd" d="M14 10.6667C14.7364 10.6667 15.3334 9.77123 15.3334 8.66666C15.3334 7.56209 14.7364 6.66666 14 6.66666C13.2636 6.66666 12.6667 7.56209 12.6667 8.66666C12.6667 9.77123 13.2636 10.6667 14 10.6667Z" fill="#C59262"/>
</g>
</svg>
