<svg width="28" height="20" viewBox="0 0 28 20" fill="none" xmlns="http://www.w3.org/2000/svg">
<rect width="28" height="20" rx="2" fill="white"/>
<mask id="mask0" mask-type="alpha" maskUnits="userSpaceOnUse" x="0" y="0" width="28" height="20">
<rect width="28" height="20" rx="2" fill="white"/>
</mask>
<g mask="url(#mask0)">
<rect width="28" height="20" fill="url(#paint0_linear)"/>
<path fill-rule="evenodd" clip-rule="evenodd" d="M17.3334 9.99999C17.3334 8.90626 17.3334 7.61314 17.3334 6.66581C17.3334 5.92943 17.9303 5.33333 18.6667 5.33333H22.6667C23.4031 5.33333 24 5.92943 24 6.66581C24 7.61314 24 8.90626 24 9.99999C24 13.3333 20.6667 14.6667 20.6667 14.6667C20.6667 14.6667 17.3334 13.3333 17.3334 9.99999Z" fill="#8FC5FF"/>
<mask id="mask1" mask-type="alpha" maskUnits="userSpaceOnUse" x="17" y="5" width="7" height="10">
<path fill-rule="evenodd" clip-rule="evenodd" d="M17.3334 9.99999C17.3334 8.90626 17.3334 7.61314 17.3334 6.66581C17.3334 5.92943 17.9303 5.33333 18.6667 5.33333H22.6667C23.4031 5.33333 24 5.92943 24 6.66581C24 7.61314 24 8.90626 24 9.99999C24 13.3333 20.6667 14.6667 20.6667 14.6667C20.6667 14.6667 17.3334 13.3333 17.3334 9.99999Z" fill="white"/>
</mask>
<g mask="url(#mask1)">
<path fill-rule="evenodd" clip-rule="evenodd" d="M20.0899 11.8836C20.0899 11.8836 20.7573 11.0195 21.1498 11.0195C21.5423 11.0195 21.6144 11.5932 22.2179 11.5932C22.8215 11.5932 23.1398 10.6788 23.7212 10.6788C24.3025 10.6788 23.7212 13.6788 23.7212 13.6788L22.9334 14.4914L18.322 15.024L20.0899 11.8836Z" fill="#366CC9"/>
<path fill-rule="evenodd" clip-rule="evenodd" d="M18.1262 10.5512L18.7147 10L19.293 11.4157L20.0693 10L20.7369 14.0354L19.6266 13.8095L16 12.1514L18.1262 10.5512Z" fill="#CF6200"/>
<rect x="17.3334" y="5.33333" width="6.66667" height="4" fill="#FFFF00"/>
</g>
<path d="M17.6667 9.99999V9.94858V9.89689V9.84493V9.79272V9.74026V9.68757V9.63467V9.58156V9.52826V9.47478V9.42113V9.36733V9.31339V9.28637V9.27961V9.27284V9.25931V9.20512V9.15083V9.09644V9.04197V8.98743V8.93284V8.87821V8.82354V8.76886V8.74152V8.73468V8.72785V8.72101V8.71418V8.70734V8.7005V8.69367V8.68683V8.68V8.67316V8.66633V8.6595V8.65266V8.64583V8.639V8.63216V8.62533V8.6185V8.61167V8.60484V8.59801V8.59118V8.58435V8.57752V8.57069V8.56386V8.55704V8.55021V8.54339V8.53656V8.52974V8.52291V8.51609V8.50927V8.50245V8.49563V8.48881V8.48199V8.47517V8.46836V8.46154V8.45473V8.44792V8.4411V8.43429V8.42748V8.42068V8.41387V8.40706V8.40026V8.39345V8.38665V8.37985V8.37305V8.36625V8.35945V8.35266V8.34586V8.33907V8.33228V8.32549V8.3187V8.31191V8.30513V8.29834V8.29156V8.28478V8.278V8.27122V8.26445V8.25767V8.2509V8.24413V8.23736V8.23059V8.22383V8.21707V8.2103V8.20355V8.19679V8.19003V8.18328V8.17653V8.16978V8.16303V8.15629V8.14954V8.1428V8.13606V8.12933V8.12259V8.11586V8.10913V8.1024V8.09568V8.08895V8.08223V8.07552V8.0688V8.06209V8.05538V8.04867V8.04196V8.03526V8.02856V8.02186V8.01516V8.00847V8.00178V7.99509V7.98841V7.98172V7.97504V7.96837V7.96169V7.95502V7.94835V7.94169V7.93503V7.92837V7.92171V7.91506V7.90841V7.90176V7.89511V7.88847V7.8752V7.84869V7.79582V7.74318V7.69077V7.6386V7.58669V7.53505V7.48369V7.43263V7.38187V7.33143V7.28132V7.23156V7.18216V7.13312V7.08447V7.03621V6.94092V6.84736V6.75562V6.66581C17.6667 6.1138 18.1141 5.66666 18.6667 5.66666H22.6667C23.2193 5.66666 23.6667 6.11381 23.6667 6.66581V6.67137V6.67693V6.6825V6.68808V6.69367V6.69926V6.70486V6.71047V6.71609V6.72171V6.72735V6.73299V6.73863V6.74429V6.74995V6.75562V6.7613V6.76699V6.77268V6.77838V6.78409V6.7898V6.79553V6.80126V6.80699V6.81274V6.81849V6.82425V6.83002V6.83579V6.84157V6.84736V6.85315V6.85895V6.86476V6.87058V6.8764V6.88223V6.88807V6.89392V6.89977V6.90563V6.91149V6.91736V6.92324V6.92913V6.93502V6.94092V6.94682V6.95274V6.95866V6.96458V6.97052V6.97645V6.9824V6.98835V6.99431V7.00028V7.00625V7.01223V7.01821V7.0242V7.0302V7.03621V7.04222V7.04823V7.05426V7.06029V7.06632V7.07236V7.07841V7.08447V7.09053V7.09659V7.10267V7.10874V7.11483V7.12092V7.12702V7.13312V7.13923V7.14534V7.15147V7.15759V7.16372V7.16986V7.17601V7.18216V7.18831V7.19447V7.20064V7.20681V7.21299V7.21918V7.22537V7.23156V7.23776V7.24397V7.25018V7.2564V7.26262V7.26885V7.27508V7.28132V7.28757V7.29382V7.30007V7.30634V7.3126V7.31887V7.32515V7.33143V7.33772V7.34401V7.35031V7.35661V7.36292V7.36923V7.37555V7.38187V7.3882V7.39453V7.40087V7.40721V7.41356V7.41991V7.42627V7.43263V7.43899V7.44536V7.45174V7.45812V7.46451V7.4709V7.47729V7.48369V7.4901V7.4965V7.50292V7.50933V7.51576V7.52218V7.52861V7.53505V7.54149V7.54793V7.55438V7.56084V7.56729V7.57376V7.58022V7.58669V7.59317V7.59964V7.60613V7.61261V7.6191V7.6256V7.6321V7.6386V7.64511V7.65162V7.65813V7.66465V7.67118V7.6777V7.68423V7.69077V7.69731V7.70385V7.7104V7.71694V7.7235V7.73006V7.73662V7.74318V7.74975V7.75632V7.7629V7.76947V7.77606V7.78264V7.78923V7.79582V7.80242V7.80902V7.81562V7.82223V7.82884V7.83545V7.84207V7.84869V7.85531V7.86194V7.86857V7.8752V7.88183V7.88847V7.89511V7.90176V7.90841V7.91506V7.92171V7.92837V7.93503V7.94169V7.94835V7.95502V7.96169V7.96837V7.97504V7.98172V7.98841V7.99509V8.00178V8.00847V8.01516V8.02186V8.02856V8.03526V8.04196V8.04867V8.05538V8.06209V8.0688V8.07552V8.08223V8.08895V8.09568V8.1024V8.10913V8.11586V8.12259V8.12933V8.13606V8.1428V8.14954V8.15629V8.16303V8.16978V8.17653V8.18328V8.19003V8.19679V8.20355V8.21031V8.21707V8.22383V8.23059V8.23736V8.24413V8.2509V8.25767V8.26445V8.27122V8.278V8.28478V8.29156V8.29834V8.30513V8.31191V8.3187V8.32549V8.33228V8.33907V8.34586V8.35266V8.35945V8.36625V8.37305V8.37985V8.38665V8.39345V8.40026V8.40706V8.41387V8.42068V8.42748V8.43429V8.4411V8.44792V8.45473V8.46154V8.46836V8.47518V8.48199V8.48881V8.49563V8.50245V8.50927V8.51609V8.52291V8.52974V8.53656V8.54339V8.55021V8.55704V8.56386V8.57069V8.57752V8.58435V8.59118V8.59801V8.60484V8.61167V8.6185V8.62533V8.63216V8.639V8.64583V8.65266V8.6595V8.66633V8.67317V8.68V8.68683V8.69367V8.70051V8.70734V8.71418V8.72101V8.72785V8.73468V8.74152V8.74835V8.75519V8.76203V8.76886V8.7757V8.78253V8.78937V8.7962V8.80304V8.80987V8.81671V8.82354V8.83038V8.83721V8.84405V8.85088V8.85771V8.86454V8.87138V8.87821V8.88504V8.89187V8.8987V8.90553V8.91236V8.91919V8.92601V8.93284V8.93967V8.94649V8.95332V8.96014V8.96697V8.97379V8.98061V8.98743V8.99425V9.00107V9.00789V9.01471V9.02152V9.02834V9.03515V9.04197V9.04878V9.05559V9.0624V9.06921V9.07602V9.08283V9.08963V9.09644V9.10324V9.11004V9.11684V9.12364V9.13044V9.13724V9.14403V9.15083V9.15762V9.16441V9.1712V9.17799V9.18477V9.19156V9.19834V9.20512V9.2119V9.21868V9.22546V9.23223V9.23901V9.24578V9.25255V9.25931V9.26608V9.27284V9.27961V9.28637V9.29312V9.29988V9.30664V9.31339V9.32014V9.32689V9.33363V9.34038V9.34712V9.35386V9.3606V9.36733V9.37407V9.3808V9.38753V9.39425V9.40098V9.4077V9.41442V9.42113V9.42785V9.43456V9.44127V9.44798V9.45468V9.46139V9.46808V9.47478V9.48148V9.48817V9.49486V9.50154V9.50823V9.51491V9.52159V9.52826V9.53493V9.5416V9.54827V9.55493V9.5616V9.56825V9.57491V9.58156V9.58821V9.59486V9.6015V9.60814V9.61478V9.62141V9.62804V9.63467V9.64129V9.64792V9.65453V9.66115V9.66776V9.67437V9.68097V9.68757V9.69417V9.70077V9.70736V9.71394V9.72053V9.72711V9.73369V9.74026V9.74683V9.7534V9.75996V9.76652V9.77307V9.77962V9.78617V9.79272V9.79926V9.80579V9.81233V9.81885V9.82538V9.8319V9.83842V9.84493V9.85144V9.85794V9.86445V9.87094V9.87744V9.88392V9.89041V9.89689V9.90337V9.90984V9.91631V9.92277V9.92923V9.93568V9.94214V9.94858V9.95502V9.96146V9.9679V9.97432V9.98075V9.98717V9.99358V9.99999C23.6667 11.5427 22.8989 12.6259 22.1104 13.3356C21.7159 13.6906 21.3202 13.9479 21.0232 14.1162C20.875 14.2002 20.7523 14.2615 20.6678 14.3014C20.6674 14.3015 20.6671 14.3017 20.6667 14.3019C20.6663 14.3017 20.666 14.3015 20.6656 14.3014C20.5811 14.2615 20.4584 14.2002 20.3102 14.1162C20.0132 13.9479 19.6175 13.6906 19.223 13.3356C18.4345 12.6259 17.6667 11.5427 17.6667 9.99999Z" stroke="white" stroke-width="0.666667"/>
<mask id="mask2" mask-type="alpha" maskUnits="userSpaceOnUse" x="17" y="5" width="7" height="10">
<path d="M17.6667 9.99999V9.94858V9.89689V9.84493V9.79272V9.74026V9.68757V9.63467V9.58156V9.52826V9.47478V9.42113V9.36733V9.31339V9.28637V9.27961V9.27284V9.25931V9.20512V9.15083V9.09644V9.04197V8.98743V8.93284V8.87821V8.82354V8.76886V8.74152V8.73468V8.72785V8.72101V8.71418V8.70734V8.7005V8.69367V8.68683V8.68V8.67316V8.66633V8.6595V8.65266V8.64583V8.639V8.63216V8.62533V8.6185V8.61167V8.60484V8.59801V8.59118V8.58435V8.57752V8.57069V8.56386V8.55704V8.55021V8.54339V8.53656V8.52974V8.52291V8.51609V8.50927V8.50245V8.49563V8.48881V8.48199V8.47517V8.46836V8.46154V8.45473V8.44792V8.4411V8.43429V8.42748V8.42068V8.41387V8.40706V8.40026V8.39345V8.38665V8.37985V8.37305V8.36625V8.35945V8.35266V8.34586V8.33907V8.33228V8.32549V8.3187V8.31191V8.30513V8.29834V8.29156V8.28478V8.278V8.27122V8.26445V8.25767V8.2509V8.24413V8.23736V8.23059V8.22383V8.21707V8.2103V8.20355V8.19679V8.19003V8.18328V8.17653V8.16978V8.16303V8.15629V8.14954V8.1428V8.13606V8.12933V8.12259V8.11586V8.10913V8.1024V8.09568V8.08895V8.08223V8.07552V8.0688V8.06209V8.05538V8.04867V8.04196V8.03526V8.02856V8.02186V8.01516V8.00847V8.00178V7.99509V7.98841V7.98172V7.97504V7.96837V7.96169V7.95502V7.94835V7.94169V7.93503V7.92837V7.92171V7.91506V7.90841V7.90176V7.89511V7.88847V7.8752V7.84869V7.79582V7.74318V7.69077V7.6386V7.58669V7.53505V7.48369V7.43263V7.38187V7.33143V7.28132V7.23156V7.18216V7.13312V7.08447V7.03621V6.94092V6.84736V6.75562V6.66581C17.6667 6.1138 18.1141 5.66666 18.6667 5.66666H22.6667C23.2193 5.66666 23.6667 6.11381 23.6667 6.66581V6.67137V6.67693V6.6825V6.68808V6.69367V6.69926V6.70486V6.71047V6.71609V6.72171V6.72735V6.73299V6.73863V6.74429V6.74995V6.75562V6.7613V6.76699V6.77268V6.77838V6.78409V6.7898V6.79553V6.80126V6.80699V6.81274V6.81849V6.82425V6.83002V6.83579V6.84157V6.84736V6.85315V6.85895V6.86476V6.87058V6.8764V6.88223V6.88807V6.89392V6.89977V6.90563V6.91149V6.91736V6.92324V6.92913V6.93502V6.94092V6.94682V6.95274V6.95866V6.96458V6.97052V6.97645V6.9824V6.98835V6.99431V7.00028V7.00625V7.01223V7.01821V7.0242V7.0302V7.03621V7.04222V7.04823V7.05426V7.06029V7.06632V7.07236V7.07841V7.08447V7.09053V7.09659V7.10267V7.10874V7.11483V7.12092V7.12702V7.13312V7.13923V7.14534V7.15147V7.15759V7.16372V7.16986V7.17601V7.18216V7.18831V7.19447V7.20064V7.20681V7.21299V7.21918V7.22537V7.23156V7.23776V7.24397V7.25018V7.2564V7.26262V7.26885V7.27508V7.28132V7.28757V7.29382V7.30007V7.30634V7.3126V7.31887V7.32515V7.33143V7.33772V7.34401V7.35031V7.35661V7.36292V7.36923V7.37555V7.38187V7.3882V7.39453V7.40087V7.40721V7.41356V7.41991V7.42627V7.43263V7.43899V7.44536V7.45174V7.45812V7.46451V7.4709V7.47729V7.48369V7.4901V7.4965V7.50292V7.50933V7.51576V7.52218V7.52861V7.53505V7.54149V7.54793V7.55438V7.56084V7.56729V7.57376V7.58022V7.58669V7.59317V7.59964V7.60613V7.61261V7.6191V7.6256V7.6321V7.6386V7.64511V7.65162V7.65813V7.66465V7.67118V7.6777V7.68423V7.69077V7.69731V7.70385V7.7104V7.71694V7.7235V7.73006V7.73662V7.74318V7.74975V7.75632V7.7629V7.76947V7.77606V7.78264V7.78923V7.79582V7.80242V7.80902V7.81562V7.82223V7.82884V7.83545V7.84207V7.84869V7.85531V7.86194V7.86857V7.8752V7.88183V7.88847V7.89511V7.90176V7.90841V7.91506V7.92171V7.92837V7.93503V7.94169V7.94835V7.95502V7.96169V7.96837V7.97504V7.98172V7.98841V7.99509V8.00178V8.00847V8.01516V8.02186V8.02856V8.03526V8.04196V8.04867V8.05538V8.06209V8.0688V8.07552V8.08223V8.08895V8.09568V8.1024V8.10913V8.11586V8.12259V8.12933V8.13606V8.1428V8.14954V8.15629V8.16303V8.16978V8.17653V8.18328V8.19003V8.19679V8.20355V8.21031V8.21707V8.22383V8.23059V8.23736V8.24413V8.2509V8.25767V8.26445V8.27122V8.278V8.28478V8.29156V8.29834V8.30513V8.31191V8.3187V8.32549V8.33228V8.33907V8.34586V8.35266V8.35945V8.36625V8.37305V8.37985V8.38665V8.39345V8.40026V8.40706V8.41387V8.42068V8.42748V8.43429V8.4411V8.44792V8.45473V8.46154V8.46836V8.47518V8.48199V8.48881V8.49563V8.50245V8.50927V8.51609V8.52291V8.52974V8.53656V8.54339V8.55021V8.55704V8.56386V8.57069V8.57752V8.58435V8.59118V8.59801V8.60484V8.61167V8.6185V8.62533V8.63216V8.639V8.64583V8.65266V8.6595V8.66633V8.67317V8.68V8.68683V8.69367V8.70051V8.70734V8.71418V8.72101V8.72785V8.73468V8.74152V8.74835V8.75519V8.76203V8.76886V8.7757V8.78253V8.78937V8.7962V8.80304V8.80987V8.81671V8.82354V8.83038V8.83721V8.84405V8.85088V8.85771V8.86454V8.87138V8.87821V8.88504V8.89187V8.8987V8.90553V8.91236V8.91919V8.92601V8.93284V8.93967V8.94649V8.95332V8.96014V8.96697V8.97379V8.98061V8.98743V8.99425V9.00107V9.00789V9.01471V9.02152V9.02834V9.03515V9.04197V9.04878V9.05559V9.0624V9.06921V9.07602V9.08283V9.08963V9.09644V9.10324V9.11004V9.11684V9.12364V9.13044V9.13724V9.14403V9.15083V9.15762V9.16441V9.1712V9.17799V9.18477V9.19156V9.19834V9.20512V9.2119V9.21868V9.22546V9.23223V9.23901V9.24578V9.25255V9.25931V9.26608V9.27284V9.27961V9.28637V9.29312V9.29988V9.30664V9.31339V9.32014V9.32689V9.33363V9.34038V9.34712V9.35386V9.3606V9.36733V9.37407V9.3808V9.38753V9.39425V9.40098V9.4077V9.41442V9.42113V9.42785V9.43456V9.44127V9.44798V9.45468V9.46139V9.46808V9.47478V9.48148V9.48817V9.49486V9.50154V9.50823V9.51491V9.52159V9.52826V9.53493V9.5416V9.54827V9.55493V9.5616V9.56825V9.57491V9.58156V9.58821V9.59486V9.6015V9.60814V9.61478V9.62141V9.62804V9.63467V9.64129V9.64792V9.65453V9.66115V9.66776V9.67437V9.68097V9.68757V9.69417V9.70077V9.70736V9.71394V9.72053V9.72711V9.73369V9.74026V9.74683V9.7534V9.75996V9.76652V9.77307V9.77962V9.78617V9.79272V9.79926V9.80579V9.81233V9.81885V9.82538V9.8319V9.83842V9.84493V9.85144V9.85794V9.86445V9.87094V9.87744V9.88392V9.89041V9.89689V9.90337V9.90984V9.91631V9.92277V9.92923V9.93568V9.94214V9.94858V9.95502V9.96146V9.9679V9.97432V9.98075V9.98717V9.99358V9.99999C23.6667 11.5427 22.8989 12.6259 22.1104 13.3356C21.7159 13.6906 21.3202 13.9479 21.0232 14.1162C20.875 14.2002 20.7523 14.2615 20.6678 14.3014C20.6674 14.3015 20.6671 14.3017 20.6667 14.3019C20.6663 14.3017 20.666 14.3015 20.6656 14.3014C20.5811 14.2615 20.4584 14.2002 20.3102 14.1162C20.0132 13.9479 19.6175 13.6906 19.223 13.3356C18.4345 12.6259 17.6667 11.5427 17.6667 9.99999Z" fill="white" stroke="white" stroke-width="0.666667"/>
</mask>
<g mask="url(#mask2)">
</g>
<path d="M0 -0.333333H-0.901086L-0.21693 0.253086L4.33333 4.15331V5.16179L-0.193746 8.39542L-0.333333 8.49513V8.66667V9.33333V9.93475L0.176666 9.616L5.42893 6.33333H6.55984L11.0821 9.56351C11.176 9.6306 11.2886 9.66667 11.404 9.66667C11.9182 9.66667 12.1548 9.02698 11.7644 8.69237L7.66667 5.18002V4.17154L12.0542 1.03762C12.2294 0.912475 12.3333 0.710428 12.3333 0.495127V0V-0.601416L11.8233 -0.282666L6.57107 3H5.44016L0.860413 -0.271244L0.773488 -0.333333H0.666667H0Z" fill="#DB1E36" stroke="white" stroke-width="0.666667"/>
<path fill-rule="evenodd" clip-rule="evenodd" d="M0 3.33333V6H4.66667V9.33333C4.66667 9.70152 4.96514 10 5.33333 10H6.66667C7.03486 10 7.33333 9.70152 7.33333 9.33333V6H12C12.3682 6 12.6667 5.70152 12.6667 5.33333V4C12.6667 3.63181 12.3682 3.33333 12 3.33333H7.33333V0H4.66667V3.33333H0Z" fill="white"/>
<path fill-rule="evenodd" clip-rule="evenodd" d="M0 4H5.33333V3.33333V0H6.66667V3.33333V4H12V5.33333H6.66667V6V9.33333H5.33333V6V5.33333H0V4Z" fill="#DB1E36"/>
</g>
<defs>
<linearGradient id="paint0_linear" x1="0" y1="0" x2="0" y2="20" gradientUnits="userSpaceOnUse">
<stop stop-color="#07319C"/>
<stop offset="1" stop-color="#00247E"/>
</linearGradient>
</defs>
</svg>
