<svg width="28" height="20" viewBox="0 0 28 20" fill="none" xmlns="http://www.w3.org/2000/svg">
<rect x="0.25" y="0.25" width="27.5" height="19.5" rx="1.75" fill="white" stroke="#F5F5F5" stroke-width="0.5"/>
<mask id="mask0" mask-type="alpha" maskUnits="userSpaceOnUse" x="0" y="0" width="28" height="20">
<rect x="0.25" y="0.25" width="27.5" height="19.5" rx="1.75" fill="white" stroke="white" stroke-width="0.5"/>
</mask>
<g mask="url(#mask0)">
<path fill-rule="evenodd" clip-rule="evenodd" d="M0 13.3333H28V6.66667H0V13.3333Z" fill="#0C47B7"/>
<path fill-rule="evenodd" clip-rule="evenodd" d="M0 20H28V13.3333H0V20Z" fill="#E53B35"/>
<path d="M6.94971 3.33333C5.87505 3.33333 4.99249 4.1826 4.95119 5.25647L4.69194 11.9969C4.66847 12.6073 4.92515 13.1948 5.38888 13.5923L8.26456 16.0572C9.2632 16.9132 10.7368 16.9132 11.7355 16.0572L14.6111 13.5923C15.0749 13.1948 15.3315 12.6073 15.3081 11.9969L15.0488 5.25647C15.0075 4.1826 14.125 3.33333 13.0503 3.33333H6.94971Z" fill="#F73744" stroke="white" stroke-width="1.33333"/>
<mask id="mask1" mask-type="alpha" maskUnits="userSpaceOnUse" x="4" y="2" width="12" height="16">
<path d="M6.94971 3.33333C5.87505 3.33333 4.99249 4.1826 4.95119 5.25647L4.69194 11.9969C4.66847 12.6073 4.92515 13.1948 5.38888 13.5923L8.26456 16.0572C9.2632 16.9132 10.7368 16.9132 11.7355 16.0572L14.6111 13.5923C15.0749 13.1948 15.3315 12.6073 15.3081 11.9969L15.0488 5.25647C15.0075 4.1826 14.125 3.33333 13.0503 3.33333H6.94971Z" fill="white" stroke="white" stroke-width="1.33333"/>
</mask>
<g mask="url(#mask1)">
<path fill-rule="evenodd" clip-rule="evenodd" d="M9.33331 11C9.33331 10.8159 9.18407 10.6667 8.99998 10.6667H7.66665C7.48255 10.6667 7.33331 10.5174 7.33331 10.3333V9.66666C7.33331 9.48257 7.48255 9.33333 7.66665 9.33333H8.99998C9.18407 9.33333 9.33331 9.18409 9.33331 8.99999V8.33333C9.33331 8.14923 9.18407 7.99999 8.99998 7.99999H8.33331C8.14922 7.99999 7.99998 7.85076 7.99998 7.66666V7C7.99998 6.8159 8.14922 6.66666 8.33331 6.66666H8.99998C9.18407 6.66666 9.33331 6.51742 9.33331 6.33333V5.66666C9.33331 5.48257 9.48255 5.33333 9.66665 5.33333H10.3333C10.5174 5.33333 10.6666 5.48257 10.6666 5.66666V6.33333C10.6666 6.51742 10.8159 6.66666 11 6.66666H11.6666C11.8507 6.66666 12 6.8159 12 6.99999V7.66666C12 7.85076 11.8507 7.99999 11.6666 7.99999H11C10.8159 7.99999 10.6666 8.14923 10.6666 8.33333V8.99999C10.6666 9.18409 10.8159 9.33333 11 9.33333H12.3333C12.5174 9.33333 12.6666 9.48257 12.6666 9.66666V10.3333C12.6666 10.5174 12.5174 10.6667 12.3333 10.6667H11C10.8159 10.6667 10.6666 10.8159 10.6666 11V13C10.6666 13.1841 10.5174 13.3333 10.3333 13.3333H9.66665C9.48255 13.3333 9.33331 13.1841 9.33331 13V11Z" fill="white"/>
<path fill-rule="evenodd" clip-rule="evenodd" d="M11.2035 13.4255C10.9889 12.9767 10.5307 12.6667 10 12.6667C9.46934 12.6667 9.01109 12.9767 8.79647 13.4255C7.17545 13.6809 6 14.4385 6 15.3333C6 16.4379 7.79086 17.3333 10 17.3333C12.2091 17.3333 14 16.4379 14 15.3333C14 14.4385 12.8246 13.6809 11.2035 13.4255Z" fill="#1251A1"/>
</g>
</g>
</svg>
