<svg width="28" height="20" viewBox="0 0 28 20" fill="none" xmlns="http://www.w3.org/2000/svg">
<rect width="28" height="20" rx="2" fill="white"/>
<mask id="mask0" mask-type="alpha" maskUnits="userSpaceOnUse" x="0" y="0" width="28" height="20">
<rect width="28" height="20" rx="2" fill="white"/>
</mask>
<g mask="url(#mask0)">
<path fill-rule="evenodd" clip-rule="evenodd" d="M0 20H28V0H0V20Z" fill="#30C375"/>
<rect x="4" width="4" height="20" fill="#DE414F"/>
<path fill-rule="evenodd" clip-rule="evenodd" d="M6 3.99999C7.10457 3.99999 8 3.40304 8 2.66666C8 1.93028 7.10457 1.33333 6 1.33333C4.89543 1.33333 4 1.93028 4 2.66666C4 3.40304 4.89543 3.99999 6 3.99999Z" fill="white"/>
<mask id="mask1" mask-type="alpha" maskUnits="userSpaceOnUse" x="4" y="1" width="4" height="3">
<path fill-rule="evenodd" clip-rule="evenodd" d="M6 3.99999C7.10457 3.99999 8 3.40304 8 2.66666C8 1.93028 7.10457 1.33333 6 1.33333C4.89543 1.33333 4 1.93028 4 2.66666C4 3.40304 4.89543 3.99999 6 3.99999Z" fill="white"/>
</mask>
<g mask="url(#mask1)">
<path fill-rule="evenodd" clip-rule="evenodd" d="M6.00004 3.33333C6.36823 3.33333 6.66671 3.03486 6.66671 2.66667C6.66671 2.29848 6.36823 2 6.00004 2C5.63185 2 5.33337 2.29848 5.33337 2.66667C5.33337 3.03486 5.63185 3.33333 6.00004 3.33333Z" fill="#DD404F"/>
<rect x="4" y="1.33333" width="2" height="1.33333" fill="#FBAF29"/>
<rect x="6" y="2.66666" width="2" height="1.33333" fill="#FBAF29"/>
</g>
<path fill-rule="evenodd" clip-rule="evenodd" d="M6 18.6667C7.10457 18.6667 8 18.0697 8 17.3333C8 16.597 7.10457 16 6 16C4.89543 16 4 16.597 4 17.3333C4 18.0697 4.89543 18.6667 6 18.6667Z" fill="white"/>
<mask id="mask2" mask-type="alpha" maskUnits="userSpaceOnUse" x="4" y="16" width="4" height="3">
<path fill-rule="evenodd" clip-rule="evenodd" d="M6 18.6667C7.10457 18.6667 8 18.0697 8 17.3333C8 16.597 7.10457 16 6 16C4.89543 16 4 16.597 4 17.3333C4 18.0697 4.89543 18.6667 6 18.6667Z" fill="white"/>
</mask>
<g mask="url(#mask2)">
<path fill-rule="evenodd" clip-rule="evenodd" d="M6.00004 18C6.36823 18 6.66671 17.7015 6.66671 17.3333C6.66671 16.9651 6.36823 16.6667 6.00004 16.6667C5.63185 16.6667 5.33337 16.9651 5.33337 17.3333C5.33337 17.7015 5.63185 18 6.00004 18Z" fill="#DD404F"/>
<rect x="4" y="16" width="2" height="1.33333" fill="#FBAF29"/>
<rect x="6" y="17.3333" width="2" height="1.33333" fill="#FBAF29"/>
</g>
<path fill-rule="evenodd" clip-rule="evenodd" d="M6 12C7.10457 12 8 11.403 8 10.6667C8 9.93028 7.10457 9.33333 6 9.33333C4.89543 9.33333 4 9.93028 4 10.6667C4 11.403 4.89543 12 6 12Z" fill="#28AE67"/>
<mask id="mask3" mask-type="alpha" maskUnits="userSpaceOnUse" x="4" y="9" width="4" height="3">
<path fill-rule="evenodd" clip-rule="evenodd" d="M6 12C7.10457 12 8 11.403 8 10.6667C8 9.93028 7.10457 9.33333 6 9.33333C4.89543 9.33333 4 9.93028 4 10.6667C4 11.403 4.89543 12 6 12Z" fill="white"/>
</mask>
<g mask="url(#mask3)">
<path fill-rule="evenodd" clip-rule="evenodd" d="M5.99996 11.3333C6.73634 11.3333 7.33329 11.0349 7.33329 10.6667C7.33329 10.2985 6.73634 10 5.99996 10C5.26358 10 4.66663 10.2985 4.66663 10.6667C4.66663 11.0349 5.26358 11.3333 5.99996 11.3333Z" fill="#DD404F"/>
</g>
<path fill-rule="evenodd" clip-rule="evenodd" d="M6 14.6667C7.10457 14.6667 8 14.3682 8 14C8 13.6318 7.10457 13.3333 6 13.3333C4.89543 13.3333 4 13.6318 4 14C4 14.3682 4.89543 14.6667 6 14.6667Z" fill="#28AE67"/>
<mask id="mask4" mask-type="alpha" maskUnits="userSpaceOnUse" x="4" y="13" width="4" height="2">
<path fill-rule="evenodd" clip-rule="evenodd" d="M6 14.6667C7.10457 14.6667 8 14.3682 8 14C8 13.6318 7.10457 13.3333 6 13.3333C4.89543 13.3333 4 13.6318 4 14C4 14.3682 4.89543 14.6667 6 14.6667Z" fill="white"/>
</mask>
<g mask="url(#mask4)">
</g>
<path fill-rule="evenodd" clip-rule="evenodd" d="M6 7.99999C7.10457 7.99999 8 7.40304 8 6.66666C8 5.93028 7.10457 5.33333 6 5.33333C4.89543 5.33333 4 5.93028 4 6.66666C4 7.40304 4.89543 7.99999 6 7.99999Z" fill="#FBAF29"/>
<mask id="mask5" mask-type="alpha" maskUnits="userSpaceOnUse" x="4" y="5" width="4" height="3">
<path fill-rule="evenodd" clip-rule="evenodd" d="M6 7.99999C7.10457 7.99999 8 7.40304 8 6.66666C8 5.93028 7.10457 5.33333 6 5.33333C4.89543 5.33333 4 5.93028 4 6.66666C4 7.40304 4.89543 7.99999 6 7.99999Z" fill="white"/>
</mask>
<g mask="url(#mask5)">
<path fill-rule="evenodd" clip-rule="evenodd" d="M6.00004 7.33333C6.36823 7.33333 6.66671 7.03486 6.66671 6.66667C6.66671 6.29848 6.36823 6 6.00004 6C5.63185 6 5.33337 6.29848 5.33337 6.66667C5.33337 7.03486 5.63185 7.33333 6.00004 7.33333Z" fill="#DD404F"/>
<rect x="4" y="5.33333" width="1.33333" height="2.66667" fill="#28AE67"/>
<rect x="6.66663" y="5.33333" width="1.33333" height="2.66667" fill="#28AE67"/>
</g>
<path fill-rule="evenodd" clip-rule="evenodd" d="M14.8226 4.23816C14.5859 4.52021 14.6227 4.94072 14.9048 5.17738C15.1868 5.41405 15.6073 5.37726 15.844 5.09521C16.0807 4.81316 16.0439 4.39266 15.7618 4.15599C15.4798 3.91932 15.0593 3.95611 14.8226 4.23816ZM13.0952 6.82266C12.8131 6.58599 12.3926 6.62278 12.1559 6.90483C11.9193 7.18688 11.9561 7.60738 12.2381 7.84405C12.5202 8.08072 12.9407 8.04393 13.1773 7.76188C13.414 7.47983 13.3772 7.05933 13.0952 6.82266ZM11.7618 5.48932C11.4798 5.25266 11.0593 5.28945 10.8226 5.5715C10.5859 5.85355 10.6227 6.27405 10.9048 6.51072C11.1868 6.74739 11.6073 6.7106 11.844 6.42855C12.0807 6.1465 12.0439 5.72599 11.7618 5.48932ZM14.4285 2.82266C14.1465 2.58599 13.7259 2.62278 13.4893 2.90483C13.2526 3.18688 13.2894 3.60738 13.5714 3.84405C13.8535 4.08072 14.274 4.04393 14.5107 3.76188C14.7473 3.47983 14.7105 3.05933 14.4285 2.82266ZM13.7618 4.82266C13.4798 4.58599 13.0593 4.62278 12.8226 4.90483C12.5859 5.18688 12.6227 5.60738 12.9048 5.84405C13.1868 6.08072 13.6073 6.04393 13.844 5.76188C14.0807 5.47983 14.0439 5.05933 13.7618 4.82266Z" fill="white"/>
<path fill-rule="evenodd" clip-rule="evenodd" d="M17.4761 9.45051C15.888 11.0386 13.3133 11.0386 11.7253 9.45051C11.5714 9.29664 11.4324 9.13349 11.3083 8.96288C12.8985 10.1191 15.1374 9.98015 16.5716 8.54598C18.0057 7.11181 18.1447 4.8729 16.9885 3.28278C17.1591 3.40683 17.3222 3.5458 17.4761 3.69968C19.0641 5.28773 19.0641 7.86246 17.4761 9.45051Z" fill="white"/>
</g>
</svg>
