<svg width="28" height="20" viewBox="0 0 28 20" fill="none" xmlns="http://www.w3.org/2000/svg">
<rect width="28" height="20" rx="2" fill="#009F60"/>
<mask id="mask0" mask-type="alpha" maskUnits="userSpaceOnUse" x="0" y="0" width="28" height="20">
<rect width="28" height="20" rx="2" fill="white"/>
</mask>
<g mask="url(#mask0)">
<rect x="24" y="10.6667" width="4" height="9.33333" fill="#EA8B42"/>
<path fill-rule="evenodd" clip-rule="evenodd" d="M20 20H24V10.6667H20V20Z" fill="#1A1919"/>
<path fill-rule="evenodd" clip-rule="evenodd" d="M16 20H20V10.6667H16V20Z" fill="#DB3C36"/>
<path fill-rule="evenodd" clip-rule="evenodd" d="M21.0141 3.48403C20.9222 3.48662 20.8547 3.45479 20.8305 3.40128C20.9803 3.31337 21.0816 3.33298 21.2073 3.44498C21.2315 3.35741 21.2073 3.25986 21.1542 3.20137C21.101 3.14287 21.0575 3.14287 20.9851 3.13788C20.9126 3.13307 20.8401 3.11363 20.7918 3.11363C20.721 2.95758 20.5435 3.02365 20.3731 3.08765C20.0961 3.19156 19.8472 3.38029 19.7354 3.56868C19.6843 3.65487 19.6782 3.68877 19.6468 3.73763C19.6727 3.73436 19.671 3.73436 19.6871 3.72455C19.6677 3.93909 19.642 4.13728 19.6806 4.26408C19.6324 4.44937 19.671 4.56636 19.7289 4.62485C19.787 4.68335 19.811 4.70778 19.8208 4.77608C19.8304 4.84421 19.8594 4.90752 19.9077 4.94657C19.956 4.98563 19.985 5.04412 19.9898 5.07836C19.9946 5.11242 20.1441 5.25935 20.2072 5.29771C20.2314 5.31216 20.2362 5.34158 20.2653 5.38047C20.2024 5.75105 20.4537 6.12163 20.3956 6.48722C20.4391 6.49203 20.4971 6.48722 20.5552 6.47259C20.6034 6.78451 20.6323 6.93573 20.3618 7.02829C20.0913 7.12102 19.9434 7.21221 20.0188 7.31595C20.0719 7.38907 20.182 7.32541 20.2507 7.26227C20.3039 7.21358 20.3666 7.16971 20.415 7.15509C20.4633 7.14046 20.4731 7.15509 20.4487 7.2184C20.4246 7.28188 20.2943 7.41831 20.2893 7.48662C20.2845 7.55492 20.3424 7.6036 20.4343 7.54993C20.526 7.49625 20.6068 7.35586 20.6275 7.27208C20.6419 7.21358 20.6663 7.17453 20.6613 7.27208C20.6565 7.36963 20.5986 7.54511 20.729 7.57436C20.8595 7.6036 20.8982 7.44756 20.8547 7.30614C20.8111 7.1649 20.7967 7.08679 20.8159 7.0381C20.8353 6.98924 20.8547 6.96016 20.9028 6.97462C20.9512 6.98924 21.0479 6.9698 21.0431 6.89186C21.0381 6.81393 20.9706 6.75044 20.8932 6.79431C20.8159 6.83819 20.758 6.83165 20.7918 6.73582C20.8159 6.66752 20.8595 6.58459 20.8643 6.53109C20.9174 6.60902 21.2169 6.61883 21.3378 6.54571C21.3667 6.69195 21.444 6.82356 21.275 6.96016C21.1058 7.09659 20.9706 7.22821 20.9754 7.32576C20.9803 7.4233 21.0189 7.48163 21.1058 7.43294C21.1927 7.38425 21.2459 7.31595 21.2652 7.25264C21.2846 7.18915 21.3234 7.18915 21.304 7.26726C21.2846 7.3452 21.2508 7.45737 21.2652 7.52567C21.2798 7.5938 21.3861 7.59879 21.4295 7.5353C21.473 7.47199 21.4632 7.38907 21.4536 7.30614C21.444 7.22322 21.4586 7.13565 21.4778 7.10141C21.4972 7.06735 21.5358 7.01849 21.5745 7.11122C21.6132 7.20378 21.6324 7.2769 21.7098 7.30133C21.7871 7.32576 21.845 7.29152 21.8306 7.19896C21.816 7.1064 21.7146 7.00386 21.6132 6.92593C21.5118 6.84799 21.5455 6.80894 21.5503 6.73582C21.5551 6.6627 21.5407 6.53109 21.5358 6.47259C21.6276 6.54089 21.7291 6.53109 21.7773 6.53109C21.8256 6.53109 21.905 6.51612 21.8256 6.44335C21.6662 6.29711 21.7194 6.2092 21.6083 6.10201C21.4972 5.99483 21.3957 5.82898 21.3619 5.68773C21.328 5.54631 21.2536 5.28791 21.1058 5.15629C21.0237 5.08317 20.9995 4.88326 21.0189 4.6541C21.0381 4.42494 21.0431 4.17152 20.8353 4.05453C20.6275 3.93754 20.6323 3.83999 20.7 3.73763C20.7676 3.63526 20.8545 3.53513 20.9658 3.52791C20.9908 3.52636 21.0486 3.52154 21.072 3.50434C21.0616 3.49625 21.0446 3.48335 21.0141 3.48403Z" fill="#EA8B42"/>
<path fill-rule="evenodd" clip-rule="evenodd" d="M19.6629 4.01066C19.6578 4.10976 19.6602 4.19698 19.6806 4.26408C19.6324 4.44937 19.671 4.56636 19.7289 4.62486C19.787 4.68335 19.811 4.70778 19.8208 4.77608C19.8304 4.84421 19.8594 4.90752 19.9077 4.94658C19.9561 4.98563 19.985 5.04412 19.9898 5.07836C19.9946 5.11243 20.1441 5.25935 20.2072 5.29772C20.2314 5.31217 20.2362 5.34159 20.2653 5.38047C20.2391 5.53445 20.2667 5.68843 20.3044 5.84206C19.9629 6.128 19.6259 5.99311 19.7677 5.70064C19.4841 5.92808 18.9947 5.92172 19.1042 5.70064C18.6597 5.85668 18.5245 5.72662 18.5824 5.58365C18.2089 5.73316 18.0155 5.59019 18.0671 5.4861C17.7578 5.57058 17.5581 5.51862 17.5259 5.46666C17.4938 5.4147 17.571 5.29772 17.6419 5.23922C17.5002 5.29118 17.3649 5.29118 17.236 5.27174C17.1073 5.25212 17.1395 5.21307 17.1652 5.15458C17.1911 5.09608 17.2249 5.00352 17.3279 4.91251C17.0815 4.9612 16.7723 4.99544 16.5549 4.92215C16.5139 4.90838 16.4438 4.8929 16.4872 4.8492C16.5307 4.80533 16.6612 4.69797 16.8206 4.62967C16.4582 4.68335 15.7722 4.7224 15.579 4.50305C15.7674 4.54193 16.0089 4.464 16.1635 4.40068C15.5548 4.33238 14.7239 3.91311 14.7141 3.50365C14.8881 3.78632 15.1878 3.88387 15.4873 3.97161C15.0813 3.73264 14.9123 3.44498 14.8979 3.25488C15.1297 3.47922 15.4823 3.73264 15.8303 3.79131C15.5838 3.65969 15.2649 3.27449 15.178 3.00627C15.3568 3.16713 15.8157 3.42554 16.1298 3.50847C15.9124 3.3378 15.5598 2.93316 15.579 2.70898C15.6611 2.79191 15.8641 2.94778 16.2794 3.19157C16.695 3.43535 16.9204 3.41746 17.2634 3.49058C17.2007 3.4061 17.1443 3.29393 17.1395 3.26468C17.241 3.27931 17.3375 3.31836 17.6274 3.49866C17.9173 3.67913 18.5507 3.73436 18.9126 3.89367C19.1781 4.01066 19.5566 3.93754 19.6629 4.01066Z" fill="#EA8B42"/>
<path fill-rule="evenodd" clip-rule="evenodd" d="M21.8495 6.51441C21.8654 6.50167 21.8654 6.47965 21.8257 6.44335C21.6662 6.29711 21.7194 6.2092 21.6083 6.10202C21.4972 5.99484 21.3957 5.82899 21.362 5.68774C21.328 5.54632 21.2536 5.28791 21.1058 5.1563C21.0237 5.08318 20.9996 4.88327 21.0189 4.6541C21.0354 4.45797 21.0414 4.24413 20.9125 4.1132C21.154 4.0449 21.3765 4.0301 21.4537 4.10804C21.8546 4.00567 22.2026 3.97471 22.544 3.95217C22.9369 3.92602 23.6776 3.75707 24.206 3.39957C24.1737 3.52963 23.9934 3.72456 23.8322 3.8221C24.3669 3.69204 25.0112 3.45152 25.5587 3.04206C25.5522 3.32817 25.3204 3.54253 25.185 3.6597C25.5587 3.45152 26.1061 3.19157 26.2929 2.86658C26.375 3.19965 25.8164 3.63527 25.5134 3.87578C25.8227 3.72628 26.2221 3.58813 26.3768 3.36705C26.3735 3.63681 26.0224 3.97161 25.6874 4.16653C26.0289 4.03664 26.409 3.90004 26.6279 3.69858C26.6536 3.97006 25.6069 4.59406 25.0883 4.76456C25.5393 4.6541 26.1254 4.5046 26.3831 4.34856C26.3702 4.40378 26.2652 4.4812 26.1887 4.53763C25.8736 4.77058 25.3904 4.89565 25.0948 4.95311C25.1336 5.1157 25.082 5.20671 24.9016 5.21961C24.7213 5.23268 24.2848 5.16284 24.0659 5.05221C24.0337 5.07165 23.9949 5.07836 23.9514 5.08318C24.164 5.24404 24.2365 5.36103 24.1929 5.42933C24.1496 5.49763 23.9973 5.48524 23.8814 5.46099C23.9732 5.71939 23.6663 5.70236 23.4104 5.55595C23.5118 5.68774 23.5264 5.79974 23.3862 5.82899C23.2461 5.85823 23.1349 5.8486 22.9996 5.76068C22.99 5.85823 22.8966 5.92327 22.7726 5.89075C23.1978 6.14916 23.1736 6.24344 23.1011 6.34081C23.0288 6.43836 22.775 6.41892 22.6398 6.33118C22.5818 6.53109 22.3508 6.53178 22.1783 6.37264C22.1768 6.4523 22.0122 6.6104 21.8495 6.51441Z" fill="#EA8B42"/>
<path fill-rule="evenodd" clip-rule="evenodd" d="M19.8772 7.49471C19.8842 7.43312 19.8901 7.36155 19.9415 7.31596C19.9931 7.27037 20.0253 7.23149 20.0704 7.2769C20.1155 7.3225 20.0865 7.36482 20.0253 7.38426C19.9641 7.4037 19.9223 7.45893 19.9125 7.49471C19.9029 7.5305 19.8707 7.54994 19.8772 7.49471Z" fill="black"/>
<path fill-rule="evenodd" clip-rule="evenodd" d="M20.2281 7.79372C20.1962 7.69152 20.2122 7.55974 20.2475 7.52069C20.283 7.48163 20.3281 7.45565 20.3699 7.49471C20.4117 7.53376 20.4278 7.58899 20.3505 7.6215C20.2821 7.65023 20.2765 7.72215 20.2734 7.77428C20.2701 7.82623 20.2475 7.85548 20.2281 7.79372Z" fill="black"/>
<path fill-rule="evenodd" clip-rule="evenodd" d="M20.6791 7.53049C20.6543 7.5723 20.6855 7.74176 20.7693 7.78391C20.8286 7.81385 20.8562 7.8068 20.8207 7.7514C20.7854 7.69617 20.7983 7.64422 20.8177 7.61497C20.8369 7.58572 20.8338 7.53376 20.7918 7.50778C20.7499 7.48163 20.6983 7.49798 20.6791 7.53049Z" fill="black"/>
<path fill-rule="evenodd" clip-rule="evenodd" d="M21.0431 7.37771C20.9899 7.33746 20.94 7.3858 20.9207 7.41986C20.8819 7.48817 20.9111 7.58571 20.9723 7.64094C21.0335 7.69617 21.0237 7.6215 21.0043 7.58898C20.9851 7.55647 20.9819 7.49143 21.0237 7.4849C21.0655 7.47853 21.0947 7.4166 21.0431 7.37771Z" fill="black"/>
<path fill-rule="evenodd" clip-rule="evenodd" d="M21.3458 7.48817C21.294 7.47286 21.2428 7.52723 21.2491 7.59226C21.2539 7.64078 21.2589 7.70271 21.3071 7.73523C21.3395 7.7569 21.3619 7.77101 21.3458 7.71252C21.3297 7.65402 21.3556 7.60516 21.3844 7.58899C21.4134 7.57282 21.4005 7.50452 21.3458 7.48817Z" fill="black"/>
<path fill-rule="evenodd" clip-rule="evenodd" d="M21.7742 7.21186C21.7367 7.23836 21.7387 7.29978 21.7742 7.32249C21.8095 7.3452 21.8611 7.37771 21.8515 7.43294C21.8418 7.48816 21.8707 7.50778 21.8966 7.44601C21.9223 7.38425 21.9256 7.29324 21.8966 7.25092C21.8675 7.20859 21.8063 7.18915 21.7742 7.21186Z" fill="black"/>
<path fill-rule="evenodd" clip-rule="evenodd" d="M20.8403 3.39685C20.8627 3.44645 20.9269 3.47573 21.0138 3.47329L21.0139 3.47329C21.0415 3.47266 21.0583 3.48007 21.0784 3.51302C21.0572 3.52858 21.0172 3.5355 20.9665 3.53864C20.8742 3.54463 20.7935 3.61551 20.709 3.74358C20.6329 3.85861 20.6595 3.94322 20.8406 4.04515C21.0205 4.14645 21.0574 4.3229 21.0296 4.65501C21.0092 4.89632 21.0386 5.08204 21.113 5.14825C21.236 5.25785 21.3153 5.44723 21.3724 5.68523C21.405 5.82155 21.5036 5.98611 21.6157 6.09426C21.6421 6.11968 21.6609 6.14531 21.676 6.17455C21.6846 6.19138 21.6909 6.20656 21.7012 6.23381C21.7365 6.32788 21.7604 6.36889 21.8329 6.43541C21.8731 6.47228 21.8809 6.50294 21.8561 6.5229C21.8397 6.53607 21.8102 6.54184 21.7773 6.54184L21.7595 6.54209C21.6815 6.54353 21.6313 6.53712 21.5735 6.50835C21.565 6.5041 21.5567 6.49943 21.5485 6.49431L21.5534 6.54854C21.5555 6.57269 21.5572 6.59412 21.5586 6.6145C21.562 6.66567 21.563 6.70651 21.5611 6.73653C21.5603 6.7479 21.559 6.7578 21.5566 6.77341C21.5521 6.80223 21.5512 6.81012 21.5521 6.82266C21.5542 6.85339 21.5724 6.88098 21.6198 6.9174C21.744 7.01291 21.8277 7.11159 21.8412 7.1973C21.8562 7.29362 21.7958 7.33978 21.7066 7.31158C21.652 7.29433 21.6238 7.25858 21.5914 7.1811C21.5896 7.17682 21.585 7.16528 21.5799 7.15283C21.574 7.13812 21.5675 7.12213 21.5647 7.11538C21.5489 7.07758 21.5345 7.06545 21.5219 7.0691C21.511 7.07224 21.4989 7.08605 21.4872 7.10669C21.4673 7.14215 21.4557 7.23002 21.4643 7.3049L21.4644 7.3057C21.4791 7.43235 21.4766 7.48584 21.4383 7.54139C21.3899 7.61232 21.2715 7.60592 21.2548 7.5279C21.2472 7.49176 21.2514 7.44401 21.265 7.38064C21.2688 7.3632 21.2731 7.34512 21.2787 7.32291L21.2936 7.26467C21.3011 7.23461 21.299 7.21777 21.2972 7.21742C21.2942 7.21685 21.2831 7.23098 21.2755 7.2558C21.2538 7.32666 21.1953 7.39517 21.1111 7.44233C21.0223 7.49208 20.9706 7.44147 20.9647 7.32629C20.9602 7.23452 21.0619 7.11827 21.2683 6.95179C21.3084 6.9194 21.3354 6.88649 21.3514 6.85203C21.3803 6.78963 21.3761 6.74172 21.3443 6.61931C21.3377 6.59412 21.3337 6.57769 21.3303 6.56218C21.2082 6.6247 20.9528 6.61935 20.8716 6.55416C20.8661 6.57982 20.8541 6.61115 20.8301 6.66844L20.83 6.66873C20.815 6.7047 20.8085 6.72075 20.8019 6.73941C20.7875 6.78014 20.7906 6.80165 20.8049 6.8075C20.8205 6.81383 20.8509 6.80599 20.888 6.78496C20.9678 6.73966 21.0479 6.79898 21.0538 6.8912C21.0585 6.96755 20.9694 7.00598 20.8998 6.98492C20.8637 6.97408 20.8472 6.98841 20.8259 7.04206C20.8089 7.08535 20.8198 7.15642 20.8649 7.30297C20.9153 7.46653 20.858 7.6143 20.7267 7.58485C20.6463 7.56684 20.6253 7.5031 20.6366 7.39158C20.6379 7.37777 20.6396 7.36456 20.6424 7.34394C20.6486 7.29886 20.6498 7.28859 20.6506 7.27153C20.6514 7.25583 20.6515 7.24344 20.6509 7.23449C20.6468 7.24411 20.6419 7.25855 20.638 7.27467C20.6132 7.37484 20.5251 7.50926 20.4398 7.55922C20.3481 7.61278 20.2727 7.57117 20.2787 7.48584C20.2809 7.45445 20.3033 7.41441 20.3494 7.34964L20.3622 7.33182C20.4207 7.25102 20.4303 7.23679 20.4388 7.21453C20.46 7.15927 20.4569 7.15365 20.4181 7.16539C20.3745 7.17857 20.3143 7.21865 20.258 7.27021C20.1625 7.35791 20.0613 7.39264 20.0102 7.32229C19.9697 7.26661 19.9864 7.21168 20.0541 7.15947C20.1136 7.11353 20.2139 7.06765 20.3584 7.01812C20.5874 6.93978 20.6049 6.86439 20.5578 6.48303C20.4997 6.49767 20.4402 6.50297 20.385 6.48553C20.4087 6.3364 20.3902 6.21654 20.3194 5.94268C20.247 5.66253 20.228 5.53633 20.2568 5.38693C20.2493 5.37691 20.2429 5.36707 20.2364 5.35566L20.2225 5.33071C20.2153 5.31835 20.2095 5.31161 20.2017 5.30691C20.133 5.26516 19.9845 5.11683 19.9792 5.07986C19.974 5.04254 19.9424 4.98837 19.901 4.95495C19.8524 4.91566 19.8206 4.85164 19.8102 4.77761C19.8019 4.71981 19.7897 4.70125 19.7213 4.63244C19.6499 4.56028 19.6263 4.4305 19.6703 4.26722C19.6406 4.16932 19.6433 4.07505 19.6711 3.7809L19.6746 3.74355C19.6714 3.74466 19.668 3.74545 19.6635 3.7462L19.6482 3.7483L19.6378 3.7318C19.6442 3.72186 19.6498 3.71216 19.6553 3.70153C19.6576 3.69699 19.6588 3.6947 19.6599 3.6924C19.6611 3.69007 19.6622 3.68772 19.6645 3.68298C19.6626 3.68701 19.6817 3.64609 19.6883 3.63283C19.6994 3.61048 19.7113 3.58835 19.7262 3.56318C19.8398 3.37187 20.0912 3.18195 20.3694 3.07758C20.6331 2.97855 20.739 2.97142 20.7918 3.10288C20.8151 3.10288 20.8269 3.1045 20.8954 3.11568C20.9346 3.12207 20.9597 3.12542 20.9859 3.12716L21.0024 3.12827C21.0642 3.13245 21.0901 3.13797 21.1214 3.15847C21.1351 3.16747 21.1485 3.17914 21.1621 3.19413C21.2191 3.2569 21.2422 3.35882 21.2177 3.44785L21.2002 3.45302C21.0738 3.34038 20.9773 3.3276 20.8403 3.39685ZM21.0655 3.51286C21.0487 3.49983 21.0362 3.4943 21.0144 3.49479L21.0144 3.49479C20.9197 3.49745 20.8473 3.46441 20.8251 3.392C20.9697 3.30717 21.0741 3.31747 21.201 3.42525C21.1999 3.43092 21.1985 3.43654 21.197 3.44211L21.2145 3.43694C21.2099 3.43293 21.2055 3.42903 21.201 3.42525C21.2166 3.34749 21.1948 3.26197 21.1463 3.20862C21.1338 3.19492 21.1218 3.18444 21.1097 3.17648C21.0823 3.15859 21.0593 3.15367 21.001 3.14973L20.9845 3.14862C20.9575 3.14682 20.9318 3.1434 20.892 3.13691C20.8795 3.13488 20.869 3.13317 20.8599 3.1317C20.8201 3.12524 20.8075 3.12321 20.782 3.11809C20.7268 2.99628 20.6296 3.00281 20.3769 3.09772C20.1029 3.20049 19.8554 3.38745 19.7447 3.57418C19.73 3.59887 19.7183 3.62053 19.7075 3.6424C19.701 3.65542 19.682 3.6961 19.6838 3.69227C19.6815 3.69709 19.6803 3.6995 19.6791 3.7019C19.6779 3.7043 19.6767 3.70668 19.6743 3.71146C19.6722 3.71542 19.6702 3.71926 19.6681 3.72304C19.6661 3.7238 19.6638 3.72436 19.66 3.72497L19.6455 3.72696L19.6558 3.74345C19.6602 3.73665 19.6642 3.72995 19.6681 3.72304C19.6685 3.72289 19.6688 3.72273 19.6692 3.72256C19.6714 3.72156 19.6734 3.7204 19.6816 3.71536L19.6978 3.72552L19.6925 3.78293C19.665 4.07337 19.6623 4.16701 19.691 4.2668C19.6488 4.42911 19.6709 4.55106 19.7365 4.61726C19.8079 4.68907 19.8223 4.71101 19.8314 4.77458C19.8412 4.84357 19.8704 4.90263 19.9145 4.9382C19.96 4.97498 19.9945 5.03403 20.0005 5.07685C20.0045 5.10531 20.1493 5.24992 20.2127 5.28848C20.2242 5.29534 20.2321 5.30462 20.241 5.31982C20.2424 5.32226 20.2461 5.32895 20.2494 5.33493C20.2518 5.3393 20.2541 5.3433 20.255 5.34496C20.2566 5.34777 20.2582 5.35048 20.2598 5.35326C20.2644 5.36103 20.2693 5.36937 20.2759 5.38227C20.2498 5.5359 20.2685 5.66009 20.3402 5.93728C20.4117 6.21405 20.4305 6.33583 20.3968 6.47653C20.4365 6.48092 20.4879 6.47696 20.5497 6.47219C20.555 6.47178 20.5604 6.47137 20.5658 6.47095C20.6275 6.87037 20.6077 6.95554 20.3653 7.03847C20.2229 7.0873 20.1244 7.13237 20.0671 7.17652C20.0078 7.22233 19.9948 7.26474 20.0275 7.30962C20.0676 7.36477 20.1565 7.33426 20.2435 7.25433C20.302 7.20079 20.3646 7.15909 20.4119 7.1448C20.4712 7.12687 20.4855 7.15261 20.4588 7.22224C20.4493 7.24721 20.4401 7.26079 20.3796 7.34445L20.3669 7.36214C20.3234 7.42326 20.3019 7.46165 20.3 7.48737C20.2953 7.55476 20.3516 7.58583 20.429 7.54064C20.5089 7.49388 20.5937 7.3644 20.6172 7.2695C20.6253 7.23651 20.6355 7.21154 20.6458 7.20463C20.6584 7.19615 20.6677 7.20556 20.6707 7.22061C20.6728 7.23131 20.6733 7.24849 20.672 7.27261C20.6712 7.29056 20.6699 7.30098 20.6636 7.34685C20.6609 7.36724 20.6592 7.38024 20.6579 7.39374C20.6476 7.49569 20.6652 7.54903 20.7314 7.56387C20.841 7.58844 20.8908 7.45984 20.8445 7.30932C20.7978 7.15781 20.7864 7.08383 20.806 7.03413C20.8309 6.97143 20.8562 6.94939 20.906 6.96432C20.9634 6.98168 21.036 6.95036 21.0324 6.89255C21.0275 6.81477 20.9631 6.76707 20.8986 6.80368C20.8563 6.82767 20.8202 6.83695 20.7968 6.82742C20.7687 6.81596 20.764 6.7824 20.7817 6.73222C20.7885 6.71304 20.7951 6.69676 20.8103 6.6604L20.8104 6.66011C20.8405 6.58814 20.8511 6.55825 20.8536 6.53013L20.8732 6.52502C20.9226 6.59758 21.216 6.60685 21.3323 6.53651L21.3483 6.54362C21.3523 6.56362 21.3565 6.58128 21.365 6.61388C21.3981 6.74111 21.4026 6.79252 21.3708 6.8611C21.3533 6.89872 21.3243 6.93418 21.2818 6.96855C21.0815 7.13001 20.9821 7.24369 20.9861 7.32521C20.9913 7.42678 21.029 7.46369 21.1006 7.42355C21.1802 7.37899 21.235 7.31482 21.255 7.24949C21.2655 7.21511 21.283 7.19286 21.3012 7.19629C21.3212 7.20007 21.3247 7.22851 21.3144 7.26987L21.2995 7.32821C21.2939 7.35019 21.2897 7.36803 21.286 7.38517C21.273 7.44577 21.2689 7.49108 21.2758 7.52342C21.2881 7.58091 21.3819 7.58599 21.4207 7.5292C21.4548 7.47959 21.4572 7.42949 21.4431 7.30818L21.443 7.30739C21.4339 7.22836 21.4461 7.13607 21.4685 7.09608C21.483 7.07074 21.498 7.05364 21.516 7.04844C21.5419 7.04095 21.565 7.06047 21.5844 7.10706C21.5873 7.11396 21.5939 7.13019 21.5999 7.14499C21.6049 7.1573 21.6095 7.16863 21.6112 7.17278C21.6414 7.24497 21.666 7.2762 21.713 7.29107C21.7877 7.31467 21.8325 7.28046 21.8201 7.20064C21.8077 7.12208 21.7268 7.02683 21.6068 6.93447C21.5549 6.89463 21.5333 6.86187 21.5307 6.82414C21.5297 6.80934 21.5306 6.80069 21.5354 6.77007C21.5378 6.75506 21.539 6.74569 21.5397 6.73512C21.5416 6.70627 21.5406 6.66623 21.5372 6.61594C21.5359 6.59572 21.5342 6.57443 21.5321 6.55042L21.5251 6.47351L21.5422 6.46396C21.5553 6.47368 21.5689 6.48202 21.5831 6.48909C21.6369 6.51593 21.6843 6.52196 21.7591 6.52058L21.7773 6.52034C21.8056 6.52034 21.8312 6.51533 21.8427 6.50612C21.8544 6.49668 21.8503 6.48051 21.8185 6.45129C21.743 6.38207 21.7176 6.33835 21.6811 6.2414C21.6712 6.21488 21.6651 6.20032 21.6569 6.18443C21.6429 6.15724 21.6255 6.13352 21.6009 6.10977C21.4859 5.99887 21.3851 5.83073 21.3516 5.69025C21.2954 5.45637 21.2175 5.27007 21.0987 5.16434C21.0176 5.09205 20.9873 4.90093 21.0083 4.6532C21.0354 4.32902 20.9999 4.15954 20.8301 4.06391C20.6387 3.95616 20.6078 3.85775 20.6911 3.73169C20.779 3.59848 20.8641 3.52374 20.9651 3.51718C20.9797 3.51628 20.9934 3.515 21.0059 3.51384C21.033 3.51133 21.0544 3.50935 21.0655 3.51286Z" fill="black"/>
<path fill-rule="evenodd" clip-rule="evenodd" d="M19.402 3.95984C19.5671 3.96567 19.6272 3.97308 19.669 4.0018L19.6736 4.01123C19.6679 4.12153 19.6726 4.20091 19.691 4.26681C19.6488 4.42913 19.671 4.55107 19.7365 4.61727C19.8079 4.68908 19.8223 4.71102 19.8314 4.77459C19.8412 4.84358 19.8704 4.90264 19.9145 4.93821C19.96 4.97499 19.9945 5.03404 20.0005 5.07687C20.0045 5.10533 20.1493 5.24993 20.2127 5.28849C20.2242 5.29535 20.2321 5.30463 20.241 5.31983C20.2424 5.32228 20.2461 5.32896 20.2494 5.33494C20.2519 5.33932 20.2541 5.34331 20.255 5.34497C20.2566 5.34778 20.2582 5.35049 20.2598 5.35326C20.2644 5.36103 20.2693 5.36938 20.2759 5.38229C20.2533 5.51489 20.2677 5.64737 20.3113 5.85033C20.1497 5.98566 19.975 6.03754 19.8516 5.99852C19.7398 5.96315 19.6958 5.86079 19.7422 5.73326C19.6106 5.82619 19.4359 5.88041 19.2885 5.8796C19.1367 5.87876 19.051 5.81809 19.0851 5.71859C18.7184 5.84173 18.5144 5.77199 18.5646 5.60207C18.2611 5.71527 18.0096 5.63675 18.0493 5.50194C17.7888 5.56879 17.562 5.54519 17.5168 5.47233C17.4887 5.42672 17.5324 5.33457 17.5989 5.26474C17.4838 5.29855 17.3664 5.30228 17.2344 5.28238C17.1723 5.27291 17.1415 5.2583 17.1332 5.2334C17.1269 5.21441 17.1289 5.20866 17.1525 5.15685L17.1554 5.15022C17.1554 5.1504 17.1709 5.11451 17.1762 5.10279C17.1856 5.08226 17.1948 5.06401 17.2052 5.04583C17.2289 5.0044 17.2575 4.96625 17.2936 4.93008C16.9922 4.98648 16.7351 4.99423 16.5515 4.93235L16.524 4.92349C16.4984 4.91499 16.4827 4.90757 16.4726 4.89709C16.4575 4.88132 16.4598 4.86158 16.4796 4.84162C16.5383 4.78257 16.6419 4.70667 16.7521 4.65014C16.229 4.71907 15.7285 4.689 15.571 4.51018L15.5812 4.49253C15.7279 4.52282 15.9167 4.48532 16.1206 4.40625C15.4528 4.31707 14.7125 3.88211 14.7034 3.50392L14.7233 3.49801C14.8587 3.71809 15.0395 3.82282 15.412 3.93778C15.0896 3.72924 14.9035 3.47016 14.8872 3.2557L14.9054 3.24715C15.1687 3.5021 15.4825 3.70117 15.7706 3.76834C15.532 3.6131 15.2495 3.26169 15.1678 3.00961L15.1852 2.99828C15.3672 3.16205 15.7895 3.39337 16.0822 3.48364C15.8157 3.25978 15.5521 2.89805 15.5683 2.70807L15.5866 2.70142C15.6884 2.80424 15.9221 2.96939 16.2849 3.18229C16.5096 3.31415 16.6809 3.3747 16.9065 3.41637C16.9384 3.42227 16.9692 3.42753 17.0178 3.43549C17.1377 3.45514 17.1819 3.46269 17.2387 3.4744C17.1861 3.39837 17.1343 3.2991 17.1289 3.26644L17.141 3.25405C17.2537 3.27029 17.3615 3.32063 17.633 3.48954C17.7639 3.571 17.9239 3.61887 18.312 3.70917L18.3299 3.71334C18.6432 3.78624 18.7824 3.82461 18.9169 3.88384C18.9871 3.91476 19.0691 3.9341 19.1669 3.94536C19.2331 3.95298 19.2809 3.95557 19.402 3.95984ZM19.6519 4.01633C19.652 4.01427 19.6521 4.0122 19.6522 4.01011L19.6569 4.01954C19.6553 4.01844 19.6536 4.01737 19.6519 4.01633ZM15.6108 4.51936C15.7668 4.54046 15.9605 4.49544 16.1676 4.41065L16.1648 4.39001C15.5216 4.31785 14.7924 3.90842 14.7292 3.54668C14.8753 3.76154 15.0763 3.86243 15.4843 3.98194L15.4927 3.96234C15.1484 3.75969 14.9436 3.49933 14.9118 3.28308C15.1926 3.54898 15.5268 3.75106 15.8285 3.80192L15.8353 3.78183C15.6033 3.65796 15.3039 3.30438 15.2017 3.04084C15.4117 3.21434 15.8459 3.44464 16.1271 3.51888L16.1364 3.50001C15.8732 3.29333 15.5967 2.93074 15.5892 2.73391C15.7004 2.83896 15.9294 2.99856 16.274 3.20086C16.5011 3.33404 16.6747 3.39542 16.9026 3.43752C16.9347 3.44345 16.9657 3.44873 17.0144 3.45672C17.1521 3.47928 17.1896 3.48584 17.2612 3.50111L17.272 3.48416C17.2231 3.41827 17.17 3.32194 17.1543 3.27796C17.2579 3.29627 17.366 3.34875 17.6218 3.50781C17.7555 3.59105 17.9163 3.63919 18.3071 3.73012L18.325 3.73429C18.6369 3.80686 18.7754 3.84504 18.9083 3.90353C18.9807 3.93543 19.0647 3.95524 19.1644 3.96673C19.2314 3.97444 19.2795 3.97704 19.4012 3.98134C19.5537 3.98672 19.6148 3.99366 19.6519 4.01633C19.6466 4.12572 19.6516 4.2054 19.6704 4.26723C19.6263 4.43052 19.6499 4.56029 19.7213 4.63245C19.7897 4.70126 19.802 4.71982 19.8102 4.77762C19.8207 4.85165 19.8524 4.91567 19.901 4.95496C19.9424 4.98838 19.974 5.04256 19.9792 5.07987C19.9845 5.11684 20.133 5.26517 20.2017 5.30692C20.2095 5.31163 20.2153 5.31837 20.2225 5.33072L20.2364 5.35567C20.2429 5.36708 20.2493 5.37692 20.2568 5.38694C20.2316 5.51484 20.2462 5.64989 20.294 5.84464C20.1411 5.96484 19.9737 6.01457 19.8581 5.97801C19.7487 5.94344 19.7126 5.83877 19.7773 5.70536L19.761 5.69225C19.6307 5.79675 19.4436 5.85895 19.2886 5.85809C19.1388 5.85727 19.0672 5.79955 19.1138 5.70544L19.1007 5.6905C18.7177 5.82497 18.5255 5.75272 18.5924 5.58771L18.5785 5.57367C18.2644 5.69938 18.0153 5.61484 18.0767 5.4909L18.0643 5.47574C17.8034 5.547 17.5747 5.52495 17.535 5.46099C17.5099 5.42036 17.5709 5.31175 17.6488 5.24754L17.6383 5.22913C17.5116 5.27555 17.3841 5.28321 17.2376 5.26111C17.1829 5.25278 17.1583 5.24113 17.1535 5.22661C17.1499 5.21569 17.152 5.20966 17.172 5.1658L17.175 5.15893C17.2297 5.0354 17.25 4.99996 17.3222 4.93226L17.335 4.92059L17.3258 4.90197C17.0121 4.96397 16.7448 4.97481 16.5584 4.91196L16.5308 4.90307C16.5085 4.89567 16.4949 4.88926 16.4881 4.88219C16.4819 4.87566 16.4826 4.8691 16.4948 4.8568C16.5629 4.78821 16.6947 4.69534 16.8249 4.63957L16.8191 4.61905C16.3038 4.69536 15.7931 4.6767 15.6108 4.51936ZM15.6108 4.51936C15.6021 4.51187 15.5942 4.50406 15.587 4.49594L15.5768 4.51359C15.5879 4.51588 15.5993 4.51781 15.6108 4.51936ZM17.1543 3.27796C17.1522 3.27188 17.1507 3.26681 17.1501 3.26295L17.138 3.27534C17.1434 3.27612 17.1489 3.27699 17.1543 3.27796ZM15.5892 2.73391C15.5889 2.72561 15.589 2.7176 15.5897 2.70992L15.5714 2.71658C15.5769 2.72218 15.5829 2.72796 15.5892 2.73391ZM15.2017 3.04084C15.1967 3.02799 15.1922 3.01535 15.1882 3.00296L15.1709 3.01429C15.1805 3.02297 15.1908 3.03183 15.2017 3.04084ZM14.9118 3.28308C14.9104 3.27332 14.9093 3.26365 14.9086 3.25407L14.8905 3.26263C14.8976 3.26949 14.9047 3.2763 14.9118 3.28308ZM14.7292 3.54668C14.7267 3.53217 14.7252 3.51774 14.7249 3.5034L14.705 3.50931C14.7129 3.52215 14.721 3.53459 14.7292 3.54668Z" fill="black"/>
<path fill-rule="evenodd" clip-rule="evenodd" d="M20.1587 3.51913C20.116 3.62689 20.0922 3.85491 20.1049 3.94391C20.1073 3.96096 20.107 3.96527 20.0995 4.03686C20.0858 4.16742 20.0912 4.26644 20.1344 4.39434L20.1547 4.38745C20.1127 4.26295 20.1074 4.16685 20.1208 4.03911C20.1287 3.96428 20.1289 3.96066 20.1261 3.94088C20.1139 3.85548 20.1374 3.63125 20.1786 3.52708L20.1587 3.51913ZM19.8295 4.09422C19.8236 4.01327 19.832 3.90788 19.8539 3.83219L19.8745 3.8382C19.8533 3.91123 19.8452 4.0141 19.8509 4.09265L19.8295 4.09422ZM19.8442 4.22757C19.8266 4.30261 19.8396 4.47723 19.8636 4.5738L19.8844 4.56859C19.8611 4.47505 19.8484 4.30361 19.8651 4.23249L19.8442 4.22757ZM19.92 4.80512C19.9101 4.78929 19.9025 4.77437 19.8977 4.76036L19.9179 4.75285C19.9221 4.76507 19.9289 4.7785 19.938 4.793C19.9494 4.81115 19.9641 4.83047 19.9818 4.85113C19.9965 4.86821 20.0084 4.88105 20.0312 4.90486L20.0161 4.92053C19.9929 4.89644 19.9808 4.88338 19.9658 4.86591C19.9474 4.84448 19.9321 4.82432 19.92 4.80512ZM20.0034 4.35598C19.9935 4.48073 20.062 4.7175 20.1316 4.79778C20.1469 4.93058 20.2389 5.12064 20.3689 5.25164L20.384 5.23647C20.2575 5.10885 20.1675 4.92315 20.1503 4.78935C20.0822 4.70797 20.0153 4.47692 20.0247 4.35768L20.0034 4.35598ZM19.9745 4.21691C19.9634 4.13807 19.9608 4.05901 19.9697 4.00878L19.9908 4.01258C19.9823 4.0601 19.9849 4.13714 19.9957 4.21391L19.9745 4.21691ZM20.3082 4.34528C20.2625 4.19173 20.2609 3.82302 20.3081 3.62793L20.3289 3.633C20.2826 3.82453 20.2842 4.18939 20.3288 4.33913L20.3082 4.34528ZM20.2499 4.40314C20.2241 4.51768 20.2269 4.65028 20.26 4.75008L20.2803 4.74328C20.2485 4.64743 20.2458 4.51878 20.2708 4.40789L20.2499 4.40314ZM20.639 4.22741C20.5105 4.08396 20.4328 3.87007 20.4381 3.70307L20.4595 3.70375C20.4544 3.86521 20.5302 4.07371 20.6549 4.21304L20.639 4.22741ZM20.4043 4.23898C20.3895 4.42428 20.4002 4.59447 20.4339 4.69172C20.4426 4.71681 20.4487 4.74731 20.4573 4.80318L20.4656 4.8576C20.469 4.87903 20.4721 4.89708 20.4754 4.91438C20.4916 4.99874 20.5128 5.06083 20.5465 5.10883L20.564 5.09644C20.5324 5.05147 20.5121 4.99195 20.4964 4.91031C20.4932 4.89328 20.4901 4.87545 20.4868 4.85423L20.4784 4.7999C20.4696 4.74274 20.4634 4.7114 20.4541 4.68465C20.4216 4.59078 20.4111 4.42328 20.4257 4.2407L20.4043 4.23898ZM20.5769 4.54111L20.5689 4.51065L20.5896 4.50512L20.5977 4.53571C20.6088 4.57882 20.6154 4.61132 20.6184 4.64376C20.6228 4.6906 20.6186 4.73102 20.6036 4.76559L20.584 4.75701C20.5973 4.72621 20.6012 4.68929 20.5971 4.64578C20.5942 4.61471 20.5878 4.5832 20.5769 4.54111ZM20.6947 4.3696C20.7303 4.48672 20.7525 4.63001 20.7474 4.69229L20.7687 4.69406C20.7741 4.62865 20.7515 4.48282 20.7152 4.36332L20.6947 4.3696ZM20.8454 5.31751C20.8013 5.2399 20.7613 5.11593 20.7522 5.01587L20.7735 5.01391C20.7824 5.11085 20.8214 5.23187 20.864 5.30685L20.8454 5.31751ZM20.5933 5.31076C20.6337 5.43273 20.7032 5.55865 20.766 5.60829L20.7793 5.59139C20.7205 5.54498 20.6528 5.42229 20.6136 5.30397L20.5933 5.31076ZM21.1876 5.65208C21.1447 5.52213 21.1166 5.45899 21.0488 5.36242L21.0663 5.35003C21.1355 5.44867 21.1644 5.51353 21.2079 5.64532L21.1876 5.65208Z" fill="black"/>
<path fill-rule="evenodd" clip-rule="evenodd" d="M20.2642 5.39117C20.2776 5.39259 20.2859 5.39312 20.3089 5.39427C20.3623 5.39695 20.381 5.40238 20.4051 5.42785C20.4209 5.44464 20.4366 5.47002 20.4536 5.50696C20.5129 5.63591 20.675 5.83306 20.7697 5.89448L20.7696 5.89453C20.8951 6.1153 20.9508 6.40671 20.9119 6.56312C20.9007 6.49431 20.8617 6.44136 20.8016 6.39798C20.7782 6.38113 20.7633 6.37256 20.7228 6.35093C20.6691 6.39789 20.5908 6.45192 20.5513 6.46037L20.5558 6.4814C20.6004 6.47187 20.6822 6.41541 20.7257 6.36769C20.7454 6.38497 20.7584 6.394 20.7729 6.40402L20.7891 6.41545C20.8451 6.45583 20.8807 6.50428 20.8908 6.56688L20.9118 6.56347L20.9104 6.56889L20.9311 6.57451C20.9727 6.4202 20.9224 6.1365 20.8038 5.91231C20.9499 5.97958 21.0433 6.0554 21.0615 6.16233L21.0819 6.16491L21.0924 6.14137C21.1411 6.03164 21.1596 5.95623 21.141 5.87836L21.1429 5.88057L21.16 5.90121C21.2137 5.96594 21.2533 6.01357 21.2826 6.04957L21.2806 6.04985C21.2835 6.07034 21.2862 6.10153 21.2894 6.14909C21.2899 6.15758 21.2915 6.18217 21.2933 6.21011C21.2957 6.24808 21.2985 6.29226 21.2997 6.31065C21.3074 6.42363 21.3151 6.49889 21.3256 6.54798L21.3466 6.54346C21.3364 6.49573 21.3287 6.42111 21.3211 6.30919C21.3199 6.29087 21.3171 6.24683 21.3147 6.20889C21.3129 6.18087 21.3113 6.15618 21.3108 6.14764C21.3088 6.11887 21.3071 6.09602 21.3053 6.07777C21.351 6.13506 21.3629 6.15512 21.3691 6.17681C21.371 6.18332 21.3723 6.18997 21.3739 6.19782L21.3739 6.19782L21.3739 6.19782L21.3757 6.2066C21.3935 6.2921 21.4622 6.40936 21.5312 6.48469L21.547 6.47015C21.4804 6.39743 21.4136 6.28342 21.3966 6.20218L21.3944 6.19091C21.3927 6.18241 21.3912 6.17524 21.3892 6.16824C21.3786 6.13084 21.3514 6.09814 21.1792 5.89073L21.1792 5.89073L21.1792 5.89073L21.1792 5.89073L21.1792 5.89072L21.1593 5.86681C21.1447 5.84918 21.1315 5.83303 21.119 5.81744L21.1009 5.82867C21.1435 5.92161 21.1316 5.99886 21.0752 6.12731C21.0433 6.02487 20.9457 5.95244 20.8012 5.88748C20.7177 5.85003 20.5355 5.63361 20.4731 5.49795C20.4552 5.45906 20.4383 5.43179 20.4206 5.41306C20.3918 5.38251 20.3684 5.37572 20.31 5.3728C20.2874 5.37167 20.2793 5.37115 20.2665 5.36978L20.2642 5.39117ZM21.3053 6.07777C21.3042 6.06552 21.303 6.05534 21.3018 6.04684L21.2826 6.04957C21.291 6.05988 21.2985 6.06924 21.3053 6.07777ZM20.9118 6.56347L20.9119 6.56345L20.9119 6.56312L20.9118 6.56347ZM20.8038 5.91231L20.7924 5.90711C20.7854 5.90397 20.7778 5.89972 20.7697 5.89448L20.7883 5.88388C20.7936 5.89324 20.7988 5.90272 20.8038 5.91231ZM20.4144 5.71711C20.452 5.83058 20.4818 5.96682 20.4849 6.04566L20.5063 6.04483C20.5032 5.96364 20.4729 5.82556 20.4348 5.71033L20.4144 5.71711ZM20.7393 6.27653C20.7359 6.21288 20.696 6.04621 20.6562 5.93516L20.6764 5.92789C20.7168 6.04074 20.7572 6.20933 20.7607 6.27539L20.7393 6.27653ZM21.1136 6.23776C21.1447 6.31297 21.1644 6.43169 21.1581 6.50244L21.1795 6.50435C21.1861 6.43005 21.1658 6.30785 21.1334 6.22951L21.1136 6.23776Z" fill="black"/>
</g>
</svg>
