<svg width="28" height="20" viewBox="0 0 28 20" fill="none" xmlns="http://www.w3.org/2000/svg">
<rect width="28" height="20" rx="2" fill="white"/>
<mask id="mask0" mask-type="alpha" maskUnits="userSpaceOnUse" x="0" y="0" width="28" height="20">
<rect width="28" height="20" rx="2" fill="white"/>
</mask>
<g mask="url(#mask0)">
<path fill-rule="evenodd" clip-rule="evenodd" d="M0 2.66667H28V0H0V2.66667Z" fill="#369D0C"/>
<path fill-rule="evenodd" clip-rule="evenodd" d="M0 20H28V17.3333H0V20Z" fill="#369D0C"/>
<path fill-rule="evenodd" clip-rule="evenodd" d="M0 8.00001H28V5.33334H0V8.00001Z" fill="#369D0C"/>
<path fill-rule="evenodd" clip-rule="evenodd" d="M0 14.6667H28V12H0V14.6667Z" fill="#369D0C"/>
<path fill-rule="evenodd" clip-rule="evenodd" d="M0 12H28V8H0V12Z" fill="#262626"/>
<path fill-rule="evenodd" clip-rule="evenodd" d="M0 5.33332H28V2.66666H0V5.33332Z" fill="#FFD40E"/>
<path fill-rule="evenodd" clip-rule="evenodd" d="M0 17.3333H28V14.6667H0V17.3333Z" fill="#FFD40E"/>
<path d="M-0.666646 19.3333V0.666667H-0.222202L12.2222 10L-0.222202 19.3333H-0.666646Z" fill="white" stroke="#262626" stroke-width="1.33333"/>
<path fill-rule="evenodd" clip-rule="evenodd" d="M4.00002 11.3L2.04074 12.6967L2.76365 10.4017L0.829832 8.96993L3.2359 8.94827L4.00002 6.66666L4.76414 8.94827L7.17021 8.96993L5.23639 10.4017L5.9593 12.6967L4.00002 11.3Z" fill="url(#paint0_linear)"/>
</g>
<defs>
<linearGradient id="paint0_linear" x1="0.666687" y1="6.66666" x2="0.666687" y2="13.3333" gradientUnits="userSpaceOnUse">
<stop stop-color="#F12F1F"/>
<stop offset="1" stop-color="#DE2010"/>
</linearGradient>
</defs>
</svg>
