<svg width="62" height="18" viewBox="0 0 62 18" fill="none" xmlns="http://www.w3.org/2000/svg">
<path d="M8.5 18C6.14267 18 4.12533 17.1462 2.448 15.4387C0.816001 13.6838 0 11.5257 0 8.96443C0 6.40316 0.816001 4.26877 2.448 2.56126C4.12533 0.853753 6.14267 0 8.5 0C10.8573 0 12.852 0.853753 14.484 2.56126C16.1613 4.26877 17 6.40316 17 8.96443C17 11.5257 16.1613 13.6838 14.484 15.4387C12.852 17.1462 10.8573 18 8.5 18Z" fill="url(#paint0_linear)"/>
<path opacity="0.8" d="M29 15C27.336 15 25.912 14.4308 24.728 13.2925C23.576 12.1225 23 10.6838 23 8.97628C23 7.26877 23.576 5.84585 24.728 4.70751C25.912 3.56917 27.336 3 29 3C30.664 3 32.072 3.56917 33.224 4.70751C34.408 5.84585 35 7.26877 35 8.97628C35 10.6838 34.408 12.1225 33.224 13.2925C32.072 14.4308 30.664 15 29 15Z" fill="url(#paint1_linear)"/>
<path opacity="0.6" d="M45.5 14C44.252 14 43.184 13.5731 42.296 12.7194C41.432 11.8419 41 10.7628 41 9.48221C41 8.20158 41.432 7.13439 42.296 6.28063C43.184 5.42688 44.252 5 45.5 5C46.748 5 47.804 5.42688 48.668 6.28063C49.556 7.13439 50 8.20158 50 9.48221C50 10.7628 49.556 11.8419 48.668 12.7194C47.804 13.5731 46.748 14 45.5 14Z" fill="url(#paint2_linear)"/>
<path opacity="0.4" d="M59 13C58.168 13 57.456 12.7154 56.864 12.1462C56.288 11.5613 56 10.8419 56 9.98814C56 9.13439 56.288 8.42292 56.864 7.85375C57.456 7.28458 58.168 7 59 7C59.832 7 60.536 7.28458 61.112 7.85375C61.704 8.42292 62 9.13439 62 9.98814C62 10.8419 61.704 11.5613 61.112 12.1462C60.536 12.7154 59.832 13 59 13Z" fill="url(#paint3_linear)"/>
<defs>
<linearGradient id="paint0_linear" x1="-4.98187e-08" y1="9.23077" x2="17" y2="9.23077" gradientUnits="userSpaceOnUse">
<stop stop-color="#8C5362"/>
<stop offset="1" stop-color="#713980"/>
</linearGradient>
<linearGradient id="paint1_linear" x1="23" y1="9.15385" x2="35" y2="9.15385" gradientUnits="userSpaceOnUse">
<stop stop-color="#8C5362"/>
<stop offset="1" stop-color="#713980"/>
</linearGradient>
<linearGradient id="paint2_linear" x1="41" y1="9.61539" x2="50" y2="9.61539" gradientUnits="userSpaceOnUse">
<stop stop-color="#8C5362"/>
<stop offset="1" stop-color="#713980"/>
</linearGradient>
<linearGradient id="paint3_linear" x1="56" y1="10.0769" x2="62" y2="10.0769" gradientUnits="userSpaceOnUse">
<stop stop-color="#8C5362"/>
<stop offset="1" stop-color="#713980"/>
</linearGradient>
</defs>
</svg>
