<svg width="70" height="70" viewBox="0 0 70 70" fill="none" xmlns="http://www.w3.org/2000/svg">
<path d="M32.75 1.87639C34.1423 1.07254 35.8577 1.07254 37.25 1.87639L62.5609 16.4896C63.9532 17.2935 64.8109 18.7791 64.8109 20.3868V49.6133C64.8109 51.2209 63.9532 52.7065 62.5609 53.5104L37.25 68.1236C35.8577 68.9275 34.1423 68.9275 32.75 68.1236L7.43911 53.5104C6.0468 52.7065 5.18911 51.2209 5.18911 49.6132V20.3867C5.18911 18.7791 6.04681 17.2935 7.43911 16.4896L32.75 1.87639Z" fill="url(#paint0_linear)" stroke="white"/>
<path d="M32.5 8.44338C34.047 7.55021 35.953 7.55021 37.5 8.44338L56.7487 19.5566C58.2957 20.4498 59.2487 22.1004 59.2487 23.8868V46.1132C59.2487 47.8996 58.2957 49.5502 56.7487 50.4434L37.5 61.5566C35.953 62.4498 34.047 62.4498 32.5 61.5566L13.2513 50.4434C11.7043 49.5502 10.7513 47.8996 10.7513 46.1132V23.8868C10.7513 22.1004 11.7043 20.4498 13.2513 19.5566L32.5 8.44338Z" fill="url(#paint1_linear)"/>
<path d="M32.75 8.87639C34.1423 8.07254 35.8577 8.07254 37.25 8.87639L56.4987 19.9896C57.891 20.7935 58.7487 22.2791 58.7487 23.8868V46.1132C58.7487 47.7209 57.891 49.2065 56.4987 50.0104L37.25 61.1236C35.8577 61.9275 34.1423 61.9275 32.75 61.1236L13.5013 50.0104C12.109 49.2065 11.2513 47.7209 11.2513 46.1132V23.8868C11.2513 22.2791 12.109 20.7935 13.5013 19.9896L32.75 8.87639Z" stroke="white" stroke-opacity="0.5"/>
<path fill-rule="evenodd" clip-rule="evenodd" d="M35.5397 33.2699L30.5635 28.2937C30.1848 27.915 29.5593 27.9113 29.1757 28.2949C28.7895 28.6811 28.7917 29.2998 29.1746 29.6827L34.1507 34.6588L29.1746 39.635C28.7959 40.0137 28.7922 40.6392 29.1757 41.0228C29.5619 41.409 30.1806 41.4068 30.5635 41.0239L35.5397 36.0478L40.5158 41.0239C40.8945 41.4026 41.5201 41.4063 41.9036 41.0228C42.2899 40.6366 42.2877 40.0179 41.9048 39.635L36.9286 34.6588L41.9048 29.6827C42.2835 29.304 42.2872 28.6784 41.9036 28.2949C41.5174 27.9086 40.8987 27.9108 40.5158 28.2937L35.5397 33.2699Z" fill="white"/>
<path d="M59 27C64.5228 27 69 22.5228 69 17C69 11.4772 64.5228 7 59 7C53.4772 7 49 11.4772 49 17C49 22.5228 53.4772 27 59 27Z" fill="#87808A"/>
<path fill-rule="evenodd" clip-rule="evenodd" d="M60 17H63.9971C64.551 17 65 17.4439 65 18C65 18.5523 64.5621 19 63.9971 19H59.0029C58.726 19 58.4753 18.889 58.2938 18.7086C58.1119 18.5242 58 18.275 58 18.003V11.997C58 11.4464 58.4439 11 59 11C59.5523 11 60 11.453 60 11.997V17Z" fill="white"/>
<defs>
<linearGradient id="paint0_linear" x1="70" y1="35" x2="-3.75936e-07" y2="35" gradientUnits="userSpaceOnUse">
<stop stop-color="#6B3385"/>
<stop offset="1" stop-color="#90575D"/>
</linearGradient>
<linearGradient id="paint1_linear" x1="63" y1="35" x2="7" y2="35" gradientUnits="userSpaceOnUse">
<stop stop-color="#6B3385"/>
<stop offset="1" stop-color="#90575D"/>
</linearGradient>
</defs>
</svg>
