<svg width="129" height="40" viewBox="0 0 129 40" fill="none" xmlns="http://www.w3.org/2000/svg">
<path d="M28.216 7.8L17.308 33H11.548L0.676 7.8H6.976L14.644 25.8L22.42 7.8H28.216ZM49.832 28.32V33H30.32V7.8H49.364V12.48H36.116V17.952H47.816V22.488H36.116V28.32H49.832ZM71.4301 20.004H76.7581V30.228C75.3901 31.26 73.8061 32.052 72.0061 32.604C70.2061 33.156 68.3941 33.432 66.5701 33.432C63.9541 33.432 61.6021 32.88 59.5141 31.776C57.4261 30.648 55.7821 29.1 54.5821 27.132C53.4061 25.14 52.8181 22.896 52.8181 20.4C52.8181 17.904 53.4061 15.672 54.5821 13.704C55.7821 11.712 57.4381 10.164 59.5501 9.06C61.6621 7.932 64.0381 7.368 66.6781 7.368C68.8861 7.368 70.8901 7.74 72.6901 8.484C74.4901 9.228 76.0021 10.308 77.2261 11.724L73.4821 15.18C71.6821 13.284 69.5101 12.336 66.9661 12.336C65.3581 12.336 63.9301 12.672 62.6821 13.344C61.4341 14.016 60.4621 14.964 59.7661 16.188C59.0701 17.412 58.7221 18.816 58.7221 20.4C58.7221 21.96 59.0701 23.352 59.7661 24.576C60.4621 25.8 61.4221 26.76 62.6461 27.456C63.8941 28.128 65.3101 28.464 66.8941 28.464C68.5741 28.464 70.0861 28.104 71.4301 27.384V20.004ZM98.7715 27.6H87.0715L84.8395 33H78.8635L90.0955 7.8H95.8555L107.124 33H101.004L98.7715 27.6ZM96.9355 23.172L92.9395 13.524L88.9435 23.172H96.9355Z" fill="white"/>
<rect x="97" y="6" width="32" height="14" rx="5" fill="#0C0113"/>
<path d="M109.419 9L106.229 17H105.2L102 9H103.122L105.741 15.5714L108.38 9H109.419Z" fill="white"/>
<path d="M113.184 9C114.126 9 114.867 9.24762 115.407 9.74286C115.948 10.2381 116.218 10.92 116.218 11.7886C116.218 12.6571 115.948 13.339 115.407 13.8343C114.867 14.3295 114.126 14.5771 113.184 14.5771H111.386V17H110.347V9H113.184ZM113.152 13.5829C113.811 13.5829 114.313 13.4305 114.659 13.1257C115.006 12.8133 115.179 12.3676 115.179 11.7886C115.179 11.2095 115.006 10.7676 114.659 10.4629C114.313 10.1505 113.811 9.99429 113.152 9.99429H111.386V13.5829H113.152Z" fill="white"/>
<path d="M124 9V17H123.148L118.784 11.0343V17H117.745V9H118.597L122.961 14.9657V9H124Z" fill="white"/>
</svg>
