<svg width="220" height="236" viewBox="0 0 220 236" fill="none" xmlns="http://www.w3.org/2000/svg">
<g id="Spaceship">
<g id="Group">
<g id="Group_2">
<g id="Vector">
<g id="path127_fill-link">
<path id="path127_fill" d="M176.026 157.691C158.636 167.634 126.309 174.464 94.647 164.304C63.0909 154.051 40.8029 129.64 32.476 111.305L176.026 157.691Z" fill="#FA7C34"/>
</g>
</g>
<g id="Vector_2">
<g id="path128_fill-link">
<path id="path128_fill" d="M135.476 144.567L175.943 157.571C158.552 167.513 126.226 174.344 94.5637 164.184C93.1808 163.699 91.8927 163.319 90.5098 162.833C119.684 168.914 144.856 163.871 135.476 144.567Z" fill="#D93F0F"/>
</g>
</g>
<g id="Vector_3" opacity="0.8">
<g id="path129_fill-link">
<path id="path129_fill" d="M167.825 161.934C170.823 160.602 173.536 158.951 175.932 157.583L32.476 111.303C34.4565 115.453 37.0166 120.04 40.2853 124.568C73.4762 155.678 143.075 164.886 167.825 161.934Z" fill="#A32600"/>
</g>
</g>
</g>
<g id="Vector_4">
<g id="path130_fill-link">
<path id="path130_fill" d="M17.9647 90.0816C13.5507 103.924 49.6413 131.883 99.8944 148.194C150.254 164.411 195.783 162.805 200.198 148.962C200.926 146.789 202.522 141.745 201.159 139.145C194.104 125.017 159.098 108.108 116.952 94.4989C73.7195 80.5227 35.3423 73.2864 22.3888 81.3783C20.3007 82.664 18.5755 88.2034 17.9647 90.0816Z" fill="url(#paint0_linear)"/>
</g>
</g>
<g id="Vector_5">
<g id="path131_fill-link">
<path id="path131_fill" d="M22.1293 82.3705C18.2537 93.8275 54.3633 119.671 103.73 135.627C153.097 151.583 199.21 152.128 200.994 140.244C202.615 129.458 168.748 103.144 119.381 87.1881C69.9083 71.3266 25.2884 72.8859 22.1293 82.3705Z" fill="url(#paint1_linear)"/>
</g>
</g>
<g id="Vector_6" opacity="0.4">
<g id="path132_fill-link">
<path id="path132_fill" d="M22.2966 82.604C26.1379 71.7496 77.1338 75.0057 78.3224 78.906C78.2767 79.7094 76.5593 83.335 76.5593 83.335C73.5257 78.2157 37.2694 74.4318 22.2966 82.604Z" fill="#EB5223"/>
</g>
</g>
<g id="Group_3">
<g id="Vector_7">
<g id="path133_fill-link">
<path id="path133_fill" d="M121.465 139.104L122.469 139.164C123.153 132.454 122.19 122.823 120.892 117.304L119.971 117.551C121.174 122.964 122.149 132.393 121.465 139.104Z" fill="#2CB0B5"/>
</g>
</g>
</g>
<g id="Group_4">
<g id="Vector_8">
<g id="path134_fill-link">
<path id="path134_fill" d="M120.755 139.361L121.759 139.421C122.443 132.711 121.491 122.879 120.204 117.159L119.283 117.406C120.57 123.126 121.533 132.757 120.755 139.361Z" fill="#FFCC9E"/>
</g>
</g>
</g>
<g id="Group_5">
<g id="Group_6" opacity="0.5">
<g id="Vector_9" opacity="0.5">
<g id="path135_fill-link">
<path id="path135_fill" d="M161.321 147.125L162.336 146.984C161.615 140.19 145.921 123.832 142.679 120.615L141.936 121.276C143.83 123.405 160.588 140.531 161.321 147.125Z" fill="#2CB0B5"/>
</g>
</g>
</g>
<g id="Group_7">
<g id="Vector_10">
<g id="path136_fill-link">
<path id="path136_fill" d="M160.708 147.29L161.723 147.15C161.062 141.064 147.285 126.433 142.823 121.632L142.16 120.887L141.417 121.547L142.08 122.293C153.952 134.995 160.322 143.438 160.708 147.29Z" fill="#FFCC9E"/>
</g>
</g>
</g>
</g>
<g id="Group_8" opacity="0.5">
<g id="Group_9" opacity="0.5">
<g id="Vector_11" opacity="0.5">
<g id="path137_fill-link">
<path id="path137_fill" d="M194.854 145.705L195.775 145.458C192.88 132.588 166.914 117.933 163.959 116.748L163.606 117.634C168.524 119.742 192.304 133.863 194.854 145.705Z" fill="#2CB0B5"/>
</g>
</g>
</g>
<g id="Group_10" opacity="0.5">
<g id="Vector_12" opacity="0.5">
<g id="path138_fill-link">
<path id="path138_fill" d="M194.241 145.868L195.161 145.621C191.747 133.022 167.66 118.984 163.345 116.911L162.993 117.797C167.213 119.763 190.91 133.577 194.241 145.868Z" fill="#74F0C8"/>
</g>
</g>
</g>
</g>
<g id="Group_11" opacity="0.3">
<g id="Group_12" opacity="0.5">
<g id="Vector_13" opacity="0.5">
<g id="path139_fill-link">
<path id="path139_fill" d="M51.1815 111.634C55.2712 107.042 74.7485 101.155 80.1101 100.771L80.0611 99.8609C74.4987 100.233 54.8205 106.108 50.5072 111.09L51.1815 111.634Z" fill="#2CB0B5"/>
</g>
</g>
</g>
<g id="Group_13" opacity="0.3">
<g id="Vector_14" opacity="0.3">
<g id="path140_fill-link">
<path id="path140_fill" d="M52.5988 111.518C58.6852 107.248 76.814 100.272 80.5119 100.796L80.6637 99.898C76.6588 99.4566 58.4354 106.326 52.0306 110.88L52.5988 111.518Z" fill="#74F0C8"/>
</g>
</g>
</g>
</g>
<g id="Group_14" opacity="0.1">
<g id="Group_15" opacity="0.5">
<g id="Vector_15" opacity="0.5">
<g id="path141_fill-link">
<path id="path141_fill" d="M25.9772 92.2939C35.3271 83.7848 62.5321 85.515 66.5141 86.3581L66.772 85.3659C62.6953 84.4163 34.8766 82.8509 25.3143 91.5488L25.9772 92.2939Z" fill="#2CB0B5"/>
</g>
</g>
</g>
<g id="Group_16" opacity="0.1">
<g id="Vector_16" opacity="0.1">
<g id="path142_fill-link">
<path id="path142_fill" d="M26.3514 92.7213C36.1748 84.7444 62.103 85.8944 66.8883 86.7856L67.0401 85.8878C62.1487 85.091 35.7242 83.8105 25.7832 92.0827L26.3514 92.7213Z" fill="#74F0C8"/>
</g>
</g>
</g>
</g>
<g id="Group_17" opacity="0.5">
<g id="Group_18" opacity="0.5">
<g id="Vector_17" opacity="0.5">
<g id="path143_fill-link">
<path id="path143_fill" d="M86.3685 129.146C89.3104 123.477 96.004 115.615 100.886 111.272L100.223 110.527C95.3412 114.87 88.5414 122.827 85.588 128.696L86.3685 129.146Z" fill="#2CB0B5"/>
</g>
</g>
</g>
<g id="Group_19" opacity="0.5">
<g id="Vector_18" opacity="0.5">
<g id="path144_fill-link">
<path id="path144_fill" d="M86.0401 127.718C89.3951 121.873 95.6414 114.79 99.7801 111.108L99.1172 110.363C94.8724 114.14 88.52 121.317 85.165 127.162L86.0401 127.718Z" fill="#74F0C8"/>
</g>
</g>
</g>
</g>
<g id="Vector_19" opacity="0.4">
<g id="path145_fill-link">
<path id="path145_fill" d="M64.4586 83.8032C61.2507 92.3779 80.5065 106.329 107.618 115.006C134.825 123.791 160.231 123.498 161.703 115.324C163.024 108.047 143.548 96.1987 116.341 87.4147C89.3352 78.6425 66.8437 77.2954 64.4586 83.8032Z" fill="#660C00"/>
</g>
</g>
<g id="Vector_20">
<g id="path146_fill-link">
<path id="path146_fill" d="M66.5207 82.9197C63.8548 90.8215 83.4551 105.801 110.662 114.585C137.869 123.369 163.38 122.982 164.853 114.808C166.09 107.223 146.614 95.3754 119.608 86.6033C92.4013 77.8192 68.7164 76.199 66.5207 82.9197Z" fill="#EB5223"/>
</g>
</g>
<g id="Group_20">
<g id="Vector_21">
<g id="path147_fill-link">
<path id="path147_fill" d="M71.2822 82.4957C68.9918 89.1099 87.3006 101.996 112.037 109.927C136.762 118.059 159.913 118.438 161.01 111.551C162.167 105.372 144.218 95.0265 119.387 86.9893C94.5555 78.9521 73.1025 77.0625 71.2822 82.4957Z" fill="url(#paint2_radial)"/>
</g>
</g>
<g id="Vector_22">
<g id="path148_fill-link">
<path id="path148_fill" fill-rule="evenodd" clip-rule="evenodd" d="M70.7854 82.3667C70.4099 83.6542 70.5308 85.0721 71.3487 86.6327C75.1547 94.1159 92.2178 104.106 111.695 110.614C131.882 117.063 152.331 118.892 159.114 114.764C160.471 113.938 161.237 112.876 161.506 111.683C162.58 105.197 145.339 94.7928 119.515 86.4947C97.355 79.3228 72.9697 75.8468 70.7854 82.3667ZM72.387 86.0896C71.6523 84.8363 71.52 83.6192 71.8726 82.7335C73.3402 78.1861 92.8423 78.951 119.257 87.4862C143.793 95.405 161.542 105.739 160.619 111.326C160.467 112.224 159.914 113.098 158.77 113.735C153.131 117.226 134.125 116.592 112.26 109.538C90.3008 102.378 75.5529 92.4261 72.387 86.0896Z" fill="#F0BDAA"/>
</g>
</g>
</g>
<g id="Vector_23">
<g id="path149_fill-link">
<path id="path149_fill" d="M71.2873 82.4974C68.9968 89.1117 87.3057 101.998 112.042 109.929C136.767 118.061 159.918 118.44 161.015 111.553C162.173 105.374 166.559 70.771 128.455 58.7143C90.5418 46.8705 73.1075 77.0642 71.2873 82.4974Z" fill="#C7C7C7" fill-opacity="0.8"/>
</g>
</g>
<g id="Vector_24" opacity="0.7">
<g id="path150_fill-link">
<path id="path150_fill" d="M81.804 92.2067C86.4891 71.8299 100.841 60.3959 114.467 58.189C88.4789 56.33 76.4992 79.1921 74.3344 83.597C73.2993 85.8527 81.2391 93.2813 81.804 92.2067Z" fill="#EDEDED"/>
</g>
</g>
<g id="Group_21">
<g id="Group_22">
<g id="Vector_25">
<g id="path151_fill-link">
<path id="path151_fill" d="M22.1278 82.3715C22.1278 82.3715 22.1161 82.5727 21.9985 82.868C21.9756 83.2697 21.8469 83.7656 21.8011 84.569C21.8161 86.0813 22.5997 88.2444 24.1867 90.4556C27.3494 95.0786 33.2887 100.473 41.2479 105.787C45.1273 108.438 49.6089 111.125 54.2916 113.823C59.0801 116.428 64.1645 119.15 69.567 121.59C80.2659 126.564 92.0978 131.102 104.165 135.049C116.137 138.89 128.451 142.047 140.007 144.351C151.562 146.655 162.573 147.919 172.118 148.39C181.568 148.755 189.574 147.924 194.815 146.122C197.387 145.167 199.275 143.87 200.052 142.606C200.488 142.028 200.628 141.331 200.746 141.035C200.769 140.634 200.78 140.434 200.78 140.434C200.78 140.434 200.769 140.634 200.651 140.93C200.533 141.224 200.298 141.815 199.862 142.393C198.991 143.55 197.103 144.848 194.542 145.602C191.981 146.355 188.627 146.86 184.884 147.14C181.045 147.313 176.816 147.261 172.103 146.878C162.664 146.312 151.783 144.552 140.333 142.153C128.883 139.755 116.676 136.504 104.809 132.569C92.8373 128.728 81.1001 124.296 70.3898 119.523C64.987 117.084 59.9862 114.668 55.0918 112.158C50.3979 109.66 45.9046 107.174 41.9194 104.617C34.0431 99.6114 27.774 94.7009 24.5994 90.2791C23.0125 88.0679 22.123 85.9989 22.0023 84.5808C21.9416 83.872 21.9756 83.2697 21.9985 82.868C22.1161 82.5727 22.1278 82.3715 22.1278 82.3715Z" fill="#FFCC9E"/>
</g>
</g>
</g>
</g>
<g id="Vector_26">
<g id="path152_fill-link">
<path id="path152_fill" d="M126.826 60.7354C127.121 60.8539 127.417 60.9724 127.819 60.9964C162.565 71.8444 158.176 104.734 157.253 110.322C157.079 111.621 152.853 113.283 153.252 111.594C156.696 97.0879 155.532 75.0508 126.826 60.7354Z" fill="white"/>
</g>
</g>
<g id="Vector_27">
<g id="path153_fill-link">
<path id="path153_fill" d="M124.276 75.3973C121.377 78.5489 122.979 82.2725 126.611 85.7147C130.244 89.1568 134.381 90.8154 137.281 87.6637C140.18 84.512 139.674 79.2418 136.136 75.9061C132.503 72.4639 127.176 72.2456 124.276 75.3973Z" fill="#F7FFFF"/>
</g>
</g>
<g id="Vector_28">
<g id="path154_fill-link">
<path id="path154_fill" d="M117.383 70.8541C117.091 72.4489 118.534 73.6437 120.436 73.8584C122.338 74.0731 123.896 73.2595 124.093 71.5583C124.385 69.9635 122.859 68.4613 121.157 68.2587C119.255 68.044 117.58 69.1528 117.383 70.8541Z" fill="white"/>
</g>
</g>
<g id="Group_23">
<g id="Group_24" opacity="0.5">
<g id="Vector_29" opacity="0.5">
<g id="path155_fill-link">
<path id="path155_fill" d="M93.6289 139.655C94.9675 135.604 99.4279 133.352 103.588 134.609C107.843 135.972 110.107 140.441 108.769 144.492C107.43 148.543 102.97 150.795 98.8095 149.538C94.5548 148.175 92.2902 143.706 93.6289 139.655Z" fill="url(#paint3_linear)"/>
</g>
</g>
</g>
<g id="Group_25">
<g id="Vector_30">
<g id="path155_fill-link_2">
<path id="path155_fill_2" d="M93.6289 139.655C94.9675 135.604 99.4279 133.352 103.588 134.609C107.843 135.972 110.107 140.441 108.769 144.492C107.43 148.543 102.97 150.795 98.8095 149.538C94.5548 148.175 92.2902 143.706 93.6289 139.655Z" fill="url(#paint4_linear)"/>
</g>
</g>
<g id="Vector_31">
<g id="path156_fill-link">
<path id="path156_fill" fill-rule="evenodd" clip-rule="evenodd" d="M103.699 134.511C99.3498 133.041 94.7833 135.387 93.4333 139.64C91.9885 143.785 94.4539 148.266 98.6972 149.83C103.047 151.3 107.613 148.953 108.963 144.701C110.313 140.449 107.954 135.874 103.699 134.511ZM98.826 149.335C94.7721 147.983 92.6022 143.621 93.8348 139.664C95.0673 135.707 99.4215 133.55 103.582 134.807C107.635 136.158 109.805 140.52 108.573 144.477C107.234 148.528 102.88 150.686 98.826 149.335Z" fill="#217588"/>
</g>
</g>
</g>
<g id="Vector_32" opacity="0.2">
<g id="path157_fill-link">
<path id="path157_fill" d="M90.5696 138.563C92.4127 132.728 98.6314 129.674 104.47 131.535C110.308 133.397 113.58 139.639 111.642 145.367C109.799 151.202 103.581 154.256 97.7422 152.394C91.9985 150.64 88.7265 144.398 90.5696 138.563Z" fill="#E3FBED"/>
</g>
</g>
<g id="Vector_33">
<g id="path158_fill-link">
<path id="path158_fill" d="M99.4316 147.527C102.501 148.514 105.768 146.892 106.73 143.903C107.691 140.914 105.982 137.691 102.913 136.704C99.8436 135.716 96.5761 137.339 95.6148 140.328C94.6535 143.317 96.3623 146.54 99.4316 147.527Z" fill="#C6EB8F"/>
</g>
</g>
<g id="Vector_34">
<g id="path159_fill-link">
<path id="path159_fill" d="M100.041 145.628C102.062 146.278 104.207 145.23 104.831 143.287C105.456 141.344 104.324 139.242 102.302 138.593C100.281 137.943 98.1363 138.991 97.5117 140.934C96.8871 142.876 98.0193 144.978 100.041 145.628Z" fill="#E3FBED"/>
</g>
</g>
</g>
<g id="Group_26">
<g id="Group_27" opacity="0.5">
<g id="Vector_35" opacity="0.5">
<g id="path160_fill-link">
<path id="path160_fill" d="M58.7843 125.082C60.0054 121.326 63.651 119.226 67.0192 120.234C70.3874 121.242 72.0724 125.273 70.9574 128.935C69.7362 132.691 66.0906 134.79 62.7224 133.782C59.3542 132.774 57.5631 128.838 58.7843 125.082Z" fill="url(#paint5_linear)"/>
</g>
</g>
</g>
<g id="Group_28">
<g id="Vector_36">
<g id="path160_fill-link_2">
<path id="path160_fill_2" d="M58.7843 125.082C60.0054 121.326 63.651 119.226 67.0192 120.234C70.3874 121.242 72.0724 125.273 70.9574 128.935C69.7362 132.691 66.0906 134.79 62.7224 133.782C59.3542 132.774 57.5631 128.838 58.7843 125.082Z" fill="url(#paint6_linear)"/>
</g>
</g>
<g id="Vector_37">
<g id="path161_fill-link">
<path id="path161_fill" fill-rule="evenodd" clip-rule="evenodd" d="M67.0135 120.236C63.5507 119.122 59.7989 121.315 58.5778 125.071C57.3567 128.827 59.2425 132.87 62.5046 133.973C65.9674 135.087 69.7192 132.893 70.9403 129.137C72.2676 125.287 70.4764 121.35 67.0135 120.236ZM62.6216 133.677C59.3596 132.574 57.7579 128.851 58.8729 125.189C60.0826 121.634 63.6335 119.428 66.8956 120.531C70.1577 121.633 71.7594 125.356 70.6444 129.018C69.4347 132.573 65.8837 134.779 62.6216 133.677Z" fill="#217588"/>
</g>
</g>
</g>
<g id="Vector_38" opacity="0.2">
<g id="path162_fill-link">
<path id="path162_fill" d="M56.4094 124.334C58.0174 119.089 63.2206 116.176 67.877 117.564C72.628 119.058 75.0363 124.543 73.3336 129.681C71.7256 134.925 66.5224 137.838 61.866 136.45C57.115 134.957 54.6006 129.566 56.4094 124.334Z" fill="#E3FBED"/>
</g>
</g>
</g>
<g id="Group_29">
<g id="Group_30" opacity="0.5">
<g id="Vector_39" opacity="0.5">
<g id="path163_fill-link">
<path id="path163_fill" d="M146.357 153.383C147.578 149.627 145.787 145.69 142.418 144.683C139.05 143.675 135.405 145.774 134.183 149.53C132.962 153.286 134.659 157.116 138.122 158.23C141.49 159.238 145.135 157.139 146.357 153.383Z" fill="url(#paint7_linear)"/>
</g>
</g>
</g>
<g id="Group_31">
<g id="Vector_40">
<g id="path163_fill-link_2">
<path id="path163_fill_2" d="M146.358 153.383C147.58 149.627 145.788 145.69 142.42 144.683C139.052 143.675 135.406 145.774 134.185 149.53C132.964 153.286 134.661 157.116 138.124 158.23C141.492 159.238 145.137 157.139 146.358 153.383Z" fill="url(#paint8_linear)"/>
</g>
</g>
<g id="Vector_41">
<g id="path164_fill-link">
<path id="path164_fill" fill-rule="evenodd" clip-rule="evenodd" d="M142.525 144.586C139.062 143.471 135.311 145.665 134.09 149.421C132.868 153.177 134.648 157.314 138.016 158.322C141.479 159.437 145.231 157.243 146.452 153.487C147.779 149.636 145.988 145.7 142.525 144.586ZM138.133 158.027C134.871 156.925 133.269 153.201 134.384 149.54C135.499 145.878 139.145 143.779 142.407 144.881C145.669 145.983 147.271 149.707 146.156 153.369C144.946 156.924 141.395 159.13 138.133 158.027Z" fill="#217588"/>
</g>
</g>
</g>
<g id="Vector_42" opacity="0.2">
<g id="path165_fill-link">
<path id="path165_fill" d="M148.731 154.129C150.339 148.885 148.026 143.506 143.275 142.013C138.524 140.519 133.415 143.538 131.713 148.676C130.105 153.921 132.418 159.299 137.169 160.793C142.015 162.393 147.123 159.374 148.731 154.129Z" fill="#E3FBED"/>
</g>
</g>
<g id="Vector_43">
<g id="path166_fill-link">
<path id="path166_fill" d="M138.641 156.306C141.037 157.076 143.68 155.52 144.545 152.83C145.41 150.14 144.169 147.335 141.773 146.564C139.378 145.794 136.734 147.351 135.87 150.041C135.005 152.731 136.246 155.536 138.641 156.306Z" fill="#C6EB8F"/>
</g>
</g>
<g id="Vector_44">
<g id="path167_fill-link">
<path id="path167_fill" d="M139.172 154.683C140.744 155.189 142.486 154.145 143.063 152.352C143.639 150.558 142.833 148.695 141.261 148.189C139.688 147.683 137.946 148.727 137.37 150.52C136.793 152.314 137.6 154.177 139.172 154.683Z" fill="#E3FBED"/>
</g>
</g>
</g>
<g id="Group_32">
<g id="Group_33">
<g id="Group_34" opacity="0.5">
<g id="Vector_45" opacity="0.5">
<g id="path168_fill-link">
<path id="path168_fill" d="M175.495 154.922C176.08 151.732 174.633 148.824 172.045 148.266C169.458 147.708 166.911 149.974 166.232 153.057C165.647 156.247 167.094 159.155 169.682 159.713C172.281 160.07 174.816 158.005 175.495 154.922Z" fill="url(#paint9_linear)"/>
</g>
</g>
</g>
</g>
<g id="Group_35">
<g id="Vector_46">
<g id="path168_fill-link_2">
<path id="path168_fill_2" d="M175.497 154.918C176.082 151.729 174.635 148.82 172.047 148.262C169.46 147.704 166.913 149.97 166.234 153.053C165.649 156.243 167.096 159.151 169.684 159.709C172.283 160.066 174.818 158.001 175.497 154.918Z" fill="url(#paint10_linear)"/>
</g>
</g>
<g id="Vector_47">
<g id="path169_fill-link">
<path id="path169_fill" fill-rule="evenodd" clip-rule="evenodd" d="M172.06 148.061C169.472 147.503 166.725 149.757 166.14 152.946C165.567 155.935 166.813 158.831 169.283 159.685C169.384 159.691 169.458 159.72 169.532 159.75C169.605 159.779 169.679 159.809 169.78 159.815C170.973 160.088 172.402 159.771 173.463 158.827C174.63 157.788 175.407 156.525 175.7 154.93C176.379 151.847 174.932 148.939 172.557 148.192C172.456 148.186 172.382 148.156 172.308 148.126C172.235 148.097 172.161 148.067 172.06 148.061ZM166.446 152.865C167.019 149.876 169.555 147.811 172.048 148.262C172.142 148.369 172.343 148.381 172.449 148.287C174.73 148.927 175.976 151.823 175.414 154.611C175.134 156.005 174.357 157.268 173.295 158.212C172.234 159.157 171.006 159.486 169.813 159.213C169.747 159.271 169.686 159.253 169.601 159.228C169.549 159.212 169.488 159.194 169.411 159.189C167.13 158.549 165.873 155.853 166.446 152.865Z" fill="#217588"/>
</g>
</g>
</g>
<g id="Vector_48" opacity="0.2">
<g id="path170_fill-link">
<path id="path170_fill" d="M177.294 155.228C178.147 150.846 175.966 146.684 172.48 145.972C168.995 145.259 165.303 148.162 164.344 152.639C163.49 157.021 165.671 161.183 169.157 161.895C172.843 162.62 176.44 159.611 177.294 155.228Z" fill="#E3FBED"/>
</g>
</g>
<g id="Vector_49">
<g id="path171_fill-link">
<path id="path171_fill" d="M170.038 158.016C171.887 158.39 173.765 156.821 174.231 154.512C174.698 152.203 173.577 150.029 171.727 149.655C169.878 149.281 168.001 150.85 167.534 153.159C167.068 155.468 168.189 157.642 170.038 158.016Z" fill="#C6EB8F"/>
</g>
</g>
<g id="Vector_50">
<g id="path172_fill-link">
<path id="path172_fill" d="M170.312 156.619C171.545 156.868 172.796 155.823 173.108 154.284C173.419 152.745 172.672 151.295 171.439 151.045C170.206 150.796 168.955 151.841 168.643 153.38C168.332 154.919 169.079 156.369 170.312 156.619Z" fill="#E3FBED"/>
</g>
</g>
</g>
<g id="Group_36">
<g id="Group_37">
<g id="Group_38" opacity="0.5">
<g id="Vector_51" opacity="0.5">
<g id="path173_fill-link">
<path id="path173_fill" d="M196.909 150.558C197.141 148.254 195.849 146.161 194.148 145.958C192.246 145.744 190.536 147.455 190.305 149.759C190.073 152.063 191.364 154.155 193.16 154.464C194.862 154.667 196.571 152.956 196.909 150.558Z" fill="url(#paint11_linear)"/>
</g>
</g>
</g>
</g>
<g id="Group_39">
<g id="Vector_52">
<g id="path173_fill-link_2">
<path id="path173_fill_2" d="M196.911 150.556C197.142 148.252 195.851 146.159 194.15 145.956C192.248 145.742 190.538 147.453 190.307 149.757C190.075 152.061 191.366 154.153 193.162 154.463C194.863 154.665 196.573 152.954 196.911 150.556Z" fill="url(#paint12_linear)"/>
</g>
</g>
<g id="Vector_53">
<g id="path174_fill-link">
<path id="path174_fill" fill-rule="evenodd" clip-rule="evenodd" d="M194.147 145.956C192.245 145.741 190.535 147.452 190.198 149.851C189.977 151.953 190.973 153.928 192.557 154.426C192.652 154.532 192.852 154.544 193.053 154.556C193.951 154.711 194.883 154.263 195.626 153.602C196.475 152.846 196.839 151.76 197.002 150.661C197.223 148.558 196.227 146.584 194.643 146.086C194.548 145.98 194.348 145.968 194.147 145.956ZM190.304 149.756C190.63 147.559 192.34 145.847 194.041 146.05C194.118 146.054 194.179 146.073 194.231 146.088C194.316 146.114 194.377 146.132 194.442 146.074C195.92 146.666 196.927 148.44 196.707 150.543C196.544 151.641 196.18 152.728 195.437 153.389C194.789 154.156 193.963 154.51 193.065 154.355C192.964 154.349 192.89 154.319 192.817 154.29C192.743 154.26 192.669 154.231 192.568 154.225C191.091 153.632 190.083 151.859 190.304 149.756Z" fill="#217588"/>
</g>
</g>
</g>
<g id="Vector_54" opacity="0.2">
<g id="path175_fill-link">
<path id="path175_fill" d="M192.954 156.167C195.531 156.46 197.922 154.041 198.295 150.763C198.667 147.486 196.88 144.591 194.303 144.298C191.726 144.005 189.335 146.424 188.962 149.702C188.589 152.979 190.376 155.874 192.954 156.167Z" fill="#E3FBED"/>
</g>
</g>
<g id="Vector_55">
<g id="path176_fill-link">
<path id="path176_fill" d="M193.259 153.345C194.586 153.496 195.82 152.226 196.015 150.509C196.21 148.793 195.292 147.279 193.964 147.128C192.637 146.978 191.403 148.247 191.208 149.964C191.013 151.68 191.931 153.194 193.259 153.345Z" fill="#C6EB8F"/>
</g>
</g>
<g id="Vector_56">
<g id="path177_fill-link">
<path id="path177_fill" d="M193.388 152.209C194.247 152.307 195.044 151.501 195.169 150.409C195.293 149.316 194.698 148.351 193.839 148.253C192.98 148.156 192.182 148.962 192.058 150.054C191.933 151.147 192.529 152.111 193.388 152.209Z" fill="#E3FBED"/>
</g>
</g>
</g>
</g>
</g>
<defs>
<linearGradient id="paint0_linear" x1="150.429" y1="81.0944" x2="67.7807" y2="154.624" gradientUnits="userSpaceOnUse">
<stop stop-color="#EB5223"/>
<stop offset="1" stop-color="#EB5223"/>
</linearGradient>
<linearGradient id="paint1_linear" x1="149.715" y1="77.7694" x2="73.1143" y2="145.919" gradientUnits="userSpaceOnUse">
<stop stop-color="#FF7438"/>
<stop offset="1" stop-color="#FF8C38"/>
</linearGradient>
<radialGradient id="paint2_radial" cx="0" cy="0" r="1" gradientUnits="userSpaceOnUse" gradientTransform="translate(111.371 97.7727) rotate(48.3414) scale(0.42407 0.267255)">
<stop offset="0.5699" stop-color="#FF7438"/>
<stop offset="1" stop-color="#B4370A"/>
</radialGradient>
<linearGradient id="paint3_linear" x1="103.21" y1="124.958" x2="88.0797" y2="129.495" gradientUnits="userSpaceOnUse">
<stop offset="0.2097" stop-color="#298992"/>
<stop offset="0.3558" stop-color="#308F99"/>
<stop offset="0.5709" stop-color="#44A1AC"/>
<stop offset="0.8272" stop-color="#64BFCB"/>
<stop offset="1" stop-color="#7ED6E4"/>
</linearGradient>
<linearGradient id="paint4_linear" x1="103.21" y1="124.958" x2="88.0797" y2="129.495" gradientUnits="userSpaceOnUse">
<stop offset="0.2097" stop-color="#298992"/>
<stop offset="0.3558" stop-color="#308F99"/>
<stop offset="0.5709" stop-color="#44A1AC"/>
<stop offset="0.8272" stop-color="#64BFCB"/>
<stop offset="1" stop-color="#7ED6E4"/>
</linearGradient>
<linearGradient id="paint5_linear" x1="66.8557" y1="112.929" x2="54.0953" y2="116.159" gradientUnits="userSpaceOnUse">
<stop offset="0.2097" stop-color="#298992"/>
<stop offset="0.3558" stop-color="#308F99"/>
<stop offset="0.5709" stop-color="#44A1AC"/>
<stop offset="0.8272" stop-color="#64BFCB"/>
<stop offset="1" stop-color="#7ED6E4"/>
</linearGradient>
<linearGradient id="paint6_linear" x1="66.8557" y1="112.929" x2="54.0953" y2="116.159" gradientUnits="userSpaceOnUse">
<stop offset="0.2097" stop-color="#298992"/>
<stop offset="0.3558" stop-color="#308F99"/>
<stop offset="0.5709" stop-color="#44A1AC"/>
<stop offset="0.8272" stop-color="#64BFCB"/>
<stop offset="1" stop-color="#7ED6E4"/>
</linearGradient>
<linearGradient id="paint7_linear" x1="136.468" y1="147.152" x2="144.601" y2="157.558" gradientUnits="userSpaceOnUse">
<stop offset="0.2097" stop-color="#298992"/>
<stop offset="0.3558" stop-color="#308F99"/>
<stop offset="0.5709" stop-color="#44A1AC"/>
<stop offset="0.8272" stop-color="#64BFCB"/>
<stop offset="1" stop-color="#7ED6E4"/>
</linearGradient>
<linearGradient id="paint8_linear" x1="136.47" y1="147.152" x2="144.603" y2="157.558" gradientUnits="userSpaceOnUse">
<stop offset="0.2097" stop-color="#298992"/>
<stop offset="0.3558" stop-color="#308F99"/>
<stop offset="0.5709" stop-color="#44A1AC"/>
<stop offset="0.8272" stop-color="#64BFCB"/>
<stop offset="1" stop-color="#7ED6E4"/>
</linearGradient>
<linearGradient id="paint9_linear" x1="167.474" y1="150.308" x2="174.159" y2="157.953" gradientUnits="userSpaceOnUse">
<stop offset="0.2097" stop-color="#298992"/>
<stop offset="0.3558" stop-color="#308F99"/>
<stop offset="0.5709" stop-color="#44A1AC"/>
<stop offset="0.8272" stop-color="#64BFCB"/>
<stop offset="1" stop-color="#7ED6E4"/>
</linearGradient>
<linearGradient id="paint10_linear" x1="167.476" y1="150.304" x2="174.161" y2="157.949" gradientUnits="userSpaceOnUse">
<stop offset="0.2097" stop-color="#298992"/>
<stop offset="0.3558" stop-color="#308F99"/>
<stop offset="0.5709" stop-color="#44A1AC"/>
<stop offset="0.8272" stop-color="#64BFCB"/>
<stop offset="1" stop-color="#7ED6E4"/>
</linearGradient>
<linearGradient id="paint11_linear" x1="191.026" y1="147.585" x2="196.198" y2="152.721" gradientUnits="userSpaceOnUse">
<stop offset="0.2097" stop-color="#298992"/>
<stop offset="0.3558" stop-color="#308F99"/>
<stop offset="0.5709" stop-color="#44A1AC"/>
<stop offset="0.8272" stop-color="#64BFCB"/>
<stop offset="1" stop-color="#7ED6E4"/>
</linearGradient>
<linearGradient id="paint12_linear" x1="191.028" y1="147.583" x2="196.2" y2="152.719" gradientUnits="userSpaceOnUse">
<stop offset="0.2097" stop-color="#298992"/>
<stop offset="0.3558" stop-color="#308F99"/>
<stop offset="0.5709" stop-color="#44A1AC"/>
<stop offset="0.8272" stop-color="#64BFCB"/>
<stop offset="1" stop-color="#7ED6E4"/>
</linearGradient>
</defs>
</svg>
