<svg width="320" height="29" viewBox="0 0 320 29" fill="none" xmlns="http://www.w3.org/2000/svg">
<rect y="14" width="320" height="1" rx="0.5" fill="url(#paint0_linear)"/>
<rect x="122" width="57" height="29" rx="14.5" fill="url(#paint1_linear)"/>
<path d="M136.265 10.6V19H135.401V11.368H133.421V10.6H136.265ZM143.669 19.06C143.157 19.06 142.665 18.988 142.193 18.844C141.729 18.692 141.365 18.504 141.101 18.28L141.485 17.608C141.749 17.816 142.081 17.988 142.481 18.124C142.881 18.252 143.297 18.316 143.729 18.316C144.305 18.316 144.729 18.228 145.001 18.052C145.281 17.868 145.421 17.612 145.421 17.284C145.421 17.052 145.345 16.872 145.193 16.744C145.041 16.608 144.849 16.508 144.617 16.444C144.385 16.372 144.077 16.304 143.693 16.24C143.181 16.144 142.769 16.048 142.457 15.952C142.145 15.848 141.877 15.676 141.653 15.436C141.437 15.196 141.329 14.864 141.329 14.44C141.329 13.912 141.549 13.48 141.989 13.144C142.429 12.808 143.041 12.64 143.825 12.64C144.233 12.64 144.641 12.696 145.049 12.808C145.457 12.912 145.793 13.052 146.057 13.228L145.685 13.912C145.165 13.552 144.545 13.372 143.825 13.372C143.281 13.372 142.869 13.468 142.589 13.66C142.317 13.852 142.181 14.104 142.181 14.416C142.181 14.656 142.257 14.848 142.409 14.992C142.569 15.136 142.765 15.244 142.997 15.316C143.229 15.38 143.549 15.448 143.957 15.52C144.461 15.616 144.865 15.712 145.169 15.808C145.473 15.904 145.733 16.068 145.949 16.3C146.165 16.532 146.273 16.852 146.273 17.26C146.273 17.812 146.041 18.252 145.577 18.58C145.121 18.9 144.485 19.06 143.669 19.06ZM151.172 18.616C151.012 18.76 150.812 18.872 150.572 18.952C150.34 19.024 150.096 19.06 149.84 19.06C149.248 19.06 148.792 18.9 148.472 18.58C148.152 18.26 147.992 17.808 147.992 17.224V13.408H146.864V12.688H147.992V11.308H148.844V12.688H150.764V13.408H148.844V17.176C148.844 17.552 148.936 17.84 149.12 18.04C149.312 18.232 149.584 18.328 149.936 18.328C150.112 18.328 150.28 18.3 150.44 18.244C150.608 18.188 150.752 18.108 150.872 18.004L151.172 18.616ZM157.997 16.108H152.717C152.765 16.764 153.017 17.296 153.473 17.704C153.929 18.104 154.505 18.304 155.201 18.304C155.593 18.304 155.953 18.236 156.281 18.1C156.609 17.956 156.893 17.748 157.133 17.476L157.613 18.028C157.333 18.364 156.981 18.62 156.557 18.796C156.141 18.972 155.681 19.06 155.177 19.06C154.529 19.06 153.953 18.924 153.449 18.652C152.953 18.372 152.565 17.988 152.285 17.5C152.005 17.012 151.865 16.46 151.865 15.844C151.865 15.228 151.997 14.676 152.261 14.188C152.533 13.7 152.901 13.32 153.365 13.048C153.837 12.776 154.365 12.64 154.949 12.64C155.533 12.64 156.057 12.776 156.521 13.048C156.985 13.32 157.349 13.7 157.613 14.188C157.877 14.668 158.009 15.22 158.009 15.844L157.997 16.108ZM154.949 13.372C154.341 13.372 153.829 13.568 153.413 13.96C153.005 14.344 152.773 14.848 152.717 15.472H157.193C157.137 14.848 156.901 14.344 156.485 13.96C156.077 13.568 155.565 13.372 154.949 13.372ZM162.995 12.64C163.587 12.64 164.123 12.776 164.603 13.048C165.083 13.312 165.459 13.688 165.731 14.176C166.003 14.664 166.139 15.22 166.139 15.844C166.139 16.476 166.003 17.036 165.731 17.524C165.459 18.012 165.083 18.392 164.603 18.664C164.131 18.928 163.595 19.06 162.995 19.06C162.483 19.06 162.019 18.956 161.603 18.748C161.195 18.532 160.859 18.22 160.595 17.812V21.328H159.743V12.688H160.559V13.936C160.815 13.52 161.151 13.2 161.567 12.976C161.991 12.752 162.467 12.64 162.995 12.64ZM162.935 18.304C163.375 18.304 163.775 18.204 164.135 18.004C164.495 17.796 164.775 17.504 164.975 17.128C165.183 16.752 165.287 16.324 165.287 15.844C165.287 15.364 165.183 14.94 164.975 14.572C164.775 14.196 164.495 13.904 164.135 13.696C163.775 13.488 163.375 13.384 162.935 13.384C162.487 13.384 162.083 13.488 161.723 13.696C161.371 13.904 161.091 14.196 160.883 14.572C160.683 14.94 160.583 15.364 160.583 15.844C160.583 16.324 160.683 16.752 160.883 17.128C161.091 17.504 161.371 17.796 161.723 18.004C162.083 18.204 162.487 18.304 162.935 18.304Z" fill="white"/>
<defs>
<linearGradient id="paint0_linear" x1="-9.37764e-07" y1="14.5128" x2="320" y2="14.5123" gradientUnits="userSpaceOnUse">
<stop stop-color="#8C5362"/>
<stop offset="1" stop-color="#713980"/>
</linearGradient>
<linearGradient id="paint1_linear" x1="122" y1="14.8718" x2="179" y2="14.8718" gradientUnits="userSpaceOnUse">
<stop stop-color="#8C5362"/>
<stop offset="1" stop-color="#713980"/>
</linearGradient>
</defs>
</svg>
