<svg width="12" height="12" viewBox="0 0 12 12" fill="none" xmlns="http://www.w3.org/2000/svg">
<path fill-rule="evenodd" clip-rule="evenodd" d="M7.09094 0H11.4545C11.7558 0 12 0.244216 12 0.545454V4.90904C12 5.21028 11.7558 5.4545 11.4545 5.4545C11.1533 5.4545 10.9091 5.21028 10.9091 4.90904V1.86227L5.29485 7.4765C5.18835 7.58304 5.04873 7.63627 4.90914 7.63627C4.76955 7.63627 4.62996 7.58302 4.52348 7.47652C4.31046 7.2635 4.31046 6.91818 4.52348 6.70515L10.1377 1.09091H7.09094C6.7897 1.09091 6.54548 0.846693 6.54548 0.545454C6.54548 0.244216 6.7897 0 7.09094 0ZM8.72715 5.99999C8.72715 5.69875 8.97137 5.45454 9.27261 5.45454C9.57385 5.45454 9.81806 5.69875 9.81809 5.99999V11.4545C9.81809 11.7557 9.57387 11.9999 9.27263 11.9999H0.545454C0.244216 11.9999 0 11.7557 0 11.4545V2.72731C0 2.42607 0.244216 2.18186 0.545454 2.18186H5.99993C6.30117 2.18186 6.54538 2.42605 6.54538 2.72729C6.54538 3.02853 6.30117 3.27274 5.99993 3.27274H1.09089V10.909H8.72715V5.99999Z" fill="#3F0E4D"/>
</svg>
