<svg width="24" height="24" viewBox="0 0 24 24" fill="none" xmlns="http://www.w3.org/2000/svg">
<path fill-rule="evenodd" clip-rule="evenodd" d="M12.4567 23.3213H1.28716C0.576073 23.3213 0 22.7449 0 22.0341V1.28715C0 0.576159 0.576163 0 1.28716 0H22.0343C22.7451 0 23.3213 0.576159 23.3213 1.28715V22.0341C23.3213 22.745 22.745 23.3213 22.0343 23.3213H16.0914V14.29H19.1228L19.5767 10.7704H16.0914V8.52329C16.0914 7.50427 16.3744 6.80984 17.8356 6.80984L19.6994 6.80902V3.66101C19.3771 3.61812 18.2707 3.52229 16.9836 3.52229C14.2964 3.52229 12.4567 5.16253 12.4567 8.17472V10.7704H9.41751V14.29H12.4567V23.3213Z" fill="white"/>
</svg>
