<svg width="24" height="24" viewBox="0 0 24 24" fill="none" xmlns="http://www.w3.org/2000/svg">
<path d="M17.2502 9.8257V7.21741C17.2502 4.33564 14.8994 2 12 2C9.10026 2 6.74994 4.33564 6.74994 7.21741V9.8257C5.78357 9.8257 5 10.6044 5 11.5647V20.2608C5 21.2214 5.78357 22 6.74994 22H17.2502C18.2166 22 19 21.2214 19 20.2608V11.5647C19.0001 10.6044 18.2166 9.8257 17.2502 9.8257ZM8.49999 7.21741C8.49999 5.29615 10.0671 3.73915 12 3.73915C13.933 3.73915 15.5002 5.2961 15.5002 7.21741V9.8257H8.49999V7.21741ZM17.2502 20.2608H6.74994V11.5652H17.2502V20.2608ZM11.125 16.5414V17.6521C11.125 18.1319 11.5171 18.5216 12 18.5216C12.4829 18.5216 12.8751 18.1319 12.8751 17.6521V16.5414C13.3954 16.2401 13.7501 15.6854 13.7501 15.0435C13.7501 14.0827 12.9664 13.3039 12 13.3039C11.0337 13.3039 10.2501 14.0827 10.2501 15.0435C10.2501 15.6854 10.6044 16.2401 11.125 16.5414Z" fill="#3F0E4D"/>
</svg>
