<?xml version="1.0" encoding="iso-8859-1"?>
<!-- Generator: Adobe Illustrator 16.0.0, SVG Export Plug-In . SVG Version: 6.00 Build 0)  -->
<!DOCTYPE svg PUBLIC "-//W3C//DTD SVG 1.1//EN" "http://www.w3.org/Graphics/SVG/1.1/DTD/svg11.dtd">
<svg version="1.1" id="Capa_1" xmlns="http://www.w3.org/2000/svg" xmlns:xlink="http://www.w3.org/1999/xlink" x="0px" y="0px"
	 width="61.415px" height="61.415px" viewBox="0 0 61.415 61.415" style="enable-background:new 0 0 61.415 61.415;"
	 xml:space="preserve">
<g>
	<path d="M58.359,7.237C57.921,3.181,54.518,0,50.348,0H11.066C6.895,0,3.492,3.179,3.055,7.237C2.083,8.71,1.51,10.469,1.51,12.363
		v39.709c0,5.16,4.184,9.343,9.343,9.343h39.709c5.16,0,9.343-4.183,9.343-9.343V12.363C59.903,10.467,59.331,8.71,58.359,7.237z
		 M5.301,8.098c0-1.772,0.82-3.339,2.082-4.396c1.001-0.841,2.277-1.369,3.683-1.369h19.058v0.684v50.124H11.066
		c-3.179,0-5.765-2.579-5.765-5.762V8.098z M35.551,3.018v5.447l2.271-1.906l2.274,1.906V3.018V2.333h10.254
		c1.412,0,2.68,0.528,3.679,1.369c1.264,1.056,2.085,2.623,2.085,4.396V47.38c0,3.173-2.582,5.762-5.764,5.762H31.292V3.018V2.333
		h4.261v0.684H35.551z M26.212,19.42h-8.09v-1.186h8.09V19.42z M26.212,23.942h-8.09v-1.189h8.09V23.942z M26.212,28.516H10.034
		v-1.189h16.178V28.516z M26.212,33.039H10.034v-1.193h16.178V33.039z M26.212,37.605H10.034v-1.19h16.178V37.605z M11.417,24.29
		l0.42-1.306h2.434l0.435,1.306h0.708h0.711l-2.27-6.417h-0.778H12.3l-2.271,6.417h0.696H11.417z M13.061,19.308l0.851,2.579h-1.703
		L13.061,19.308z M51.906,32.106h-16.18v-1.189h16.18V32.106z M51.906,36.675h-16.18v-1.19h16.18V36.675z M35.863,20.352h0.625
		h1.894c0.682,0,1.204,0.159,1.56,0.479c0.356,0.323,0.534,0.787,0.534,1.402c0,0.649-0.178,1.14-0.534,1.478
		c-0.355,0.339-0.876,0.505-1.56,0.505c-0.486-0.003-0.908,0-1.26,0.009v2.137h-0.629h-0.63V20.352z M37.118,23.18h1.044
		c0.35,0,0.618-0.076,0.794-0.236c0.174-0.152,0.265-0.388,0.265-0.701c0-0.287-0.091-0.501-0.265-0.644
		c-0.176-0.143-0.439-0.216-0.794-0.216h-1.044V23.18z M41.447,20.352h0.627h1.946c0.823,0,1.45,0.243,1.882,0.729
		c0.431,0.483,0.646,1.196,0.646,2.13c0,1.028-0.224,1.81-0.668,2.347c-0.445,0.537-1.103,0.804-1.96,0.804h-1.846h-0.627V20.352z
		 M42.699,25.328h1.062c0.511,0,0.894-0.171,1.146-0.519c0.254-0.343,0.382-0.862,0.382-1.551c0-0.624-0.119-1.092-0.354-1.404
		c-0.239-0.314-0.595-0.47-1.069-0.47h-1.163L42.699,25.328L42.699,25.328z M47.492,26.365v-6.008h4.279v0.532v0.535h-3.021v1.366
		h2.633v0.517v0.519h-2.633v2.543h-0.627h-0.632V26.365L47.492,26.365z"/>
</g>
<g>
</g>
<g>
</g>
<g>
</g>
<g>
</g>
<g>
</g>
<g>
</g>
<g>
</g>
<g>
</g>
<g>
</g>
<g>
</g>
<g>
</g>
<g>
</g>
<g>
</g>
<g>
</g>
<g>
</g>
</svg>
