<svg width="24" height="24" viewBox="0 0 24 24" fill="none" xmlns="http://www.w3.org/2000/svg">
<path fill-rule="evenodd" clip-rule="evenodd" d="M11.9211 0C5.4816 0 0.259766 5.22046 0.259766 11.6614C0.259766 16.4348 3.13122 20.5377 7.24095 22.3409C7.20804 21.5277 7.23546 20.5486 7.44253 19.6628C7.66742 18.7166 8.94271 13.3096 8.94271 13.3096C8.94271 13.3096 8.57109 12.565 8.57109 11.4639C8.57109 9.73608 9.57349 8.44571 10.82 8.44571C11.88 8.44571 12.3928 9.24242 12.3928 10.1968C12.3928 11.2623 11.7127 12.8571 11.363 14.334C11.0709 15.5722 11.9828 16.5801 13.2033 16.5801C15.4124 16.5801 16.9002 13.743 16.9002 10.3806C16.9002 7.82589 15.1793 5.91296 12.0487 5.91296C8.51213 5.91296 6.30848 8.54993 6.30848 11.4954C6.30848 12.5129 6.60742 13.2287 7.0764 13.7827C7.29306 14.0392 7.32185 14.1406 7.24369 14.4341C7.18884 14.6466 7.05994 15.165 7.00646 15.3693C6.9283 15.6641 6.68969 15.7711 6.42367 15.6614C4.79322 14.9963 4.0349 13.2123 4.0349 11.2061C4.0349 7.89445 6.82819 3.92049 12.3682 3.92049C16.8207 3.92049 19.7511 7.14437 19.7511 10.6014C19.7511 15.1759 17.2088 18.5932 13.4583 18.5932C12.2009 18.5932 11.0161 17.913 10.6102 17.141C10.6102 17.141 9.93277 19.8273 9.79016 20.3457C9.54333 21.2439 9.05927 22.1434 8.61634 22.8428C9.66537 23.1527 10.7734 23.3213 11.9211 23.3213C18.3607 23.3213 23.5811 18.1009 23.5811 11.6614C23.5811 5.22046 18.3607 0 11.9211 0Z" fill="white"/>
</svg>
