<?xml version="1.0" encoding="UTF-8" standalone="no"?>
<!-- Generator: Adobe Illustrator 19.0.0, SVG Export Plug-In . SVG Version: 6.00 Build 0)  -->

<svg
   xmlns:dc="http://purl.org/dc/elements/1.1/"
   xmlns:cc="http://creativecommons.org/ns#"
   xmlns:rdf="http://www.w3.org/1999/02/22-rdf-syntax-ns#"
   xmlns:svg="http://www.w3.org/2000/svg"
   xmlns="http://www.w3.org/2000/svg"
   xmlns:sodipodi="http://sodipodi.sourceforge.net/DTD/sodipodi-0.dtd"
   xmlns:inkscape="http://www.inkscape.org/namespaces/inkscape"
   version="1.1"
   id="Layer_1"
   x="0px"
   y="0px"
   viewBox="0 0 512 512"
   style="enable-background:new 0 0 512 512;"
   xml:space="preserve"
   inkscape:version="0.91 r13725"
   sodipodi:docname="ic_trash_red.svg"><metadata
     id="metadata73"><rdf:RDF><cc:Work
         rdf:about=""><dc:format>image/svg+xml</dc:format><dc:type
           rdf:resource="http://purl.org/dc/dcmitype/StillImage" /></cc:Work></rdf:RDF></metadata><defs
     id="defs71" /><sodipodi:namedview
     pagecolor="#ffffff"
     bordercolor="#666666"
     borderopacity="1"
     objecttolerance="10"
     gridtolerance="10"
     guidetolerance="10"
     inkscape:pageopacity="0"
     inkscape:pageshadow="2"
     inkscape:window-width="1283"
     inkscape:window-height="710"
     id="namedview69"
     showgrid="false"
     inkscape:zoom="0.4609375"
     inkscape:cx="172.42267"
     inkscape:cy="57.020764"
     inkscape:window-x="0"
     inkscape:window-y="0"
     inkscape:window-maximized="0"
     inkscape:current-layer="Layer_1" /><g
     id="g3"><g
       id="g5"><path
         d="M423.059,45.755h-97.156C321.093,19.757,298.267,0,270.897,0h-29.794c-27.37,0-50.196,19.757-55.006,45.755H88.941    c-5.633,0-10.199,4.567-10.199,10.199v62.781c0,5.632,4.566,10.199,10.199,10.199h13.21v372.867    c0,5.632,4.566,10.199,10.199,10.199H399.65c5.633,0,10.199-4.567,10.199-10.199V128.934h13.21    c5.633,0,10.199-4.567,10.199-10.199V55.954C433.258,50.322,428.692,45.755,423.059,45.755z M241.103,20.398h29.794    c16.063,0,29.672,10.706,34.065,25.356h-97.926C211.432,31.104,225.04,20.398,241.103,20.398z M389.45,491.602H122.55V128.934    H389.45V491.602z M412.861,108.536H99.14V66.153h313.72V108.536z"
         id="path7" /></g></g><g
     id="g9"><g
       id="g11"><path
         d="M256,151.099c-17.359,0-31.481,14.122-31.481,31.48v255.378c0,17.358,14.122,31.481,31.481,31.481    s31.481-14.123,31.481-31.481V182.579C287.481,165.22,273.359,151.099,256,151.099z M267.082,437.957    c0,6.11-4.972,11.082-11.082,11.082c-6.11,0-11.082-4.972-11.082-11.082V182.579c0-6.11,4.972-11.081,11.082-11.081    c6.11,0,11.082,4.971,11.082,11.081V437.957z"
         id="path13" /></g></g><g
     id="g15"><g
       id="g17"><path
         d="M171.938,151.099c-17.359,0-31.481,14.122-31.481,31.48v255.378c0,17.358,14.123,31.481,31.481,31.481    c17.359,0,31.481-14.123,31.481-31.481V182.579C203.419,165.22,189.297,151.099,171.938,151.099z M183.021,437.957    c0,6.11-4.972,11.082-11.082,11.082s-11.082-4.972-11.082-11.082V182.579c0-6.11,4.972-11.081,11.082-11.081    s11.082,4.971,11.082,11.081V437.957z"
         id="path19" /></g></g><g
     id="g21"><g
       id="g23"><path
         d="M340.062,151.099c-17.359,0-31.481,14.122-31.481,31.48v255.378c0,17.358,14.122,31.481,31.481,31.481    c17.359,0,31.481-14.123,31.481-31.481V182.579C371.543,165.22,357.421,151.099,340.062,151.099z M351.144,437.957    c0,6.11-4.972,11.082-11.082,11.082s-11.082-4.972-11.082-11.082V182.579c0-6.11,4.972-11.081,11.082-11.081    s11.082,4.971,11.082,11.081V437.957z"
         id="path25" /></g></g><g
     id="g27"><g
       id="g29"><path
         d="M218.758,79.806H118.735c-5.633,0-10.199,4.567-10.199,10.199c0,5.632,4.566,10.199,10.199,10.199h100.023    c5.633,0,10.199-4.567,10.199-10.199C228.957,84.373,224.391,79.806,218.758,79.806z"
         id="path31" /></g></g><g
     id="g33"><g
       id="g35"><path
         d="M259.192,79.806h-5.32c-5.633,0-10.199,4.567-10.199,10.199c0,5.632,4.566,10.199,10.199,10.199h5.32    c5.633,0,10.199-4.567,10.199-10.199C269.392,84.373,264.825,79.806,259.192,79.806z"
         id="path37" /></g></g><g
     id="g39" /><g
     id="g41" /><g
     id="g43" /><g
     id="g45" /><g
     id="g47" /><g
     id="g49" /><g
     id="g51" /><g
     id="g53" /><g
     id="g55" /><g
     id="g57" /><g
     id="g59" /><g
     id="g61" /><g
     id="g63" /><g
     id="g65" /><g
     id="g67" /><path
     style="opacity:0.81000001;fill:#aa0000;fill-opacity:1;stroke:#aa0000;stroke-width:2.18033886;stroke-miterlimit:4;stroke-dasharray:none"
     d="m 246.94818,466.94993 c -10.87679,-3.18616 -19.70758,-14.96119 -21.33484,-28.44803 -0.76374,-6.33001 -1.08477,-68.13283 -0.71338,-137.33961 0.624,-116.28067 0.97138,-126.37291 4.57718,-132.9773 11.25232,-20.60975 41.68958,-20.60975 52.9419,0 3.63873,6.66471 3.90193,16.31902 3.90193,143.12329 0,133.95131 -0.0666,136.06574 -4.47303,141.96764 -9.40121,12.59191 -21.88979,17.48502 -34.89976,13.67401 z m 17.52291,-20.58668 c 3.02525,-3.02525 3.4092,-18.41265 3.4092,-136.62795 l 0,-133.21875 -5.67372,-3.71756 c -5.08989,-3.33503 -6.26191,-3.38746 -11.38983,-0.50946 l -5.71611,3.20812 -0.55918,133.15139 c -0.51062,121.58806 -0.24591,133.49754 3.04811,137.13741 4.4214,4.88559 12.30344,5.15491 16.88153,0.5768 z"
     id="path4203"
     inkscape:connector-curvature="0" /><path
     style="opacity:0.81000001;fill:#aa0000;fill-opacity:1;stroke:#aa0000;stroke-width:2.18033886;stroke-miterlimit:4;stroke-dasharray:none"
     d=""
     id="path4205"
     inkscape:connector-curvature="0" /><path
     style="opacity:0.81000001;fill:#aa0000;fill-opacity:1;stroke:#aa0000;stroke-width:2.18033886;stroke-miterlimit:4;stroke-dasharray:none"
     d="m 331.81239,467.01575 c -3.61701,-1.06427 -8.85002,-4.05324 -11.62891,-6.64216 -11.14972,-10.38755 -11.08309,-9.47955 -11.07948,-151.00603 0.004,-147.00131 -0.53429,-141.53896 14.96153,-151.89084 13.36964,-8.9315 32.91062,-4.62679 41.40768,9.12176 4.26281,6.89737 4.37319,10.50803 4.37319,143.06321 0,148.33414 0.38405,143.62094 -12.44185,152.68692 -7.62793,5.39181 -17.1979,7.13704 -25.59216,4.66714 z m 17.30082,-22.06501 c 2.966,-4.23454 3.37725,-20.74605 3.37725,-135.59321 0,-127.87886 -0.096,-130.86749 -4.33898,-135.1105 -5.2218,-5.2218 -8.33124,-5.42518 -14.70372,-0.96172 l -4.8217,3.37725 0,133.14575 c 0,118.14893 0.38399,133.52974 3.4092,136.55494 4.89307,4.89307 13.13906,4.21105 17.07795,-1.41251 z"
     id="path4207"
     inkscape:connector-curvature="0" /><path
     style="opacity:0.81000001;fill:#aa0000;fill-opacity:1;stroke:#aa0000;stroke-width:2.18033886;stroke-miterlimit:4;stroke-dasharray:none"
     d="m 105.60233,507.91483 c -1.98487,-1.98487 -2.60339,-47.34312 -2.60339,-190.91526 l 0,-188.31186 -7.110497,0 c -3.910772,0 -9.280264,-1.51977 -11.932203,-3.37726 -4.636413,-3.24747 -4.821709,-4.69356 -4.821709,-37.629852 0,-30.428128 0.442984,-34.653499 3.967438,-37.843083 3.449809,-3.122035 10.481299,-3.590483 53.893881,-3.590483 l 49.92645,0 2.68143,-8.949808 c 3.67726,-12.273618 20.1157,-28.3562702 33.72242,-32.9925432 14.46734,-4.92952052 50.77654,-4.92952052 65.24389,0 13.6067,4.636273 30.04516,20.7189252 33.7224,32.9925432 l 2.68145,8.949808 50.30339,0 c 45.97789,0 50.61214,0.341155 53.89388,3.967438 3.01627,3.332919 3.59049,9.351121 3.59049,37.629857 0,38.076793 -1.07698,40.843383 -15.89964,40.843383 l -7.96477,0 0,188.31186 c 0,143.57214 -0.61852,188.93039 -2.60339,190.91526 -3.76511,3.76511 -296.92642,3.76511 -300.69152,0 z M 389.37182,310.925 l 0,-182.23729 -133.42373,0 -133.42373,0 0,182.23729 0,182.23729 133.42373,0 133.42373,0 0,-182.23729 z m 23.86441,-223.457629 0,-21.694915 -157.28814,0 -157.288135,0 0,21.694915 0,21.694919 157.288135,0 157.28814,0 0,-21.694919 z M 304.76165,43.159249 c 0,-4.419126 -10.28766,-16.036731 -17.50662,-19.769799 -4.35716,-2.253176 -13.45597,-3.176316 -31.30694,-3.176316 -27.80595,0 -33.58019,1.754505 -43.13141,13.105482 -10.8522,12.897108 -10.74775,12.928416 43.13141,12.928416 40.77399,0 48.81356,-0.508557 48.81356,-3.087783 z"
     id="path4209"
     inkscape:connector-curvature="0" /><path
     style="opacity:0.81000001;fill:#aa0000;fill-opacity:1;stroke:#aa0000;stroke-width:2.18033886;stroke-miterlimit:4;stroke-dasharray:none"
     d="m 246.33505,94.255511 c -3.05574,-5.709709 -0.83586,-10.872234 5.34176,-12.422718 10.94695,-2.747509 19.63493,4.022176 14.88792,11.60068 -3.58355,5.721072 -17.3093,6.278821 -20.22968,0.822038 z"
     id="path4211"
     inkscape:connector-curvature="0" /><path
     style="opacity:0.81000001;fill:#aa0000;fill-opacity:1;stroke:#aa0000;stroke-width:2.18033886;stroke-miterlimit:4;stroke-dasharray:none"
     d="m 112.1108,95.711439 c -1.43186,-1.431864 -2.60339,-4.165424 -2.60339,-6.074576 0,-8.122808 3.76517,-8.677966 58.85521,-8.677966 45.87864,0 54.14217,0.493747 57.05762,3.409201 4.03328,4.033279 4.06789,4.323264 1.16338,9.750373 -2.1294,3.978825 -5.08718,4.196358 -57.05762,4.196358 -39.73875,0 -55.52773,-0.715923 -57.4152,-2.60339 z"
     id="path4213"
     inkscape:connector-curvature="0" /><path
     style="opacity:0.81000001;fill:#aa0000;fill-opacity:1;stroke:#aa0000;stroke-width:2.18033886;stroke-miterlimit:4;stroke-dasharray:none"
     d="m 164.82945,467.7286 c -2.38644,-0.60876 -7.03846,-3.02236 -10.33782,-5.36355 -12.82294,-9.09902 -12.44184,-4.44607 -12.44184,-151.90854 0,-126.78927 0.2464,-135.65188 3.96423,-142.58417 7.86725,-14.66934 27.94697,-19.66116 41.81663,-10.39562 15.49858,10.35373 14.95777,4.85137 14.96153,152.22094 0.003,127.29304 -0.15586,132.52533 -4.28953,141.06434 -6.04952,12.49664 -21.22378,20.14237 -33.6732,16.9666 z m 14.24432,-20.20196 c 4.07944,-2.18327 4.19635,-5.98784 4.19635,-136.55495 l 0,-134.30913 -4.8217,-3.37725 c -6.37248,-4.46346 -9.48192,-4.26008 -14.70372,0.96172 -4.243,4.24301 -4.33898,7.23164 -4.33898,135.1105 0,114.84716 0.41125,131.35867 3.37725,135.59321 3.64617,5.20565 9.61391,6.14925 16.2908,2.5759 z"
     id="path4215"
     inkscape:connector-curvature="0" /></svg>