<svg width="24" height="24" viewBox="0 0 24 24" fill="none" xmlns="http://www.w3.org/2000/svg">
<path d="M12 4C16.9838 4 21.1302 7.58628 22 12.3187C21.1312 17.0511 16.9838 20.6374 12 20.6374C7.01618 20.6374 2.86977 17.0511 2 12.3187C2.86884 7.58628 7.01618 4 12 4ZM12 18.7888C13.8851 18.7884 15.7142 18.1481 17.188 16.9727C18.6617 15.7973 19.6929 14.1565 20.1126 12.3187C19.6913 10.4824 18.6595 8.84334 17.1859 7.66949C15.7123 6.49565 13.884 5.85648 12 5.85648C10.116 5.85648 8.28772 6.49565 6.8141 7.66949C5.34048 8.84334 4.30869 10.4824 3.88742 12.3187C4.30714 14.1565 5.33827 15.7973 6.81204 16.9727C8.28581 18.1481 10.1149 18.7884 12 18.7888ZM12 16.478C10.8969 16.478 9.83893 16.0398 9.0589 15.2598C8.27887 14.4798 7.84065 13.4218 7.84065 12.3187C7.84065 11.2156 8.27887 10.1576 9.0589 9.37759C9.83893 8.59757 10.8969 8.15935 12 8.15935C13.1031 8.15935 14.1611 8.59757 14.9411 9.37759C15.7211 10.1576 16.1593 11.2156 16.1593 12.3187C16.1593 13.4218 15.7211 14.4798 14.9411 15.2598C14.1611 16.0398 13.1031 16.478 12 16.478ZM12 14.6294C12.6128 14.6294 13.2006 14.386 13.6339 13.9526C14.0673 13.5193 14.3108 12.9315 14.3108 12.3187C14.3108 11.7058 14.0673 11.1181 13.6339 10.6848C13.2006 10.2514 12.6128 10.0079 12 10.0079C11.3872 10.0079 10.7994 10.2514 10.3661 10.6848C9.9327 11.1181 9.68925 11.7058 9.68925 12.3187C9.68925 12.9315 9.9327 13.5193 10.3661 13.9526C10.7994 14.386 11.3872 14.6294 12 14.6294Z" fill="#3F0E4D"/>
</svg>
