<svg width="70" height="70" viewBox="0 0 70 70" fill="none" xmlns="http://www.w3.org/2000/svg">
<path d="M32.75 1.87639C34.1423 1.07254 35.8577 1.07254 37.25 1.87639L62.5609 16.4896C63.9532 17.2935 64.8109 18.7791 64.8109 20.3868V49.6133C64.8109 51.2209 63.9532 52.7065 62.5609 53.5104L37.25 68.1236C35.8577 68.9275 34.1423 68.9275 32.75 68.1236L7.43911 53.5104C6.0468 52.7065 5.18911 51.2209 5.18911 49.6132V20.3867C5.18911 18.7791 6.04681 17.2935 7.43911 16.4896L32.75 1.87639Z" fill="url(#paint0_linear)" stroke="white"/>
<path d="M32.5 8.44338C34.047 7.55021 35.953 7.55021 37.5 8.44338L56.7487 19.5566C58.2957 20.4498 59.2487 22.1004 59.2487 23.8868V46.1132C59.2487 47.8996 58.2957 49.5502 56.7487 50.4434L37.5 61.5566C35.953 62.4498 34.047 62.4498 32.5 61.5566L13.2513 50.4434C11.7043 49.5502 10.7513 47.8996 10.7513 46.1132V23.8868C10.7513 22.1004 11.7043 20.4498 13.2513 19.5566L32.5 8.44338Z" fill="url(#paint1_linear)"/>
<path d="M32.75 8.87639C34.1423 8.07254 35.8577 8.07254 37.25 8.87639L56.4987 19.9896C57.891 20.7935 58.7487 22.2791 58.7487 23.8868V46.1132C58.7487 47.7209 57.891 49.2065 56.4987 50.0104L37.25 61.1236C35.8577 61.9275 34.1423 61.9275 32.75 61.1236L13.5013 50.0104C12.109 49.2065 11.2513 47.7209 11.2513 46.1132V23.8868C11.2513 22.2791 12.109 20.7935 13.5013 19.9896L32.75 8.87639Z" stroke="white" stroke-opacity="0.5"/>
<path fill-rule="evenodd" clip-rule="evenodd" d="M23.489 7.5279C23.7027 7.7096 23.8152 7.99886 23.7554 8.2682L22.8896 12.1731C22.8111 12.5268 22.4541 12.7174 22.0942 12.5893C21.7318 12.4603 21.507 12.0671 21.5864 11.7091L22.3849 8.10813L18.776 6.82326C18.4172 6.69552 18.1904 6.30338 18.2705 5.94179C18.3502 5.58272 18.7099 5.39672 19.0644 5.52293L22.9778 6.91624C23.2477 7.01234 23.443 7.2581 23.489 7.5279Z" fill="white"/>
<path d="M36 53C36 52.4477 35.5523 52 35 52C34.4477 52 34 52.4477 34 53C34 53.5523 34.4477 54 35 54C35.5523 54 36 53.5523 36 53Z" fill="white"/>
<path d="M36 16C36 15.4477 35.5523 15 35 15C34.4477 15 34 15.4477 34 16C34 16.5523 34.4477 17 35 17C35.5523 17 36 16.5523 36 16Z" fill="white"/>
<path d="M18 34C18 33.4477 17.5523 33 17 33C16.4477 33 16 33.4477 16 34C16 34.5523 16.4477 35 17 35C17.5523 35 18 34.5523 18 34Z" fill="white"/>
<path d="M54 34C54 33.4477 53.5523 33 53 33C52.4477 33 52 33.4477 52 34C52 34.5523 52.4477 35 53 35C53.5523 35 54 34.5523 54 34Z" fill="white"/>
<path d="M22.6261 48.2883C23.0166 47.8978 23.0166 47.2646 22.6261 46.8741C22.2355 46.4836 21.6024 46.4836 21.2118 46.8741C20.8213 47.2646 20.8213 47.8978 21.2118 48.2883C21.6024 48.6788 22.2355 48.6788 22.6261 48.2883Z" fill="white"/>
<path d="M48.7882 22.1252C49.1787 21.7347 49.1787 21.1015 48.7882 20.711C48.3976 20.3205 47.7645 20.3205 47.3739 20.711C46.9834 21.1015 46.9834 21.7347 47.3739 22.1252C47.7645 22.5157 48.3976 22.5157 48.7882 22.1252Z" fill="white"/>
<path d="M23.3331 22.1252C23.7236 21.7347 23.7236 21.1015 23.3331 20.711C22.9426 20.3205 22.3094 20.3205 21.9189 20.711C21.5283 21.1015 21.5283 21.7347 21.9189 22.1252C22.3094 22.5157 22.9426 22.5157 23.3331 22.1252Z" fill="white"/>
<path d="M48.7882 47.5813C49.1787 47.1907 49.1787 46.5576 48.7882 46.1671C48.3976 45.7765 47.7645 45.7765 47.3739 46.1671C46.9834 46.5576 46.9834 47.1907 47.3739 47.5813C47.7645 47.9718 48.3976 47.9718 48.7882 47.5813Z" fill="white"/>
<path fill-rule="evenodd" clip-rule="evenodd" d="M40 47H38V49H40V51H36V53.0066C36 53.5552 35.5561 54 35 54C34.4477 54 34 53.5551 34 53.0066V37.917C31.1623 37.441 29 34.973 29 32C29 28.6863 31.6863 26 35 26C38.3137 26 41 28.6863 41 32C41 34.973 38.8377 37.441 36 37.917V45H40V47ZM38 32C38 30.3431 36.6569 29 35 29C33.3431 29 32 30.3431 32 32C32 33.6569 33.3431 35 35 35C36.6569 35 38 33.6569 38 32Z" fill="#F5F9FC"/>
<defs>
<linearGradient id="paint0_linear" x1="70" y1="35" x2="-3.75936e-07" y2="35" gradientUnits="userSpaceOnUse">
<stop stop-color="#6B3385"/>
<stop offset="1" stop-color="#90575D"/>
</linearGradient>
<linearGradient id="paint1_linear" x1="63" y1="35" x2="7" y2="35" gradientUnits="userSpaceOnUse">
<stop stop-color="#6B3385"/>
<stop offset="1" stop-color="#90575D"/>
</linearGradient>
</defs>
</svg>
