<svg width="70" height="70" viewBox="0 0 70 70" fill="none" xmlns="http://www.w3.org/2000/svg">
<path d="M32.75 1.87639C34.1423 1.07254 35.8577 1.07254 37.25 1.87639L62.5609 16.4896C63.9532 17.2935 64.8109 18.7791 64.8109 20.3868V49.6133C64.8109 51.2209 63.9532 52.7065 62.5609 53.5104L37.25 68.1236C35.8577 68.9275 34.1423 68.9275 32.75 68.1236L7.43911 53.5104C6.0468 52.7065 5.18911 51.2209 5.18911 49.6132V20.3867C5.18911 18.7791 6.04681 17.2935 7.43911 16.4896L32.75 1.87639Z" fill="url(#paint0_linear)" stroke="white"/>
<path d="M32.5 8.44338C34.047 7.55021 35.953 7.55021 37.5 8.44338L56.7487 19.5566C58.2957 20.4498 59.2487 22.1004 59.2487 23.8868V46.1132C59.2487 47.8996 58.2957 49.5502 56.7487 50.4434L37.5 61.5566C35.953 62.4498 34.047 62.4498 32.5 61.5566L13.2513 50.4434C11.7043 49.5502 10.7513 47.8996 10.7513 46.1132V23.8868C10.7513 22.1004 11.7043 20.4498 13.2513 19.5566L32.5 8.44338Z" fill="url(#paint1_linear)"/>
<path d="M32.75 8.87639C34.1423 8.07254 35.8577 8.07254 37.25 8.87639L56.4987 19.9896C57.891 20.7935 58.7487 22.2791 58.7487 23.8868V46.1132C58.7487 47.7209 57.891 49.2065 56.4987 50.0104L37.25 61.1236C35.8577 61.9275 34.1423 61.9275 32.75 61.1236L13.5013 50.0104C12.109 49.2065 11.2513 47.7209 11.2513 46.1132V23.8868C11.2513 22.2791 12.109 20.7935 13.5013 19.9896L32.75 8.87639Z" stroke="white" stroke-opacity="0.5"/>
<path fill-rule="evenodd" clip-rule="evenodd" d="M11.0092 37.2772C11.2208 37.2474 11.4355 37.2196 11.6533 37.1941C12.1805 37.1323 12.6594 37.4983 12.7229 38.0115C12.7864 38.5247 12.4104 38.9909 11.8832 39.0527C11.5935 39.0867 11.3101 39.1248 11.0329 39.1669C11.011 38.758 11 38.3463 11 37.9321C11 37.7131 11.0031 37.4948 11.0092 37.2772ZM15.59 38.8719C15.059 38.8635 14.6356 38.4377 14.6442 37.9208C14.6528 37.4039 15.0903 36.9917 15.6213 37.0001C17.5098 37.03 19.4795 37.2272 21.5246 37.6117C22.046 37.7098 22.3871 38.2007 22.2864 38.7083C22.1856 39.2159 21.6813 39.5478 21.1599 39.4498C19.2254 39.0861 17.3672 38.9001 15.59 38.8719ZM24.7582 40.3708C24.2554 40.2044 23.9865 39.6727 24.1575 39.1833C24.3285 38.6938 24.8746 38.432 25.3774 38.5985C27.3863 39.2636 29.1892 40.1145 30.7934 41.11C31.2411 41.3879 31.3727 41.9666 31.0873 42.4025C30.8018 42.8384 30.2074 42.9665 29.7596 42.6886C28.2832 41.7723 26.6191 40.987 24.7582 40.3708ZM32.6741 44.887C32.2883 44.5318 32.2713 43.9394 32.6362 43.5638C33.0011 43.1882 33.6097 43.1717 33.9955 43.5269C34.9273 44.3848 35.5326 45.0982 35.8384 45.5447C36.133 45.9748 36.0136 46.5559 35.5717 46.8427C35.1299 47.1294 34.5329 47.0132 34.2383 46.5831C34.1893 46.5115 34.072 46.3572 33.8836 46.1351C33.5584 45.7519 33.1562 45.3309 32.6741 44.887Z" fill="white"/>
<path fill-rule="evenodd" clip-rule="evenodd" d="M58.9908 37.2772C58.7792 37.2474 58.5645 37.2196 58.3467 37.1941C57.8195 37.1323 57.3406 37.4983 57.2771 38.0115C57.2136 38.5247 57.5896 38.9909 58.1168 39.0527C58.4065 39.0867 58.6899 39.1248 58.9671 39.1669C58.989 38.758 59 38.3463 59 37.9321C59 37.7131 58.9969 37.4948 58.9908 37.2772ZM54.41 38.8719C54.941 38.8635 55.3644 38.4377 55.3558 37.9208C55.3472 37.4039 54.9097 36.9917 54.3787 37.0001C52.4902 37.03 50.5205 37.2272 48.4754 37.6117C47.954 37.7098 47.6129 38.2007 47.7136 38.7083C47.8144 39.2159 48.3187 39.5478 48.8401 39.4498C50.7746 39.0861 52.6328 38.9001 54.41 38.8719ZM45.2418 40.3708C45.7446 40.2044 46.0135 39.6727 45.8425 39.1833C45.6715 38.6938 45.1254 38.432 44.6226 38.5985C42.6137 39.2636 40.8108 40.1145 39.2066 41.11C38.7589 41.3879 38.6273 41.9666 38.9127 42.4025C39.1982 42.8384 39.7926 42.9665 40.2404 42.6886C41.7168 41.7723 43.3809 40.987 45.2418 40.3708ZM37.3259 44.887C37.7117 44.5318 37.7287 43.9394 37.3638 43.5638C36.9989 43.1882 36.3903 43.1717 36.0045 43.5269C35.0727 44.3848 34.4674 45.0982 34.1616 45.5447C33.867 45.9748 33.9864 46.5559 34.4283 46.8427C34.8701 47.1294 35.4671 47.0132 35.7617 46.5831C35.8107 46.5115 35.928 46.3572 36.1164 46.1351C36.4416 45.7519 36.8438 45.3309 37.3259 44.887Z" fill="white"/>
<path fill-rule="evenodd" clip-rule="evenodd" d="M34.4032 40.1988C34.4032 40.1988 28 31.866 28 28C28 24.134 31.134 21 35 21C38.866 21 42 24.134 42 28C42 31.866 35.5968 40.1988 35.5968 40.1988C35.2659 40.6469 34.7328 40.6413 34.4032 40.1988ZM35 31C36.6569 31 38 29.6569 38 28C38 26.3431 36.6569 25 35 25C33.3431 25 32 26.3431 32 28C32 29.6569 33.3431 31 35 31Z" fill="white"/>
<defs>
<linearGradient id="paint0_linear" x1="70" y1="35" x2="-3.75936e-07" y2="35" gradientUnits="userSpaceOnUse">
<stop stop-color="#6B3385"/>
<stop offset="1" stop-color="#90575D"/>
</linearGradient>
<linearGradient id="paint1_linear" x1="63" y1="35" x2="7" y2="35" gradientUnits="userSpaceOnUse">
<stop stop-color="#6B3385"/>
<stop offset="1" stop-color="#90575D"/>
</linearGradient>
</defs>
</svg>
