<svg width="70" height="70" viewBox="0 0 70 70" fill="none" xmlns="http://www.w3.org/2000/svg">
<path d="M32.75 1.87639C34.1423 1.07254 35.8577 1.07254 37.25 1.87639L62.5609 16.4896C63.9532 17.2935 64.8109 18.7791 64.8109 20.3868V49.6133C64.8109 51.2209 63.9532 52.7065 62.5609 53.5104L37.25 68.1236C35.8577 68.9275 34.1423 68.9275 32.75 68.1236L7.43911 53.5104C6.0468 52.7065 5.18911 51.2209 5.18911 49.6132V20.3867C5.18911 18.7791 6.04681 17.2935 7.43911 16.4896L32.75 1.87639Z" fill="url(#paint0_linear)" stroke="white"/>
<path d="M32.5 8.44338C34.047 7.55021 35.953 7.55021 37.5 8.44338L56.7487 19.5566C58.2957 20.4498 59.2487 22.1004 59.2487 23.8868V46.1132C59.2487 47.8996 58.2957 49.5502 56.7487 50.4434L37.5 61.5566C35.953 62.4498 34.047 62.4498 32.5 61.5566L13.2513 50.4434C11.7043 49.5502 10.7513 47.8996 10.7513 46.1132V23.8868C10.7513 22.1004 11.7043 20.4498 13.2513 19.5566L32.5 8.44338Z" fill="url(#paint1_linear)"/>
<path d="M32.75 8.87639C34.1423 8.07254 35.8577 8.07254 37.25 8.87639L56.4987 19.9896C57.891 20.7935 58.7487 22.2791 58.7487 23.8868V46.1132C58.7487 47.7209 57.891 49.2065 56.4987 50.0104L37.25 61.1236C35.8577 61.9275 34.1423 61.9275 32.75 61.1236L13.5013 50.0104C12.109 49.2065 11.2513 47.7209 11.2513 46.1132V23.8868C11.2513 22.2791 12.109 20.7935 13.5013 19.9896L32.75 8.87639Z" stroke="white" stroke-opacity="0.5"/>
<mask id="mask0" mask-type="alpha" maskUnits="userSpaceOnUse" x="21" y="17" width="28" height="36">
<path d="M34.5802 17C43.587 17 49 24.4294 49 29.599C49 34.7687 49 38.9968 49 38.9968C49 46.7306 42.7337 53 35 53C27.268 53 21 46.7404 21 38.9968C21 38.9968 21 34.7687 21 29.599C21 24.4294 25.5734 17 34.5802 17Z" fill="white"/>
</mask>
<g mask="url(#mask0)">
<path d="M34.5802 17C43.587 17 49 24.4294 49 29.599C49 34.7687 49 38.9968 49 38.9968C49 46.7306 42.7337 53 35 53C27.268 53 21 46.7404 21 38.9968C21 38.9968 21 34.7687 21 29.599C21 24.4294 25.5734 17 34.5802 17Z" fill="url(#paint2_linear)"/>
<path fill-rule="evenodd" clip-rule="evenodd" d="M38 42.4529V55.0001H32V42.5095C27.0921 41.1947 26.04 36.7178 26.04 36.7178V31.6778L29.4156 27.0801C29.4156 27.0801 34.2475 31.6778 43.9584 31.6778V36.7178C43.9584 36.7178 42.7829 41.071 38 42.4529Z" fill="white"/>
<path fill-rule="evenodd" clip-rule="evenodd" d="M31.7261 46.1494L21 52V55H49V52L38.2739 46.1494C37.5501 46.6639 36.3536 47 35 47C33.6464 47 32.4499 46.6639 31.7261 46.1494Z" fill="#87808A"/>
</g>
<defs>
<linearGradient id="paint0_linear" x1="70" y1="35" x2="-3.75936e-07" y2="35" gradientUnits="userSpaceOnUse">
<stop stop-color="#6B3385"/>
<stop offset="1" stop-color="#90575D"/>
</linearGradient>
<linearGradient id="paint1_linear" x1="63" y1="35" x2="7" y2="35" gradientUnits="userSpaceOnUse">
<stop stop-color="#6B3385"/>
<stop offset="1" stop-color="#90575D"/>
</linearGradient>
<linearGradient id="paint2_linear" x1="14.5" y1="41" x2="55.5" y2="41" gradientUnits="userSpaceOnUse">
<stop stop-color="#6B3385"/>
<stop offset="1" stop-color="#90575D"/>
</linearGradient>
</defs>
</svg>
