<svg width="321" height="29" viewBox="0 0 321 29" fill="none" xmlns="http://www.w3.org/2000/svg">
<rect y="14" width="321" height="1" rx="0.5" fill="url(#paint0_linear)"/>
<rect x="133" width="57" height="29" rx="14.5" fill="url(#paint1_linear)"/>
<path d="M149.43 18.232V19H143.538V18.388L147.03 14.968C147.47 14.536 147.766 14.164 147.918 13.852C148.078 13.532 148.158 13.212 148.158 12.892C148.158 12.396 147.986 12.012 147.642 11.74C147.306 11.46 146.822 11.32 146.19 11.32C145.206 11.32 144.442 11.632 143.898 12.256L143.286 11.728C143.614 11.344 144.03 11.048 144.534 10.84C145.046 10.632 145.622 10.528 146.262 10.528C147.118 10.528 147.794 10.732 148.29 11.14C148.794 11.54 149.046 12.092 149.046 12.796C149.046 13.228 148.95 13.644 148.758 14.044C148.566 14.444 148.202 14.904 147.666 15.424L144.81 18.232H149.43ZM155.911 19.06C155.399 19.06 154.907 18.988 154.435 18.844C153.971 18.692 153.607 18.504 153.343 18.28L153.727 17.608C153.991 17.816 154.323 17.988 154.723 18.124C155.123 18.252 155.539 18.316 155.971 18.316C156.547 18.316 156.971 18.228 157.243 18.052C157.523 17.868 157.663 17.612 157.663 17.284C157.663 17.052 157.587 16.872 157.435 16.744C157.283 16.608 157.091 16.508 156.859 16.444C156.627 16.372 156.319 16.304 155.935 16.24C155.423 16.144 155.011 16.048 154.699 15.952C154.387 15.848 154.119 15.676 153.895 15.436C153.679 15.196 153.571 14.864 153.571 14.44C153.571 13.912 153.791 13.48 154.231 13.144C154.671 12.808 155.283 12.64 156.067 12.64C156.475 12.64 156.883 12.696 157.291 12.808C157.699 12.912 158.035 13.052 158.299 13.228L157.927 13.912C157.407 13.552 156.787 13.372 156.067 13.372C155.523 13.372 155.111 13.468 154.831 13.66C154.559 13.852 154.423 14.104 154.423 14.416C154.423 14.656 154.499 14.848 154.651 14.992C154.811 15.136 155.007 15.244 155.239 15.316C155.471 15.38 155.791 15.448 156.199 15.52C156.703 15.616 157.107 15.712 157.411 15.808C157.715 15.904 157.975 16.068 158.191 16.3C158.407 16.532 158.515 16.852 158.515 17.26C158.515 17.812 158.283 18.252 157.819 18.58C157.363 18.9 156.727 19.06 155.911 19.06ZM163.414 18.616C163.254 18.76 163.054 18.872 162.814 18.952C162.582 19.024 162.338 19.06 162.082 19.06C161.49 19.06 161.034 18.9 160.714 18.58C160.394 18.26 160.234 17.808 160.234 17.224V13.408H159.106V12.688H160.234V11.308H161.086V12.688H163.006V13.408H161.086V17.176C161.086 17.552 161.178 17.84 161.362 18.04C161.554 18.232 161.826 18.328 162.178 18.328C162.354 18.328 162.522 18.3 162.682 18.244C162.85 18.188 162.994 18.108 163.114 18.004L163.414 18.616ZM170.239 16.108H164.959C165.007 16.764 165.259 17.296 165.715 17.704C166.171 18.104 166.747 18.304 167.443 18.304C167.835 18.304 168.195 18.236 168.523 18.1C168.851 17.956 169.135 17.748 169.375 17.476L169.855 18.028C169.575 18.364 169.223 18.62 168.799 18.796C168.383 18.972 167.923 19.06 167.419 19.06C166.771 19.06 166.195 18.924 165.691 18.652C165.195 18.372 164.807 17.988 164.527 17.5C164.247 17.012 164.107 16.46 164.107 15.844C164.107 15.228 164.239 14.676 164.503 14.188C164.775 13.7 165.143 13.32 165.607 13.048C166.079 12.776 166.607 12.64 167.191 12.64C167.775 12.64 168.299 12.776 168.763 13.048C169.227 13.32 169.591 13.7 169.855 14.188C170.119 14.668 170.251 15.22 170.251 15.844L170.239 16.108ZM167.191 13.372C166.583 13.372 166.071 13.568 165.655 13.96C165.247 14.344 165.015 14.848 164.959 15.472H169.435C169.379 14.848 169.143 14.344 168.727 13.96C168.319 13.568 167.807 13.372 167.191 13.372ZM175.237 12.64C175.829 12.64 176.365 12.776 176.845 13.048C177.325 13.312 177.701 13.688 177.973 14.176C178.245 14.664 178.381 15.22 178.381 15.844C178.381 16.476 178.245 17.036 177.973 17.524C177.701 18.012 177.325 18.392 176.845 18.664C176.373 18.928 175.837 19.06 175.237 19.06C174.725 19.06 174.261 18.956 173.845 18.748C173.437 18.532 173.101 18.22 172.837 17.812V21.328H171.985V12.688H172.801V13.936C173.057 13.52 173.393 13.2 173.809 12.976C174.233 12.752 174.709 12.64 175.237 12.64ZM175.177 18.304C175.617 18.304 176.017 18.204 176.377 18.004C176.737 17.796 177.017 17.504 177.217 17.128C177.425 16.752 177.529 16.324 177.529 15.844C177.529 15.364 177.425 14.94 177.217 14.572C177.017 14.196 176.737 13.904 176.377 13.696C176.017 13.488 175.617 13.384 175.177 13.384C174.729 13.384 174.325 13.488 173.965 13.696C173.613 13.904 173.333 14.196 173.125 14.572C172.925 14.94 172.825 15.364 172.825 15.844C172.825 16.324 172.925 16.752 173.125 17.128C173.333 17.504 173.613 17.796 173.965 18.004C174.325 18.204 174.729 18.304 175.177 18.304Z" fill="white"/>
<defs>
<linearGradient id="paint0_linear" x1="-9.40694e-07" y1="14.5128" x2="321" y2="14.5123" gradientUnits="userSpaceOnUse">
<stop stop-color="#8C5362"/>
<stop offset="1" stop-color="#713980"/>
</linearGradient>
<linearGradient id="paint1_linear" x1="133" y1="14.8718" x2="190" y2="14.8718" gradientUnits="userSpaceOnUse">
<stop stop-color="#8C5362"/>
<stop offset="1" stop-color="#713980"/>
</linearGradient>
</defs>
</svg>
