<svg width="28" height="20" viewBox="0 0 28 20" fill="none" xmlns="http://www.w3.org/2000/svg">
<rect x="0.25" y="0.25" width="27.5" height="19.5" rx="1.75" fill="white" stroke="#F5F5F5" stroke-width="0.5"/>
<mask id="mask0" mask-type="alpha" maskUnits="userSpaceOnUse" x="0" y="0" width="28" height="20">
<rect x="0.25" y="0.25" width="27.5" height="19.5" rx="1.75" fill="white" stroke="white" stroke-width="0.5"/>
</mask>
<g mask="url(#mask0)">
<rect x="20" width="8" height="20" fill="#FF3131"/>
<path fill-rule="evenodd" clip-rule="evenodd" d="M0 20H8V0H0V20Z" fill="#FF3131"/>
<path fill-rule="evenodd" clip-rule="evenodd" d="M16.1118 9.22151C15.8786 9.45471 15.4845 9.24383 15.5492 8.92043L16 6.66665L14.6666 7.33331L14 5.33331L13.3333 7.33331L12 6.66665L12.4507 8.92043C12.5154 9.24383 12.1214 9.45471 11.8882 9.22151L11.569 8.90235C11.4388 8.77217 11.2278 8.77217 11.0976 8.90235L10.6666 9.33331L9.33331 8.66665L9.99998 9.99998L9.56901 10.4309C9.43884 10.5611 9.43884 10.7722 9.56902 10.9023L11.3333 12.6666H13.3333L13.6666 14.6666H14.3333L14.6666 12.6666H16.6666L18.4309 10.9023C18.5611 10.7722 18.5611 10.5611 18.4309 10.4309L18 9.99998L18.6666 8.66665L17.3333 9.33331L16.9023 8.90235C16.7722 8.77217 16.5611 8.77217 16.4309 8.90235L16.1118 9.22151Z" fill="#FF3131"/>
</g>
</svg>
