<svg width="28" height="20" viewBox="0 0 28 20" fill="none" xmlns="http://www.w3.org/2000/svg">
<rect width="28" height="20" rx="2" fill="white"/>
<mask id="mask0" mask-type="alpha" maskUnits="userSpaceOnUse" x="0" y="0" width="28" height="20">
<rect width="28" height="20" rx="2" fill="white"/>
</mask>
<g mask="url(#mask0)">
<path fill-rule="evenodd" clip-rule="evenodd" d="M0 5.33333H28V0H0V5.33333Z" fill="#262626"/>
<path fill-rule="evenodd" clip-rule="evenodd" d="M0 20H28V14.6667H0V20Z" fill="#018301"/>
<path fill-rule="evenodd" clip-rule="evenodd" d="M0 14.6667H28V5.33333H0V14.6667Z" fill="white"/>
<path fill-rule="evenodd" clip-rule="evenodd" d="M0 13.3333H28V6.66667H0V13.3333Z" fill="#DC0808"/>
<path fill-rule="evenodd" clip-rule="evenodd" d="M14 16.6667C15.3334 16.6667 17.3334 14.0501 17.3334 9.99999C17.3334 5.94991 15.3334 3.33333 14 3.33333C12.6667 3.33333 10.6667 5.94991 10.6667 9.99999C10.6667 14.0501 12.6667 16.6667 14 16.6667Z" fill="#BC0000"/>
<mask id="mask1" mask-type="alpha" maskUnits="userSpaceOnUse" x="10" y="3" width="8" height="14">
<path fill-rule="evenodd" clip-rule="evenodd" d="M14 16.6667C15.3334 16.6667 17.3334 14.0501 17.3334 9.99999C17.3334 5.94991 15.3334 3.33333 14 3.33333C12.6667 3.33333 10.6667 5.94991 10.6667 9.99999C10.6667 14.0501 12.6667 16.6667 14 16.6667Z" fill="white"/>
</mask>
<g mask="url(#mask1)">
<path fill-rule="evenodd" clip-rule="evenodd" d="M8.66671 17.3333C10.5077 17.3333 12 14.0501 12 9.99999C12 5.9499 10.5077 2.66666 8.66671 2.66666C6.82576 2.66666 5.33337 5.9499 5.33337 9.99999C5.33337 14.0501 6.82576 17.3333 8.66671 17.3333Z" fill="#262626"/>
<path fill-rule="evenodd" clip-rule="evenodd" d="M19.3333 17.3333C21.1743 17.3333 22.6667 14.0501 22.6667 9.99999C22.6667 5.9499 21.1743 2.66666 19.3333 2.66666C17.4924 2.66666 16 5.9499 16 9.99999C16 14.0501 17.4924 17.3333 19.3333 17.3333Z" fill="#262626"/>
<g filter="url(#filter0_d)">
<path fill-rule="evenodd" clip-rule="evenodd" d="M14 7.99999C14.3682 7.99999 14.6667 6.80608 14.6667 5.33332C14.6667 3.86056 14.3682 2.66666 14 2.66666C13.6319 2.66666 13.3334 3.86056 13.3334 5.33332C13.3334 6.80608 13.6319 7.99999 14 7.99999ZM14 12C14.3682 12 14.6667 11.1046 14.6667 9.99999C14.6667 8.89542 14.3682 7.99999 14 7.99999C13.6319 7.99999 13.3334 8.89542 13.3334 9.99999C13.3334 11.1046 13.6319 12 14 12ZM14 12C13.6319 12 13.3334 13.1939 13.3334 14.6667C13.3334 16.1394 13.6319 17.3333 14 17.3333C14.3682 17.3333 14.6667 16.1394 14.6667 14.6667C14.6667 13.1939 14.3682 12 14 12Z" fill="url(#paint0_linear)"/>
</g>
</g>
</g>
<defs>
<filter id="filter0_d" x="13.3334" y="2.66666" width="1.33333" height="15.6667" filterUnits="userSpaceOnUse" color-interpolation-filters="sRGB">
<feFlood flood-opacity="0" result="BackgroundImageFix"/>
<feColorMatrix in="SourceAlpha" type="matrix" values="0 0 0 0 0 0 0 0 0 0 0 0 0 0 0 0 0 0 127 0"/>
<feOffset dy="1"/>
<feColorMatrix type="matrix" values="0 0 0 0 0 0 0 0 0 0 0 0 0 0 0 0 0 0 0.06 0"/>
<feBlend mode="normal" in2="BackgroundImageFix" result="effect1_dropShadow"/>
<feBlend mode="normal" in="SourceGraphic" in2="effect1_dropShadow" result="shape"/>
</filter>
<linearGradient id="paint0_linear" x1="13.3334" y1="2.66666" x2="13.3334" y2="17.3333" gradientUnits="userSpaceOnUse">
<stop stop-color="white"/>
<stop offset="1" stop-color="#F0F0F0"/>
</linearGradient>
</defs>
</svg>
