<svg width="28" height="20" viewBox="0 0 28 20" fill="none" xmlns="http://www.w3.org/2000/svg">
<rect width="28" height="20" rx="2" fill="white"/>
<mask id="mask0" mask-type="alpha" maskUnits="userSpaceOnUse" x="0" y="0" width="28" height="20">
<rect width="28" height="20" rx="2" fill="white"/>
</mask>
<g mask="url(#mask0)">
<path fill-rule="evenodd" clip-rule="evenodd" d="M0 5.33333H28V0H0V5.33333Z" fill="#0F3EB6"/>
<path fill-rule="evenodd" clip-rule="evenodd" d="M0 20H28V14.6667H0V20Z" fill="#0F3EB6"/>
<path fill-rule="evenodd" clip-rule="evenodd" d="M0 14.6667H28V5.33333H0V14.6667Z" fill="#ED1A3C"/>
<path fill-rule="evenodd" clip-rule="evenodd" d="M12 8.72721H13.3334V8C13.3334 7.63181 13.6318 7.33333 14 7.33333C14.3682 7.33333 14.6667 7.63181 14.6667 7.99999V8.72721H16V9.99999H12V8.72721ZM17.3334 7.99999C16.9652 7.99999 16.6667 8.29847 16.6667 8.66666V9.99999H18V8.66666C18 8.29847 17.7015 7.99999 17.3334 7.99999ZM11.3334 13.3333V10.6667H10L8.66669 13.3333H11.3334ZM16 10.6667H12V13.3333H16V10.6667ZM16.6667 10.6667H18L19.3334 13.3333H16.6667V10.6667ZM10.6667 7.99999C10.2985 7.99999 10 8.29847 10 8.66666V9.99999H11.3334V8.66666C11.3334 8.29847 11.0349 7.99999 10.6667 7.99999Z" fill="white"/>
</g>
</svg>
