<svg width="28" height="20" viewBox="0 0 28 20" fill="none" xmlns="http://www.w3.org/2000/svg">
<rect x="0.25" y="0.25" width="27.5" height="19.5" rx="1.75" fill="white" stroke="#F5F5F5" stroke-width="0.5"/>
<mask id="mask0" mask-type="alpha" maskUnits="userSpaceOnUse" x="0" y="0" width="28" height="20">
<rect x="0.25" y="0.25" width="27.5" height="19.5" rx="1.75" fill="white" stroke="white" stroke-width="0.5"/>
</mask>
<g mask="url(#mask0)">
<path fill-rule="evenodd" clip-rule="evenodd" d="M28 0H8V20H28V0Z" fill="#0A632F"/>
<path fill-rule="evenodd" clip-rule="evenodd" d="M23.6701 10.7505C23.5418 12.0012 23.0087 13.2029 22.0665 14.1451C19.8206 16.391 16.1005 16.3121 13.7574 13.969C11.4142 11.6258 11.3353 7.90569 13.5812 5.65983C14.5234 4.71761 15.7251 4.18456 16.9758 4.05623C16.5818 4.28839 16.209 4.57486 15.8685 4.91528C13.8268 6.95698 13.7258 10.1662 15.643 12.0833C17.5601 14.0005 20.7693 13.8995 22.811 11.8578C23.1515 11.5174 23.4379 11.1445 23.6701 10.7505ZM21.0924 8.10469L20.7742 10.0031L19.8849 8.29595L17.981 8.57994L19.3298 7.20661L18.4714 5.48369L20.1943 6.34211L21.5677 4.99329L21.2837 6.89715L22.9908 7.78646L21.0924 8.10469Z" fill="white"/>
</g>
</svg>
