<svg width="28" height="20" viewBox="0 0 28 20" fill="none" xmlns="http://www.w3.org/2000/svg">
<rect width="28" height="20" rx="2" fill="white"/>
<mask id="mask0" mask-type="alpha" maskUnits="userSpaceOnUse" x="0" y="0" width="28" height="20">
<rect width="28" height="20" rx="2" fill="white"/>
</mask>
<g mask="url(#mask0)">
<path fill-rule="evenodd" clip-rule="evenodd" d="M28 0H0V1.33333H28V0ZM28 2.66667H0V4H28V2.66667ZM0 5.33333H28V6.66667H0V5.33333ZM28 8H0V9.33333H28V8ZM0 10.6667H28V12H0V10.6667ZM28 13.3333H0V14.6667H28V13.3333ZM0 16H28V17.3333H0V16ZM28 18.6667H0V20H28V18.6667Z" fill="#D02F44"/>
<rect width="12" height="9.33333" fill="#46467F"/>
<g filter="url(#filter0_d)">
<path fill-rule="evenodd" clip-rule="evenodd" d="M2.66665 2.00001C2.66665 2.3682 2.36817 2.66668 1.99998 2.66668C1.63179 2.66668 1.33331 2.3682 1.33331 2.00001C1.33331 1.63182 1.63179 1.33334 1.99998 1.33334C2.36817 1.33334 2.66665 1.63182 2.66665 2.00001ZM5.33331 2.00001C5.33331 2.3682 5.03484 2.66668 4.66665 2.66668C4.29846 2.66668 3.99998 2.3682 3.99998 2.00001C3.99998 1.63182 4.29846 1.33334 4.66665 1.33334C5.03484 1.33334 5.33331 1.63182 5.33331 2.00001ZM7.33331 2.66668C7.7015 2.66668 7.99998 2.3682 7.99998 2.00001C7.99998 1.63182 7.7015 1.33334 7.33331 1.33334C6.96512 1.33334 6.66665 1.63182 6.66665 2.00001C6.66665 2.3682 6.96512 2.66668 7.33331 2.66668ZM10.6666 2.00001C10.6666 2.3682 10.3682 2.66668 9.99998 2.66668C9.63179 2.66668 9.33331 2.3682 9.33331 2.00001C9.33331 1.63182 9.63179 1.33334 9.99998 1.33334C10.3682 1.33334 10.6666 1.63182 10.6666 2.00001ZM3.33331 4.00001C3.7015 4.00001 3.99998 3.70153 3.99998 3.33334C3.99998 2.96515 3.7015 2.66668 3.33331 2.66668C2.96512 2.66668 2.66665 2.96515 2.66665 3.33334C2.66665 3.70153 2.96512 4.00001 3.33331 4.00001ZM6.66665 3.33334C6.66665 3.70153 6.36817 4.00001 5.99998 4.00001C5.63179 4.00001 5.33331 3.70153 5.33331 3.33334C5.33331 2.96515 5.63179 2.66668 5.99998 2.66668C6.36817 2.66668 6.66665 2.96515 6.66665 3.33334ZM8.66665 4.00001C9.03484 4.00001 9.33331 3.70153 9.33331 3.33334C9.33331 2.96515 9.03484 2.66668 8.66665 2.66668C8.29846 2.66668 7.99998 2.96515 7.99998 3.33334C7.99998 3.70153 8.29846 4.00001 8.66665 4.00001ZM10.6666 4.66668C10.6666 5.03487 10.3682 5.33334 9.99998 5.33334C9.63179 5.33334 9.33331 5.03487 9.33331 4.66668C9.33331 4.29849 9.63179 4.00001 9.99998 4.00001C10.3682 4.00001 10.6666 4.29849 10.6666 4.66668ZM7.33331 5.33334C7.7015 5.33334 7.99998 5.03487 7.99998 4.66668C7.99998 4.29849 7.7015 4.00001 7.33331 4.00001C6.96512 4.00001 6.66665 4.29849 6.66665 4.66668C6.66665 5.03487 6.96512 5.33334 7.33331 5.33334ZM5.33331 4.66668C5.33331 5.03487 5.03484 5.33334 4.66665 5.33334C4.29846 5.33334 3.99998 5.03487 3.99998 4.66668C3.99998 4.29849 4.29846 4.00001 4.66665 4.00001C5.03484 4.00001 5.33331 4.29849 5.33331 4.66668ZM1.99998 5.33334C2.36817 5.33334 2.66665 5.03487 2.66665 4.66668C2.66665 4.29849 2.36817 4.00001 1.99998 4.00001C1.63179 4.00001 1.33331 4.29849 1.33331 4.66668C1.33331 5.03487 1.63179 5.33334 1.99998 5.33334ZM3.99998 6.00001C3.99998 6.3682 3.7015 6.66668 3.33331 6.66668C2.96512 6.66668 2.66665 6.3682 2.66665 6.00001C2.66665 5.63182 2.96512 5.33334 3.33331 5.33334C3.7015 5.33334 3.99998 5.63182 3.99998 6.00001ZM5.99998 6.66668C6.36817 6.66668 6.66665 6.3682 6.66665 6.00001C6.66665 5.63182 6.36817 5.33334 5.99998 5.33334C5.63179 5.33334 5.33331 5.63182 5.33331 6.00001C5.33331 6.3682 5.63179 6.66668 5.99998 6.66668ZM9.33331 6.00001C9.33331 6.3682 9.03484 6.66668 8.66665 6.66668C8.29846 6.66668 7.99998 6.3682 7.99998 6.00001C7.99998 5.63182 8.29846 5.33334 8.66665 5.33334C9.03484 5.33334 9.33331 5.63182 9.33331 6.00001ZM9.99998 8.00001C10.3682 8.00001 10.6666 7.70153 10.6666 7.33334C10.6666 6.96515 10.3682 6.66668 9.99998 6.66668C9.63179 6.66668 9.33331 6.96515 9.33331 7.33334C9.33331 7.70153 9.63179 8.00001 9.99998 8.00001ZM7.99998 7.33334C7.99998 7.70153 7.7015 8.00001 7.33331 8.00001C6.96512 8.00001 6.66665 7.70153 6.66665 7.33334C6.66665 6.96515 6.96512 6.66668 7.33331 6.66668C7.7015 6.66668 7.99998 6.96515 7.99998 7.33334ZM4.66665 8.00001C5.03484 8.00001 5.33331 7.70153 5.33331 7.33334C5.33331 6.96515 5.03484 6.66668 4.66665 6.66668C4.29846 6.66668 3.99998 6.96515 3.99998 7.33334C3.99998 7.70153 4.29846 8.00001 4.66665 8.00001ZM2.66665 7.33334C2.66665 7.70153 2.36817 8.00001 1.99998 8.00001C1.63179 8.00001 1.33331 7.70153 1.33331 7.33334C1.33331 6.96515 1.63179 6.66668 1.99998 6.66668C2.36817 6.66668 2.66665 6.96515 2.66665 7.33334Z" fill="url(#paint0_linear)"/>
</g>
</g>
<defs>
<filter id="filter0_d" x="1.33331" y="1.33334" width="9.33333" height="7.66667" filterUnits="userSpaceOnUse" color-interpolation-filters="sRGB">
<feFlood flood-opacity="0" result="BackgroundImageFix"/>
<feColorMatrix in="SourceAlpha" type="matrix" values="0 0 0 0 0 0 0 0 0 0 0 0 0 0 0 0 0 0 127 0"/>
<feOffset dy="1"/>
<feColorMatrix type="matrix" values="0 0 0 0 0 0 0 0 0 0 0 0 0 0 0 0 0 0 0.06 0"/>
<feBlend mode="normal" in2="BackgroundImageFix" result="effect1_dropShadow"/>
<feBlend mode="normal" in="SourceGraphic" in2="effect1_dropShadow" result="shape"/>
</filter>
<linearGradient id="paint0_linear" x1="1.33331" y1="1.33334" x2="1.33331" y2="8.00001" gradientUnits="userSpaceOnUse">
<stop stop-color="white"/>
<stop offset="1" stop-color="#F0F0F0"/>
</linearGradient>
</defs>
</svg>
