<svg width="27" height="32" viewBox="0 0 27 32" fill="none" xmlns="http://www.w3.org/2000/svg">
<path fill-rule="evenodd" clip-rule="evenodd" d="M17.8195 5.10984C18.846 3.78472 19.6242 1.91179 19.3427 0C17.665 0.116595 15.7039 1.19001 14.5597 2.58916C13.5166 3.8569 12.6593 5.74278 12.9941 7.57315C14.8282 7.63052 16.7212 6.53119 17.8195 5.10984ZM26.8853 23.0933C26.1512 24.7293 25.798 25.4603 24.8525 26.9095C23.5334 28.9323 21.6736 31.4511 19.3666 31.4696C17.3191 31.4918 16.7911 30.1279 14.0114 30.1445C11.2318 30.1593 10.6523 31.4955 8.60106 31.4752C6.29599 31.4548 4.53362 29.1821 3.2146 27.1593C-0.475724 21.5072 -0.863889 14.8724 1.41175 11.3431C3.03063 8.83718 5.58405 7.37141 7.98294 7.37141C10.4241 7.37141 11.9602 8.71873 13.982 8.71873C15.9431 8.71873 17.137 7.36771 19.9608 7.36771C22.0985 7.36771 24.3631 8.53921 25.9746 10.5602C20.6912 13.4732 21.5466 21.063 26.8853 23.0933Z" fill="white"/>
</svg>
